<svg xmlns="http://www.w3.org/2000/svg" width="21.97" height="21" viewBox="0 0 21.97 21">
  <metadata><?xpacket begin="﻿" id="W5M0MpCehiHzreSzNTczkc9d"?>
<x:xmpmeta xmlns:x="adobe:ns:meta/" x:xmptk="Adobe XMP Core 5.6-c142 79.160924, 2017/07/13-01:06:39        ">
   <rdf:RDF xmlns:rdf="http://www.w3.org/1999/02/22-rdf-syntax-ns#">
      <rdf:Description rdf:about=""/>
   </rdf:RDF>
</x:xmpmeta>
                                                                                                    
                                                                                                    
                                                                                                    
                                                                                                    
                                                                                                    
                                                                                                    
                                                                                                    
                                                                                                    
                                                                                                    
                                                                                                    
                                                                                                    
                                                                                                    
                                                                                                    
                                                                                                    
                                                                                                    
                                                                                                    
                                                                                                    
                                                                                                    
                                                                                                    
                                                                                                    
                           
<?xpacket end="w"?></metadata>
<defs>
    <style>
      .cls-1 {
        fill: #ea4766;
        fill-rule: evenodd;
      }
    </style>
  </defs>
  <path id="无法作答icon" class="cls-1" d="M1239.01,751.516a2.714,2.714,0,0,0-2.15,1.7l-6.85,12.394a2.979,2.979,0,0,0-.35,2.8,2.627,2.627,0,0,0,2.45,1.088h13.8a2.609,2.609,0,0,0,2.45-1.086,2.949,2.949,0,0,0-.34-2.806l-6.85-12.394a2.724,2.724,0,0,0-2.16-1.7m6.9,19.493h-13.8a3.94,3.94,0,0,1-3.69-1.841,4.449,4.449,0,0,1,.35-4.309l6.85-12.394a3.569,3.569,0,0,1,6.78,0l6.85,12.394a4.429,4.429,0,0,1,.35,4.312,3.942,3.942,0,0,1-3.69,1.838m-5.92-13.824a1.089,1.089,0,0,0-.43-1,0.94,0.94,0,0,0-1.03-.058,1.091,1.091,0,0,0-.52.947h0l0.22,5.068v0.008a0.846,0.846,0,0,0,.39.736,0.729,0.729,0,0,0,.79-0.011,0.858,0.858,0,0,0,.37-0.747l0.21-4.943h0Zm-1.01,9.826a1,1,0,0,0,.88-0.493,1.018,1.018,0,0,0,0-1.013,1,1,0,1,0-.88,1.506" transform="translate(-1228.03 -750)"/>
</svg>
