<svg id="分享成就_h" xmlns="http://www.w3.org/2000/svg" width="187" height="55" viewBox="0 0 187 55">
  <metadata><?xpacket begin="﻿" id="W5M0MpCehiHzreSzNTczkc9d"?>
<x:xmpmeta xmlns:x="adobe:ns:meta/" x:xmptk="Adobe XMP Core 5.6-c142 79.160924, 2017/07/13-01:06:39        ">
   <rdf:RDF xmlns:rdf="http://www.w3.org/1999/02/22-rdf-syntax-ns#">
      <rdf:Description rdf:about=""/>
   </rdf:RDF>
</x:xmpmeta>
                                                                                                    
                                                                                                    
                                                                                                    
                                                                                                    
                                                                                                    
                                                                                                    
                                                                                                    
                                                                                                    
                                                                                                    
                                                                                                    
                                                                                                    
                                                                                                    
                                                                                                    
                                                                                                    
                                                                                                    
                                                                                                    
                                                                                                    
                                                                                                    
                                                                                                    
                                                                                                    
                           
<?xpacket end="w"?></metadata>
<defs>
    <style>
      .cls-1 {
        fill: #93e5b6;
      }

      .cls-1, .cls-2 {
        stroke: #2d267f;
        stroke-miterlimit: 10;
        stroke-width: 1px;
      }

      .cls-1, .cls-2, .cls-3 {
        fill-rule: evenodd;
      }

      .cls-2 {
        fill: #fff;
      }

      .cls-3 {
        fill: #2d267f;
      }
    </style>
  </defs>
  <path id="图层_1017" data-name="图层 1017" class="cls-1" d="M1546.5,670.5h-178a4.006,4.006,0,0,1-3.99-4.018V620.524a4.006,4.006,0,0,1,3.99-4.018h178a4.006,4.006,0,0,1,3.99,4.018V666.48A4.006,4.006,0,0,1,1546.5,670.5Z" transform="translate(-1364 -616)"/>
  <path id="图层_1018" data-name="图层 1018" class="cls-2" d="M1546.51,616.509h-57.02V670.5h57.02a4,4,0,0,0,3.98-4.019v-45.95A4,4,0,0,0,1546.51,616.509Z" transform="translate(-1364 -616)"/>
  <path id="分享成就" class="cls-3" d="M1402.92,641.8a22.421,22.421,0,0,1-4.97-4.14,16.259,16.259,0,0,1-2.97-5.268l-2.24.816a23.256,23.256,0,0,0,2.36,4.7,18.658,18.658,0,0,0,3.24,3.7h-13.49a25.38,25.38,0,0,0,3.33-3.72,22.106,22.106,0,0,0,2.43-4.248l-2.31-.912a19.376,19.376,0,0,1-3.08,4.908,26.043,26.043,0,0,1-4.5,4.188l1.37,2.112q1.08-.84,2.04-1.68v1.752h3.14l-0.12,1.1a11.223,11.223,0,0,1-.74,3.108,6.674,6.674,0,0,1-1.74,2.328,17.174,17.174,0,0,1-3.54,2.292l1.85,1.992a21.32,21.32,0,0,0,3.98-2.928,8.565,8.565,0,0,0,2.03-2.976,12.1,12.1,0,0,0,.71-3.792l0.07-1.128h6l-0.43,5.568a4.124,4.124,0,0,1-.3,1.236,1.077,1.077,0,0,1-.68.54,7.035,7.035,0,0,1-1.45.216l-2.18.144,0.74,2.424,2.14-.144a8.3,8.3,0,0,0,2.31-.408,2.361,2.361,0,0,0,1.25-1.008,4.988,4.988,0,0,0,.57-1.968q0.135-1.44.36-4.44c0.14-2,.24-3.5.28-4.512a30.235,30.235,0,0,0,3.22,2.448Zm14.18-6.984-0.43-1.224-0.31-.888-2.45.336,0.6,1.776h-9.07v1.9h19.85v-1.9h-8.19Zm-9.28,3.048v4.8h15.14v-4.8h-15.14Zm12.88,3.072H1410V639.52h10.7v1.416Zm-2.83,6.816,5.81-2.28v-1.824h-16.8v1.824h12.53l-4.99,1.9v0.384h-9.65V649.7h9.65v1.176a1.853,1.853,0,0,1-.11.732,0.581,0.581,0,0,1-.39.312,4.682,4.682,0,0,1-.92.132l-1.94.144,0.69,2.232,1.9-.144a7.541,7.541,0,0,0,1.94-.336,1.559,1.559,0,0,0,.91-0.768,3.465,3.465,0,0,0,.27-1.536V649.7h9.21v-1.944h-8.11Zm30.15,0.36q-0.315,1.44-.48,1.968a8.839,8.839,0,0,1-.48,1.272,0.561,0.561,0,0,1-.48.336,1.959,1.959,0,0,1-1.52-1.08,14.5,14.5,0,0,1-1.08-2.112,21.9,21.9,0,0,0,2.19-3.564,38.5,38.5,0,0,0,1.77-4.356l-2.06-.864a32.652,32.652,0,0,1-1.26,3.348,21.46,21.46,0,0,1-1.48,2.772,47.317,47.317,0,0,1-1.1-7.248h7.13v-2.352h-2.79l0.84-.984a32.875,32.875,0,0,0-2.85-2.9l-1.54,1.536c0.75,0.688,1.53,1.472,2.33,2.352h-3.34l-0.26-3.408-2.33-.1,0.27,3.5h-9.1v6.408a28.845,28.845,0,0,1-.28,4.44,12.94,12.94,0,0,1-.85,3.144,21.816,21.816,0,0,1-1.65,3.1l2.28,1.08a22.085,22.085,0,0,0,2.1-4.908,24.232,24.232,0,0,0,.75-5.8h3.34c-0.02.576-.05,1.412-0.1,2.508s-0.09,1.8-.12,2.124a2.856,2.856,0,0,1-.2.864,0.812,0.812,0,0,1-.47.384,5.981,5.981,0,0,1-1.18.216l-1.05.12,0.72,2.28,1.22-.144a6.827,6.827,0,0,0,1.98-.432,1.66,1.66,0,0,0,.89-0.876,6.38,6.38,0,0,0,.37-1.788c0.05-.48.12-1.74,0.22-3.78s0.14-3.292.14-3.756h-5.76v-2.832h6.94a42.4,42.4,0,0,0,1.77,9.5,27.751,27.751,0,0,1-4.36,3.888l1.51,1.728a27.134,27.134,0,0,0,3.77-3.312c0.3,0.56.48,0.9,0.55,1.008a8.484,8.484,0,0,0,1.79,2.16,2.819,2.819,0,0,0,1.78.648,2.3,2.3,0,0,0,1.68-.648,5.648,5.648,0,0,0,1.2-2.4c0.16-.512.35-1.224,0.56-2.136Zm11.11-12.936q-0.39-1.44-.75-2.4l-2.11.36,0.6,2.04h-4.27v2.136h10.58v-2.136h-4.05Zm13.75,2.952h-5.86c0-.944.04-2.7,0.1-5.28l-2.11-.072-0.05,5.352h-1.97v2.16h1.92a31.305,31.305,0,0,1-.54,5.016,15.148,15.148,0,0,1-1.28,3.72c-0.55-.976-1.17-1.968-1.87-2.976l-1.61,1.1a17.575,17.575,0,0,1,.96,1.512c0.33,0.592.63,1.16,0.89,1.7l1.6-1.32a22.065,22.065,0,0,1-2.68,3.888l1.89,1.44a27,27,0,0,0,2.7-4.14,16.667,16.667,0,0,0,1.45-4.224,33.015,33.015,0,0,0,.58-5.724h5.88v-2.16Zm-0.41-1.776c-0.43-.5-0.95-1.076-1.57-1.74s-1.14-1.2-1.57-1.6l-1.42,1.344c0.48,0.48,1.03,1.064,1.66,1.752s1.11,1.264,1.46,1.728Zm-10.29,2.64h-8.62V645.4h3.43v5.208a2.157,2.157,0,0,1-.09.732,0.615,0.615,0,0,1-.36.324,4.338,4.338,0,0,1-.84.168l-1.25.12,0.69,2.112,1.52-.144a5.364,5.364,0,0,0,1.57-.324,1.358,1.358,0,0,0,.73-0.744,4.467,4.467,0,0,0,.22-1.6V645.4h3v-6.408Zm-2.09,4.464h-4.44v-2.544h4.44v2.544Zm11.66,4.752a16.885,16.885,0,0,1-.19,2.688,1.887,1.887,0,0,1-.2.708,0.6,0.6,0,0,1-.5.18h-0.64a0.558,0.558,0,0,1-.5-0.18,1.688,1.688,0,0,1-.1-0.732v-9.744l-2.19-.1V651.3c0,1.7.75,2.544,2.26,2.544h1.34a2.68,2.68,0,0,0,1.29-.252,1.6,1.6,0,0,0,.67-0.78,5.737,5.737,0,0,0,.35-1.488q0.12-.96.21-2.52Zm-17.57-2.064a14.91,14.91,0,0,1-.98,2.424c-0.43.864-1.02,1.952-1.75,3.264l1.82,0.984c0.69-1.184,1.26-2.232,1.72-3.144a18.049,18.049,0,0,0,1.11-2.76Z" transform="translate(-1364 -616)"/>
  <path id="形状_2" data-name="形状 2" class="cls-3" d="M1521.9,633.986v2.964h3.05l-5.65,5.651,2.1,2.1,5.65-5.651V642.1h2.96v-8.117h-8.11Zm5.15,17.061h-14.1v-14.1h4.21v-2.964h-7.17V654.01h20.02v-7.418h-2.96v4.455Z" transform="translate(-1364 -616)"/>
</svg>
