<svg id="炮弹icon" xmlns="http://www.w3.org/2000/svg" width="51.56" height="52.093" viewBox="0 0 51.56 52.093">
  <metadata><?xpacket begin="﻿" id="W5M0MpCehiHzreSzNTczkc9d"?>
<x:xmpmeta xmlns:x="adobe:ns:meta/" x:xmptk="Adobe XMP Core 5.6-c142 79.160924, 2017/07/13-01:06:39        ">
   <rdf:RDF xmlns:rdf="http://www.w3.org/1999/02/22-rdf-syntax-ns#">
      <rdf:Description rdf:about=""/>
   </rdf:RDF>
</x:xmpmeta>
                                                                                                    
                                                                                                    
                                                                                                    
                                                                                                    
                                                                                                    
                                                                                                    
                                                                                                    
                                                                                                    
                                                                                                    
                                                                                                    
                                                                                                    
                                                                                                    
                                                                                                    
                                                                                                    
                                                                                                    
                                                                                                    
                                                                                                    
                                                                                                    
                                                                                                    
                                                                                                    
                           
<?xpacket end="w"?></metadata>
<defs>
    <style>
      .cls-1 {
        fill: #2d267f;
      }

      .cls-1, .cls-2 {
        fill-rule: evenodd;
      }

      .cls-2 {
        fill: #fff;
      }
    </style>
  </defs>
  <path id="图层_1046" data-name="图层 1046" class="cls-1" d="M1260.64,592.254l-7.1,7.106a0.574,0.574,0,0,1-.81,0l-16.1-16.1,7.92-7.911,16.09,16.1A0.556,0.556,0,0,1,1260.64,592.254Zm-28.38-13.369a1.592,1.592,0,0,1-.45-0.888l-1.29-8.818,8.77,1.346a1.6,1.6,0,0,1,.88.445l2.12,2.12L1234.37,581Zm-8.51,12.515-2.12-2.116a1.584,1.584,0,0,1-.44-0.889l-1.29-8.818,8.76,1.346a1.562,1.562,0,0,1,.88.445l2.12,2.12Zm-10.62,10.4-2.12-2.117a1.592,1.592,0,0,1-.45-0.888l-1.28-8.818,8.76,1.346a1.6,1.6,0,0,1,.88.445l2.12,2.12Zm20.05,4.225a10.823,10.823,0,0,1,2.05-3.146l-9.22-9.217,7.91-7.912,15.47,15.468a10.96,10.96,0,1,1-14.41,16.254l-2.69,2.687a0.566,0.566,0,0,1-.8,0l-16.1-16.1,7.91-7.911Z" transform="translate(-1209.28 -569.188)"/>
  <path id="图层_1047" data-name="图层 1047" class="cls-2" d="M1243.27,602.2a8.107,8.107,0,1,0,8.1,8.106,8.118,8.118,0,0,0-8.1-8.106" transform="translate(-1209.28 -569.188)"/>
  <path id="图层_1049" data-name="图层 1049" class="cls-1" d="M1248.04,611.446h-3.64v3.633h-2.27v-3.633h-3.63v-2.271h3.63v-3.633h2.27v3.633h3.64v2.271Z" transform="translate(-1209.28 -569.188)"/>
</svg>
