<svg id="积分icon" xmlns="http://www.w3.org/2000/svg" width="49.15" height="53.093" viewBox="0 0 49.15 53.093">
  <metadata><?xpacket begin="﻿" id="W5M0MpCehiHzreSzNTczkc9d"?>
<x:xmpmeta xmlns:x="adobe:ns:meta/" x:xmptk="Adobe XMP Core 5.6-c142 79.160924, 2017/07/13-01:06:39        ">
   <rdf:RDF xmlns:rdf="http://www.w3.org/1999/02/22-rdf-syntax-ns#">
      <rdf:Description rdf:about=""/>
   </rdf:RDF>
</x:xmpmeta>
                                                                                                    
                                                                                                    
                                                                                                    
                                                                                                    
                                                                                                    
                                                                                                    
                                                                                                    
                                                                                                    
                                                                                                    
                                                                                                    
                                                                                                    
                                                                                                    
                                                                                                    
                                                                                                    
                                                                                                    
                                                                                                    
                                                                                                    
                                                                                                    
                                                                                                    
                                                                                                    
                           
<?xpacket end="w"?></metadata>
<defs>
    <style>
      .cls-1 {
        fill: #fff;
        stroke: #2d267f;
        stroke-miterlimit: 10;
        stroke-width: 1px;
      }

      .cls-1, .cls-2 {
        fill-rule: evenodd;
      }

      .cls-2 {
        fill: #2d267f;
      }
    </style>
  </defs>
  <path id="图层_1054" data-name="图层 1054" class="cls-1" d="M1058.86,607.583v12.2a1.493,1.493,0,0,1-2.55,1.055l-18.54-18.544a1.088,1.088,0,0,1-.32-0.762v-2.562a1.083,1.083,0,0,1,1.08-1.078h10.64Z" transform="translate(-1036.94 -568.688)"/>
  <path id="图层_1056" data-name="图层 1056" class="cls-2" d="M1059.48,601.777l-4.5-4.5a0.967,0.967,0,0,1-.29-0.7v-2.7a0.97,0.97,0,0,1,.29-0.7l4.5-4.5a0.986,0.986,0,0,1,.7-0.289h2.7a0.963,0.963,0,0,1,.69.289l4.51,4.5a1.012,1.012,0,0,1,.29.7v2.7a1.009,1.009,0,0,1-.29.7l-4.51,4.5a0.963,0.963,0,0,1-.69.289h-2.7a0.986,0.986,0,0,1-.7-0.289m-0.62-31.1v12.2l-9.69,9.689h-10.64a1.083,1.083,0,0,1-1.08-1.078v-2.562a1.09,1.09,0,0,1,.32-0.762l18.54-18.544a1.493,1.493,0,0,1,2.55,1.056m26.73,28.3v2.569a1.082,1.082,0,0,1-.31.762l-18.53,18.537a1.5,1.5,0,0,1-2.56-1.056v-12.2l9.69-9.689h10.63a1.076,1.076,0,0,1,1.08,1.078" transform="translate(-1036.94 -568.688)"/>
  <path id="图层_1057" data-name="图层 1057" class="cls-1" d="M1085.59,588.916v2.569a1.077,1.077,0,0,1-1.08,1.078h-10.63l-9.69-9.689v-12.2a1.5,1.5,0,0,1,2.56-1.057l18.53,18.538A1.081,1.081,0,0,1,1085.59,588.916Z" transform="translate(-1036.94 -568.688)"/>
</svg>
