<svg id="通用_线索_底" data-name="通用 线索 底" xmlns="http://www.w3.org/2000/svg" width="1200.13" height="559.063" viewBox="0 0 1200.13 559.063">
  <metadata><?xpacket begin="﻿" id="W5M0MpCehiHzreSzNTczkc9d"?>
<x:xmpmeta xmlns:x="adobe:ns:meta/" x:xmptk="Adobe XMP Core 5.6-c142 79.160924, 2017/07/13-01:06:39        ">
   <rdf:RDF xmlns:rdf="http://www.w3.org/1999/02/22-rdf-syntax-ns#">
      <rdf:Description rdf:about=""/>
   </rdf:RDF>
</x:xmpmeta>
                                                                                                    
                                                                                                    
                                                                                                    
                                                                                                    
                                                                                                    
                                                                                                    
                                                                                                    
                                                                                                    
                                                                                                    
                                                                                                    
                                                                                                    
                                                                                                    
                                                                                                    
                                                                                                    
                                                                                                    
                                                                                                    
                                                                                                    
                                                                                                    
                                                                                                    
                                                                                                    
                           
<?xpacket end="w"?></metadata>
<defs>
    <style>
      .cls-1 {
        fill: #e8e1c1;
      }

      .cls-1, .cls-2, .cls-3 {
        stroke: #2d267f;
        stroke-miterlimit: 10;
        stroke-width: 1px;
        fill-rule: evenodd;
      }

      .cls-2 {
        fill: #f2eccc;
      }

      .cls-3 {
        fill: #fffcdc;
      }
    </style>
  </defs>
  <path id="图层_872" data-name="图层 872" class="cls-1" d="M1642.35,866.279H485.323A14.28,14.28,0,0,1,471.043,852l-0.5-517.438a14.28,14.28,0,0,1,14.28-14.281H1641.85a14.278,14.278,0,0,1,14.28,14.281L1656.63,852A14.278,14.278,0,0,1,1642.35,866.279Z" transform="translate(-457 -319.781)"/>
  <path id="图层_873" data-name="图层 873" class="cls-2" d="M1636.38,872.284H479.347A14.281,14.281,0,0,1,465.068,858l-0.5-517.439a14.281,14.281,0,0,1,14.28-14.281H1640.79a9.372,9.372,0,0,1,9.37,9.367L1650.66,858A14.285,14.285,0,0,1,1636.38,872.284Z" transform="translate(-457 -319.781)"/>
  <path id="图层_874" data-name="图层 874" class="cls-3" d="M1629.3,878.337H472.268a14.28,14.28,0,0,1-14.28-14.281l-0.5-517.438a14.28,14.28,0,0,1,14.28-14.281H1636.95a6.125,6.125,0,0,1,6.13,6.126l0.5,525.593A14.285,14.285,0,0,1,1629.3,878.337Z" transform="translate(-457 -319.781)"/>
</svg>
