<svg xmlns="http://www.w3.org/2000/svg" width="48.969" height="40.875" viewBox="0 0 48.969 40.875">
  <metadata><?xpacket begin="﻿" id="W5M0MpCehiHzreSzNTczkc9d"?>
<x:xmpmeta xmlns:x="adobe:ns:meta/" x:xmptk="Adobe XMP Core 5.6-c142 79.160924, 2017/07/13-01:06:39        ">
   <rdf:RDF xmlns:rdf="http://www.w3.org/1999/02/22-rdf-syntax-ns#">
      <rdf:Description rdf:about=""/>
   </rdf:RDF>
</x:xmpmeta>
                                                                                                    
                                                                                                    
                                                                                                    
                                                                                                    
                                                                                                    
                                                                                                    
                                                                                                    
                                                                                                    
                                                                                                    
                                                                                                    
                                                                                                    
                                                                                                    
                                                                                                    
                                                                                                    
                                                                                                    
                                                                                                    
                                                                                                    
                                                                                                    
                                                                                                    
                                                                                                    
                           
<?xpacket end="w"?></metadata>
<defs>
    <style>
      .cls-1 {
        fill: #ea4766;
        fill-rule: evenodd;
      }
    </style>
  </defs>
  <path id="禁止查看icon" class="cls-1" d="M673.816,531.7a8.629,8.629,0,0,1,8.628-8.629,8.3,8.3,0,0,1,2.473.4l-10.7,10.7a8.254,8.254,0,0,1-.4-2.473m24.449-21.574-8.013,8.014a16.549,16.549,0,0,0-17.868,1.445l-13.56,10.38a2.184,2.184,0,0,0,0,3.47l9.138,7-7.091,7.09,3.481,3.48,37.394-37.394Zm7.8,19.839-8.465-6.478-6.682,6.682a8.544,8.544,0,0,1-8.474,10.161,8.593,8.593,0,0,1-1.532-.155l-5.453,5.453a16.522,16.522,0,0,0,17.045-1.813l13.561-10.379a2.185,2.185,0,0,0,0-3.471" transform="translate(-657.969 -510.125)"/>
</svg>
