<svg id="提交答案" xmlns="http://www.w3.org/2000/svg" width="349.531" height="54.656" viewBox="0 0 349.531 54.656">
  <metadata><?xpacket begin="﻿" id="W5M0MpCehiHzreSzNTczkc9d"?>
<x:xmpmeta xmlns:x="adobe:ns:meta/" x:xmptk="Adobe XMP Core 5.6-c142 79.160924, 2017/07/13-01:06:39        ">
   <rdf:RDF xmlns:rdf="http://www.w3.org/1999/02/22-rdf-syntax-ns#">
      <rdf:Description rdf:about=""/>
   </rdf:RDF>
</x:xmpmeta>
                                                                                                    
                                                                                                    
                                                                                                    
                                                                                                    
                                                                                                    
                                                                                                    
                                                                                                    
                                                                                                    
                                                                                                    
                                                                                                    
                                                                                                    
                                                                                                    
                                                                                                    
                                                                                                    
                                                                                                    
                                                                                                    
                                                                                                    
                                                                                                    
                                                                                                    
                                                                                                    
                           
<?xpacket end="w"?></metadata>
<defs>
    <style>
      .cls-1, .cls-3 {
        fill: #fff;
      }

      .cls-1 {
        stroke: #2d267f;
        stroke-miterlimit: 10;
        stroke-width: 1px;
      }

      .cls-1, .cls-2, .cls-3 {
        fill-rule: evenodd;
      }

      .cls-2 {
        fill: #2d267f;
      }
    </style>
  </defs>
  <path id="图层_452" data-name="图层 452" class="cls-1" d="M693.045,944.837H350.42c-1.625,0-2.943-1.787-2.943-3.992V895.181c0-2.2,1.318-3.992,2.943-3.992H693.045c1.626,0,2.944,1.788,2.944,3.992v45.664C695.989,943.05,694.671,944.837,693.045,944.837Z" transform="translate(-346.969 -890.688)"/>
  <path id="提交答案-2" data-name="提交答案" class="cls-2" d="M380.224,923.624h4.608v-2.112h-4.608v-1.92h5.616V917.5H372.064l-0.024-.96-0.024-1.176q-0.408.168-1.944,0.792v-2.928H372.3v-2.3h-2.232v-3.96l-2.232-.1v4.056h-2.5v2.3h2.5V917q-1.776.672-3.072,1.08l0.192,2.5q1.3-.408,2.88-1.008v5.5a0.794,0.794,0,0,1-.228.684,2.31,2.31,0,0,1-.948.228l-1.008.072,0.72,2.328,1.032-.1a6.487,6.487,0,0,0,1.7-.312,1.314,1.314,0,0,0,.768-0.72l1.8,1.464a13.738,13.738,0,0,0,2.688-3.816,5.771,5.771,0,0,0,2.316,2.376,8.321,8.321,0,0,0,3.516.768q0.6,0.024,1.824.024,1.728,0,3.936-.12l0.48-2.28q-2.328.12-4.224,0.12-1.32,0-1.992-.024v-2.136Zm-6.936-7.512H384.28v-8.52H373.288v8.52Zm2.352-5.28v-1.344H381.9v1.344H375.64Zm6.264,1.944v1.392H375.64v-1.392H381.9ZM376.4,924.452a6.933,6.933,0,0,1-1.236-1.956q0.192-.792.408-2.256l-2.184-.192a12.878,12.878,0,0,1-1.032,3.912,12.4,12.4,0,0,1-2.448,3.216,4.135,4.135,0,0,0,.168-1.32V918.7q0.576-.216,1.7-0.72v1.608h6.192v5.856A3.912,3.912,0,0,1,376.4,924.452Zm24.588-14.916q-0.672-2.28-.864-2.808l-2.448.36q0.36,1.008.72,2.448h-8.928v2.376h19.824v-2.376h-8.3Zm8.136,7.848q-1.224-1.08-3.312-2.724t-3.432-2.556l-1.44,1.848q1.32,0.912,3.42,2.664t3.372,2.976Zm-18.168,2.52a43.052,43.052,0,0,0,3.552-2.928,37.455,37.455,0,0,0,3.072-3.144l-1.776-1.656a31.6,31.6,0,0,1-6.264,5.544Zm19.3,6.24a41.208,41.208,0,0,1-5.208-1.548,18.679,18.679,0,0,1-3.792-1.932,18.858,18.858,0,0,0,3.36-4.9l-2.208-1.1a15.369,15.369,0,0,1-3.024,4.464,17.878,17.878,0,0,1-3.24-4.464l-2.064,1.248a22.964,22.964,0,0,0,3.432,4.8,19.973,19.973,0,0,1-3.744,2,46.052,46.052,0,0,1-5.256,1.764l1.032,2.352a59,59,0,0,0,5.76-2.2,22.838,22.838,0,0,0,4.056-2.316,19.963,19.963,0,0,0,4.1,2.292,54.955,54.955,0,0,0,5.88,2.028Zm6.456-15.36q0.454,0.624,1.044,1.476t1.068,1.6l1.656-1.44q-0.553-.792-1.224-1.632h3.72q-0.1.192-.576,0.96l2.136,0.888q0.576-.912,1.056-1.848h0.984q0.5,0.7,1.248,1.74t1.08,1.62l1.68-1.44q-0.576-.792-1.032-1.368c-0.048-.064-0.1-0.144-0.168-0.24a3.3,3.3,0,0,0-.24-0.312h4.008V908.6h-6.528q0.48-1.128.744-1.9l-2.328-.432a28.069,28.069,0,0,1-1.968,4.344V908.6H417.9q0.48-.912.864-1.848l-2.3-.5a25.135,25.135,0,0,1-1.776,3.36,23.918,23.918,0,0,1-2.352,3.24l2.04,1.32a27.865,27.865,0,0,0,2.328-3.384h0Zm5.112,1.7a19.115,19.115,0,0,1-4.224,2.988,35.471,35.471,0,0,1-5.688,2.436l0.84,2.184a44.734,44.734,0,0,0,4.608-1.992v1.32H428.3V918.1a41.853,41.853,0,0,0,4.632,1.992l0.84-2.232q-6.7-2.16-9.888-5.376h-2.064Zm-3.1,4.9a19.2,19.2,0,0,0,4.176-2.928,17.363,17.363,0,0,0,4.056,2.928H418.72Zm-1.152,10.032h10.584V928.3h2.3v-7.416H415.264v7.392h2.3v-0.864Zm0-1.992v-2.472h10.584v2.472H417.568ZM453.4,910.688v1.68h2.4V908.72h-7.608c-0.1-.288-0.161-0.5-0.192-0.648l-0.5-1.536-2.424.408q0.238,0.672.552,1.776h-8.16v3.624h2.424v-1.656H453.4Zm-13.776,5.472q2.494,0.6,4.56,1.152a59.88,59.88,0,0,1-7.272,1.056l0.72,1.992a45.648,45.648,0,0,0,9.96-2.112q3.934,1.128,7.368,2.28l0.792-2.016q-1.345-.456-5.568-1.536a10.352,10.352,0,0,0,2.52-2.256h4.272V912.8h-11.76q0.551-.792.888-1.392l-2.4-.6q-0.554.936-1.32,1.992h-6.072v1.92H440.9a19.185,19.185,0,0,1-1.272,1.44h0Zm9.984-1.44a7.838,7.838,0,0,1-2.232,1.56q-3.049-.744-4.128-0.936l0.528-.624h5.832Zm7.9,11.256a37.569,37.569,0,0,1-4.608-1.5,25.28,25.28,0,0,1-3.552-1.764H456.5v-1.968h-8.64v-1.512l-2.424-.1v1.608h-8.664v1.968h7.32a23.153,23.153,0,0,1-3.5,1.716,42.274,42.274,0,0,1-4.824,1.524l0.864,2.3q2.975-1.008,5.076-1.92a23.087,23.087,0,0,0,3.732-2.016V928.5h2.424v-4.2a21.6,21.6,0,0,0,3.66,1.968q2.026,0.864,5.148,1.92Z" transform="translate(-346.969 -890.688)"/>
  <path id="图层_453" data-name="图层 453" class="cls-2" d="M692,891.189H634.741v53.648H692a3.992,3.992,0,0,0,3.992-3.992V895.181A3.992,3.992,0,0,0,692,891.189" transform="translate(-346.969 -890.688)"/>
  <path id="图层_454" data-name="图层 454" class="cls-3" d="M680.923,909.991l-3.4-3.4-16.045,16.045-8.266-8.265-3.4,3.4,8.266,8.265,3.4,3.4,3.4-3.4Z" transform="translate(-346.969 -890.688)"/>
</svg>
