<svg id="提示" xmlns="http://www.w3.org/2000/svg" width="270.87" height="118.375" viewBox="0 0 270.87 118.375">
  <metadata><?xpacket begin="﻿" id="W5M0MpCehiHzreSzNTczkc9d"?>
<x:xmpmeta xmlns:x="adobe:ns:meta/" x:xmptk="Adobe XMP Core 5.6-c142 79.160924, 2017/07/13-01:06:39        ">
   <rdf:RDF xmlns:rdf="http://www.w3.org/1999/02/22-rdf-syntax-ns#">
      <rdf:Description rdf:about=""/>
   </rdf:RDF>
</x:xmpmeta>
                                                                                                    
                                                                                                    
                                                                                                    
                                                                                                    
                                                                                                    
                                                                                                    
                                                                                                    
                                                                                                    
                                                                                                    
                                                                                                    
                                                                                                    
                                                                                                    
                                                                                                    
                                                                                                    
                                                                                                    
                                                                                                    
                                                                                                    
                                                                                                    
                                                                                                    
                                                                                                    
                           
<?xpacket end="w"?></metadata>
<defs>
    <style>
      .cls-1 {
        fill: #fffcdc;
        stroke: #2d267f;
        stroke-miterlimit: 10;
        stroke-width: 1px;
      }

      .cls-1, .cls-2, .cls-3 {
        fill-rule: evenodd;
      }

      .cls-2 {
        fill: #ea4766;
      }

      .cls-3 {
        fill: #2d267f;
      }
    </style>
  </defs>
  <path id="图层_542" data-name="图层 542" class="cls-1" d="M1689.05,748.869l-118.07-78.424V638.271a6.829,6.829,0,0,0-6.83-6.826H1425.8a6.821,6.821,0,0,0-6.82,6.826v43.348a6.821,6.821,0,0,0,6.82,6.826h138.18Z" transform="translate(-1418.47 -630.938)"/>
  <path id="图层_543" data-name="图层 543" class="cls-2" d="M1448.41,646.352c-1.32,0-2.61.969-3.63,2.728l-11.54,19.837c-1.02,1.763-1.23,3.356-.58,4.488s2.11,1.74,4.13,1.74h23.25c2.02,0,3.49-.617,4.13-1.737s0.44-2.725-.58-4.491l-11.54-19.837c-1.02-1.759-2.31-2.728-3.64-2.728m11.63,31.2h-23.25c-2.92,0-5.12-1.047-6.21-2.947s-0.89-4.36.58-6.9l11.54-19.837c1.47-2.53,3.5-3.923,5.71-3.924s4.25,1.393,5.72,3.924l11.54,19.837c1.47,2.543,1.68,4.994.59,6.9s-3.3,2.943-6.22,2.943M1450.42,655a1.961,1.961,0,0,0-.84-1.84,1.938,1.938,0,0,0-3.03,1.635h-0.01l0.44,9.316v0.015a1.508,1.508,0,0,0,2.3,1.332,1.542,1.542,0,0,0,.72-1.373l0.42-9.085h0Zm-1.93,16.944a1.955,1.955,0,1,0-1.9-1.954,1.946,1.946,0,0,0,1.9,1.954" transform="translate(-1418.47 -630.938)"/>
  <path id="请选择答案_再进行提交" data-name="请选择答案 再进行提交" class="cls-3" d="M1489.91,647.335v-0.912h-3.65v-0.96h4.01v-0.944h-4.01v-1.392l-1.12-.032v1.424h-3.92v0.944h3.92v0.96h-3.44v0.912h3.44v1.008h-4.47v0.944h10.24v-0.944h-4.65v-1.008h3.65Zm-9.35-1.04c-0.2-.373-0.51-0.864-0.92-1.472s-0.75-1.072-1.01-1.392l-0.93.624a13.142,13.142,0,0,1,1.02,1.44,11.775,11.775,0,0,1,.87,1.568Zm-0.83,1.9h-3.15v1.12h2.01v5.872a1.061,1.061,0,0,1-.1.472,1.656,1.656,0,0,1-.33.44l0.71,0.864a6.281,6.281,0,0,1,.67-0.656c0.28-.256.6-0.546,0.97-0.872s0.7-.605.98-0.84l-0.43-1.088-1.33,1.216V648.2Zm3.33,9.072v-2.208h5.28v0.448a1.3,1.3,0,0,1-.06.464,0.393,0.393,0,0,1-.26.216,3.4,3.4,0,0,1-.69.12l-0.61.048,0.34,0.912,0.48-.048a5.153,5.153,0,0,0,1.19-.2,0.926,0.926,0,0,0,.55-0.432,1.8,1.8,0,0,0,.16-0.856v-5.456h-7.49v6.992h1.11Zm0-5.072v-0.976h5.28V652.2h-5.28Zm5.28,0.944v0.976h-5.28v-0.976h5.28Zm10.8-2.928a6.169,6.169,0,0,1-.18,1.68,2.656,2.656,0,0,1-.66,1.1,9.271,9.271,0,0,1-1.56,1.168l0.77,0.912a9.244,9.244,0,0,0,1.76-1.5,3.744,3.744,0,0,0,.8-1.432,7.8,7.8,0,0,0,.2-1.92v-0.3h1.48v3.216a2.943,2.943,0,0,0,.11.96,0.779,0.779,0,0,0,.38.464,2.261,2.261,0,0,0,.82.192h1.33a4.951,4.951,0,0,0,1-.168,0.8,0.8,0,0,0,.46-0.384,2.7,2.7,0,0,0,.23-0.9c0.04-.384.08-0.8,0.1-1.248l-1.06-.336q0,0.417-.06,1.184a1.921,1.921,0,0,1-.1.52,0.346,0.346,0,0,1-.21.208,2.23,2.23,0,0,1-.51.088h-0.7a0.776,0.776,0,0,1-.56-0.192,1.061,1.061,0,0,1-.13-0.64v-2.96h3.09v-1.056h-4.11V646.5h3.42v-1.072h-3.42v-2.32l-1.14-.064v2.384h-1.73c0.14-.522.25-1.029,0.34-1.52l-1.14-.208a12.252,12.252,0,0,1-.53,2.264,12.7,12.7,0,0,1-.91,2.088l1.15,0.4a18.806,18.806,0,0,0,.77-1.952h2.05v2.368h-4.05v1.056h2.5v0.288Zm-3.3-4.048a19.43,19.43,0,0,0-2.01-2.608l-0.88.656a15.214,15.214,0,0,1,1.04,1.312,14.238,14.238,0,0,1,.92,1.472Zm5.25,9.728a19.677,19.677,0,0,1-2.42-.168,5.57,5.57,0,0,1-1.62-.5,6.224,6.224,0,0,1-1.5-1.1v-5.824h-2.88v1.136h1.73V653.9l-2.25,2.272,0.84,0.9c0.4-.4.75-0.773,1.04-1.1s0.59-.661.87-0.992a6.5,6.5,0,0,0,1.7,1.28,5.84,5.84,0,0,0,1.87.544c0.69,0.085,1.67.144,2.92,0.176l1.04,0.016c0.92,0,2.28-.027,4.07-0.08l0.27-1.12c-1.43.086-2.92,0.128-4.48,0.128Zm11.57-6.72a5.073,5.073,0,0,0-.48.208l-0.35.144c-0.11.043-.21,0.086-0.31,0.128v-2.624h1.75v-1.12h-1.75v-2.7l-1.12-.064v2.768h-1.76v1.12h1.76v3.088q-1.02.432-2.49,0.976l0.33,1.136q0.825-.3,2.16-0.832v3.664a1.566,1.566,0,0,1-.09.632,0.469,0.469,0,0,1-.42.2l-1.28.144,0.4,1.136,1.06-.128a3.216,3.216,0,0,0,.91-0.224,0.812,0.812,0,0,0,.42-0.448,2.442,2.442,0,0,0,.12-0.864v-4.576l1.41-.592-0.13-.528Zm5.89-1.28a8.8,8.8,0,0,0,1.42-1.328,10.771,10.771,0,0,0,1.14-1.664v-1.072h-7.56v1.024h0.37a20.245,20.245,0,0,0,1.31,1.752,9.872,9.872,0,0,0,1.33,1.288,17.388,17.388,0,0,1-3.58,1.472l0.46,0.944a20.4,20.4,0,0,0,4.11-1.744,11.318,11.318,0,0,0,1.94.9q1.11,0.4,2.67.8l0.43-1.072a19.666,19.666,0,0,1-4.04-1.3h0Zm1.34-3.04a8.715,8.715,0,0,1-2.38,2.448,7.687,7.687,0,0,1-1.23-1.04,11.581,11.581,0,0,1-1.14-1.408h4.75Zm1.31,6.3H1518v-1.536l-1.13-.064v1.6h-3.06v1.024h3.06v1.728h-3.92v1.04h3.92v2.5H1518v-2.5h4.05v-1.04H1518v-1.728h3.2v-1.024Zm5.94-5.6q0.24,0.384.6,1.048c0.24,0.443.41,0.792,0.52,1.048l0.97-.56c-0.44-.81-0.73-1.322-0.86-1.536h2.69V644.5h-3.81a13.005,13.005,0,0,0,.83-1.552l-1.25-.192a13.262,13.262,0,0,1-1.28,2.3,13.042,13.042,0,0,1-1.74,2.152l1.02,0.624a20.21,20.21,0,0,0,1.75-2.272h0.56Zm4.62,1.376a15.433,15.433,0,0,0,.87-1.376h0.88q0.345,0.432.87,1.176a10.278,10.278,0,0,1,.71,1.144l0.93-.656q-0.69-1.023-1.17-1.664h2.98V644.5h-4.64c0.29-.618.51-1.088,0.64-1.408l-1.24-.208a12.048,12.048,0,0,1-1.95,3.5Zm-1.47-.048a16.11,16.11,0,0,1-2.94,2.1,19.021,19.021,0,0,1-3.78,1.616l0.51,1.008a28.741,28.741,0,0,0,3.15-1.36v0.992h7.27v-0.912a28.978,28.978,0,0,0,3.18,1.344l0.5-1.072a16.5,16.5,0,0,1-6.69-3.712h-1.2Zm-2.9,3.28a15.534,15.534,0,0,0,3.52-2.384,12.42,12.42,0,0,0,1.48,1.272,13.512,13.512,0,0,0,1.79,1.112h-6.79Zm-0.06,6.56h7.12v0.7h1.18v-4.88h-9.48v4.864h1.18v-0.688Zm0-1.024v-2.064h7.12V655.7h-7.12Zm24.19-10.176v1.28h1.2v-2.24h-5.17c-0.22-.7-0.42-1.269-0.59-1.7l-1.07.192a14.27,14.27,0,0,1,.51,1.5h-5.66v2.224h1.21v-1.264h9.57Zm-9.13,3.744c0.92,0.182,2.08.454,3.45,0.816a36.307,36.307,0,0,1-5.6.864l0.4,0.992a29.97,29.97,0,0,0,6.82-1.424,46.878,46.878,0,0,1,4.94,1.632l0.43-1.024c-0.87-.288-2.24-0.693-4.09-1.216a6.388,6.388,0,0,0,1.93-1.728h2.98v-0.976h-8.06q0.54-.735.75-1.072l-1.22-.3q-0.45.705-.96,1.376h-4.33v0.976h3.56c-0.36.427-.7,0.79-1,1.088h0Zm6.75-1.088a5.277,5.277,0,0,1-1.79,1.36c-1.09-.288-2.13-0.533-3.11-0.736l0.35-.384,0.23-.24h4.32Zm4.99,7.936a25.067,25.067,0,0,1-3.54-1.16,15.6,15.6,0,0,1-2.62-1.416h5.5v-1.024h-6.14v-1.184l-1.2-.048v1.232h-6.11v1.024h5.58a14.374,14.374,0,0,1-2.63,1.416,27.236,27.236,0,0,1-3.69,1.16l0.59,1.1a28.984,28.984,0,0,0,3.57-1.352,16.054,16.054,0,0,0,2.69-1.576v3.376h1.2V654.2a14.358,14.358,0,0,0,2.59,1.544,34.824,34.824,0,0,0,3.65,1.4Zm-65.25,14.616v-5.856h-4.53v-1.648h5.97v-1.088H1477.2v1.088h5.95v1.648h-4.51v5.856h-2.08v1.1h2.08V675.5h1.17v-3.664h7.87v1.248a2.107,2.107,0,0,1-.07.672,0.462,0.462,0,0,1-.31.272,3.985,3.985,0,0,1-.83.128l-0.95.08,0.4,1.2,0.9-.1a5.848,5.848,0,0,0,1.29-.248,1.028,1.028,0,0,0,.6-0.512,2.747,2.747,0,0,0,.17-1.1v-1.648h2.07v-1.1h-2.07Zm-9.07-2.96v-1.824h3.34v1.824h-3.34Zm4.54,0v-1.824h3.33v1.824h-3.33Zm-1.2,2.96h-3.34v-1.888h3.34v1.888Zm4.53-1.888v1.888h-3.33v-1.888h3.33Zm10.34,4.672a13.3,13.3,0,0,0,1.05-1.352,4.66,4.66,0,0,0,.55-1.184,6.894,6.894,0,0,0,.25-1.56h2.96v3.968H1504v-3.968h2.56v-1.136H1504V665.1h2.05v-1.12H1504v-2.592l-1.17-.032v2.624h-2.89v-2.576l-1.14-.032v2.608h-1.76v1.12h1.76v3.184h-2.24v1.136h2.19a4.352,4.352,0,0,1-.43,1.656,9.834,9.834,0,0,1-1.25,1.72Zm-1.71-8.976q-0.36-.576-1.08-1.5a17.807,17.807,0,0,0-1.21-1.4l-0.88.736a16.721,16.721,0,0,1,1.2,1.488,13.487,13.487,0,0,1,1.05,1.616Zm3.63,0.56h2.89v3.184h-2.91c0.01-.213.02-0.565,0.02-1.056V665.1Zm1.2,8.928a21.218,21.218,0,0,1-2.43-.16,5.377,5.377,0,0,1-1.62-.48,5.981,5.981,0,0,1-1.49-1.088v-5.616h-2.88v1.136h1.73v4.24l-2.26,2.32,0.85,0.9c0.4-.4.74-0.773,1.04-1.1s0.59-.661.87-0.992a6.5,6.5,0,0,0,1.7,1.28,5.742,5.742,0,0,0,1.87.544c0.69,0.086,1.66.144,2.92,0.176l1.03,0.016c0.83,0,2.13-.026,3.92-0.08l0.27-1.184c-1.45.075-2.79,0.112-4,.112-0.67,0-1.18,0-1.52-.016h0Zm10.99-12.816a21.894,21.894,0,0,1-1.84,2.08,18.487,18.487,0,0,1-2,1.792l0.67,0.992a24.63,24.63,0,0,0,2.18-1.944,21.162,21.162,0,0,0,1.89-2.12Zm2.11,2.048h7.31v-1.152h-7.31v1.152Zm-2.11,2a14.716,14.716,0,0,1-1.9,2.52,19.232,19.232,0,0,1-2.5,2.312l0.7,1.008a23.71,23.71,0,0,0,1.96-1.792v6.16h1.2V668a13.7,13.7,0,0,0,1.47-2.016Zm1.17,1.456v1.152h5.09v5.168a1.9,1.9,0,0,1-.09.672,0.532,0.532,0,0,1-.33.312,2.831,2.831,0,0,1-.74.12l-1.26.1,0.37,1.232,1.18-.112a4.637,4.637,0,0,0,1.28-.264,1.246,1.246,0,0,0,.66-0.584,2.443,2.443,0,0,0,.21-1.12v-5.52h2.68v-1.152h-9.05Zm14.8,1.312-0.05-.72-1.07.448V665.3h1.69v-1.12h-1.69v-2.832l-1.12-.032v2.864h-1.87v1.12h1.87v2.912c-1.05.384-1.84,0.651-2.39,0.8l0.15,1.216c0.34-.1,1.09-0.357,2.24-0.784V673.5a0.71,0.71,0,0,1-.19.576,1.308,1.308,0,0,1-.71.208l-0.69.064,0.34,1.136,0.64-.064a3.556,3.556,0,0,0,1.06-.2,1,1,0,0,0,.52-0.464,2.15,2.15,0,0,0,.15-0.9v-4.864c0.35-.138.73-0.3,1.15-0.5Zm1.41-.768h6.99v-5.344h-6.99v5.344Zm1.12-3.152v-1.232h4.73v1.232h-4.73Zm4.73,0.928v1.3h-4.73v-1.3h4.73Zm-1.37,8.992-0.29-.016V672h3.39v-0.96h-3.39v-1.616h4.05v-0.992h-9.46v0.992h4.26v4.416a2.623,2.623,0,0,1-1.23-.68,4.986,4.986,0,0,1-.92-1.464,14.48,14.48,0,0,0,.29-1.472l-1.12-.128a8.759,8.759,0,0,1-.7,2.672,8.18,8.18,0,0,1-1.7,2.176l0.88,0.736a11.254,11.254,0,0,0,1.18-1.368,7.114,7.114,0,0,0,.77-1.4,4.031,4.031,0,0,0,1.56,1.72,5.318,5.318,0,0,0,2.41.52c0.3,0.011.74,0.016,1.33,0.016q1.44,0,2.64-.064l0.29-1.088c-1.05.043-1.84,0.064-2.39,0.064-0.61,0-1.23-.016-1.85-0.048h0Zm13.66-10.848c-0.09-.266-0.22-0.632-0.41-1.1s-0.34-.818-0.45-1.064l-1.09.32a14.888,14.888,0,0,1,.69,1.84h-6.34v1.2h13.33v-1.2h-5.73Zm5.54,5.216a26.674,26.674,0,0,0-2.21-1.9,25.11,25.11,0,0,0-2.37-1.688l-0.72.912a21.8,21.8,0,0,1,2.38,1.768,20.262,20.262,0,0,1,2.2,2.056Zm-12.28,1.248a27.5,27.5,0,0,0,2.35-1.9,26,26,0,0,0,2.07-2.088l-0.88-.816a20.2,20.2,0,0,1-1.97,1.984,20.765,20.765,0,0,1-2.27,1.76Zm13.06,4.576a27.952,27.952,0,0,1-3.66-1.1,12.865,12.865,0,0,1-2.61-1.352,13.42,13.42,0,0,0,2.43-3.472l-1.18-.512a10.967,10.967,0,0,1-2.21,3.184,12.065,12.065,0,0,1-2.39-3.2l-1.02.608a13.941,13.941,0,0,0,2.51,3.344,12.815,12.815,0,0,1-2.65,1.472,30.235,30.235,0,0,1-3.75,1.264l0.59,1.184a36.043,36.043,0,0,0,4-1.472,13.4,13.4,0,0,0,2.77-1.632,13.759,13.759,0,0,0,2.8,1.624,32.7,32.7,0,0,0,3.81,1.352Z" transform="translate(-1418.47 -630.938)"/>
</svg>
