<svg id="盐判高手" xmlns="http://www.w3.org/2000/svg" width="82" height="82" viewBox="0 0 82 82">
  <metadata><?xpacket begin="﻿" id="W5M0MpCehiHzreSzNTczkc9d"?>
<x:xmpmeta xmlns:x="adobe:ns:meta/" x:xmptk="Adobe XMP Core 5.6-c142 79.160924, 2017/07/13-01:06:39        ">
   <rdf:RDF xmlns:rdf="http://www.w3.org/1999/02/22-rdf-syntax-ns#">
      <rdf:Description rdf:about=""/>
   </rdf:RDF>
</x:xmpmeta>
                                                                                                    
                                                                                                    
                                                                                                    
                                                                                                    
                                                                                                    
                                                                                                    
                                                                                                    
                                                                                                    
                                                                                                    
                                                                                                    
                                                                                                    
                                                                                                    
                                                                                                    
                                                                                                    
                                                                                                    
                                                                                                    
                                                                                                    
                                                                                                    
                                                                                                    
                                                                                                    
                           
<?xpacket end="w"?></metadata>
<defs>
    <style>
      .cls-1 {
        fill: #f6cf5e;
      }

      .cls-1, .cls-10, .cls-11, .cls-2, .cls-3, .cls-4, .cls-5, .cls-6, .cls-7, .cls-8, .cls-9 {
        fill-rule: evenodd;
      }

      .cls-2 {
        fill: #d8a240;
      }

      .cls-3 {
        fill: #fff;
      }

      .cls-4 {
        fill: #2d267f;
      }

      .cls-5 {
        fill: #d8644f;
      }

      .cls-6 {
        fill: #878f93;
      }

      .cls-7 {
        fill: #ccc;
      }

      .cls-8 {
        fill: #eabe64;
      }

      .cls-9 {
        fill: #4a5260;
      }

      .cls-10 {
        fill: #dbdcdc;
      }

      .cls-11 {
        fill: #ebe6e6;
      }
    </style>
  </defs>
  <path id="图层_3" data-name="图层 3" class="cls-1" d="M137.637,425.991a33.846,33.846,0,0,1-18.432-5.429,9.868,9.868,0,0,1-1.7.129c-0.579,0-1.126-.031-1.729-0.069h-0.024a0.432,0.432,0,0,0-.366.222,7,7,0,0,1-2.562,2.412l-0.009.006a5.066,5.066,0,0,1-3.141,1.088,6.136,6.136,0,0,1-5.321-3.438,0.4,0.4,0,0,0-.341-0.242h-0.154a5.72,5.72,0,0,1-4.267-1.4,3.958,3.958,0,0,1-1.107-2.9c0-.086,0-0.176-0.007-0.269a6.1,6.1,0,0,1,1.145-4.4,0.5,0.5,0,0,0,.047-0.26c-0.01-.446-0.011-0.884-0.012-1.308v-0.028a16.037,16.037,0,0,0-.219-3.309,5.42,5.42,0,0,1-.125-1.5c0.019-.313-0.016-0.947-0.051-1.561a16.719,16.719,0,0,1,.213-5.018,0.562,0.562,0,0,0-.155-0.322,3.548,3.548,0,0,1-.779-2.666,11.251,11.251,0,0,1,.718-3.558,2.255,2.255,0,0,0-.043-2.313,5.313,5.313,0,0,1-.513-2.783c0.055-.6.12-1.135,0.178-1.607a9.558,9.558,0,0,0-.016-3.683,4.963,4.963,0,0,1,.068-2.378c-0.028-.195-0.142-0.641-0.188-0.821a7.057,7.057,0,0,1-.245-3.454,17.083,17.083,0,0,0,.4-4.335c-0.01-.684.024-1.349,0.057-1.992,0.028-.541.053-1.04,0.052-1.51a4.171,4.171,0,0,1,3.537-4.182,0.436,0.436,0,0,0,.178-0.149,5.792,5.792,0,0,1,4.532-1.9,6.689,6.689,0,0,1,2.8.583,0.481,0.481,0,0,0,.2.047,0.409,0.409,0,0,0,.166-0.035,6.8,6.8,0,0,1,2.768-.564,5.233,5.233,0,0,1,5.028,2.8,0.92,0.92,0,0,0,.076.143,33.992,33.992,0,1,1,19.339,61.948" transform="translate(-93.984 -351)"/>
  <path id="图层_4" data-name="图层 4" class="cls-2" d="M167.974,375.62a34.082,34.082,0,0,0-3.5-5.272l-24.281,17.621Z" transform="translate(-93.984 -351)"/>
  <path id="图层_5" data-name="图层 5" class="cls-2" d="M139.517,387.293L156.9,363.4a33.953,33.953,0,0,0-5.417-2.96Z" transform="translate(-93.984 -351)"/>
  <path id="图层_6" data-name="图层 6" class="cls-2" d="M135.505,357.737l3.087,29.308,3.076-29.2a34.15,34.15,0,0,0-3.666-.2c-0.837,0-1.669.034-2.5,0.094" transform="translate(-93.984 -351)"/>
  <path id="图层_7" data-name="图层 7" class="cls-2" d="M171.979,392.206c0-.191.014-0.38,0.014-0.572a34,34,0,0,0-.541-6l-31.01,3.258Z" transform="translate(-93.984 -351)"/>
  <path id="图层_8" data-name="图层 8" class="cls-2" d="M137.666,390.493l-21.684,29.8a0.371,0.371,0,0,1,.137-0.039h0.024c0.6,0.038,1.151.069,1.73,0.069a9.785,9.785,0,0,0,1.7-.129,33.927,33.927,0,0,0,3.9,2.157Z" transform="translate(-93.984 -351)"/>
  <path id="图层_9" data-name="图层 9" class="cls-2" d="M139.517,390.493L153.5,421.87a34.08,34.08,0,0,0,5.991-3.923Z" transform="translate(-93.984 -351)"/>
  <path id="图层_10" data-name="图层 10" class="cls-2" d="M142.237,425.353l-3.646-34.612-3.658,34.732c1.017,0.091,2.039.153,3.069,0.153a34.026,34.026,0,0,0,4.235-.273" transform="translate(-93.984 -351)"/>
  <path id="图层_11" data-name="图层 11" class="cls-2" d="M140.194,389.817l26.84,19.479a33.846,33.846,0,0,0,2.974-6.225Z" transform="translate(-93.984 -351)"/>
  <path id="图层_12" data-name="图层 12" class="cls-2" d="M137.666,387.293l-12.159-27.28a33.723,33.723,0,0,0-5.6,2.871Z" transform="translate(-93.984 -351)"/>
  <path id="图层_13" data-name="图层 13" class="cls-2" d="M103.429,385.393v7l33.313-3.5Z" transform="translate(-93.984 -351)"/>
  <path id="图层_14" data-name="图层 14" class="cls-2" d="M112.429,400.736v6.906l24.561-17.824Z" transform="translate(-93.984 -351)"/>
  <path id="图层_15" data-name="图层 15" class="cls-2" d="M109.429,367.967v7.75l27.561,12.252Z" transform="translate(-93.984 -351)"/>
  <path id="图层_16" data-name="图层 16" class="cls-3" d="M118.768,374.064a2.582,2.582,0,0,0-.758-1.905l0.143-.116,1.595-1.291,1.11-.9a0.135,0.135,0,0,0,0-.213l-1.13-.876c-0.223-.174-0.5-0.383-0.826-0.626s-0.667-.493-1.021-0.749-0.714-.508-1.063-0.744c-0.368-.25-0.678-0.446-0.945-0.6l-0.147-.085V364.39a0.136,0.136,0,0,0-.136-0.136h-4.533a0.136,0.136,0,0,0-.136.136v1.482a0.136,0.136,0,0,1-.136.137h-0.831a0.136,0.136,0,0,1-.136-0.137v-1.51a0.136,0.136,0,0,0-.136-0.137h-4.551a0.136,0.136,0,0,0-.136.137v1.51a0.136,0.136,0,0,1-.136.137H102.3a0.136,0.136,0,0,0-.136.136v3.132a0.136,0.136,0,0,1-.126.136l-0.147.01a0.136,0.136,0,0,0-.125.155l0.175,1.212,0.254,1.756,0.152,1.059a0.137,0.137,0,0,0,.147.116l0.391-.034a0.136,0.136,0,0,1,.148.135v0.886a0.136,0.136,0,0,1-.136.136h-1.177a0.136,0.136,0,0,0-.136.136v3.855a0.136,0.136,0,0,0,.136.136h2.73l-0.27.107-1.7.673-1.347.534a0.136,0.136,0,0,0-.061.206l0.842,1.18c0.109,0.151.236,0.338,0.374,0.554l0.189,0.288h-0.238v2.576a0.136,0.136,0,0,1-.136.136h-0.18a0.136,0.136,0,0,0-.136.136v3.911a0.136,0.136,0,0,0,.136.136h0.6a0.136,0.136,0,0,1,.136.134l0.044,3.523a0.136,0.136,0,0,1-.136.137h-0.733a0.136,0.136,0,0,0-.136.136v3.7a0.136,0.136,0,0,0,.136.136h1.558a0.136,0.136,0,0,1,.136.136v1.065a0.136,0.136,0,0,1-.136.136h-0.835a0.136,0.136,0,0,0-.136.136v8.293a0.136,0.136,0,0,0,.136.136,0.136,0.136,0,0,1,.136.136v4.092h0.218v1.917a0.136,0.136,0,0,1-.136.136h-1a0.136,0.136,0,0,0-.136.136V417.5a0.136,0.136,0,0,0,.136.136h4.471a0.136,0.136,0,0,1,.041.266l-0.171.054a0.135,0.135,0,0,0-.063.217l1.106,1.3L108.447,421l0.5,0.585a0.134,0.134,0,0,0,.147.041l0.727-.243a9.907,9.907,0,0,0,1.531-.64,4.947,4.947,0,0,0,1.163-.844,3.327,3.327,0,0,0,.756-1.162,3.605,3.605,0,0,0,.213-0.97,0.136,0.136,0,0,1,.135-0.126h6.393a0.136,0.136,0,0,0,.136-0.136v-4.009a0.136,0.136,0,0,0-.136-0.136h-0.978a0.136,0.136,0,0,1-.136-0.136v-2.86a0.136,0.136,0,0,0-.136-0.136h-0.5a0.137,0.137,0,0,1-.1-0.226,3.484,3.484,0,0,0,.778-2.325v-1.133a0.136,0.136,0,0,0-.136-0.136h-0.136c0.071-.049.14-0.1,0.2-0.149a2.711,2.711,0,0,0,1.1-2.206v-2.5a2.592,2.592,0,0,0-1.043-2.175l-0.043-.033v-1.585a3.026,3.026,0,0,0-.031-0.431,0.134,0.134,0,0,1,.134-0.153h1.011a0.136,0.136,0,0,0,.136-0.136v-3.7a0.136,0.136,0,0,0-.136-0.136h-3.786l0.038-.014a9.808,9.808,0,0,0,1.368-.621,4.747,4.747,0,0,0,1.07-.79,3.127,3.127,0,0,0,.716-1.089,3.472,3.472,0,0,0,.222-1.259V379.107a0.136,0.136,0,0,1,.136-0.136H120.1a0.136,0.136,0,0,0,.136-0.136V374.98a0.136,0.136,0,0,0-.136-0.136h-1.2a0.136,0.136,0,0,1-.136-0.136v-0.644Z" transform="translate(-93.984 -351)"/>
  <path id="图层_17" data-name="图层 17" class="cls-4" d="M118.875,414.628v1.741h-6.65v1.054a2.458,2.458,0,0,1-.145.864,2.056,2.056,0,0,1-.471.716,3.619,3.619,0,0,1-.862.619,8.594,8.594,0,0,1-1.331.555l-1.286-1.517a3.589,3.589,0,0,0,1.276-.6,1.023,1.023,0,0,0,.336-0.787v-0.9h-6.831v-1.741h6.831v-1.389h-5.563V411.5h5.563v-1.46h-5.781v-1.714h9.968a1.447,1.447,0,0,0,.814-0.161,0.564,0.564,0,0,0,.218-0.485h2.7a2.117,2.117,0,0,1-.752,1.771,4.166,4.166,0,0,1-2.527.589h-2.157v1.46h5.4v1.744h-5.4v1.389h6.65Z" transform="translate(-93.984 -351)"/>
  <path id="图层_18" data-name="图层 18" class="cls-4" d="M118.948,369.765l-1.594,1.291c-0.146-.119-0.332-0.277-0.563-0.469s-0.477-.4-0.742-0.612-0.538-.435-0.816-0.66-0.537-.43-0.778-0.617v3.568h-2.266v-6.742h2.266v2.218l0.778-.6c0.241,0.14.532,0.327,0.871,0.556s0.682,0.469,1.032.723,0.686,0.5,1.005.737,0.589,0.442.807,0.611" transform="translate(-93.984 -351)"/>
  <path id="图层_19" data-name="图层 19" class="cls-4" d="M111.591,371.45c-0.181.029-.477,0.067-0.887,0.112l-1.415.162c-0.531.062-1.094,0.125-1.685,0.19l-1.7.189c-0.544.062-1.032,0.116-1.468,0.163s-0.761.078-.979,0.1l-0.252-1.756c0.277-.02.691-0.049,1.24-0.092s1.158-.1,1.822-0.162v-1.46h-2.826v-1.616h2.826V365.5h2.283v1.783H111.1v1.616h-2.554v1.25l1.64-.154c0.5-.047.9-0.1,1.2-0.14Z" transform="translate(-93.984 -351)"/>
  <path id="图层_20" data-name="图层 20" class="cls-4" d="M115.305,376.114h-1.522v-2.037h1.522v2.037Zm-3.569,0h-1.631v-2.037h1.631v2.037Zm-3.661,0h-1.54v-2.037h1.54v2.037Zm9.423,0v-2.05a1.259,1.259,0,0,0-.526-1.118,2.7,2.7,0,0,0-1.521-.357h-8.916v-0.254h-2.229v3.779h-1.449V377.7h16.109v-1.587H117.5Z" transform="translate(-93.984 -351)"/>
  <path id="图层_21" data-name="图层 21" class="cls-4" d="M118.349,379.64v9.79a2.194,2.194,0,0,1-.136.8,1.9,1.9,0,0,1-.434.653,3.5,3.5,0,0,1-.789.575A8.7,8.7,0,0,1,115.8,392l-1.306-1.531a3.967,3.967,0,0,0,1.3-.617,0.944,0.944,0,0,0,.354-0.731V379.64h2.209Z" transform="translate(-93.984 -351)"/>
  <path id="图层_22" data-name="图层 22" class="cls-4" d="M112.84,380.763h2.175v8.4H112.84v-8.4Z" transform="translate(-93.984 -351)"/>
  <path id="图层_23" data-name="图层 23" class="cls-4" d="M108.8,386.494h3.3v1.643H108.71a5.974,5.974,0,0,1-.453,1.763,3.286,3.286,0,0,1-.835,1.145,2.989,2.989,0,0,1-1.177.617,5.687,5.687,0,0,1-1.485.183h-0.835v-1.727h0.889a1.944,1.944,0,0,0,.579-0.085,1.145,1.145,0,0,0,.489-0.308,1.957,1.957,0,0,0,.381-0.612,4.17,4.17,0,0,0,.254-0.976h-3.461v-1.643h3.57v-1.1h-3.118v-1.616h3.118v-4.2H108.8v3.133c0.156-.2.316-0.405,0.479-0.626s0.326-.443.49-0.668,0.319-.444.471-0.66,0.292-.415.427-0.6l1.739,0.731c-0.134.187-.288,0.4-0.463,0.639s-0.357.486-.544,0.738-0.373.5-.562,0.738-0.352.455-.5,0.653l-1.54-.675v0.8h2.935V385.4H108.8v1.1Z" transform="translate(-93.984 -351)"/>
  <path id="图层_24" data-name="图层 24" class="cls-4" d="M106.59,382.912l-1.848.716c-0.135-.195-0.278-0.413-0.436-0.652s-0.317-.479-0.48-0.724-0.32-.483-0.472-0.717-0.287-.435-0.406-0.6l1.7-.673c0.132,0.169.283,0.367,0.453,0.6s0.341,0.466.516,0.709,0.348,0.483.517,0.717l0.453,0.631" transform="translate(-93.984 -351)"/>
  <path id="图层_25" data-name="图层 25" class="cls-4" d="M118.857,394.472v1.433H102.966v-1.433h6.686l-0.418-.631,2.357-.633,0.8,1.264h6.468Z" transform="translate(-93.984 -351)"/>
  <path id="图层_26" data-name="图层 26" class="cls-4" d="M115.378,398.082h-8.426v-0.519h8.426v0.519Zm1.676-1.4a2.841,2.841,0,0,0-1.531-.352h-8.571v-0.211H104.8V399.6h2.156v-0.281h8.426V399.6h2.229v-1.841a1.193,1.193,0,0,0-.553-1.081" transform="translate(-93.984 -351)"/>
  <path id="图层_27" data-name="图层 27" class="cls-4" d="M113.058,403.6h-3.914v-0.646h3.914V403.6Zm5.1-3.209a2.943,2.943,0,0,0-1.733-.4H105.973v-0.211h-2.284v6.026h2.284v-4.551h10.455v2.416a0.7,0.7,0,0,1-.27.57,2.732,2.732,0,0,1-.907.4V403.2a1.258,1.258,0,0,0-.526-1.117,2.663,2.663,0,0,0-1.5-.358h-4.077v-0.168h-2.173v3.624h2.173v-0.352h3.914v0.352h2.193v-0.142l0.98,1.069a5.934,5.934,0,0,0,1.857-.851,1.456,1.456,0,0,0,.606-1.2v-2.5a1.362,1.362,0,0,0-.533-1.16" transform="translate(-93.984 -351)"/>
  <path id="图层_28" data-name="图层 28" class="cls-5" d="M134.231,381.932a61.24,61.24,0,0,1-8.219.807,12.266,12.266,0,0,1-4.426-.695,15.687,15.687,0,0,1-3.612-1.684,12.253,12.253,0,0,1-4.264-4.543,6.641,6.641,0,0,1-.874-3.051,6.046,6.046,0,0,1,1.348-2.887,12.756,12.756,0,0,1,5.263-4.067c3.139-1.367,6.622-1.759,10.042-2.125a7.865,7.865,0,0,0-4.681,3.454,5.409,5.409,0,0,0-.154,5.547,6.74,6.74,0,0,0,5.025,2.842,20.431,20.431,0,0,0,5.982-.472" transform="translate(-93.984 -351)"/>
  <path id="图层_29" data-name="图层 29" class="cls-6" d="M156.505,396.464l-0.078-.048-2.522-2.035,3.1-.677,0.037,0.158L158,396.57l-0.81.331Z" transform="translate(-93.984 -351)"/>
  <path id="图层_31" data-name="图层 31" class="cls-6" d="M158.12,393.264a4.905,4.905,0,0,0,1.324-.8l2.592-2.351,0.046,3.44,0.017,0.837-0.642.466c-0.383.279-.721,0.5-0.973,0.651l-0.111.236-0.669.2q-0.21.063-.417,0.132Z" transform="translate(-93.984 -351)"/>
  <path id="图层_32" data-name="图层 32" class="cls-6" d="M159.3,394.423a0.15,0.15,0,0,0-.067.074c-0.155.047-.308,0.1-0.461,0.147a6.478,6.478,0,0,0,1.74-1.071c0,0.022,0,.045,0,0.068a11.652,11.652,0,0,1-1.214.782" transform="translate(-93.984 -351)"/>
  <path id="图层_33" data-name="图层 33" class="cls-6" d="M159.323,392.977c0.089-.059.184-0.125,0.284-0.195L162,391.121l0.092,2.847c0,0.04,0,.079,0,0.118v0.025l0.04,1.228-1.334.315-0.193.046Z" transform="translate(-93.984 -351)"/>
  <path id="图层_34" data-name="图层 34" class="cls-6" d="M160.206,394.231c0.1-.065.2-0.138,0.315-0.216,0,0.047,0,.093,0,0.14-0.108.026-.214,0.05-0.316,0.076" transform="translate(-93.984 -351)"/>
  <path id="图层_35" data-name="图层 35" class="cls-6" d="M160.206,394.232l0.315-.215c0,0.047,0,.093,0,0.138-0.11.026-.215,0.051-0.317,0.077m-0.9.192a0.15,0.15,0,0,0-.068.073c-0.154.047-.307,0.1-0.46,0.148a6.491,6.491,0,0,0,1.74-1.072c0,0.023,0,.045,0,0.067a12.276,12.276,0,0,1-1.214.784m-1.949.765s0,0,0,0l0.018,0a0.041,0.041,0,0,0-.015.007m-4.564-1.854,0-2.272a18.631,18.631,0,0,0-.2-3.209q-0.121-.816-0.318-1.62a7.975,7.975,0,0,0-.33-0.809,0.989,0.989,0,0,1-.06-0.456,0.969,0.969,0,0,1-.134-0.368,4.634,4.634,0,0,1,1.532.455,8.45,8.45,0,0,1,1.351.543,4.874,4.874,0,0,1,1.864,2.361,4.293,4.293,0,0,1,.117.574c0.285,2.184-1.875,3.778-3.814,4.8m17.469-5.4a0.148,0.148,0,0,0-.09-0.109,14.829,14.829,0,0,0-5.466-1.118v0a7.685,7.685,0,0,0-1.363-3.468c-4.527-6.677-15.2-7.982-15.569-8.025a30.331,30.331,0,0,0-3.685-.468c-0.469-.042-0.914-0.08-1.34-0.126a10.182,10.182,0,0,0-4.092-.8,10.426,10.426,0,0,0-3.415.542l-0.4.053a9.435,9.435,0,0,0-1,1.01,7.179,7.179,0,0,0-1.336,5.472l-0.271.115c-0.089.092-.157,0.172-0.206,0.234a2.342,2.342,0,0,0-.273,1.288,14.021,14.021,0,0,0-3.172,2.029,0.974,0.974,0,0,1-.3-0.323,0.428,0.428,0,0,0-.363-0.214,0.434,0.434,0,0,0-.385.19,3.778,3.778,0,0,0-.333.6,2.939,2.939,0,0,1-.394-0.61,0.5,0.5,0,0,0-.867-0.056,9.438,9.438,0,0,0-1.321,7.23,0.151,0.151,0,0,0,.1.11,9.791,9.791,0,0,0-.06,1.072,10.487,10.487,0,0,0,3.264,7.731,3.145,3.145,0,0,0,.928,4.234,4.751,4.751,0,0,0,2.719.9,4.1,4.1,0,0,0,1.188-.174,3.018,3.018,0,0,0-.428,1.1,3.076,3.076,0,0,0,.479,2.22,2.043,2.043,0,0,0-.969-0.042,2.414,2.414,0,0,0-1.523.981,3.347,3.347,0,0,0-.324,2.837,5.131,5.131,0,0,0,.215.6,0.1,0.1,0,0,0,0,.035,0.149,0.149,0,0,0,.077.128,12.515,12.515,0,0,0,.928,1.625,1.655,1.655,0,0,0-.811.886,1.553,1.553,0,0,0,.108,1.359,0.165,0.165,0,0,0,.077.066,7.962,7.962,0,0,0,2.906.546,7.637,7.637,0,0,0,2.669-.475,1.888,1.888,0,0,1-.59.444l-0.092.042a0.954,0.954,0,0,0-.619.539,0.747,0.747,0,0,0,.424.785,1.712,1.712,0,0,0,.852.216,2.055,2.055,0,0,0,.415-0.044,3.262,3.262,0,0,0,1.136-.493,0.124,0.124,0,0,0,.049-0.055,0.85,0.85,0,0,0,.255.413,1.375,1.375,0,0,0,.9.261c0.106,0,.213.007,0.318,0.007,0.245,0,.492-0.009.736-0.027a1.43,1.43,0,0,0,.729-0.207,0.776,0.776,0,0,0,.175-0.173,0.113,0.113,0,0,0,.036.022,2.419,2.419,0,0,0,.944.19,2.459,2.459,0,0,0,.933-0.183,1.249,1.249,0,0,0,.639-0.515,1.083,1.083,0,0,0,.045-0.1,2.141,2.141,0,0,0,.88-0.292,0.9,0.9,0,0,0,.409-0.712v-0.011a0.184,0.184,0,0,0,.061.016c0.156,0,.315.008,0.477,0.008a18.667,18.667,0,0,0,4.2-.519,0.153,0.153,0,0,0,.077-0.044,1.287,1.287,0,0,0,.138-1.54,1.9,1.9,0,0,0-1.19-.811,2.721,2.721,0,0,1,.479-0.412,2.589,2.589,0,0,0,.632-0.587,3.01,3.01,0,0,0,.569-1.855,2.621,2.621,0,0,0-1.54-2.252,3.08,3.08,0,0,0-1.787-.139,17.209,17.209,0,0,0-1.455-3.682,0.153,0.153,0,0,0-.1-0.079,1.379,1.379,0,0,0,.117-0.188,1.455,1.455,0,0,0,.25-1c0.713-.177,3.061-0.755,4.729-1.1a40.518,40.518,0,0,0,4.218-1.174,20.587,20.587,0,0,0,2.058-.74,0.054,0.054,0,0,0,.021,0l0-.006a0.647,0.647,0,0,0,.056-0.033l0.006,0.006a0.289,0.289,0,0,1,.032-0.029,0.047,0.047,0,0,1,.01-0.01,4.734,4.734,0,0,0,.5-0.562c0.055,0,.109,0,0.164,0a3.97,3.97,0,0,0,2.9-1.262c0.089-.1.173-0.2,0.26-0.306,0.043-.055.089-0.108,0.132-0.161l-0.013,1.05a0.15,0.15,0,0,0,.109.146,17.713,17.713,0,0,0,5.134.866,12.714,12.714,0,0,0,1.4-.077,0.161,0.161,0,0,0,.11-0.062,16.084,16.084,0,0,0,2.789-12.756" transform="translate(-93.984 -351)"/>
  <path id="图层_36" data-name="图层 36" class="cls-7" d="M150.517,391.8l-11.608,3.835L127.3,391.8s-2.052,5.281,2.219,8.48c3.888,2.913,8.579.09,9.389-.44,0.81,0.53,5.5,3.353,9.389.44,4.272-3.2,2.219-8.48,2.219-8.48" transform="translate(-93.984 -351)"/>
  <path id="图层_37" data-name="图层 37" class="cls-8" d="M138.91,399.835c-1.041-.623-0.94-2.129-0.33-3.074,0.858-.271.717,0.344,0.826,0.711a2.133,2.133,0,0,1-.5,2.363" transform="translate(-93.984 -351)"/>
  <path id="图层_38" data-name="图层 38" class="cls-8" d="M127.955,394l8.385,2.558a3.344,3.344,0,0,1-1.061,1.869c-0.758.762-2.633,1.664-3.618,1.409A4.823,4.823,0,0,1,127.955,394" transform="translate(-93.984 -351)"/>
  <path id="图层_39" data-name="图层 39" class="cls-8" d="M141.036,396.638L149.577,394a5.235,5.235,0,0,1-1.066,4.265,4.181,4.181,0,0,1-4.25,1.353s-2.729-1.133-3.225-2.979" transform="translate(-93.984 -351)"/>
  <path id="图层_40" data-name="图层 40" class="cls-8" d="M132.811,408.578s-1.527-2.608.733-3.962,3.457,0,3.457,0,1.305,1.162.81,2.334a1.55,1.55,0,0,0-.5,1.212l0.024,0.356-1.361.662-0.821.179-0.528-.164a0.835,0.835,0,0,0-.95-0.6Z" transform="translate(-93.984 -351)"/>
  <path id="图层_41" data-name="图层 41" class="cls-9" d="M137.852,374s-3.333-.151-4.623,2.172a6.46,6.46,0,0,0-.583,4.637,1.24,1.24,0,0,0-.76,1c0.128,0.831.274,3.148,0.274,3.148s1.5,2.33,6.49,2.556,6.615-2.556,6.615-2.556l0.23-2.755v-0.672l-0.72-.719a7.826,7.826,0,0,0-.91-5.141c-1.479-2.576-6.013-1.671-6.013-1.671" transform="translate(-93.984 -351)"/>
  <path id="图层_42" data-name="图层 42" class="cls-5" d="M142.873,374.917a3.2,3.2,0,0,1,1.8,2.421,9.859,9.859,0,0,1,.043,3.5,1.6,1.6,0,0,1,.748,1.96,6.368,6.368,0,0,1,3.4,2.171l0.411-.657,0.4-.092,0.492,0.9,0.59-.845,0.594-.039,0.266,0.435s3.916,0.284,4.917,3.465-3.952,5.216-3.952,5.216a13.528,13.528,0,0,1-.606,2.931c-0.41.966-.625,1.383-0.625,1.383a27.078,27.078,0,0,0,3.117-1.06c0.8-.407,2.59-1.422,2.59-1.422l0.3,0.2,3.331-1.11s0.017-2.827-.16-4.073-0.337-2.756-.337-2.756a13.947,13.947,0,0,1,4.471-.593s-0.565-6.669-11.248-10.169c-7.088-2.323-10.535-1.766-10.535-1.766" transform="translate(-93.984 -351)"/>
  <path id="图层_43" data-name="图层 43" class="cls-5" d="M135.678,403.57a0.481,0.481,0,0,0,.144.543,2.3,2.3,0,0,0-2.654.773,7.069,7.069,0,0,1-2.992.165,3.421,3.421,0,0,1-2.469-1.906,4.077,4.077,0,0,1,.313-3,12.593,12.593,0,0,0,7.658,3.421" transform="translate(-93.984 -351)"/>
  <path id="图层_44" data-name="图层 44" class="cls-5" d="M135.62,403.886A20.474,20.474,0,0,0,146,402.437a2.669,2.669,0,0,1-.715,1.71,0.389,0.389,0,0,1,.271.476,1.2,1.2,0,0,1-.366.646c-0.178.18-.383,0.333-0.56,0.515a1.921,1.921,0,0,0-.66,1.811s-3.642-.019-4.542-0.438a15.248,15.248,0,0,1-1.565-.84,2.173,2.173,0,0,0-.861-1.7,11.61,11.61,0,0,0-1.382-.73" transform="translate(-93.984 -351)"/>
  <path id="图层_45" data-name="图层 45" class="cls-10" d="M136.291,414.537a3.572,3.572,0,0,0,3.45,1.68,0.738,0.738,0,0,0,.622-0.217,1.645,1.645,0,0,0,.349-0.569,4.783,4.783,0,0,0,.258-2.678,21.049,21.049,0,0,1-1.562-1.868,3.186,3.186,0,0,1-1.565,1.386,3.319,3.319,0,0,1-2.117.129c0.169,0.757.287,1.358,0.455,2.116-0.005-.085.116,0.106,0.11,0.021" transform="translate(-93.984 -351)"/>
  <path id="图层_46" data-name="图层 46" class="cls-10" d="M156.87,400.944a4.665,4.665,0,0,1-1.938.725,6.768,6.768,0,0,0-.34-5.244,5.24,5.24,0,0,0,2.541-1.389,3.569,3.569,0,0,1,.845,2.954,6.238,6.238,0,0,1-1.108,2.954" transform="translate(-93.984 -351)"/>
  <path id="图层_47" data-name="图层 47" class="cls-9" d="M131.751,408.5a3.165,3.165,0,0,0-1.753,2,3.057,3.057,0,0,0,.467,2.587,5.46,5.46,0,0,0,5.009-1.424,5.757,5.757,0,0,0-1.222-2.688,1.988,1.988,0,0,0-1.517-.543l0.153,0.467a1.129,1.129,0,0,0-1.137-.4" transform="translate(-93.984 -351)"/>
  <path id="图层_48" data-name="图层 48" class="cls-9" d="M137.578,407.234q0.916,1.973,1.832,3.946a6.663,6.663,0,0,0,1.581,1.689,1.594,1.594,0,0,1,.008,1.574,4.368,4.368,0,0,0,1.484,1.3c0.393,0.256,1.034.563,1.424,0.822a2.17,2.17,0,0,1,.607.667,16.733,16.733,0,0,0,5.082-.627,1.6,1.6,0,0,0-.055-1.479,1.552,1.552,0,0,0-1.26-.7,2.925,2.925,0,0,0,1.738-2.086,2.81,2.81,0,0,0-.813-2.543,3.024,3.024,0,0,0-2.635-.751l0.272-.136a11.355,11.355,0,0,0-1.593-3.8,4.163,4.163,0,0,0-1.32,2.534,13.152,13.152,0,0,1-6.111-1.311,0.928,0.928,0,0,1-.241.9" transform="translate(-93.984 -351)"/>
  <path id="图层_49" data-name="图层 49" class="cls-9" d="M146,402.437a2.931,2.931,0,0,1-.716,1.71l9.315-2.274s1.022-.815.649-3.3-0.783-1.966-.783-1.966a21.644,21.644,0,0,1-3.117,1.06,9.342,9.342,0,0,1-2.452,2.975,12.068,12.068,0,0,1-2.9,1.8" transform="translate(-93.984 -351)"/>
  <path id="图层_50" data-name="图层 50" class="cls-9" d="M135.62,411.662a8.217,8.217,0,0,1,.569,2.96,1.688,1.688,0,0,1,.5.4,2.3,2.3,0,0,1-.17,1.906,7.885,7.885,0,0,1-6.017.135,1.769,1.769,0,0,1-.075-1.327,1.837,1.837,0,0,1,.882-1.016,16.375,16.375,0,0,1-1.014-1.857,6.586,6.586,0,0,0,5.326-1.2" transform="translate(-93.984 -351)"/>
  <path id="图层_51" data-name="图层 51" class="cls-9" d="M135.676,412.193a2.949,2.949,0,0,0,2.2.142,2.7,2.7,0,0,0,1.537-1.451,7.438,7.438,0,0,1-1.847-3.637,1.574,1.574,0,0,0-.344,1.276,5.41,5.41,0,0,1-1.44.68,1.847,1.847,0,0,1-1.536-.226,5.854,5.854,0,0,1,1.435,3.216" transform="translate(-93.984 -351)"/>
  <path id="图层_52" data-name="图层 52" class="cls-11" d="M160.185,387.445s0.5,3.814.5,5.322v3.245a2.411,2.411,0,0,1,1.528.434c0.325,0.449.724,0.55,0.246,1.22s-1.023.121-1.3,0.5-0.423.606-.423,0.606l0.095,1.2a35.31,35.31,0,0,0,3.721.79c0.951,0.067,2.923-.064,2.923-0.064s2.863-4.9,2.957-6.848-0.168-5.907-.168-5.907a17.952,17.952,0,0,0-4.966-1.086,16.488,16.488,0,0,0-5.108.595" transform="translate(-93.984 -351)"/>
  <path id="图层_53" data-name="图层 53" class="cls-3" d="M151.891,415.736a0.215,0.215,0,0,1-.044-0.424c0.071-.017,1.7-0.429,1.506-1.246-0.146-.6-1.033-0.689-1.549-0.689a3.865,3.865,0,0,0-.394.019h-0.025a0.22,0.22,0,0,1-.209-0.153,0.215,0.215,0,0,1,.111-0.255c0.015-.006,1.583-0.758,2.526-1.235a6.736,6.736,0,0,0,1.8-1.733,1.973,1.973,0,0,1,.177-0.211,0.234,0.234,0,0,1,.155-0.058,0.218,0.218,0,0,1,.136.047,0.249,0.249,0,0,1,0,.365,2.138,2.138,0,0,0-.509,1.389,0.311,0.311,0,0,0,.158.207,0.185,0.185,0,0,0,.064.007c0.676,0,3.668-1.291,6.141-2.506a0.218,0.218,0,0,1,.29.093,0.207,0.207,0,0,1,.015.162,0.212,0.212,0,0,1-.106.127c-1.885.981-3.209,1.992-3.133,2.241a1.088,1.088,0,0,0,.984.278,5.958,5.958,0,0,0,.9-0.072l0.009,0h0.025a0.217,0.217,0,0,1,.213.167,0.213,0.213,0,0,1-.151.255l-0.012,0a2.037,2.037,0,0,0-1.492,1.954v0.318a1.23,1.23,0,0,0,.866.787,0.215,0.215,0,0,1-.064.421Z" transform="translate(-93.984 -351)"/>
  <path id="图层_54" data-name="图层 54" class="cls-4" d="M162.029,409.116a0.336,0.336,0,0,0-.152.036,31.647,31.647,0,0,1-6.086,2.493h-0.019a0.181,0.181,0,0,1-.085-0.12,1.94,1.94,0,0,1,.492-1.293,0.369,0.369,0,0,0-.023-0.528,0.334,0.334,0,0,0-.212-0.073,0.353,0.353,0,0,0-.235.088,1.911,1.911,0,0,0-.189.225,6.685,6.685,0,0,1-1.761,1.7c-0.943.477-2.508,1.227-2.52,1.232a0.337,0.337,0,0,0,.146.642l0.041,0c0.025,0,.172-0.017.377-0.017,0.387,0,1.3.058,1.431,0.595,0.17,0.7-1.4,1.1-1.415,1.1a0.336,0.336,0,0,0,.066.664l8.381,0.258h0.01a0.337,0.337,0,0,0,.1-0.66,1.155,1.155,0,0,1-.779-0.68v-0.309a1.916,1.916,0,0,1,1.373-1.827h0l0.037-.012,0.012,0a0.335,0.335,0,0,0,.229-0.4,0.34,0.34,0,0,0-.332-0.259,0.289,0.289,0,0,0-.05,0,5.941,5.941,0,0,1-.884.071,1.207,1.207,0,0,1-.86-0.178,9.618,9.618,0,0,1,3.065-2.111,0.341,0.341,0,0,0,.167-0.2,0.337,0.337,0,0,0-.325-0.435m0,0.244a0.1,0.1,0,0,1,.085.05,0.092,0.092,0,0,1-.039.125c-1.308.68-3.332,1.929-3.194,2.384a1.152,1.152,0,0,0,1.1.364,6.169,6.169,0,0,0,.919-0.073h0.015a0.1,0.1,0,0,1,.095.073,0.093,0.093,0,0,1-.067.11l-0.011,0h0a2.16,2.16,0,0,0-1.58,2.071v0.318a1.338,1.338,0,0,0,.952.9,0.094,0.094,0,0,1,.067.105,0.1,0.1,0,0,1-.095.078h0l-8.378-.257a0.1,0.1,0,0,1-.094-0.084,0.094,0.094,0,0,1,.074-0.1c0.019,0,1.828-.436,1.6-1.393-0.165-.679-1.112-0.782-1.667-0.782-0.237,0-.4.019-0.408,0.019h-0.011a0.1,0.1,0,0,1-.092-0.067,0.091,0.091,0,0,1,.049-0.11c0.016-.007,1.591-0.762,2.526-1.236a6.806,6.806,0,0,0,1.843-1.769,2.11,2.11,0,0,1,.16-0.193,0.113,0.113,0,0,1,.073-0.027,0.092,0.092,0,0,1,.06.02c0.067,0.054.032,0.108-.03,0.207a2.477,2.477,0,0,0-.523,1.483,0.426,0.426,0,0,0,.215.282,0.259,0.259,0,0,0,.125.024c0.773,0,4.119-1.5,6.194-2.519a0.1,0.1,0,0,1,.044-0.01" transform="translate(-93.984 -351)"/>
  <path id="图层_55" data-name="图层 55" class="cls-3" d="M128.006,417.264l-0.009,0-0.071-.005c-0.073,0-.216-0.009-0.388-0.014l-0.052,0c-1.833-.062-7.409-0.251-10.4-1.153a0.293,0.293,0,0,1-.2-0.352,0.3,0.3,0,0,1,.287-0.218,0.305,0.305,0,0,1,.06.006,9.159,9.159,0,0,0,1.845.235c0.106,0,.212,0,0.318-0.011a3.121,3.121,0,0,0,1.886-.71,1.546,1.546,0,0,0,.5-0.772,0.989,0.989,0,0,0-.2-0.819,0.286,0.286,0,0,1-.043-0.32,0.3,0.3,0,0,1,.266-0.163h0.019c0.091,0,.184,0,0.277,0a2.512,2.512,0,0,0,.587-0.057,0.873,0.873,0,0,0,.574-0.379,0.843,0.843,0,0,0-.06-0.786,2.745,2.745,0,0,0-.566-0.774,0.289,0.289,0,0,1-.027-0.4,0.3,0.3,0,0,1,.4-0.05,12.435,12.435,0,0,0,5.543,2.05,0.3,0.3,0,0,1,.248.246,0.289,0.289,0,0,1-.164.306,3.433,3.433,0,0,0-1.379,1.078,1.833,1.833,0,0,0-.317,1.546,1.326,1.326,0,0,0,1.065.931l0.019,0c0.022,0,.039,0,0.054,0a0.291,0.291,0,0,1,.248.383,0.3,0.3,0,0,1-.28.2h-0.026Z" transform="translate(-93.984 -351)"/>
  <path id="图层_56" data-name="图层 56" class="cls-4" d="M122.824,410.3a0.464,0.464,0,0,0-.352.161,0.454,0.454,0,0,0,.04.631,2.612,2.612,0,0,1,.536.735,0.693,0.693,0,0,1,.06.623,0.725,0.725,0,0,1-.469.3,2.359,2.359,0,0,1-.548.052c-0.092,0-.184,0-0.274,0h-0.023a0.464,0.464,0,0,0-.415.258,0.448,0.448,0,0,0,.069.5,0.82,0.82,0,0,1,.163.671,1.376,1.376,0,0,1-.443.686,2.956,2.956,0,0,1-1.788.669c-0.1.007-.2,0.01-0.307,0.01a9.021,9.021,0,0,1-1.811-.231,0.5,0.5,0,0,0-.094-0.009,0.455,0.455,0,0,0-.135.892c3.016,0.909,8.609,1.1,10.447,1.16l0.06,0c0.163,0.006.3,0.01,0.378,0.014l0.046,0,0.012,0h0.056a0.457,0.457,0,0,0,.255-0.838l-0.006,0-0.006,0a0.447,0.447,0,0,0-.195-0.065l-0.058-.006-0.02,0a1.154,1.154,0,0,1-.917-0.813,1.664,1.664,0,0,1,.293-1.4,3.274,3.274,0,0,1,1.314-1.024,0.456,0.456,0,0,0-.127-0.864,12.291,12.291,0,0,1-5.475-2.022,0.459,0.459,0,0,0-.266-0.084m0,0.33a0.135,0.135,0,0,1,.077.024,12.6,12.6,0,0,0,5.613,2.078,0.13,0.13,0,0,1,.109.106,0.126,0.126,0,0,1-.071.133,3.6,3.6,0,0,0-1.444,1.133,2,2,0,0,0-.34,1.688,1.484,1.484,0,0,0,1.2,1.048l0.067,0.006a0.132,0.132,0,0,1,.066.021,0.125,0.125,0,0,1,.049.146,0.131,0.131,0,0,1-.123.086l-0.007,0c-0.028,0-.056,0-0.083-0.006-0.089,0-.254-0.01-0.451-0.016-1.828-.062-7.392-0.252-10.362-1.147a0.126,0.126,0,0,1-.088-0.153,0.131,0.131,0,0,1,.127-0.093l0.027,0a9.326,9.326,0,0,0,1.878.238c0.11,0,.219,0,0.329-0.01a3.29,3.29,0,0,0,1.986-.753,1.713,1.713,0,0,0,.545-0.857,1.151,1.151,0,0,0-.239-0.966,0.122,0.122,0,0,1-.018-0.136,0.131,0.131,0,0,1,.118-0.073h0c0.1,0,.2,0,0.294,0a2.609,2.609,0,0,0,.626-0.061,1.042,1.042,0,0,0,.679-0.46,1.007,1.007,0,0,0-.06-0.946,2.933,2.933,0,0,0-.6-0.817,0.125,0.125,0,0,1-.012-0.173,0.136,0.136,0,0,1,.1-0.045" transform="translate(-93.984 -351)"/>
  <path id="图层_57" data-name="图层 57" class="cls-4" d="M138.875,396.824a1.909,1.909,0,0,0,0,2.743,1.909,1.909,0,0,0,0-2.743m0,3.114c-0.542,0-.952-0.749-0.952-1.742s0.41-1.743.952-1.743,0.952,0.749.952,1.743-0.41,1.742-.952,1.742" transform="translate(-93.984 -351)"/>
  <path id="图层_58" data-name="图层 58" class="cls-4" d="M132.334,384.882c1.266,1.691,3.217,2.446,6.316,2.446,3.228,0,5.157-.732,6.44-2.446,0.2-1.106.382-2.978,0.029-3.429-0.281-.357-1.9-2.139-6.345-2.139s-6.075,1.637-6.469,2.139c-0.354.451-.172,2.323,0.029,3.429m6.316,2.817c-3.25,0-5.3-.811-6.64-2.631a0.178,0.178,0,0,1-.033-0.076c-0.057-.308-0.543-3.03.036-3.768,0.538-.686,2.274-2.281,6.761-2.281,4.613,0,6.338,1.9,6.637,2.281,0.579,0.738.093,3.46,0.036,3.768a0.178,0.178,0,0,1-.033.076c-1.343,1.82-3.429,2.631-6.764,2.631" transform="translate(-93.984 -351)"/>
  <path id="图层_59" data-name="图层 59" class="cls-4" d="M132.645,381a0.184,0.184,0,0,1-.183-0.159c-0.021-.14-0.489-3.458.948-5.282a0.186,0.186,0,0,1,.292.23c-1.338,1.7-.878,4.966-0.873,5a0.185,0.185,0,0,1-.157.21l-0.027,0" transform="translate(-93.984 -351)"/>
  <path id="图层_60" data-name="图层 60" class="cls-4" d="M144.775,381l-0.027,0a0.185,0.185,0,0,1-.157-0.21c0-.033.465-3.3-0.873-5s-5.027-1.628-5.064-1.628-3.622-.063-4.953,1.625a0.185,0.185,0,1,1-.291-0.23c1.445-1.834,5.09-1.77,5.244-1.766s3.911-.064,5.356,1.769,0.969,5.142.948,5.282a0.184,0.184,0,0,1-.183.159" transform="translate(-93.984 -351)"/>
  <path id="图层_61" data-name="图层 61" class="cls-4" d="M128.117,385.384a0.182,0.182,0,0,1-.133-0.057,0.184,0.184,0,0,1,0-.262,13.865,13.865,0,0,1,3.852-2.605,0.185,0.185,0,0,1,.155.337,13.5,13.5,0,0,0-3.749,2.535,0.185,0.185,0,0,1-.129.052" transform="translate(-93.984 -351)"/>
  <path id="图层_62" data-name="图层 62" class="cls-4" d="M124.776,391.538a0.186,0.186,0,0,1-.181-0.144,9.5,9.5,0,0,1,1.326-7.26,0.532,0.532,0,0,1,.917.061,2.873,2.873,0,0,0,.36.569,3.721,3.721,0,0,1,.319-0.567,0.468,0.468,0,0,1,.408-0.2,0.46,0.46,0,0,1,.387.229,0.967,0.967,0,0,0,.344.349,0.185,0.185,0,1,1-.188.319,1.315,1.315,0,0,1-.477-0.483,0.1,0.1,0,0,0-.08-0.044,0.1,0.1,0,0,0-.087.041,3.088,3.088,0,0,0-.388.772,0.185,0.185,0,0,1-.313.068,3.539,3.539,0,0,1-.621-0.892,0.152,0.152,0,0,0-.129-0.082,0.154,0.154,0,0,0-.141.066,9.115,9.115,0,0,0-1.275,6.974,0.185,0.185,0,0,1-.139.222,0.2,0.2,0,0,1-.042,0" transform="translate(-93.984 -351)"/>
  <path id="图层_63" data-name="图层 63" class="cls-4" d="M149.307,385.384a0.185,0.185,0,0,1-.129-0.052,13.5,13.5,0,0,0-3.749-2.535,0.185,0.185,0,1,1,.155-0.337,13.865,13.865,0,0,1,3.852,2.605,0.184,0.184,0,0,1,0,.262,0.182,0.182,0,0,1-.133.057" transform="translate(-93.984 -351)"/>
  <path id="图层_64" data-name="图层 64" class="cls-4" d="M138.712,404.145c-8.289,0-14.079-4.761-14.079-11.577a9.675,9.675,0,0,1,.524-3.139,0.185,0.185,0,1,1,.351.12,9.325,9.325,0,0,0-.5,3.019c0,6.6,5.637,11.206,13.708,11.206s13.708-4.608,13.708-11.206a9.325,9.325,0,0,0-.5-3.019,0.185,0.185,0,1,1,.351-0.12,9.675,9.675,0,0,1,.524,3.139c0,6.816-5.79,11.577-14.079,11.577" transform="translate(-93.984 -351)"/>
  <path id="图层_65" data-name="图层 65" class="cls-4" d="M152.648,391.538a0.2,0.2,0,0,1-.042,0,0.185,0.185,0,0,1-.139-0.222,9.115,9.115,0,0,0-1.275-6.974,0.156,0.156,0,0,0-.141-0.066,0.152,0.152,0,0,0-.129.082,3.539,3.539,0,0,1-.621.892,0.185,0.185,0,0,1-.313-0.068,3.088,3.088,0,0,0-.388-0.772,0.1,0.1,0,0,0-.087-0.041,0.1,0.1,0,0,0-.08.044,1.315,1.315,0,0,1-.477.483,0.185,0.185,0,1,1-.188-0.319,0.967,0.967,0,0,0,.344-0.349,0.46,0.46,0,0,1,.387-0.229,0.468,0.468,0,0,1,.408.2,3.721,3.721,0,0,1,.319.567,2.873,2.873,0,0,0,.36-0.569,0.532,0.532,0,0,1,.917-0.061,9.5,9.5,0,0,1,1.326,7.26,0.186,0.186,0,0,1-.181.144" transform="translate(-93.984 -351)"/>
  <path id="图层_66" data-name="图层 66" class="cls-4" d="M128.1,394.238a4.758,4.758,0,0,0,.437,2.874,4.1,4.1,0,0,0,2.253,2.239,4.03,4.03,0,0,0,3.334-.345,4.875,4.875,0,0,0,2.128-2.281Zm3.941,5.7a4,4,0,0,1-1.38-.238,4.47,4.47,0,0,1-2.463-2.437,5.085,5.085,0,0,1-.426-3.3,0.185,0.185,0,0,1,.236-0.142l8.541,2.606a0.185,0.185,0,0,1,.121.237,5.131,5.131,0,0,1-2.36,2.662,4.556,4.556,0,0,1-2.269.61" transform="translate(-93.984 -351)"/>
  <path id="图层_67" data-name="图层 67" class="cls-4" d="M130.912,396.294c0,1.267.738,2.294,1.648,2.294s1.648-1.027,1.648-2.294a3.167,3.167,0,0,0-.026-0.394l-2.978-.909a2.941,2.941,0,0,0-.292,1.3" transform="translate(-93.984 -351)"/>
  <path id="图层_68" data-name="图层 68" class="cls-4" d="M141.279,396.725a4.869,4.869,0,0,0,2.128,2.281,4.03,4.03,0,0,0,3.334.345,4.106,4.106,0,0,0,2.253-2.239,4.758,4.758,0,0,0,.437-2.874Zm4.211,3.212a4.556,4.556,0,0,1-2.269-.61,5.126,5.126,0,0,1-2.36-2.662,0.181,0.181,0,0,1,.01-0.144,0.183,0.183,0,0,1,.111-0.093l8.541-2.606a0.185,0.185,0,0,1,.236.142,5.092,5.092,0,0,1-.426,3.3,4.47,4.47,0,0,1-2.463,2.437,4,4,0,0,1-1.38.238" transform="translate(-93.984 -351)"/>
  <path id="图层_69" data-name="图层 69" class="cls-4" d="M146.619,396.294c0,1.267-.738,2.294-1.648,2.294s-1.648-1.027-1.648-2.294a3.167,3.167,0,0,1,.026-0.394l2.978-.909a2.941,2.941,0,0,1,.292,1.3" transform="translate(-93.984 -351)"/>
  <path id="图层_70" data-name="图层 70" class="cls-4" d="M159.378,394.741a0.184,0.184,0,0,1-.164-0.1,0.186,0.186,0,0,1,.077-0.251,11.264,11.264,0,0,0,1.252-.809,0.186,0.186,0,0,1,.219.3,11.469,11.469,0,0,1-1.3.837,0.184,0.184,0,0,1-.087.022" transform="translate(-93.984 -351)"/>
  <path id="图层_71" data-name="图层 71" class="cls-4" d="M164.547,386.908a0.185,0.185,0,0,1-.184-0.166,7.353,7.353,0,0,0-1.308-3.316c-4.5-6.632-15.223-7.866-15.331-7.878l-0.019,0a30.206,30.206,0,0,0-3.648-.464c-0.485-.042-0.942-0.082-1.38-0.129a0.186,0.186,0,1,1,.039-0.369c0.434,0.046.891,0.086,1.374,0.129a30.378,30.378,0,0,1,3.685.469c0.394,0.045,11.058,1.357,15.587,8.037a7.7,7.7,0,0,1,1.37,3.485,0.185,0.185,0,0,1-.165.2h-0.02" transform="translate(-93.984 -351)"/>
  <path id="图层_72" data-name="图层 72" class="cls-4" d="M152.579,393.537a0.186,0.186,0,0,1-.064-0.36c0.042-.015,4.156-1.554,3.893-4.679s-4.768-3.638-4.814-3.643a0.186,0.186,0,0,1,.04-0.369c0.049,0,4.855.561,5.143,3.981s-3.954,4.993-4.135,5.059a0.2,0.2,0,0,1-.063.011" transform="translate(-93.984 -351)"/>
  <path id="图层_73" data-name="图层 73" class="cls-4" d="M131.58,405.477a4.811,4.811,0,0,1-2.74-.914c-2.485-1.7-.9-4.358-0.881-4.384a0.185,0.185,0,1,1,.316.193,2.831,2.831,0,0,0,.774,3.884,3.9,3.9,0,0,0,4.087.493,0.185,0.185,0,1,1,.186.32,3.657,3.657,0,0,1-1.742.408" transform="translate(-93.984 -351)"/>
  <path id="图层_74" data-name="图层 74" class="cls-4" d="M160.382,389.69a0.186,0.186,0,0,1-.186-0.186,5.355,5.355,0,0,0-3.282-4.553c-1.774-.832-3.348-0.75-5.548-0.531a0.185,0.185,0,0,1-.037-0.369c2.261-.226,3.882-0.308,5.743.564a5.733,5.733,0,0,1,3.5,4.89,0.187,0.187,0,0,1-.186.185" transform="translate(-93.984 -351)"/>
  <path id="图层_75" data-name="图层 75" class="cls-4" d="M137.811,406.949h0Zm-4.491,1.4a2.31,2.31,0,0,1,1.315.53c0.039,0.028.077,0.058,0.115,0.088a1.025,1.025,0,0,0,.27.175,0.974,0.974,0,0,0,.577-0.037,6.049,6.049,0,0,0,1.547-.682,1.767,1.767,0,0,1,.5-1.575,2.226,2.226,0,0,0-.9-2.2,2.635,2.635,0,0,0-2.532-.229,2.708,2.708,0,0,0-1.543,1.992,2.758,2.758,0,0,0,.408,1.958,1.279,1.279,0,0,1,.241-0.023m1.887,1.195a0.887,0.887,0,0,1-.316-0.054,1.384,1.384,0,0,1-.372-0.232c-0.034-.027-0.068-0.054-0.1-0.08a1.664,1.664,0,0,0-1.357-.417,0.184,0.184,0,0,1-.209-0.067,3.133,3.133,0,0,1-.545-2.342,3.085,3.085,0,0,1,1.758-2.269,2.977,2.977,0,0,1,2.9.266,2.6,2.6,0,0,1,1.029,2.643,0.18,0.18,0,0,1-.063.1,1.44,1.44,0,0,0-.4,1.4,0.187,0.187,0,0,1-.083.179,6.373,6.373,0,0,1-1.744.789,1.828,1.828,0,0,1-.491.082" transform="translate(-93.984 -351)"/>
  <path id="图层_76" data-name="图层 76" class="cls-4" d="M133.679,407.648a0.828,0.828,0,0,0,.643.328,0.849,0.849,0,0,0,.651-0.308l-0.231-.016a4.976,4.976,0,0,0-1.063,0m0.653,0.7h-0.015a1.155,1.155,0,0,1-1.081-.771,0.185,0.185,0,0,1,.114-0.226,3.74,3.74,0,0,1,1.419-.068c0.186,0.013.361,0.026,0.511,0.027a0.185,0.185,0,0,1,.15.077,0.188,0.188,0,0,1,.025.167,1.2,1.2,0,0,1-1.123.794" transform="translate(-93.984 -351)"/>
  <path id="图层_77" data-name="图层 77" class="cls-4" d="M136.808,406.277l-0.636.864a0.877,0.877,0,0,0,.391-0.213,0.817,0.817,0,0,0,.245-0.651m-0.854,1.261a1.229,1.229,0,0,1-.191-0.015,0.186,0.186,0,0,1-.1-0.313l0.874-1.186a0.382,0.382,0,0,1,.354-0.188,0.355,0.355,0,0,1,.279.326,1.189,1.189,0,0,1-.347,1.033,1.26,1.26,0,0,1-.866.343" transform="translate(-93.984 -351)"/>
  <path id="图层_78" data-name="图层 78" class="cls-4" d="M135.633,408.675a0.927,0.927,0,0,1-.634-0.246,0.186,0.186,0,1,1,.256-0.269,0.567,0.567,0,0,0,.6.1,0.517,0.517,0,0,0,.3-0.5,0.186,0.186,0,0,1,.37-0.033,0.891,0.891,0,0,1-.514.872,0.9,0.9,0,0,1-.376.08" transform="translate(-93.984 -351)"/>
  <path id="图层_79" data-name="图层 79" class="cls-4" d="M135.141,407.834H135.13a0.186,0.186,0,0,1-.174-0.2,0.661,0.661,0,0,0-.4-0.624,0.186,0.186,0,1,1,.144-0.342,1.029,1.029,0,0,1,.623.989,0.186,0.186,0,0,1-.185.174" transform="translate(-93.984 -351)"/>
  <path id="图层_80" data-name="图层 80" class="cls-4" d="M135.913,407.561a0.191,0.191,0,0,1-.073-0.015,0.856,0.856,0,0,1-.486-0.613,0.836,0.836,0,0,1,.184-0.742,0.186,0.186,0,0,1,.274.251,0.464,0.464,0,0,0-.095.413,0.484,0.484,0,0,0,.269.35,0.185,0.185,0,0,1-.073.356" transform="translate(-93.984 -351)"/>
  <path id="图层_81" data-name="图层 81" class="cls-4" d="M142.718,407.861a9.977,9.977,0,0,1-4.766-1.208,0.186,0.186,0,0,1,.178-0.326,9.609,9.609,0,0,0,5.652,1.1,2.668,2.668,0,0,1,.663-1.638c0.079-.1.164-0.189,0.247-0.277A2.584,2.584,0,0,0,145.1,405a0.938,0.938,0,0,0,.187-0.8,0.186,0.186,0,0,1,.225-0.3,1.021,1.021,0,0,1-.084,1.265,2.851,2.851,0,0,1-.463.6c-0.079.085-.158,0.17-0.231,0.259a2.254,2.254,0,0,0-.578,1.56,0.186,0.186,0,0,1-.162.192,9.715,9.715,0,0,1-1.275.083" transform="translate(-93.984 -351)"/>
  <path id="图层_82" data-name="图层 82" class="cls-4" d="M141.647,406.459a0.186,0.186,0,0,1-.034-0.368,6.578,6.578,0,0,0,3.238-1.586,3.332,3.332,0,0,0,.876-2,0.186,0.186,0,1,1,.371-0.006,3.677,3.677,0,0,1-.965,2.246,0.223,0.223,0,0,1-.026.027,7.019,7.019,0,0,1-3.425,1.682l-0.035,0" transform="translate(-93.984 -351)"/>
  <path id="图层_83" data-name="图层 83" class="cls-4" d="M146.707,409.365a0.185,0.185,0,0,1-.178-0.135,17.08,17.08,0,0,0-1.444-3.661,0.186,0.186,0,0,1,.33-0.17,17.419,17.419,0,0,1,1.471,3.73,0.187,0.187,0,0,1-.128.229,0.179,0.179,0,0,1-.051.007" transform="translate(-93.984 -351)"/>
  <path id="图层_84" data-name="图层 84" class="cls-4" d="M148.235,414.627a0.191,0.191,0,0,1-.092-0.024,0.185,0.185,0,0,1-.069-0.253,2.288,2.288,0,0,1,.691-0.688,2.323,2.323,0,0,0,.556-0.509,2.673,2.673,0,0,0,.508-1.649,2.27,2.27,0,0,0-1.332-1.956,3.659,3.659,0,0,0-2.886.321c-0.295.141-.595,0.294-0.885,0.443a16.221,16.221,0,0,1-1.991.91,8.128,8.128,0,0,1-1.841.256,2.757,2.757,0,0,1-.935-0.161,3.959,3.959,0,0,0-.523-0.131,0.185,0.185,0,0,1-.158-0.177l0-.116a0.186,0.186,0,0,1,.18-0.191,0.189,0.189,0,0,1,.187.145c0.143,0.031.284,0.073,0.422,0.114a2.441,2.441,0,0,0,.813.146,7.961,7.961,0,0,0,1.735-.235,16.071,16.071,0,0,0,1.945-.89c0.292-.15.594-0.305,0.894-0.448a4.007,4.007,0,0,1,3.191-.327,2.65,2.65,0,0,1,1.558,2.279,3.045,3.045,0,0,1-.575,1.88,2.647,2.647,0,0,1-.639.594,2,2,0,0,0-.59.573,0.184,0.184,0,0,1-.161.094" transform="translate(-93.984 -351)"/>
  <path id="图层_85" data-name="图层 85" class="cls-4" d="M142.6,415.478l-0.034,0a0.186,0.186,0,0,1-.149-0.216,4.477,4.477,0,0,1,1.181-2.341,3.942,3.942,0,0,1,2.261-2.711,0.185,0.185,0,1,1,.148.34,3.563,3.563,0,0,0-2.057,2.5,0.186,0.186,0,0,1-.048.092,4.067,4.067,0,0,0-1.12,2.189,0.185,0.185,0,0,1-.182.152" transform="translate(-93.984 -351)"/>
  <path id="图层_86" data-name="图层 86" class="cls-4" d="M148.9,413.936a0.186,0.186,0,0,1-.1-0.027,7,7,0,0,0-4.974-.855,0.186,0.186,0,0,1-.074-0.364,7.374,7.374,0,0,1,5.24.9,0.185,0.185,0,0,1-.1.344" transform="translate(-93.984 -351)"/>
  <path id="图层_87" data-name="图层 87" class="cls-4" d="M145.269,417.291c-0.161,0-.32,0-0.476-0.008a0.186,0.186,0,0,1,.014-0.371,17.81,17.81,0,0,0,4.526-.489,0.969,0.969,0,0,0,.054-1.1,1.575,1.575,0,0,0-1.1-.683,3.186,3.186,0,0,0-1.408.123,5.874,5.874,0,0,0-1.581.709,0.186,0.186,0,0,1-.2-0.313,6.263,6.263,0,0,1,1.681-.753,3.553,3.553,0,0,1,1.571-.132,1.952,1.952,0,0,1,1.353.859,1.323,1.323,0,0,1-.142,1.584,0.187,0.187,0,0,1-.09.05,18.7,18.7,0,0,1-4.2.52" transform="translate(-93.984 -351)"/>
  <path id="图层_88" data-name="图层 88" class="cls-4" d="M139.015,416.5a2.884,2.884,0,0,1-.781-0.108,4.946,4.946,0,0,1-2.105-1.664l-0.03-.033a0.192,0.192,0,0,1-.044-0.1,16.091,16.091,0,0,0-1.875-5.551,0.186,0.186,0,0,1,.325-0.18,16.469,16.469,0,0,1,1.91,5.623,4.66,4.66,0,0,0,1.92,1.544,2.169,2.169,0,0,0,2.172-.5,2.082,2.082,0,0,0,.481-1.232,5.067,5.067,0,0,0-.12-1.347,15.339,15.339,0,0,1-3.5-5.741,0.186,0.186,0,0,1,.352-0.118,14.963,14.963,0,0,0,3.45,5.64,0.187,0.187,0,0,1,.049.093,5.567,5.567,0,0,1,.136,1.5,2.454,2.454,0,0,1-.575,1.452,2.374,2.374,0,0,1-1.768.717" transform="translate(-93.984 -351)"/>
  <path id="图层_89" data-name="图层 89" class="cls-4" d="M136.872,412.741a3.08,3.08,0,0,1-1.18-.233,0.186,0.186,0,0,1,.142-0.343,2.724,2.724,0,0,0,1.986.035,2.607,2.607,0,0,0,1.439-1.32,0.186,0.186,0,0,1,.337.157,2.983,2.983,0,0,1-1.645,1.51,3.086,3.086,0,0,1-1.079.194" transform="translate(-93.984 -351)"/>
  <path id="图层_90" data-name="图层 90" class="cls-4" d="M136.138,419.184a1.719,1.719,0,0,1-.865-0.219,0.773,0.773,0,0,1-.439-0.825,0.974,0.974,0,0,1,.634-0.559l0.092-.043a1.927,1.927,0,0,0,1.011-2.267,0.185,0.185,0,0,1,.353-0.114,2.31,2.31,0,0,1-1.206,2.717l-0.1.045a0.712,0.712,0,0,0-.429.319,0.435,0.435,0,0,0,.266.406,1.507,1.507,0,0,0,1.026.134,2.928,2.928,0,0,0,1.017-.445,0.186,0.186,0,1,1,.2.312,3.283,3.283,0,0,1-1.146.5,2.147,2.147,0,0,1-.418.042" transform="translate(-93.984 -351)"/>
  <path id="图层_91" data-name="图层 91" class="cls-4" d="M139.208,419.273c-0.107,0-.214,0-0.32-0.005a1.417,1.417,0,0,1-.913-0.268,1.008,1.008,0,0,1-.294-0.929,2.619,2.619,0,0,1,.326-0.827,0.186,0.186,0,0,1,.327.176,2.335,2.335,0,0,0-.287.708,0.662,0.662,0,0,0,.172.592,1.1,1.1,0,0,0,.681.177,9.56,9.56,0,0,0,1.016-.021,1.1,1.1,0,0,0,.554-0.143,0.668,0.668,0,0,0,.231-0.59,2.338,2.338,0,0,0-.236-0.746,0.185,0.185,0,0,1,.339-0.149,2.629,2.629,0,0,1,.267.868,1.031,1.031,0,0,1-.385.919,1.43,1.43,0,0,1-.742.211c-0.244.018-.49,0.027-0.736,0.027" transform="translate(-93.984 -351)"/>
  <path id="图层_92" data-name="图层 92" class="cls-4" d="M141.828,419.079a2.451,2.451,0,0,1-.955-0.19,0.185,0.185,0,0,1-.1-0.224l0.041-.138a0.184,0.184,0,0,1,.231-0.124,0.187,0.187,0,0,1,.131.2,2.123,2.123,0,0,0,1.455-.053,0.92,0.92,0,0,0,.472-0.365,0.79,0.79,0,0,0-.274-0.916,2.887,2.887,0,0,0-1.134-.47,0.185,0.185,0,0,1,.093-0.359,3.14,3.14,0,0,1,1.278.544,1.152,1.152,0,0,1,.362,1.38,1.266,1.266,0,0,1-.654.528,2.455,2.455,0,0,1-.941.185" transform="translate(-93.984 -351)"/>
  <path id="图层_93" data-name="图层 93" class="cls-4" d="M143.374,418.292a0.186,0.186,0,0,1-.03-0.369,2.007,2.007,0,0,0,.786-0.243,0.505,0.505,0,0,0,.243-0.544,0.977,0.977,0,0,0-.53-0.4,6.677,6.677,0,0,1-2.808-1.986,0.186,0.186,0,0,1,.3-0.224,6.364,6.364,0,0,0,2.656,1.868,1.281,1.281,0,0,1,.733.609,0.866,0.866,0,0,1-.382.984,2.284,2.284,0,0,1-.933.3l-0.031,0" transform="translate(-93.984 -351)"/>
  <path id="图层_94" data-name="图层 94" class="cls-4" d="M133.493,417.634a8,8,0,0,1-2.916-.548,0.19,0.19,0,0,1-.092-0.078,1.591,1.591,0,0,1-.11-1.392,1.7,1.7,0,0,1,.792-0.887,9.11,9.11,0,0,1-1.2-2.367,3.383,3.383,0,0,1,.33-2.867,2.314,2.314,0,0,1,2.762-.859,0.185,0.185,0,0,1-.159.335,1.932,1.932,0,0,0-2.3.734,3.02,3.02,0,0,0-.28,2.554,9.57,9.57,0,0,0,1.275,2.456,0.183,0.183,0,0,1,.019.164,0.187,0.187,0,0,1-.119.114,1.282,1.282,0,0,0-.779.76,1.235,1.235,0,0,0,.054,1.011,7.471,7.471,0,0,0,5.768-.164,0.185,0.185,0,1,1,.159.335,7.522,7.522,0,0,1-3.208.7" transform="translate(-93.984 -351)"/>
  <path id="图层_95" data-name="图层 95" class="cls-4" d="M145.4,404.237a0.186,0.186,0,0,1-.045-0.366c0.029-.007,2.971-0.745,4.957-1.156a46.241,46.241,0,0,0,6.206-1.881,4.414,4.414,0,0,0,1.122-4.669,1.455,1.455,0,0,0-.58-0.77l-0.106.062a17.319,17.319,0,0,1-5.563,2.389,0.186,0.186,0,0,1-.083-0.362,16.812,16.812,0,0,0,5.461-2.348l0.195-.114a0.186,0.186,0,0,1,.173-0.006,1.742,1.742,0,0,1,.85,1.018,4.8,4.8,0,0,1-1.181,5.039,0.12,0.12,0,0,1-.028.026l-0.021.02,0,0a0.752,0.752,0,0,1-.07.04v0l-0.016,0a20.54,20.54,0,0,1-2.061.742,40.664,40.664,0,0,1-4.222,1.173c-1.978.41-4.912,1.146-4.942,1.153a0.174,0.174,0,0,1-.045.006" transform="translate(-93.984 -351)"/>
  <path id="图层_96" data-name="图层 96" class="cls-4" d="M157.5,400.686c-0.079,0-.157,0-0.235-0.009a0.186,0.186,0,0,1-.17-0.2,0.184,0.184,0,0,1,.2-0.17,3.5,3.5,0,0,0,2.791-1.3c0.085-.093.166-0.193,0.248-0.292a2.51,2.51,0,0,1,.99-0.849,2.736,2.736,0,0,1,.434-0.117,1.131,1.131,0,0,0,.589-0.235,0.441,0.441,0,0,0,.116-0.359,0.941,0.941,0,0,0-.373-0.634,3.165,3.165,0,0,0-2.435-.189,0.185,0.185,0,0,1-.068-0.364,3.493,3.493,0,0,1,2.722.254,1.314,1.314,0,0,1,.524.9,0.805,0.805,0,0,1-.22.647,1.409,1.409,0,0,1-.779.34,2.538,2.538,0,0,0-.376.1,2.2,2.2,0,0,0-.837.738c-0.085.1-.171,0.208-0.26,0.307a3.962,3.962,0,0,1-2.861,1.426" transform="translate(-93.984 -351)"/>
  <path id="图层_97" data-name="图层 97" class="cls-4" d="M157.351,395.541a0.185,0.185,0,0,1-.073-0.356,18.022,18.022,0,0,1,3.363-1.091,0.186,0.186,0,0,1,.082.362,17.605,17.605,0,0,0-3.3,1.07,0.191,0.191,0,0,1-.073.015" transform="translate(-93.984 -351)"/>
  <path id="图层_98" data-name="图层 98" class="cls-4" d="M165.96,400.865a17.709,17.709,0,0,1-5.14-.867,0.187,0.187,0,0,1-.132-0.18l0.021-1.485a0.186,0.186,0,1,1,.371.006l-0.019,1.344a15.551,15.551,0,0,0,6.18.744,15.736,15.736,0,0,0,2.7-12.328,15.09,15.09,0,0,0-9.553-.52,50.108,50.108,0,0,1,.456,8.328,0.186,0.186,0,1,1-.371-0.01,49.69,49.69,0,0,0-.475-8.426,0.186,0.186,0,0,1,.132-0.2,15.445,15.445,0,0,1,10.046.529,0.182,0.182,0,0,1,.109.133,16.106,16.106,0,0,1-2.8,12.784,0.188,0.188,0,0,1-.129.074,12.539,12.539,0,0,1-1.4.078" transform="translate(-93.984 -351)"/>
  <path id="图层_99" data-name="图层 99" class="cls-4" d="M131.59,413.309a5.865,5.865,0,0,1-1.266-.137,0.185,0.185,0,1,1,.079-0.362,5.675,5.675,0,0,0,4.946-1.286,0.186,0.186,0,0,1,.248.276,6.034,6.034,0,0,1-4.007,1.509" transform="translate(-93.984 -351)"/>
  <path id="图层_100" data-name="图层 100" class="cls-4" d="M134.7,415.552a0.181,0.181,0,0,1-.116-0.041,3.275,3.275,0,0,0-3.1-.5,0.186,0.186,0,1,1-.129-0.348,3.607,3.607,0,0,1,3.46.554,0.186,0.186,0,0,1-.117.33" transform="translate(-93.984 -351)"/>
  <path id="图层_101" data-name="图层 101" class="cls-4" d="M154.371,396.766a2.437,2.437,0,0,1,.687,2.141c-0.011.4-.029,0.805-0.044,1.207a2.647,2.647,0,0,1-.37,1.383,0.186,0.186,0,0,0,.321.187,2.93,2.93,0,0,0,.415-1.459c0.027-.481.045-0.967,0.052-1.449a2.67,2.67,0,0,0-.874-2.33c-0.189-.146-0.374.176-0.187,0.32" transform="translate(-93.984 -351)"/>
  <path id="图层_102" data-name="图层 102" class="cls-4" d="M163.031,390.278a5.511,5.511,0,0,0,2.539,1.077h0a0.218,0.218,0,0,1,.187.248,0.223,0.223,0,0,1-.209.184,6.348,6.348,0,0,1-3.086-.633l-0.009,0a0.514,0.514,0,0,1-.239-0.7,0.545,0.545,0,0,1,.721-0.231,0.506,0.506,0,0,1,.095.059" transform="translate(-93.984 -351)"/>
  <path id="图层_103" data-name="图层 103" class="cls-4" d="M164.741,389.812a9.422,9.422,0,0,1-.616,2.871,0.4,0.4,0,0,1-.5.223,0.378,0.378,0,0,1-.242-0.452v0a8.523,8.523,0,0,0,.3-2.646,0.532,0.532,0,0,1,1.063-.045,0.4,0.4,0,0,1,0,.049v0Z" transform="translate(-93.984 -351)"/>
  <path id="图层_104" data-name="图层 104" class="cls-4" d="M164.045,393.1a5.475,5.475,0,0,1-1.177-.127,0.464,0.464,0,0,1,.2-0.906,4.591,4.591,0,0,0,2.111-.036,0.464,0.464,0,1,1,.23.9,5.531,5.531,0,0,1-1.362.17" transform="translate(-93.984 -351)"/>
  <path id="图层_105" data-name="图层 105" class="cls-4" d="M166.97,390.264a11.719,11.719,0,0,0-.313,2.481h0a0.269,0.269,0,0,1-.531.043,12.509,12.509,0,0,1-.215-2.65v0a0.536,0.536,0,0,1,1.072.026,0.509,0.509,0,0,1-.013.1" transform="translate(-93.984 -351)"/>
  <path id="图层_106" data-name="图层 106" class="cls-4" d="M166.359,391.27a7.9,7.9,0,0,1,2.1.177h0.006a0.526,0.526,0,0,1,.409.631,0.556,0.556,0,0,1-.73.373,6.874,6.874,0,0,0-1.8-.423h0a0.38,0.38,0,0,1,.019-0.759" transform="translate(-93.984 -351)"/>
  <path id="图层_107" data-name="图层 107" class="cls-4" d="M162.946,396.086a3.343,3.343,0,0,1,0-1.946,0.35,0.35,0,0,1,.2-0.229l0.048-.021a6.567,6.567,0,0,1,1.715-.5,5.64,5.64,0,0,1,1.846.025,2.839,2.839,0,0,1,.978.342,1.66,1.66,0,0,1,.469.407,1.349,1.349,0,0,1,.27.616,1.556,1.556,0,0,1-.291,1.125,2.453,2.453,0,0,1-.7.643,0.41,0.41,0,0,1-.556-0.115,0.378,0.378,0,0,1-.009-0.411l0,0a4.8,4.8,0,0,0,.36-0.621,0.773,0.773,0,0,0,.067-0.441,0.416,0.416,0,0,0-.216-0.263,2,2,0,0,0-.6-0.216,5.544,5.544,0,0,0-1.512-.113,9.016,9.016,0,0,0-1.563.242l0.245-.25a2.6,2.6,0,0,0,0,1.514,0.377,0.377,0,0,1-.264.472,0.394,0.394,0,0,1-.487-0.255h0Z" transform="translate(-93.984 -351)"/>
  <path id="图层_108" data-name="图层 108" class="cls-4" d="M164.646,396.277a0.464,0.464,0,0,1-.456-0.384,4.629,4.629,0,0,1,.089-1.987,0.464,0.464,0,0,1,.9.241,3.693,3.693,0,0,0-.072,1.586,0.463,0.463,0,0,1-.376.537,0.451,0.451,0,0,1-.081.007" transform="translate(-93.984 -351)"/>
  <path id="图层_109" data-name="图层 109" class="cls-4" d="M165.833,396.47a0.465,0.465,0,0,1-.462-0.424,5.327,5.327,0,0,1,.3-2.264,0.464,0.464,0,1,1,.885.278,4.384,4.384,0,0,0-.261,1.907,0.464,0.464,0,0,1-.423.5l-0.04,0" transform="translate(-93.984 -351)"/>
  <path id="图层_110" data-name="图层 110" class="cls-4" d="M162.923,395.6a14.248,14.248,0,0,1,2.787-.029,13.429,13.429,0,0,1,1.387.2c0.228,0.045.455,0.1,0.681,0.151l0.336,0.086a1.33,1.33,0,0,1,.328.114,0.515,0.515,0,0,1,.165.723,0.544,0.544,0,0,1-.447.242h-0.023a1.182,1.182,0,0,1-.319-0.071l-0.313-.085q-0.314-.082-0.629-0.151a12.45,12.45,0,0,0-1.273-.206,14.556,14.556,0,0,0-2.592-.026,0.488,0.488,0,0,1-.527-0.441,0.481,0.481,0,0,1,.439-0.509" transform="translate(-93.984 -351)"/>
  <path id="图层_111" data-name="图层 111" class="cls-4" d="M122.824,376.366a13.968,13.968,0,0,1-4.538-.559,7.372,7.372,0,0,1-3.4-2.768,3.929,3.929,0,0,1-.224-4.033,0.185,0.185,0,0,1,.327.175,3.572,3.572,0,0,0,.214,3.665,7.019,7.019,0,0,0,3.233,2.622c1.293,0.57,5.957.806,9.263,0.019a0.186,0.186,0,1,1,.086.361,22.216,22.216,0,0,1-4.961.518" transform="translate(-93.984 -351)"/>
  <path id="图层_112" data-name="图层 112" class="cls-4" d="M125.567,382.934a12.8,12.8,0,0,1-4.039-.713,15.9,15.9,0,0,1-3.654-1.7,12.4,12.4,0,0,1-4.329-4.613,6.847,6.847,0,0,1-.894-3.142,6.119,6.119,0,0,1,1.383-2.991,12.869,12.869,0,0,1,5.338-4.129c3.223-1.4,6.875-1.794,10.1-2.139a0.185,0.185,0,0,1,.066.364,7.721,7.721,0,0,0-4.569,3.372,5.184,5.184,0,0,0-.154,5.353,6.54,6.54,0,0,0,4.888,2.754,15.608,15.608,0,0,0,4.109-.162,0.186,0.186,0,1,1,.055.367,15.979,15.979,0,0,1-4.208.164,6.908,6.908,0,0,1-5.16-2.93,5.559,5.559,0,0,1,.154-5.741A8.128,8.128,0,0,1,128,364.037a29.806,29.806,0,0,0-8.481,1.946,12.494,12.494,0,0,0-5.187,4.006,5.841,5.841,0,0,0-1.313,2.782,6.491,6.491,0,0,0,.853,2.96,12.02,12.02,0,0,0,4.2,4.473,15.525,15.525,0,0,0,3.568,1.664,11.909,11.909,0,0,0,4.361.686c2.334-.1,4.321-0.255,6.074-0.48a0.186,0.186,0,0,1,.048.368c-1.765.227-3.762,0.385-6.106,0.483-0.151.006-.3,0.009-0.452,0.009" transform="translate(-93.984 -351)"/>
  <path id="图层_113" data-name="图层 113" class="cls-1" d="M120.191,394.385l0.487,2.356a2.444,2.444,0,0,0,1.275,1.824l1.647,0.7-1.647.7a2.444,2.444,0,0,0-1.275,1.824l-0.487,2.356-0.487-2.356a2.444,2.444,0,0,0-1.275-1.824l-1.647-.7,1.647-.7a2.444,2.444,0,0,0,1.275-1.824Z" transform="translate(-93.984 -351)"/>
  <path id="图层_114" data-name="图层 114" class="cls-4" d="M117.481,399.262l1.054,0.446a2.7,2.7,0,0,1,1.436,2.02l0.22,1.066,0.22-1.066a2.707,2.707,0,0,1,1.436-2.02l1.054-.446-1.054-.446a2.707,2.707,0,0,1-1.436-2.02l-0.22-1.066-0.22,1.066a2.7,2.7,0,0,1-1.436,2.02Zm2.71,5.149a0.272,0.272,0,0,1-.266-0.217l-0.487-2.356a2.2,2.2,0,0,0-1.115-1.629l-1.647-.7a0.273,0.273,0,0,1,0-.5l1.647-.7a2.2,2.2,0,0,0,1.115-1.629l0.487-2.356a0.272,0.272,0,0,1,.533,0l0.486,2.356a2.2,2.2,0,0,0,1.115,1.629l1.647,0.7a0.273,0.273,0,0,1,0,.5l-1.647.7a2.2,2.2,0,0,0-1.115,1.629l-0.486,2.356a0.273,0.273,0,0,1-.267.217" transform="translate(-93.984 -351)"/>
  <path id="图层_115" data-name="图层 115" class="cls-4" d="M153.33,391.068a19.215,19.215,0,0,0-.21-3.3c-0.081-.545-0.191-1.106-0.327-1.667a3.029,3.029,0,0,0-.226-0.588c-0.033-.071-0.065-0.139-0.092-0.2a3.205,3.205,0,0,1,.543.223,3.585,3.585,0,0,0,.7.257,1.749,1.749,0,0,1,.58.237,4.309,4.309,0,0,1,1.668,2.069,4.2,4.2,0,0,1,.1.5c0.171,1.318-.747,2.594-2.733,3.8Zm-23.841-26.837h0Zm0-1.088a0.583,0.583,0,0,0-.059,0c-3.248.348-6.929,0.742-10.2,2.167a13.224,13.224,0,0,0-5.486,4.247,6.417,6.417,0,0,0-1.451,3.192,7.2,7.2,0,0,0,.936,3.318,12.746,12.746,0,0,0,4.453,4.748,16.2,16.2,0,0,0,3.736,1.743,13.034,13.034,0,0,0,4.148.731c0.155,0,.313,0,0.469-0.01,1.327-.055,2.541-0.129,3.665-0.225q-0.548.357-1.053,0.756a0.969,0.969,0,0,0-.71-0.33h-0.031a0.973,0.973,0,0,0-.718.305,1.049,1.049,0,0,0-.755-0.4l-0.07,0a1.029,1.029,0,0,0-.879.476,9.987,9.987,0,0,0-1.391,7.643,0.029,0.029,0,0,1,0,.009,0.745,0.745,0,0,0,.063.163c-0.026.3-.039,0.595-0.039,0.887a10.994,10.994,0,0,0,3.153,7.848,3.589,3.589,0,0,0,1.275,4.566,5.3,5.3,0,0,0,3.027.994c0.1,0,.193,0,0.289-0.009-0.026.1-.048,0.2-0.065,0.3a3.6,3.6,0,0,0,.125,1.709c-0.06.007-.12,0.017-0.18,0.028a2.946,2.946,0,0,0-1.87,1.207,3.887,3.887,0,0,0-.4,3.3,5.519,5.519,0,0,0,.194.559,0.689,0.689,0,0,0,.168.38,11.1,11.1,0,0,0,.637,1.15,2.254,2.254,0,0,0-.576.834,2.107,2.107,0,0,0,.144,1.837l0.011,0.018a0.7,0.7,0,0,0,.333.276,8.556,8.556,0,0,0,3.108.585q0.416,0,.822-0.039a1.292,1.292,0,0,0,.7,1.3,2.264,2.264,0,0,0,1.126.29,2.646,2.646,0,0,0,.525-0.055,3.372,3.372,0,0,0,.9-0.324c0.024,0.023.048,0.046,0.073,0.067a1.875,1.875,0,0,0,1.238.394c0.108,0,.222.007,0.333,0.007,0.26,0,.521-0.009.776-0.028a1.929,1.929,0,0,0,.985-0.293,3.006,3.006,0,0,0,2-.1,1.846,1.846,0,0,0,.828-0.628,2.265,2.265,0,0,0,.836-0.332,1.5,1.5,0,0,0,.518-0.6h0.121a19.128,19.128,0,0,0,4.322-.533,0.7,0.7,0,0,0,.343-0.195,1.836,1.836,0,0,0,.214-2.2,2.21,2.21,0,0,0-.639-0.669,2.533,2.533,0,0,0,.539-0.552,3.547,3.547,0,0,0,.666-2.192,3.178,3.178,0,0,0-1.869-2.726,3.3,3.3,0,0,0-1.3-.253c-0.1,0-.208,0-0.314.013a17.1,17.1,0,0,0-1.3-3.2,2.558,2.558,0,0,0,.265-0.726c0.908-.223,2.854-0.694,4.286-0.991a40.71,40.71,0,0,0,4.279-1.19c1.4-.459,1.866-0.647,2.076-0.744a0.572,0.572,0,0,0,.068-0.028,0.7,0.7,0,0,0,.066-0.037,0.552,0.552,0,0,0,.141-0.1l0.02-.019c0.006,0,.011-0.01.017-0.015a5.263,5.263,0,0,0,.378-0.405,4.563,4.563,0,0,0,2.687-.959,0.7,0.7,0,0,0,.445.4,18.187,18.187,0,0,0,5.292.889,13.325,13.325,0,0,0,1.46-.08,0.72,0.72,0,0,0,.483-0.273,16.633,16.633,0,0,0,2.889-13.195,0.692,0.692,0,0,0-.41-0.5,15.3,15.3,0,0,0-5.205-1.146,8.514,8.514,0,0,0-1.386-3.246c-4.574-6.746-15.184-8.165-15.93-8.257a30.911,30.911,0,0,0-3.728-.473l-0.2-.017c-0.363-.033-0.707-0.063-1.038-0.1a10.626,10.626,0,0,0-4.151-.812h-0.194a11,11,0,0,0-3.445.556l-0.105.014-0.233.031a0.547,0.547,0,0,0-.308.15c-0.09.088-.183,0.174-0.276,0.26-0.192.179-.389,0.363-0.567,0.561a17.913,17.913,0,0,1-2.589.215,10.826,10.826,0,0,1-1.287-.073,6.186,6.186,0,0,1-4.624-2.585,4.887,4.887,0,0,1,.153-4.979,7.357,7.357,0,0,1,4.351-3.212,0.544,0.544,0,0,0-.133-1.071m27.864,32.045a0.069,0.069,0,0,1,.015-0.007l-0.018,0s0,0,0,0m2.852-.957c0.1-.025.207-0.051,0.317-0.076,0-.046,0-0.092,0-0.139-0.112.077-.217,0.15-0.315,0.215m-1.431.413q0.23-.077.46-0.148a0.15,0.15,0,0,1,.068-0.073,12.134,12.134,0,0,0,1.214-.783c0-.022,0-0.044,0-0.068a6.506,6.506,0,0,1-1.74,1.072m-5.985-1.31c1.939-1.022,4.1-2.617,3.814-4.8a4.326,4.326,0,0,0-.117-0.574,4.884,4.884,0,0,0-1.864-2.361,8.45,8.45,0,0,0-1.351-.543,4.609,4.609,0,0,0-1.532-.454h0a1.241,1.241,0,0,0,.139.368,0.987,0.987,0,0,0,.06.456,7.975,7.975,0,0,1,.33.809q0.195,0.8.318,1.62a18.638,18.638,0,0,1,.2,3.209l0,2.272m-23.3-29.647a7.865,7.865,0,0,0-4.681,3.454,5.409,5.409,0,0,0-.154,5.547,6.737,6.737,0,0,0,5.024,2.842,11.55,11.55,0,0,0,1.352.077,19.172,19.172,0,0,0,2.872-.251,11.089,11.089,0,0,1,.939-0.939l0.4-.053a10.34,10.34,0,0,1,3.314-.544h0.194a10.025,10.025,0,0,1,4,.8c0.426,0.046.871,0.084,1.34,0.126a30.331,30.331,0,0,1,3.685.468c0.369,0.044,11.042,1.348,15.569,8.025a7.685,7.685,0,0,1,1.363,3.468v0a14.829,14.829,0,0,1,5.466,1.118,0.148,0.148,0,0,1,.09.11,16.081,16.081,0,0,1-2.789,12.755,0.161,0.161,0,0,1-.11.062,12.473,12.473,0,0,1-1.4.077,17.679,17.679,0,0,1-5.134-.866,0.15,0.15,0,0,1-.109-0.146l0.013-1.05c-0.043.053-.089,0.106-0.132,0.161-0.087.106-.172,0.208-0.26,0.307a3.974,3.974,0,0,1-2.9,1.262c-0.055,0-.109,0-0.164-0.006a4.917,4.917,0,0,1-.5.563,0.029,0.029,0,0,0-.01.009,0.289,0.289,0,0,0-.032.029l-0.006,0a0.479,0.479,0,0,1-.056.032l0,0.006a0.041,0.041,0,0,1-.021,0,20.587,20.587,0,0,1-2.058.74,40.5,40.5,0,0,1-4.218,1.175c-1.668.345-4.016,0.922-4.729,1.1a1.459,1.459,0,0,1-.25,1,1.514,1.514,0,0,1-.117.188,0.149,0.149,0,0,1,.1.078,17.229,17.229,0,0,1,1.455,3.682,3.781,3.781,0,0,1,.706-0.07,2.758,2.758,0,0,1,1.081.209,2.624,2.624,0,0,1,1.54,2.252,3.014,3.014,0,0,1-.569,1.856,2.565,2.565,0,0,1-.632.586,2.725,2.725,0,0,0-.479.413,1.892,1.892,0,0,1,1.19.811,1.285,1.285,0,0,1-.138,1.539,0.153,0.153,0,0,1-.077.044,18.667,18.667,0,0,1-4.2.519c-0.162,0-.321,0-0.477-0.007a0.185,0.185,0,0,1-.061-0.017v0.011a0.9,0.9,0,0,1-.409.712,2.158,2.158,0,0,1-.88.293c-0.013.032-.028,0.065-0.045,0.1a1.245,1.245,0,0,1-.639.515,2.455,2.455,0,0,1-1.877-.007,0.113,0.113,0,0,1-.036-0.022,0.756,0.756,0,0,1-.175.173,1.411,1.411,0,0,1-.73.207c-0.243.018-.49,0.027-0.735,0.027-0.1,0-.212,0-0.318-0.007a1.375,1.375,0,0,1-.9-0.261,0.85,0.85,0,0,1-.255-0.413,0.124,0.124,0,0,1-.049.055,3.243,3.243,0,0,1-1.136.493,2.055,2.055,0,0,1-.415.044,1.712,1.712,0,0,1-.852-0.216,0.747,0.747,0,0,1-.424-0.785,0.954,0.954,0,0,1,.619-0.539l0.092-.042a1.888,1.888,0,0,0,.59-0.444,7.637,7.637,0,0,1-2.669.475,7.962,7.962,0,0,1-2.906-.546,0.167,0.167,0,0,1-.078-0.066,1.556,1.556,0,0,1-.107-1.359,1.653,1.653,0,0,1,.811-0.885,12.594,12.594,0,0,1-.928-1.626,0.149,0.149,0,0,1-.077-0.128,0.1,0.1,0,0,1,0-.034,5.212,5.212,0,0,1-.215-0.6,3.344,3.344,0,0,1,.324-2.836,2.406,2.406,0,0,1,1.523-.981,2.176,2.176,0,0,1,.408-0.039,1.918,1.918,0,0,1,.561.081,3.078,3.078,0,0,1-.479-2.221,3.025,3.025,0,0,1,.428-1.1,4.1,4.1,0,0,1-1.188.174,4.751,4.751,0,0,1-2.719-.9,3.144,3.144,0,0,1-.928-4.233,10.489,10.489,0,0,1-3.264-7.732,9.819,9.819,0,0,1,.06-1.072,0.15,0.15,0,0,1-.1-0.109,9.44,9.44,0,0,1,1.321-7.231,0.49,0.49,0,0,1,.418-0.222h0.032a0.49,0.49,0,0,1,.417.278,2.992,2.992,0,0,0,.394.61,3.786,3.786,0,0,1,.333-0.605,0.431,0.431,0,0,1,.367-0.19h0.018a0.428,0.428,0,0,1,.363.214,0.974,0.974,0,0,0,.3.323,14.056,14.056,0,0,1,3.172-2.029c0-.08,0-0.159.007-0.236-1.759.214-3.648,0.352-5.756,0.44-0.15.006-.3,0.009-0.446,0.009a12.6,12.6,0,0,1-3.98-.7,15.7,15.7,0,0,1-3.611-1.684,12.245,12.245,0,0,1-4.264-4.543,6.641,6.641,0,0,1-.874-3.051,6.032,6.032,0,0,1,1.348-2.887,12.756,12.756,0,0,1,5.263-4.067c3.139-1.367,6.622-1.759,10.042-2.125" transform="translate(-93.984 -351)"/>
  <path id="图层_116" data-name="图层 116" class="cls-4" d="M137.637,425.356a33.2,33.2,0,0,1-18.3-5.467,8.808,8.808,0,0,1-1.829.167c-0.557,0-1.095-.031-1.69-0.068l-0.064,0a1.067,1.067,0,0,0-.905.524,6.4,6.4,0,0,1-2.356,2.2,0.658,0.658,0,0,0-.066.047,4.435,4.435,0,0,1-2.75.953,5.488,5.488,0,0,1-4.752-3.085,1.027,1.027,0,0,0-.91-0.6h-0.157a5.156,5.156,0,0,1-3.81-1.207,3.346,3.346,0,0,1-.927-2.459c0-.09,0-0.185-0.007-0.284a5.5,5.5,0,0,1,.983-3.959,1.019,1.019,0,0,0,.21-0.7c-0.01-.45-0.011-0.894-0.012-1.324a16.544,16.544,0,0,0-.234-3.447,4.712,4.712,0,0,1-.111-1.323c0.021-.35-0.014-0.974-0.051-1.634a16.315,16.315,0,0,1,.192-4.819,1.046,1.046,0,0,0-.276-0.887,2.925,2.925,0,0,1-.637-2.223,10.672,10.672,0,0,1,.685-3.4,2.844,2.844,0,0,0-.072-2.792,4.688,4.688,0,0,1-.453-2.451c0.054-.587.119-1.119,0.176-1.587a10.16,10.16,0,0,0-.026-3.9,4.335,4.335,0,0,1,.089-2.173,6.246,6.246,0,0,0-.214-1.047,6.451,6.451,0,0,1-.244-3.145,17.64,17.64,0,0,0,.419-4.5c-0.01-.666.024-1.322,0.056-1.957,0.028-.539.054-1.048,0.053-1.537a3.519,3.519,0,0,1,3.032-3.56,1,1,0,0,0,.543-0.373,5.162,5.162,0,0,1,4.037-1.658,6.058,6.058,0,0,1,2.531.524,1.11,1.11,0,0,0,.47.105,1.026,1.026,0,0,0,.425-0.09,6.166,6.166,0,0,1,2.509-.509,4.618,4.618,0,0,1,4.446,2.421,1.117,1.117,0,0,0,.332.459l0.31,0.219a33.357,33.357,0,1,1,19.355,60.525m31.9-46.835a34.642,34.642,0,0,0-51.008-15.4,6.039,6.039,0,0,0-5.339-2.654,7.472,7.472,0,0,0-2.938.58,7.364,7.364,0,0,0-3-.611,6.45,6.45,0,0,0-4.994,2.092,4.769,4.769,0,0,0-3.888,4.776c0,0.452-.024.942-0.05,1.46l1.267,0.076-1.268-.065c-0.033.654-.068,1.329-0.058,2.034a16.445,16.445,0,0,1-.382,4.176,7.585,7.585,0,0,0,.247,3.762c0.035,0.134.113,0.442,0.154,0.638a5.587,5.587,0,0,0-.039,2.539,8.932,8.932,0,0,1,.006,3.467c-0.059.479-.125,1.019-0.181,1.629a5.966,5.966,0,0,0,.573,3.115,1.681,1.681,0,0,1,.015,1.834,11.979,11.979,0,0,0-.751,3.721,4.168,4.168,0,0,0,.9,3.083,18.145,18.145,0,0,0-.179,5c0.032,0.567.068,1.21,0.052,1.487a5.959,5.959,0,0,0,.139,1.678,15.629,15.629,0,0,1,.2,3.171v0.03c0,0.413,0,.839.012,1.275a6.771,6.771,0,0,0-1.192,4.708c0,0.089.005,0.174,0.006,0.255a4.587,4.587,0,0,0,1.289,3.34,6.377,6.377,0,0,0,4.7,1.59,6.778,6.778,0,0,0,5.833,3.68,5.7,5.7,0,0,0,3.5-1.2,7.653,7.653,0,0,0,2.7-2.521c0.559,0.034,1.079.061,1.632,0.061a10.856,10.856,0,0,0,1.559-.1,34.637,34.637,0,0,0,50.475-42.7" transform="translate(-93.984 -351)"/>
</svg>
