<svg id="答题区bg" xmlns="http://www.w3.org/2000/svg" width="534.16" height="559.063" viewBox="0 0 534.16 559.063">
  <metadata><?xpacket begin="﻿" id="W5M0MpCehiHzreSzNTczkc9d"?>
<x:xmpmeta xmlns:x="adobe:ns:meta/" x:xmptk="Adobe XMP Core 5.6-c142 79.160924, 2017/07/13-01:06:39        ">
   <rdf:RDF xmlns:rdf="http://www.w3.org/1999/02/22-rdf-syntax-ns#">
      <rdf:Description rdf:about=""/>
   </rdf:RDF>
</x:xmpmeta>
                                                                                                    
                                                                                                    
                                                                                                    
                                                                                                    
                                                                                                    
                                                                                                    
                                                                                                    
                                                                                                    
                                                                                                    
                                                                                                    
                                                                                                    
                                                                                                    
                                                                                                    
                                                                                                    
                                                                                                    
                                                                                                    
                                                                                                    
                                                                                                    
                                                                                                    
                                                                                                    
                           
<?xpacket end="w"?></metadata>
<defs>
    <style>
      .cls-1 {
        fill: #e8e1c1;
      }

      .cls-1, .cls-2, .cls-3, .cls-4 {
        stroke: #2d267f;
        stroke-miterlimit: 10;
        stroke-width: 1px;
        fill-rule: evenodd;
      }

      .cls-2 {
        fill: #f2eccc;
      }

      .cls-3 {
        fill: #fffcdc;
      }

      .cls-4 {
        fill: #fff;
      }
    </style>
  </defs>
  <path id="图层_432" data-name="图层 432" class="cls-1" d="M1642.34,865.779H1151.31a14.285,14.285,0,0,1-14.28-14.281l-0.5-517.438a14.285,14.285,0,0,1,14.28-14.281h491.03a14.279,14.279,0,0,1,14.28,14.281l0.5,517.438A14.278,14.278,0,0,1,1642.34,865.779Z" transform="translate(-1122.97 -319.281)"/>
  <path id="图层_433" data-name="图层 433" class="cls-2" d="M1636.37,871.784H1145.34a14.279,14.279,0,0,1-14.28-14.281l-0.5-517.438a14.278,14.278,0,0,1,14.28-14.281h495.94a9.37,9.37,0,0,1,9.37,9.365l0.5,522.354A14.285,14.285,0,0,1,1636.37,871.784Z" transform="translate(-1122.97 -319.281)"/>
  <path id="图层_434" data-name="图层 434" class="cls-3" d="M1629.29,877.837H1138.26a14.278,14.278,0,0,1-14.28-14.281l-0.5-517.438a14.278,14.278,0,0,1,14.28-14.281h499.18a6.125,6.125,0,0,1,6.13,6.126l0.5,525.593A14.285,14.285,0,0,1,1629.29,877.837Z" transform="translate(-1122.97 -319.281)"/>
  <path id="图层_435" data-name="图层 435" class="cls-4" d="M1617.44,858.65H1150.1a7.036,7.036,0,0,1-7.03-7.038l-0.5-493.55a7.036,7.036,0,0,1,7.03-7.038h467.34a7.038,7.038,0,0,1,7.04,7.038l0.5,493.55A7.038,7.038,0,0,1,1617.44,858.65Z" transform="translate(-1122.97 -319.281)"/>
</svg>
