<svg id="线索_解锁" data-name="线索 解锁" xmlns="http://www.w3.org/2000/svg" width="287.435" height="137.031" viewBox="0 0 287.435 137.031">
  <metadata><?xpacket begin="﻿" id="W5M0MpCehiHzreSzNTczkc9d"?>
<x:xmpmeta xmlns:x="adobe:ns:meta/" x:xmptk="Adobe XMP Core 5.6-c142 79.160924, 2017/07/13-01:06:39        ">
   <rdf:RDF xmlns:rdf="http://www.w3.org/1999/02/22-rdf-syntax-ns#">
      <rdf:Description rdf:about=""/>
   </rdf:RDF>
</x:xmpmeta>
                                                                                                    
                                                                                                    
                                                                                                    
                                                                                                    
                                                                                                    
                                                                                                    
                                                                                                    
                                                                                                    
                                                                                                    
                                                                                                    
                                                                                                    
                                                                                                    
                                                                                                    
                                                                                                    
                                                                                                    
                                                                                                    
                                                                                                    
                                                                                                    
                                                                                                    
                                                                                                    
                           
<?xpacket end="w"?></metadata>
<defs>
    <style>
      .cls-1 {
        fill: #e8e1c1;
      }

      .cls-1, .cls-2, .cls-3 {
        stroke: #2d267f;
        stroke-miterlimit: 10;
        stroke-width: 1px;
      }

      .cls-1, .cls-2, .cls-3, .cls-4, .cls-5 {
        fill-rule: evenodd;
      }

      .cls-2 {
        fill: #f2eccc;
      }

      .cls-3 {
        fill: #fffcdc;
      }

      .cls-4 {
        fill: #0a8e5b;
      }

      .cls-5 {
        fill: #fff;
      }
    </style>
  </defs>
  <path id="图层_397" data-name="图层 397" class="cls-1" d="M1034.78,273.289H787.406a14.282,14.282,0,0,1-14.281-14.282V162.04a14.281,14.281,0,0,1,14.281-14.282H1032.76a16.315,16.315,0,0,1,16.31,16.309v94.94A14.288,14.288,0,0,1,1034.78,273.289Z" transform="translate(-762.125 -147.25)"/>
  <path id="图层_400" data-name="图层 400" class="cls-2" d="M1029.78,278.288H782.406a14.281,14.281,0,0,1-14.281-14.281V167.039a14.281,14.281,0,0,1,14.281-14.281h249.3a12.36,12.36,0,0,1,12.36,12.353v98.9A14.286,14.286,0,0,1,1029.78,278.288Z" transform="translate(-762.125 -147.25)"/>
  <path id="图层_402" data-name="图层 402" class="cls-3" d="M1024.28,283.789H776.906a14.282,14.282,0,0,1-14.281-14.281V172.54a14.281,14.281,0,0,1,14.281-14.281H1030.67a7.9,7.9,0,0,1,7.9,7.894V269.508A14.288,14.288,0,0,1,1024.28,283.789Z" transform="translate(-762.125 -147.25)"/>
  <path id="图层_403" data-name="图层 403" class="cls-4" d="M1020.43,188.948a13.175,13.175,0,1,1-13.17-13.177,13.17,13.17,0,0,1,13.17,13.177" transform="translate(-762.125 -147.25)"/>
  <path id="图层_404" data-name="图层 404" class="cls-5" d="M1009.09,191.561a0.246,0.246,0,0,1-.24.248h-3.18a0.248,0.248,0,0,1-.25-0.248v-0.727a0.248,0.248,0,0,1,.25-0.248h3.18a0.246,0.246,0,0,1,.24.248v0.727Zm-4.23-3.625v-1.777a2.393,2.393,0,0,1,4.46-1.214h2.56a4.787,4.787,0,0,0-9.42,1.214v1.777h-0.78l-0.42.42v5.759l0.42,0.421h11.16l0.42-.421v-5.759l-0.42-.42h-7.98Z" transform="translate(-762.125 -147.25)"/>
  <path id="图层_405" data-name="图层 405" class="cls-4" d="M784.99,262.992h233.02v4.022H784.99v-4.022Z" transform="translate(-762.125 -147.25)"/>
</svg>
