<svg id="线索_正确_h" data-name="线索 正确_h" xmlns="http://www.w3.org/2000/svg" width="287.438" height="137.031" viewBox="0 0 287.438 137.031">
  <metadata><?xpacket begin="﻿" id="W5M0MpCehiHzreSzNTczkc9d"?>
<x:xmpmeta xmlns:x="adobe:ns:meta/" x:xmptk="Adobe XMP Core 5.6-c142 79.160924, 2017/07/13-01:06:39        ">
   <rdf:RDF xmlns:rdf="http://www.w3.org/1999/02/22-rdf-syntax-ns#">
      <rdf:Description rdf:about=""/>
   </rdf:RDF>
</x:xmpmeta>
                                                                                                    
                                                                                                    
                                                                                                    
                                                                                                    
                                                                                                    
                                                                                                    
                                                                                                    
                                                                                                    
                                                                                                    
                                                                                                    
                                                                                                    
                                                                                                    
                                                                                                    
                                                                                                    
                                                                                                    
                                                                                                    
                                                                                                    
                                                                                                    
                                                                                                    
                                                                                                    
                           
<?xpacket end="w"?></metadata>
<defs>
    <style>
      .cls-1 {
        fill: #e2e2e2;
      }

      .cls-1, .cls-2, .cls-3 {
        stroke: #2d267f;
        stroke-miterlimit: 10;
        stroke-width: 1px;
      }

      .cls-1, .cls-2, .cls-3, .cls-4, .cls-5 {
        fill-rule: evenodd;
      }

      .cls-2 {
        fill: #f4f4f4;
      }

      .cls-3, .cls-5 {
        fill: #fff;
      }

      .cls-4 {
        fill: #0a8e5b;
      }
    </style>
  </defs>
  <path id="图层_383" data-name="图层 383" class="cls-1" d="M730.827,130.289H483.449a14.282,14.282,0,0,1-14.28-14.282V19.04a14.281,14.281,0,0,1,14.28-14.281H728.8a16.309,16.309,0,0,1,16.309,16.308v94.94A14.281,14.281,0,0,1,730.827,130.289Z" transform="translate(-458.156 -4.25)"/>
  <path id="图层_391" data-name="图层 391" class="cls-2" d="M725.827,135.288H478.449a14.281,14.281,0,0,1-14.281-14.281V24.039A14.282,14.282,0,0,1,478.449,9.758H727.756a12.352,12.352,0,0,1,12.352,12.352v98.9A14.28,14.28,0,0,1,725.827,135.288Z" transform="translate(-458.156 -4.25)"/>
  <path id="图层_393" data-name="图层 393" class="cls-3" d="M720.327,140.789H472.949a14.283,14.283,0,0,1-14.281-14.281V29.54a14.282,14.282,0,0,1,14.281-14.281H726.713a7.9,7.9,0,0,1,7.895,7.895V126.508A14.281,14.281,0,0,1,720.327,140.789Z" transform="translate(-458.156 -4.25)"/>
  <path id="图层_394" data-name="图层 394" class="cls-4" d="M716.478,45.948A13.177,13.177,0,1,1,703.3,32.771a13.177,13.177,0,0,1,13.177,13.177" transform="translate(-458.156 -4.25)"/>
  <path id="图层_395" data-name="图层 395" class="cls-5" d="M710.18,43.089l-1.5-1.5-7.093,7.094-3.655-3.654-1.5,1.5,3.655,3.654,1.5,1.505,1.5-1.505Z" transform="translate(-458.156 -4.25)"/>
  <path id="图层_396" data-name="图层 396" class="cls-4" d="M481,119.992H713.988v4.022H481v-4.022Z" transform="translate(-458.156 -4.25)"/>
</svg>
