<svg id="线索大师" xmlns="http://www.w3.org/2000/svg" width="82" height="82" viewBox="0 0 82 82">
  <metadata><?xpacket begin="﻿" id="W5M0MpCehiHzreSzNTczkc9d"?>
<x:xmpmeta xmlns:x="adobe:ns:meta/" x:xmptk="Adobe XMP Core 5.6-c142 79.160924, 2017/07/13-01:06:39        ">
   <rdf:RDF xmlns:rdf="http://www.w3.org/1999/02/22-rdf-syntax-ns#">
      <rdf:Description rdf:about=""/>
   </rdf:RDF>
</x:xmpmeta>
                                                                                                    
                                                                                                    
                                                                                                    
                                                                                                    
                                                                                                    
                                                                                                    
                                                                                                    
                                                                                                    
                                                                                                    
                                                                                                    
                                                                                                    
                                                                                                    
                                                                                                    
                                                                                                    
                                                                                                    
                                                                                                    
                                                                                                    
                                                                                                    
                                                                                                    
                                                                                                    
                           
<?xpacket end="w"?></metadata>
<defs>
    <style>
      .cls-1 {
        fill: #78bb88;
      }

      .cls-1, .cls-2, .cls-3, .cls-4, .cls-5, .cls-6, .cls-7, .cls-8 {
        fill-rule: evenodd;
      }

      .cls-2 {
        fill: #4d8062;
      }

      .cls-3 {
        fill: #fff;
      }

      .cls-4 {
        fill: #2d267f;
      }

      .cls-5 {
        fill: #878f93;
      }

      .cls-6 {
        fill: #9f7643;
      }

      .cls-7 {
        fill: #ccc;
      }

      .cls-8 {
        fill: #eabe64;
      }
    </style>
  </defs>
  <path id="图层_121" data-name="图层 121" class="cls-1" d="M159.074,585.17a30.627,30.627,0,0,0-22.415-29.5,4.179,4.179,0,0,0-2.207-.618c-0.13,0-.261.007-0.391,0.018a30.636,30.636,0,0,0-36.219,30.1,30.467,30.467,0,0,0,4.669,16.254,6.885,6.885,0,0,0-1.019,1.715,9.567,9.567,0,0,0-.484,4.9,9.85,9.85,0,0,0,2.409,5.7,6.626,6.626,0,0,0,4.023,5.159,7.278,7.278,0,0,0,2.786.541,8.628,8.628,0,0,0,4.65-1.4,10.466,10.466,0,0,0,.939-0.682,45.992,45.992,0,0,0,11.274,1.887c0.117,0,.235,0,0.353,0,5.9,0,13.363-2.463,13.437-2.488l0.021-.007a3.355,3.355,0,0,0,2.238-3.663c-0.009-.067-0.019-0.134-0.03-0.2a6.454,6.454,0,0,0,.9-1.343,30.6,30.6,0,0,0,15.068-26.377" transform="translate(-93.25 -546)"/>
  <path id="图层_122" data-name="图层 122" class="cls-2" d="M128.5,585.35L105.55,616.893a6.685,6.685,0,0,0,2.3,1.6,7.256,7.256,0,0,0,2.786.541,8.37,8.37,0,0,0,3.138-.641Z" transform="translate(-93.25 -546)"/>
  <path id="图层_123" data-name="图层 123" class="cls-2" d="M101.61,603.6l26.154-18.981-27.1,12.046a30.485,30.485,0,0,0,2.251,4.355,6.885,6.885,0,0,0-1.019,1.715,7.51,7.51,0,0,0-.29.865" transform="translate(-93.25 -546)"/>
  <path id="图层_124" data-name="图层 124" class="cls-2" d="M129.507,585.62l-3.492,33.155c0.493,0.032.987,0.057,1.481,0.065,0.118,0,.236,0,0.353,0a32.34,32.34,0,0,0,5.107-.471Z" transform="translate(-93.25 -546)"/>
  <path id="图层_125" data-name="图层 125" class="cls-2" d="M98.543,580.568a30.855,30.855,0,0,0-.293,4.194c0,0.643.029,1.279,0.068,1.913l29.176-3.065Z" transform="translate(-93.25 -546)"/>
  <path id="图层_126" data-name="图层 126" class="cls-2" d="M159.422,586.541c0.034-.589.06-1.181,0.06-1.779a30.689,30.689,0,0,0-.294-4.059L131.52,583.61Z" transform="translate(-93.25 -546)"/>
  <path id="图层_127" data-name="图层 127" class="cls-2" d="M147.666,608.924L130.513,585.35l12.88,28.9a3.316,3.316,0,0,0,.153-1.564l-0.03-.2a6.449,6.449,0,0,0,.9-1.343,30.534,30.534,0,0,0,3.253-2.215" transform="translate(-93.25 -546)"/>
  <path id="图层_128" data-name="图层 128" class="cls-2" d="M128.5,581.869l-11.324-25.407a30.522,30.522,0,0,0-5.166,2.744Z" transform="translate(-93.25 -546)"/>
  <path id="图层_129" data-name="图层 129" class="cls-2" d="M156.4,571.423a30.584,30.584,0,0,0-2.976-4.913l-22.177,16.1Z" transform="translate(-93.25 -546)"/>
  <path id="图层_130" data-name="图层 130" class="cls-2" d="M131.25,584.615l23.25,16.873a30.554,30.554,0,0,0,2.768-5.307Z" transform="translate(-93.25 -546)"/>
  <path id="图层_131" data-name="图层 131" class="cls-2" d="M127.764,582.605l-23.009-16.7a30.64,30.64,0,0,0-3.21,5.043Z" transform="translate(-93.25 -546)"/>
  <path id="图层_132" data-name="图层 132" class="cls-2" d="M132.377,554.354a30.833,30.833,0,0,0-3.511-.208c-0.755,0-1.5.036-2.241,0.09l2.882,27.363Z" transform="translate(-93.25 -546)"/>
  <path id="图层_133" data-name="图层 133" class="cls-2" d="M130.513,581.869L146.567,559.8a30.519,30.519,0,0,0-4.939-2.873Z" transform="translate(-93.25 -546)"/>
  <path id="图层_134" data-name="图层 134" class="cls-1" d="M170.633,598.975c0-.018,0-0.036,0-0.054a2.235,2.235,0,0,0-.577-2.153c-1.547-.808-1.287-3.279-0.544-4.314a3.159,3.159,0,0,0,.5-1.946c0-.131.005-0.283,0.012-0.461a2.828,2.828,0,0,0-.748-2.157,2.585,2.585,0,0,0-.923-0.614,4.1,4.1,0,0,0,2.019-2.41,2.288,2.288,0,0,0,.16-1.378,1.712,1.712,0,0,1-.518-2.092,2.172,2.172,0,0,0-.9-1.806l-0.132-.1a2.806,2.806,0,0,0,.975-1.308,4.063,4.063,0,0,0-.3-3.858,3.689,3.689,0,0,0-.736-0.787v-0.549a2.17,2.17,0,0,0,1.442-2.044v-1.876a2.17,2.17,0,0,0-1.181-1.932l0.02-.013a2.171,2.171,0,0,0,.987-1.739,2.194,2.194,0,0,0-.07-0.633,2.172,2.172,0,0,0,.186-1.194l-0.231-1.8a2.4,2.4,0,0,1-.3-1.058l-0.269-1.787a2.17,2.17,0,0,0-2.144-1.847h-0.057a2.309,2.309,0,0,0-.27-0.222l-0.628-.442c-0.6-.426-1.171-0.828-1.784-1.223a3.121,3.121,0,0,0-1.655-.472,2.635,2.635,0,0,0-.988.184,2.159,2.159,0,0,0-.9-0.193c-0.251,0-.491,0-0.724,0-0.2,0-.4,0-0.593,0-0.268,0-.483,0-0.676-0.016-0.09,0-.175-0.007-0.256-0.007a2.8,2.8,0,0,0-2.124.848,2.594,2.594,0,0,0-.585,1,2.172,2.172,0,0,0-1.514-1.213c-0.354-.076-0.687-0.145-1.006-0.211-0.686-.142-1.279-0.264-1.847-0.412a3.462,3.462,0,0,0-.872-0.117,3.053,3.053,0,0,0-2.444,1.274c-0.946,1.193-1.88,2.353-2.892,3.437a3.41,3.41,0,0,0-.986,3.085,3.088,3.088,0,0,0,1.655,2.084,3.132,3.132,0,0,0-.34,2.318,3.042,3.042,0,0,0,.351.84l-0.021.041a2.172,2.172,0,0,0-.017,1.951c0.082,0.165.165,0.322,0.245,0.472a4.2,4.2,0,0,1,.221.448,2.845,2.845,0,0,0,1.846,1.919,2.141,2.141,0,0,0-.938,2.082l0.336,2.524a3.264,3.264,0,0,0,1.056,2.358,2.582,2.582,0,0,0,.485.315,2.989,2.989,0,0,0-.413,1.944c0.01,0.079.024,0.159,0.04,0.239a2.171,2.171,0,0,0-.952,2.973l0.908,1.691a2.167,2.167,0,0,0,.759.809,2.606,2.606,0,0,0-.931.615,2.743,2.743,0,0,0-.756,2.054c0.007,0.28.006,0.566,0,.9,0,0.158,0,.322,0,0.493a2.17,2.17,0,0,0,2.17,2.17H154.1a3.551,3.551,0,0,1-2.488,2.092,7.23,7.23,0,0,1-1.341.18c-0.392.031-.8,0.062-1.223,0.126a3.032,3.032,0,0,0-2.429,1.736,8.514,8.514,0,0,0-.386,1.54c-0.028.153-.056,0.312-0.09,0.478a2.168,2.168,0,0,0,.3,1.619c-0.03.073-.059,0.147-0.081,0.219-0.275.875-.536,1.758-0.789,2.612-0.224.762-.457,1.55-0.7,2.314-0.276.888-.575,1.776-0.892,2.715-0.146.434-.295,0.875-0.445,1.328-0.214.645-.563,3.135-0.614,3.281a3.041,3.041,0,0,0,.524,2.3,2.172,2.172,0,0,0,1.747.926c0.333,0,.663.008,0.99,0.008a17.585,17.585,0,0,0,5.57-.713,7.578,7.578,0,0,0,3.085-1.826,2.132,2.132,0,0,0,.553.075h2.991a2.171,2.171,0,0,0,2.17,2.165c0.206,0,.407,0,0.6-0.006,0.171,0,.34,0,0.507,0,0.216,0,.389,0,0.543.014,0.095,0.006.184,0.008,0.269,0.008a2.844,2.844,0,0,0,2.1-.815,2.693,2.693,0,0,0,.731-1.429h0.028a2.651,2.651,0,0,0,.552-0.057,5.029,5.029,0,0,0,4.118-4.765c0.013-.838.009-1.679,0.006-2.492q0-.423,0-0.845a5.158,5.158,0,0,0-.485-2.335c0.018-.02.037-0.04,0.055-0.061a3.527,3.527,0,0,0,.59-2.965,3.066,3.066,0,0,0,.458-2.062" transform="translate(-93.25 -546)"/>
  <path id="图层_135" data-name="图层 135" class="cls-3" d="M161.418,560.078l0.54-.037-0.54-.412v0.449Zm-7.268,4.973,1.555-.241-0.14-.876a0.493,0.493,0,0,1,.434-0.568l1.511-.165c-0.2-.015-0.471-0.024-0.746-0.034a0.5,0.5,0,0,1-.453-0.345l-0.024-.077Zm8.128,1.479,1.681-1.073-1.994.185Zm-5.96,1a0.492,0.492,0,0,1,.291.335l0.241,0.953,2.187-.757-0.775-2.068-1.723.1,0.068,0.951a0.494,0.494,0,0,1-.289.485M166.137,572a7.861,7.861,0,0,1-5.064-1.385,0.622,0.622,0,0,0-.186-0.024,0.579,0.579,0,0,0-.171.021c-1,.346-1.964.744-2.7,1.053a1.574,1.574,0,0,1-.608.14,1.2,1.2,0,0,1-1.011-.664c-0.417-.692-0.454-0.692-0.593-0.692a5.339,5.339,0,0,0-.788.116l-0.088.016c-0.758.14-1.529,0.268-2.275,0.392-0.815.136-1.658,0.277-2.48,0.431a2.649,2.649,0,0,1-.489.053,1.15,1.15,0,0,1-1.161-.878,4.392,4.392,0,0,0-.325-0.7c-0.069-.13-0.141-0.265-0.212-0.409a0.493,0.493,0,0,1,.362-0.7l2.465-.408c-0.1,0-.2.007-0.3,0.007a5.525,5.525,0,0,1-1.4-.172,1.694,1.694,0,0,1-1.31-1.14,1.628,1.628,0,0,1,.579-1.573c0.243-.229.5-0.436,0.756-0.636,0.2-.156.384-0.3,0.561-0.461,0.042-.037.083-0.075,0.125-0.114-0.128,0-.243-0.011-0.351-0.023s-0.191-.02-0.287-0.03a5.9,5.9,0,0,1-1.651-.328,1.475,1.475,0,0,1-.99-1.036,1.749,1.749,0,0,1,.559-1.54c1.016-1.09,1.939-2.237,2.874-3.414a1.375,1.375,0,0,1,1.1-.624,1.712,1.712,0,0,1,.44.062c0.587,0.152,1.177.274,1.86,0.416,0.3,0.062.621,0.128,0.958,0.2a0.493,0.493,0,0,1,.275.8l-2.161,2.6a0.9,0.9,0,0,0,.585-0.488,1.5,1.5,0,0,1,1.366-.888,2.177,2.177,0,0,1,.863.2,3.663,3.663,0,0,0,1.5.312,4.524,4.524,0,0,0,.857-0.085c0-.092,0-0.184,0-0.277,0.007-.507.014-1.03-0.017-1.537a1.137,1.137,0,0,1,.26-0.895,1.2,1.2,0,0,1,.884-0.315c0.049,0,.1,0,0.157,0,0.216,0.012.452,0.018,0.742,0.018,0.193,0,.389,0,0.592,0s0.444,0,.679,0a0.493,0.493,0,0,1,.493.493v0.182a8.29,8.29,0,0,1,.893-0.57,0.908,0.908,0,0,1,.431-0.1,1.416,1.416,0,0,1,.729.2c0.562,0.363,1.1.741,1.663,1.14q0.3,0.215.616,0.434a0.491,0.491,0,0,1,.211.4,0.518,0.518,0,0,1-.028.175l1.016-.066h0.032a0.493,0.493,0,0,1,.488.42l0.259,1.724a0.494,0.494,0,0,1-.446.565l-2.168.182,2.37-.189a0.275,0.275,0,0,1,.04,0,0.494,0.494,0,0,1,.489.431l0.223,1.739a0.494,0.494,0,0,1-.1.365,0.488,0.488,0,0,1-.328.187l-0.512.065,0.622,0.473a0.493,0.493,0,0,1-.031.806l-3.587,2.328a5.863,5.863,0,0,0,2.382.355c0.375,0.006.762,0.012,1.146,0.045a0.494,0.494,0,0,1,.451.492v1.811a0.494,0.494,0,0,1-.48.493l-0.292.008c-0.45.013-.915,0.026-1.37,0.026" transform="translate(-93.25 -546)"/>
  <path id="图层_136" data-name="图层 136" class="cls-4" d="M157.067,566.553l0.817-.048,0.044,0,0.282,0.751,0.188,0.5-0.8.277-0.4.138-0.11-.432a0.941,0.941,0,0,0-.088-0.225,0.987,0.987,0,0,0,.1-0.51Zm-5.983-9.77a1.856,1.856,0,0,0-1.49.81c-0.928,1.17-1.845,2.309-2.849,3.385a2.222,2.222,0,0,0-.68,1.982,1.966,1.966,0,0,0,1.286,1.387,4.964,4.964,0,0,0,1.246.3c-0.184.149-.371,0.3-0.551,0.475a2.1,2.1,0,0,0-.719,2.053,1.922,1.922,0,0,0,.831,1.131,0.985,0.985,0,0,0-.609,1.383c0.075,0.153.148,0.291,0.219,0.424a4.071,4.071,0,0,1,.291.613,1.625,1.625,0,0,0,1.63,1.22,3.1,3.1,0,0,0,.581-0.061c0.817-.154,1.656-0.294,2.469-0.429,0.748-.125,1.521-0.253,2.283-0.394l0.089-.016c0.237-.044.45-0.083,0.589-0.1,0.084,0.12.2,0.316,0.28,0.446a1.636,1.636,0,0,0,1.433.9,2.042,2.042,0,0,0,.8-0.18c0.719-.3,1.668-0.694,2.643-1.033l0.02,0a8.5,8.5,0,0,0,5.262,1.409c0.461,0,.93-0.013,1.384-0.026l0.291-.008a0.986,0.986,0,0,0,.959-0.986v-1.811a0.986,0.986,0,0,0-.9-0.983c-0.4-.035-0.8-0.041-1.182-0.047-0.419-.007-0.816-0.013-1.186-0.055l0.149-.1,2.5-1.625a0.987,0.987,0,0,0,.207-1.476,1.08,1.08,0,0,0,.164-0.167,0.985,0.985,0,0,0,.2-0.729l-0.223-1.74a1.031,1.031,0,0,1-.286-1l-0.241-1.606-0.018-.119a0.987,0.987,0,0,0-.975-0.839c-0.021,0-.043,0-0.065,0l-0.53.034a0.987,0.987,0,0,0-.354-0.45l-0.614-.432c-0.571-.4-1.109-0.784-1.68-1.153a1.912,1.912,0,0,0-1-.278,1.389,1.389,0,0,0-.663.155c-0.129.069-.254,0.142-0.375,0.218a0.984,0.984,0,0,0-.779-0.382c-0.237,0-.465,0-0.685.006-0.2,0-.4,0-0.587,0-0.28,0-.507-0.006-0.713-0.017-0.065,0-.126-0.006-0.185-0.006a1.512,1.512,0,0,0-1.636,1.733c0.027,0.443.024,0.89,0.018,1.358-0.126.012-.249,0.018-0.37,0.018a3.185,3.185,0,0,1-1.3-.271,2.855,2.855,0,0,0-.824-0.229l0.352-.423a0.986,0.986,0,0,0-.55-1.6c-0.338-.072-0.657-0.138-0.962-0.2-0.677-.141-1.261-0.261-1.836-0.411a2.225,2.225,0,0,0-.564-0.077m10.935,10.5,3.5-2.236c-0.04-.072-0.079-0.145-0.118-0.218l-4.112.383c0.246,0.7.457,1.3,0.729,2.071m-10.935-9.511a1.249,1.249,0,0,1,.316.045c0.866,0.225,1.752.388,2.838,0.622l-2.853,3.426a5.707,5.707,0,0,0,.57.033,1.528,1.528,0,0,0,1.521-.8,1.028,1.028,0,0,1,.932-0.626,1.674,1.674,0,0,1,.664.159,4.18,4.18,0,0,0,1.695.354,5.345,5.345,0,0,0,1.348-.184c0-.738.034-1.49-0.011-2.239a0.548,0.548,0,0,1,.651-0.686c0.041,0,.084,0,0.13,0,0.253,0.014.507,0.018,0.768,0.018,0.4,0,.819-0.01,1.272-0.01v2.725l2.376-.162-2.117-1.614a15.351,15.351,0,0,1,1.359-.9,0.447,0.447,0,0,1,.2-0.038,0.95,0.95,0,0,1,.462.12c0.756,0.488,1.479,1.016,2.264,1.565l-0.992.754,2.5-.163c0.081,0.539.165,1.1,0.26,1.725l-6.19.519v0.973l6.473-.517c0.073,0.571.144,1.128,0.223,1.74l-1.71.215,1.582,1.2-4.231,2.746c1.284,1.068,2.89.756,4.4,0.888v1.811c-0.554.015-1.1,0.034-1.648,0.034a7.387,7.387,0,0,1-4.777-1.292,0.828,0.828,0,0,0-.474-0.117,1.053,1.053,0,0,0-.333.048c-0.923.321-1.828,0.686-2.725,1.064a1.083,1.083,0,0,1-.416.1,0.689,0.689,0,0,1-.588-0.425c-0.426-.707-0.577-0.931-1.016-0.931a6.238,6.238,0,0,0-.965.14c-1.582.291-3.177,0.526-4.757,0.824a2.237,2.237,0,0,1-.4.044,0.656,0.656,0,0,1-.691-0.537,9.825,9.825,0,0,0-.564-1.17l7.7-1.272,0.373,1.474,3.173-1.1c-0.377-1-.715-1.906-1.08-2.882l-2.265.132c-0.1-.6-0.182-1.143-0.28-1.752l2.193-.239c0.081-.888.081-0.888-1.463-0.943-0.088-.277-0.182-0.574-0.28-0.887l-3.677,3.968,3.161-.49c0.043,0.608.083,1.168,0.13,1.811-0.591.1-1.135,0.188-1.681,0.273-1.116.174-2.228,0.389-3.353,0.5-0.184.018-.374,0.027-0.564,0.027a4.979,4.979,0,0,1-1.276-.156,1.021,1.021,0,0,1-.52-1.877c0.409-.384.883-0.713,1.306-1.086,0.312-.276.59-0.585,0.992-0.988-0.381,0-.7.014-0.982,0.014a4.662,4.662,0,0,1-.509-0.023,6.953,6.953,0,0,1-1.806-.324c-0.907-.37-0.9-1.1-0.256-1.783,1.028-1.1,1.97-2.273,2.9-3.444a0.883,0.883,0,0,1,.717-0.437" transform="translate(-93.25 -546)"/>
  <path id="图层_137" data-name="图层 137" class="cls-3" d="M153.322,577.387l0.08-.029H153.32Zm5.817-.07a0.5,0.5,0,0,1-.018.261c0,0.01-.007.02-0.011,0.03a6.774,6.774,0,0,0,1.123-.291h-1.094ZM160.673,580l0.666-.037a0.477,0.477,0,0,1-.088-0.216Zm-4.392,2.8a1.277,1.277,0,0,1,.095,1,0.742,0.742,0,0,1-.041.085,1.09,1.09,0,0,0,.661-0.4,1.032,1.032,0,0,0,.079-0.689h-0.794Zm1.4,3.449a1.422,1.422,0,0,1-.922-0.5c-0.21-.2-0.392-0.417-0.6-0.663-0.09-.1-0.185-0.216-0.29-0.335a0.491,0.491,0,0,1-.121-0.37c-0.189.091-.415,0.179-0.68,0.282-0.846.329-1.686,0.63-2.575,0.948-0.39.139-.785,0.28-1.186,0.426a0.492,0.492,0,0,1-.6-0.23l-0.876-1.633a0.492,0.492,0,0,1,.266-0.7l1.867-.678a1.339,1.339,0,0,1-1.076-1.172c-0.151-1.18,1.054-1.459,1.507-1.564,0.21-.049.422-0.1,0.637-0.154a2.445,2.445,0,0,1-.728-0.918c-0.066-.119-0.128-0.232-0.193-0.33h-0.52c-1.4,0-1.619-.187-1.792-1.5l-0.324-2.436a0.493,0.493,0,0,1,.489-0.558,0.473,0.473,0,0,1,.1.01,1.912,1.912,0,0,0,.389.035H150.5a4.96,4.96,0,0,1-.08-0.871,2.844,2.844,0,0,1,.012-0.316c0-.055.008-0.117,0.012-0.19a0.494,0.494,0,0,1,.493-0.466h5.9a1.507,1.507,0,0,1,1.632-1.057,9.536,9.536,0,0,1,1.435.151,0.495,0.495,0,0,1,.409.57,0.516,0.516,0,0,0,0,.262,1.161,1.161,0,0,0,.514.059l0.226,0c0.656-.015,1.367-0.022,2.24-0.022,0.508,0,1.018,0,1.532,0s1.043,0,1.572,0a0.494,0.494,0,0,1,.493.494v1.606a0.49,0.49,0,0,1-.181.381,2.232,2.232,0,0,1,1.174.828,2.355,2.355,0,0,1,.111,2.258,1.167,1.167,0,0,1-1.214.762,5.07,5.07,0,0,1-.6-0.049,4.093,4.093,0,0,0-.5-0.044,0.985,0.985,0,0,0-.167.013,1.446,1.446,0,0,1-.265.025,0.93,0.93,0,0,1-.707-0.283,0.888,0.888,0,0,1-.1-0.137l-0.021.043a0.5,0.5,0,0,1-.247.239l-0.076.033c0.918,0.64,1.822,1.291,2.775,1.977l0.879,0.633a0.492,0.492,0,0,1-.016.812l-1.383.912,1.77,0.534a0.491,0.491,0,0,1,.349.424,0.456,0.456,0,0,0,.008.049,0.638,0.638,0,0,1-.033.4c-0.445.981-.712,1.573-1.522,1.573a5.657,5.657,0,0,1-1.4-.3c-1.062-.309-2.14-0.642-3.183-0.964q-0.708-.219-1.425-0.439a0.493,0.493,0,0,1-.3-0.687l0.4-.829-0.623.03c0,0.029,0,.057,0,0.086a11.079,11.079,0,0,1-.02,1.247,3.041,3.041,0,0,1-2.681,2.288h-0.016" transform="translate(-93.25 -546)"/>
  <path id="图层_138" data-name="图层 138" class="cls-4" d="M158.47,570.812a1.975,1.975,0,0,0-1.951,1.057h-5.58a0.986,0.986,0,0,0-.985.932c0,0.069-.008.127-0.012,0.179a3.454,3.454,0,0,0-.013.372c0,0.111.008,0.215,0.013,0.315a0.985,0.985,0,0,0-.963,1.116l0.1,0.761c0.078,0.586.151,1.13,0.223,1.674a2.157,2.157,0,0,0,.622,1.565,2.4,2.4,0,0,0,1.657.359h0.242l0.042,0.076c0.069,0.126.144,0.261,0.231,0.4a2.989,2.989,0,0,0-1,.432,1.688,1.688,0,0,0-.7,1.632,1.859,1.859,0,0,0,.441.992l-0.911.331a0.987,0.987,0,0,0-.533,1.394l0.577,1.075,0.3,0.558a0.987,0.987,0,0,0,.869.52,0.971,0.971,0,0,0,.337-0.06c0.4-.145.792-0.285,1.181-0.424,0.893-.32,1.737-0.622,2.589-0.953l0.22-.086a0.412,0.412,0,0,0,.033.04c0.1,0.117.2,0.227,0.286,0.33,0.209,0.244.406,0.475,0.633,0.7a1.9,1.9,0,0,0,1.26.643H157.7a3.7,3.7,0,0,0,3.031-2.171l0.043,0.015c0.478,0.145.951,0.292,1.423,0.438,1.044,0.322,2.125.656,3.192,0.966a5.873,5.873,0,0,0,1.534.322c1.128,0,1.5-.822,1.971-1.862a1.137,1.137,0,0,0,.069-0.691l0-.016a0.987,0.987,0,0,0-.7-0.84l-0.762-.229,0.5-.332a0.987,0.987,0,0,0,.032-1.625l-0.889-.64c-0.477-.344-0.942-0.678-1.4-1.007,0.106,0,.235.021,0.37,0.038a5.417,5.417,0,0,0,.665.053,1.646,1.646,0,0,0,1.677-1.084,2.821,2.821,0,0,0-.168-2.709,2.535,2.535,0,0,0-.915-0.8,0.95,0.95,0,0,0,.009-0.131v-1.607a0.987,0.987,0,0,0-.986-0.986c-0.528,0-1.05,0-1.569,0s-1.025,0-1.533,0c-0.877,0-1.593.007-2.253,0.022l-0.215,0H160.81a0.987,0.987,0,0,0-.827-0.885,9.869,9.869,0,0,0-1.513-.157m-5.6,7.26,2.909-1.038c-0.017-.056-0.034-0.112-0.05-0.168h-2.937c0.026,0.4.048,0.745,0.078,1.206m8.974-1.247H158.3l0.353,0.591-2.271.86c0.139,0,.276,0,0.41,0,2.6,0,4.319-.508,5.051-1.455M158.47,571.8a9.2,9.2,0,0,1,1.358.145c-0.136.8,0.342,0.9,1,.9l0.238,0c0.741-.017,1.483-0.022,2.23-0.022,1.021,0,2.051.009,3.1,0.009v1.607h-1.389c-1.477,0-2.954-.007-4.43.028a1.885,1.885,0,0,0-.677.345,1.952,1.952,0,0,0,.659.284q0.556,0.006,1.113.006c0.908,0,1.816-.01,2.724-0.01q0.424,0,.849,0c2,0.017,2.907.963,2.286,2.638a0.7,0.7,0,0,1-.752.441c-0.345,0-.747-0.093-1.1-0.093a1.4,1.4,0,0,0-.255.021,1.035,1.035,0,0,1-.177.017,0.421,0.421,0,0,1-.453-0.516c0.016-.226,0-0.453,0-0.753H163.02l-0.183.14,1.33,0.62-0.2.412-6,2.625,4.435-.247-0.666-.722c0.443-.305.866-0.628,1.331-0.9a0.572,0.572,0,0,1,.266-0.054,0.6,0.6,0,0,1,.317.074c1.248,0.866,2.474,1.759,3.805,2.714l-1.81,1.194a1.869,1.869,0,0,0-1.561-.713,9.239,9.239,0,0,0-1.548.212l5.435,1.637a0.5,0.5,0,0,1,.016.194c-0.425.939-.58,1.284-1.072,1.284a5.426,5.426,0,0,1-1.259-.283c-1.529-.444-3.044-0.925-4.6-1.4l0.768-1.578-1.93.094c0,0.614.042,1.189-.01,1.758a2.6,2.6,0,0,1-2.19,1.839h-0.011a1.074,1.074,0,0,1-.583-0.363c-0.282-.274-0.524-0.582-0.866-0.97,1.378-.287,1.511-1.089,1.239-2.115h-1.815a0.642,0.642,0,0,0-.014.247c0.486,1.139.5,1.158-.76,1.647-1.215.472-2.452,0.9-3.75,1.369l-0.877-1.633,3.8-1.378c-0.006-.051-0.011-0.1-0.017-0.155h-0.784c-0.16,0-.32,0-0.48,0a1.172,1.172,0,0,1-1.4-.842c-0.085-.661.51-0.878,1.129-1.021a14.737,14.737,0,0,0,2.542-.781,5.023,5.023,0,0,1-1.678-.225,3.4,3.4,0,0,1-.876-1.189l0.19-.181h-1.092c-1.165,0-1.165,0-1.305-1.067-0.1-.772-0.205-1.543-0.324-2.436a2.446,2.446,0,0,0,.487.045c0.4,0,.794-0.072,1.175-0.072a1.587,1.587,0,0,1,1.188.445,0.488,0.488,0,0,0,.327.08c0.184,0,.4-0.03.579-0.03h0c0.465,0,.931,0,1.4,0,0.529,0,1.057,0,1.586-.023a1.83,1.83,0,0,0,.636-0.3,1.633,1.633,0,0,0-.614-0.321q-0.579-.008-1.16-0.007c-1.09,0-2.18.015-3.269,0.03-0.152,0-.287,0-0.406,0-0.929,0-.933-0.117-0.971-1.188,0-.123.012-0.246,0.024-0.462H157.2a1.129,1.129,0,0,1,1.275-1.057" transform="translate(-93.25 -546)"/>
  <path id="图层_139" data-name="图层 139" class="cls-3" d="M148.562,600.2a0.492,0.492,0,0,1-.479-0.593c0.036-.174.066-0.34,0.095-0.5a6.744,6.744,0,0,1,.3-1.208,1.419,1.419,0,0,1,1.081-.656c0.357-.053.719-0.081,1.069-0.108a7.958,7.958,0,0,0,1.623-.235,4.972,4.972,0,0,0,3.517-3.177c0.194-.551.352-1.12,0.519-1.722,0.024-.085.047-0.17,0.071-0.257h-5.864A0.493,0.493,0,0,1,150,591.25c0-.162,0-0.318,0-0.469,0-.319,0-0.62,0-0.915a1.088,1.088,0,0,1,.276-0.823,1.281,1.281,0,0,1,.946-0.318h0.055c0.368,0.007.737,0.009,1.106,0.009,0.34,0,.681,0,1.022,0s0.684,0,1.027,0c0.715,0,1.268.008,1.792,0.026h0.095a0.675,0.675,0,0,0,.366-0.056,0.64,0.64,0,0,0,.022-0.323,9.808,9.808,0,0,1,0-1.085c0.01-.262.02-0.51,0.013-0.757a1.115,1.115,0,0,1,.267-0.835,1.042,1.042,0,0,1,.789-0.283c0.049,0,.1,0,0.157,0,0.2,0.015.429,0.021,0.7,0.021,0.185,0,.374,0,0.568,0,0.212,0,.43-0.007.658-0.007a0.494,0.494,0,0,1,.494.493v2.738c0.163,0.009.31,0.015,0.452,0.015l1.3-.008c1.482-.009,3.014-0.018,4.518-0.056h0.1a1.283,1.283,0,0,1,.965.318,1.2,1.2,0,0,1,.276.91c-0.007.184-.01,0.341-0.012,0.476-0.016.834-.076,1.306-1.127,1.306l-0.446,0c-0.1,0-.214,0-0.337,0-1.074.024-2.165,0.036-3.22,0.048q-0.9.009-1.809,0.022c-0.124,0-.249.007-0.373,0.013a5.838,5.838,0,0,0,6.179,5.372c0.1,0,.193,0,0.291,0s0.183-.006.267-0.006a1.212,1.212,0,0,1,.991.35,1.068,1.068,0,0,1,.184.909,1.619,1.619,0,0,0,.006.314,1.31,1.31,0,0,1-.241,1.055,1.177,1.177,0,0,1-.914.329c-0.08,0-.168,0-0.264-0.013-0.389-.036-0.791-0.064-1.179-0.091a19.507,19.507,0,0,1-3.09-.378c-2.015-.469-2.834-1.07-4.47-3.017-2.257,3.216-5.883,3.677-9.49,3.677h-0.345" transform="translate(-93.25 -546)"/>
  <path id="图层_140" data-name="图层 140" class="cls-4" d="M157.772,584.922a1.526,1.526,0,0,0-1.142.432,1.608,1.608,0,0,0-.407,1.192c0.006,0.231,0,.471-0.013.726-0.012.318-.025,0.646-0.009,0.987-0.52-.017-1.07-0.025-1.776-0.025-0.343,0-.687,0-1.03,0s-0.68,0-1.021,0c-0.418,0-.765,0-1.094-0.008h-0.064a1.776,1.776,0,0,0-1.3.467,1.563,1.563,0,0,0-.416,1.18c0.007,0.287.006,0.584,0,.9,0,0.152,0,.309,0,0.473a0.986,0.986,0,0,0,.986.986H155.7c-0.129.459-.258,0.9-0.407,1.322a4.5,4.5,0,0,1-3.19,2.868,7.651,7.651,0,0,1-1.522.216c-0.359.028-.729,0.057-1.1,0.112a1.85,1.85,0,0,0-1.47.97,7.254,7.254,0,0,0-.318,1.293c-0.029.159-.059,0.324-0.093,0.489a0.986,0.986,0,0,0,.958,1.187h0.349c3.552,0,7.125-.438,9.514-3.382a7.054,7.054,0,0,0,4.334,2.709,19.937,19.937,0,0,0,3.168.39c0.385,0.027.784,0.054,1.167,0.09,0.108,0.01.213,0.015,0.31,0.015a1.661,1.661,0,0,0,1.276-.487,1.767,1.767,0,0,0,.371-1.428c0-.065-0.012-0.163-0.01-0.2a1.537,1.537,0,0,0-.294-1.3,1.72,1.72,0,0,0-1.369-.525c-0.089,0-.181,0-0.275,0s-0.192,0-.283,0a5.249,5.249,0,0,1-5.593-4.4q0.8-.012,1.606-0.019c1.055-.012,2.146-0.024,3.221-0.048,0.119,0,.228,0,0.327,0l0.254,0h0.191a1.5,1.5,0,0,0,1.345-.538,2.061,2.061,0,0,0,.275-1.252c0-.132,0-0.287.012-0.466a1.7,1.7,0,0,0-.413-1.272,1.759,1.759,0,0,0-1.321-.468h-0.108c-1.5.037-3.029,0.046-4.509,0.055l-1.256.008v-2.259a0.987,0.987,0,0,0-.987-0.987c-0.23,0-.451,0-0.665.007-0.192,0-.378.006-0.561,0.006-0.264,0-.478-0.007-0.671-0.02-0.066,0-.13-0.007-0.191-0.007m0,0.986c0.038,0,.079,0,0.122,0,0.244,0.017.489,0.022,0.74,0.022,0.387,0,.789-0.012,1.226-0.012v3.208c0.374,0.015.662,0.038,0.947,0.038h0.038c1.931-.015,3.862-0.016,5.791-0.064h0.084c0.558,0,.77.157,0.748,0.716-0.046,1.219.084,1.307-.646,1.307l-0.445,0-0.349,0c-1.675.038-3.35,0.046-5.025,0.07-0.3,0-.606.027-0.909,0.042,0.215,3.045,2.126,6.33,6.722,6.33,0.1,0,.2,0,0.306,0,0.086,0,.171-0.005.252-0.005,0.444,0,.8.08,0.689,0.68-0.088.5,0.328,1.29-.663,1.29-0.066,0-.139,0-0.219-0.011a31.455,31.455,0,0,1-4.2-.458c-2.068-.481-2.784-1.114-4.631-3.369-2.06,3.479-5.554,4.017-9.441,4.017l-0.341,0a11.223,11.223,0,0,1,.368-1.634,1.019,1.019,0,0,1,.693-0.342,20.754,20.754,0,0,0,2.759-.358,5.477,5.477,0,0,0,3.842-3.486c0.293-.833.5-1.689,0.779-2.636h-6.518c0-.512.01-0.955,0-1.4-0.012-.471.213-0.635,0.729-0.635h0.046c0.371,0.007.742,0.009,1.112,0.009,0.684,0,1.368-.007,2.051-0.007,0.593,0,1.185,0,1.776.025,0.039,0,.076,0,0.112,0a0.722,0.722,0,0,0,.881-0.908c-0.043-.6.031-1.213,0.016-1.819a0.491,0.491,0,0,1,.562-0.613" transform="translate(-93.25 -546)"/>
  <path id="图层_141" data-name="图层 141" class="cls-3" d="M158.993,602.873a0.446,0.446,0,0,1,.035.069c0.1,0.238.181,0.238,0.289,0.238a2.441,2.441,0,0,0,.345-0.04c0.1-.016.206-0.033,0.318-0.043v-0.224h-0.987Zm4.525,2.932a4.755,4.755,0,0,0-.053.937q0,0.869,0,1.737c0,0.382,0,.768,0,1.155l0.015-.007a1.541,1.541,0,0,0,.342-0.2c0.048-.046.1-0.093,0.152-0.141a1.937,1.937,0,0,0,.4-0.435c0.057-.806.047-1.641,0.037-2.448,0-.188,0-0.373-0.006-0.557a6.477,6.477,0,0,0-.7-0.058,0.86,0.86,0,0,0-.18.014m-1.233,8.314c-0.052,0-.106,0-0.164,0-0.181-.011-0.379-0.016-0.62-0.016-0.169,0-.339,0-0.512,0s-0.369,0-.56,0a0.493,0.493,0,0,1-.493-0.493v-7.63H159v5.541a0.494,0.494,0,0,1-.494.494h-3.054a0.494,0.494,0,0,1-.491-0.539q0.034-.376.071-0.747c0.053-.545.1-1.061,0.142-1.586l0.065-.859c0.112-1.5.229-3.053,0.3-4.578a1.185,1.185,0,0,1,.432-0.969,0.518,0.518,0,0,1-.071-0.083c-0.023-.033-0.043-0.058-0.058-0.078a0.622,0.622,0,0,1-.161-0.389A2.33,2.33,0,0,1,156,600.43c0.358-.371.888-0.378,1.945-0.392l3.778-.051,5.085-.069h0.05c0.174,0,.344.012,0.493,0.022l0.192,0.012a0.494,0.494,0,0,1,.41.257c0.016,0.03.03,0.053,0.042,0.072a0.7,0.7,0,0,1,.117.3,2.152,2.152,0,0,1-.171,1.727c-0.332.378-.838,0.388-1.845,0.408-0.378.008-.756,0.01-1.137,0.01l-0.929,0-0.486,0v0.307h0.139l0.635,0c0.254,0,.507,0,0.76.006,2.07,0.038,2.878.78,2.88,2.646l0,0.818c0,0.778.006,1.582-.006,2.375a3.224,3.224,0,0,1-2.7,3.058,1,1,0,0,1-.2.02,1.316,1.316,0,0,1-.79-0.269c-0.28-.228-0.533-0.473-0.8-0.731,0,0.642.006,1.285,0.016,1.923a1.261,1.261,0,0,1-.3.933,1.181,1.181,0,0,1-.887.31" transform="translate(-93.25 -546)"/>
  <path id="图层_142" data-name="图层 142" class="cls-4" d="M166.853,599.425H166.8l-5.037.068-3.819.052c-1.126.014-1.8,0.023-2.3,0.542a2.689,2.689,0,0,0-.452,2.116,1.048,1.048,0,0,0,.145.508,1.891,1.891,0,0,0-.286.975c-0.076,1.516-.192,3.062-0.305,4.558l-0.064.866c-0.039.519-.089,1.03-0.141,1.572-0.024.249-.049,0.5-0.072,0.753a0.986,0.986,0,0,0,.982,1.077H158.5a0.987,0.987,0,0,0,.941-0.688v1.79a0.987,0.987,0,0,0,.986.987c0.193,0,.381,0,0.566,0s0.338,0,.5,0c0.232,0,.421,0,0.593.015,0.068,0,.132.006,0.193,0.006a1.665,1.665,0,0,0,1.238-.457,1.751,1.751,0,0,0,.443-1.286q-0.006-.394-0.009-0.791a1.828,1.828,0,0,0,1.088.368,1.507,1.507,0,0,0,.3-0.03,3.753,3.753,0,0,0,3.095-3.533c0.012-.8.009-1.606,0.006-2.387,0-.272,0-0.543,0-0.815a2.9,2.9,0,0,0-1.036-2.557,1.5,1.5,0,0,0,.9-0.487,2.51,2.51,0,0,0,.291-2.107,1.207,1.207,0,0,0-.189-0.51c-0.008-.012-0.017-0.027-0.028-0.046a0.985,0.985,0,0,0-.818-0.515l-0.183-.011c-0.158-.011-0.337-0.023-0.528-0.023m0,0.986c0.233,0,.464.024,0.662,0.034a0.823,0.823,0,0,1,.1.194c0.171,1.545.171,1.554-1.536,1.588-0.375.008-.75,0.01-1.129,0.01-0.62,0-1.25-.006-1.906-0.006v1.3c0.422,0,.844,0,1.265,0,0.252,0,.5,0,0.754.006,1.815,0.033,2.393.556,2.4,2.154,0,1.062.013,2.123,0,3.185a2.75,2.75,0,0,1-2.314,2.583,0.521,0.521,0,0,1-.1.009,0.836,0.836,0,0,1-.478-0.158c-0.393-.321-0.741-0.686-1.162-1.087a3.829,3.829,0,0,0,.752-0.429,1.888,1.888,0,0,0,.7-0.883c0.083-1.151.033-2.309,0.033-3.4a0.671,0.671,0,0,0-.146-0.112,9.367,9.367,0,0,0-1.042-.1c-0.705,0-.725.313-0.726,1.444,0,2.047-.023,4.1.008,6.142a0.6,0.6,0,0,1-.695.741c-0.042,0-.087,0-0.134,0-0.216-.013-0.432-0.017-0.652-0.017-0.346,0-.7.01-1.07,0.01v-8.123H158.5v6.034h-3.054c0.074-.8.157-1.568,0.214-2.342,0.135-1.815.28-3.631,0.371-5.448a0.576,0.576,0,0,1,.64-0.69c0.048,0,.1,0,0.154.007,0.131,0.01.262,0.014,0.394,0.014,0.25,0,.5-0.013.753-0.013h0.13a0.842,0.842,0,0,1,.472.084,0.745,0.745,0,0,0,.741.535c0.276,0,.577-0.093.864-0.093a0.959,0.959,0,0,1,.292.041V602.38h-4.165a0.711,0.711,0,0,1-.133-0.2c-0.038-1.627-.037-1.625,1.78-1.649q4.428-.058,8.856-0.119h0.042" transform="translate(-93.25 -546)"/>
  <path id="图层_143" data-name="图层 143" class="cls-3" d="M146.562,614.4q-0.462,0-.933-0.008a0.493,0.493,0,0,1-.459-0.655c0.053-.152.1-0.3,0.148-0.44a8.382,8.382,0,0,1,.387-1.029,1.285,1.285,0,0,1,.6-0.533c0.04-.022.08-0.044,0.117-0.067a0.686,0.686,0,0,1,.368-0.1c0.038,0,.078,0,0.117,0l0.04,0c0.133,0,.263.006,0.389,0.006,2.91,0,3.592-1.149,3.886-3.41,0.168-1.295.371-2.606,0.566-3.873,0.177-1.146.359-2.331,0.516-3.5a1.149,1.149,0,0,1,1.209-1.147c0.063,0,.13,0,0.2.008,0.171,0.014.353,0.02,0.589,0.02,0.159,0,.324,0,0.5,0,0.207,0,.429-0.008.672-0.008a0.494,0.494,0,0,1,.49.545q-0.156,1.491-.306,2.948c-0.243,2.356-.472,4.581-0.737,6.847-0.209,1.8-1.413,3.1-3.481,3.776a15.538,15.538,0,0,1-4.877.608" transform="translate(-93.25 -546)"/>
  <path id="图层_144" data-name="图层 144" class="cls-4" d="M153.509,599.163a1.613,1.613,0,0,0-1.7,1.575c-0.156,1.161-.338,2.344-0.514,3.488-0.2,1.269-.4,2.582-0.568,3.883-0.273,2.1-.806,2.98-3.4,2.98-0.121,0-.246,0-0.374-0.006h-0.021c-0.051,0-.1-0.006-0.151-0.006a1.189,1.189,0,0,0-.625.166c-0.032.02-.067,0.039-0.1,0.058a1.739,1.739,0,0,0-.8.751,8.848,8.848,0,0,0-.411,1.088c-0.045.139-.092,0.282-0.144,0.431a0.986,0.986,0,0,0,.917,1.311c0.371,0,.67.008,0.941,0.008a15.967,15.967,0,0,0,5.03-.633c2.861-.934,3.655-2.792,3.818-4.187,0.265-2.27.494-4.5,0.737-6.856,0.1-.961.2-1.93,0.3-2.91a1.043,1.043,0,0,0,.009-0.138,0.986,0.986,0,0,0-.986-0.986h0c-0.246,0-.47,0-0.68.007-0.173,0-.336.006-0.492,0.006-0.222,0-.392-0.006-0.549-0.019-0.085-.007-0.166-0.01-0.243-0.01m1.964,1h0m-1.965-.016c0.051,0,.105,0,0.164.008,0.2,0.016.41,0.021,0.628,0.021,0.345,0,.722-0.013,1.172-0.013-0.353,3.354-.667,6.575-1.042,9.79a4.048,4.048,0,0,1-3.144,3.364,15.045,15.045,0,0,1-4.724.583c-0.306,0-.615,0-0.927-0.007a14.776,14.776,0,0,1,.514-1.42,1.368,1.368,0,0,1,.526-0.391,0.223,0.223,0,0,1,.111-0.022c0.046,0,.1.006,0.14,0.007,0.139,0,.275.007,0.406,0.007,3.13,0,4.041-1.279,4.374-3.84,0.32-2.46.752-4.908,1.082-7.367a0.651,0.651,0,0,1,.72-0.72" transform="translate(-93.25 -546)"/>
  <path id="图层_145" data-name="图层 145" class="cls-3" d="M146,610.865a0.494,0.494,0,0,1-.468-0.649c0.144-.435.287-0.858,0.428-1.275,0.308-.915.6-1.781,0.872-2.655,0.233-.748.458-1.513,0.677-2.252,0.242-.819.492-1.666,0.753-2.5a1.235,1.235,0,0,1,.925-0.82c0.291-.024.6-0.034,1.007-0.034q0.29,0,.6,0c0.224,0,.458,0,0.706,0a0.493,0.493,0,0,1,.482.594c-0.169.811-.335,1.606-0.5,2.391-0.39,1.871-.758,3.639-1.141,5.428-0.351,1.643-.617,1.752-2.31,1.759H146Z" transform="translate(-93.25 -546)"/>
  <path id="图层_146" data-name="图层 146" class="cls-4" d="M150.19,600.189c-0.42,0-.743.011-1.049,0.036a1.724,1.724,0,0,0-1.354,1.163c-0.263.836-.514,1.685-0.757,2.507-0.217.737-.443,1.5-0.674,2.244-0.271.87-.562,1.734-0.871,2.649-0.14.415-.282,0.838-0.426,1.272a0.987,0.987,0,0,0,.936,1.3h2.03a3.1,3.1,0,0,0,1.967-.369,2.65,2.65,0,0,0,.83-1.779c0.383-1.795.752-3.567,1.143-5.443l0.5-2.378a0.986,0.986,0,0,0-.965-1.189c-0.246,0-.478,0-0.7,0s-0.412,0-.607,0m0,0.986c0.4,0,.827.01,1.306,0.01-0.569,2.72-1.095,5.27-1.639,7.817-0.291,1.365-.306,1.363-1.836,1.369H146c0.461-1.387.9-2.658,1.3-3.939,0.491-1.579.933-3.17,1.43-4.748a0.772,0.772,0,0,1,.494-0.476c0.315-.026.633-0.033,0.968-0.033" transform="translate(-93.25 -546)"/>
  <path id="图层_147" data-name="图层 147" class="cls-5" d="M146.295,570.781c-2.431-4.193-7.992-6.923-12.376-8.093l-0.012,0c-0.6-.162-1.482-0.3-2.03-0.4a8.112,8.112,0,0,0,2.87-1.534,2.45,2.45,0,0,0,.7-0.827,1.162,1.162,0,0,0-1.131-1.709,3.053,3.053,0,0,0-1.231.482,10.058,10.058,0,0,0-3.273,3.05,6.25,6.25,0,0,0-1.45-2.567,17.345,17.345,0,0,0-2.583-2.217,1.29,1.29,0,0,0-.974-0.36,0.932,0.932,0,0,0-.685.632,1.892,1.892,0,0,0-.049.846,5.37,5.37,0,0,0,2.726,3.97,22.076,22.076,0,0,0-14.353,5.06A21.019,21.019,0,0,0,105.5,579.88l-0.019.016a0.3,0.3,0,0,0-.04.406c-0.219.192-.434,0.391-0.639,0.6a4.411,4.411,0,0,1-.41,1.482,15.409,15.409,0,0,0-.7,10.557,19.248,19.248,0,0,0,5.761,8.969,4.938,4.938,0,0,0-1.655-.574,12.712,12.712,0,0,0,2.573,1.042l-0.085.684a3.951,3.951,0,0,0-2.684-.937,3.505,3.505,0,0,0-3.2,2.224,6.612,6.612,0,0,0-.27,3.3,6.807,6.807,0,0,0,1.632,4,3.7,3.7,0,0,0,.822.635,3.369,3.369,0,0,0,2.052,3.711,4.144,4.144,0,0,0,1.581.3,5.525,5.525,0,0,0,2.943-.9,10.245,10.245,0,0,0,2.821-2.955c0.01,0.578.034,1.119,0.075,1.576a0.2,0.2,0,0,0,.135.17,43.445,43.445,0,0,0,10.951,1.914c0.1,0,.194,0,0.29,0,5.294,0,12.369-2.3,12.44-2.326a0.2,0.2,0,0,0,.134-0.217c-0.1-.7-0.233-1.4-0.381-2.094l0.058-.012c1.566-.406,2.036-2.436,2.286-4.368a0.2,0.2,0,0,0-.069-0.177,11.359,11.359,0,0,0-4.553-2.279,0.132,0.132,0,0,0-.028,0c-0.235-.5-0.483-1-0.744-1.482,6.746-2.395,10.924-7.659,11.5-14.55a17.6,17.6,0,0,0-.465-5.075c0.58-.159.911-0.26,0.927-0.266a0.2,0.2,0,0,0,.138-0.156,20.691,20.691,0,0,0-2.393-12.309" transform="translate(-93.25 -546)"/>
  <path id="图层_148" data-name="图层 148" class="cls-6" d="M144.053,568.428c-4.331-4.376-10.42-5.7-12.892-6.069a25.216,25.216,0,0,0,2.666-1.2,2.89,2.89,0,0,0,1.305-1.087,1.077,1.077,0,0,0-.387-1.481,1.4,1.4,0,0,0-.857.007,6.127,6.127,0,0,0-4.122,3.55,9.575,9.575,0,0,0-4.02-4.906,1.273,1.273,0,0,0-1.284-.2,1.215,1.215,0,0,0-.311,1.321,5.311,5.311,0,0,0,3.1,3.679l0.036,0.131a31.205,31.205,0,0,0-4.742.477c-3.557.648-7.572,2.182-10.108,4.463-5.423,4.878-6.963,12.787-6.963,12.787s5.313,3.673,9.862,4.433,10.2,1.343,10.2,1.343c0.773,0.7.772,4.329,0.772,4.329a39.694,39.694,0,0,0,10.543-.754c7.305-1.783,8.951-5.464,8.951-5.464l2.748-.537s1.056-9.206-4.5-14.818" transform="translate(-93.25 -546)"/>
  <path id="图层_149" data-name="图层 149" class="cls-7" d="M107.521,581.5l18.788,9.194s-0.238,5.8-3.76,8.222-12.26,2.368-15.72-2.534-0.779-16.113-.779-16.113Z" transform="translate(-93.25 -546)"/>
  <path id="图层_150" data-name="图层 150" class="cls-7" d="M144.776,585.17a26.628,26.628,0,0,1-2.571,2,28.635,28.635,0,0,1-5.354,2.081l-8.552,2.664-1.99-1.213s-1.3,7.139-3.759,8.222l4.839-1.087h2.122s6.358,2.367,7.854,2.279,5.519-1.842,7.411-6.169a12.167,12.167,0,0,0,0-8.773" transform="translate(-93.25 -546)"/>
  <path id="图层_151" data-name="图层 151" class="cls-8" d="M107.342,584.774l15.208,6.335a9.672,9.672,0,0,1-8.706,5.277c-6.385.043-7.156-9.53-7.156-9.53Z" transform="translate(-93.25 -546)"/>
  <path id="图层_152" data-name="图层 152" class="cls-8" d="M131.923,593.623l10.9-3.043a7.145,7.145,0,0,1-3.033,6.669c-1.645,1.162-4.216.543-5.876-.782a7.243,7.243,0,0,1-2-2.844" transform="translate(-93.25 -546)"/>
  <path id="图层_153" data-name="图层 153" class="cls-8" d="M127.358,598.14a1.794,1.794,0,0,0,.3.741,0.855,0.855,0,0,0,.689.356,1.131,1.131,0,0,0,.847-0.678c0.487-.893.684-3.112-0.407-3.738-1.281-.735-1.561,2.675-1.43,3.319" transform="translate(-93.25 -546)"/>
  <path id="图层_154" data-name="图层 154" class="cls-6" d="M133.424,604.328c0.31,1.492.221,3.089,0.861,4.471a4.615,4.615,0,0,0,2.363,2.285,3.871,3.871,0,0,0,3.837-.4c1.059-.836,1.375-3.219,1.273-3.635-0.084-.341-1.911-1.321-2.819-1.715a3.41,3.41,0,0,0-1.671-.392,1.828,1.828,0,0,0-.955,1.076,7.913,7.913,0,0,0-2.187-4.532,9.521,9.521,0,0,0-2.714-2,3.957,3.957,0,0,0-1.8-.683,6.762,6.762,0,0,0,1.281,1.054,8.557,8.557,0,0,1,1.134,1.294,8.438,8.438,0,0,1,1.4,3.17" transform="translate(-93.25 -546)"/>
  <path id="图层_155" data-name="图层 155" class="cls-6" d="M126.969,608.794a7.564,7.564,0,0,0,7.316-.362,4.349,4.349,0,0,0,2.108,2.393,4.527,4.527,0,0,0,3.242.292,5.941,5.941,0,0,0,.16,2.461,59.644,59.644,0,0,1-10.009,2.221c-4.615.632-8.927-.375-13.377-1.752-0.077-.732-0.212-1.5-0.288-2.231a6.936,6.936,0,0,1-5.161,4.134,3.577,3.577,0,0,1-4.267-3.876,2.427,2.427,0,0,0,1.811.577,2.649,2.649,0,0,0,1.765-.917,5,5,0,0,0,4.144-2.411,4.152,4.152,0,0,0,.668-2.357A2.88,2.88,0,0,0,114,604.813a2.216,2.216,0,0,0-2.342-.22,12.116,12.116,0,0,1,.374-2.385,2.2,2.2,0,0,0,1.609.2,19.737,19.737,0,0,0,4.326-.836c-0.083.085-.167,0.169-0.251,0.253a15.165,15.165,0,0,0,5.18,1.894,1.807,1.807,0,0,0,.968,2.161,2.534,2.534,0,0,0,1.045,2.045,10.552,10.552,0,0,0,2.058.872" transform="translate(-93.25 -546)"/>
  <path id="图层_156" data-name="图层 156" class="cls-4" d="M131.367,586.032c-2.025,0-3.99-.055-5.843-0.164a0.2,0.2,0,1,1,.024-0.393c1.844,0.108,3.8.162,5.819,0.162,7.445,0,15.825-2.408,16.922-2.733a20.265,20.265,0,0,0-2.361-11.925c-3.255-5.615-12.275-8.551-16.2-8.551l-0.65,0c-3.926-.02-10.5-0.051-16.408,4.983a20.535,20.535,0,0,0-6.83,12.726,0.2,0.2,0,1,1-.393-0.031,20.952,20.952,0,0,1,6.967-13c6.021-5.129,12.685-5.1,16.666-5.076l0.648,0c4,0,13.209,3,16.539,8.748a20.676,20.676,0,0,1,2.393,12.307,0.2,0.2,0,0,1-.137.157c-0.09.028-9.154,2.787-17.158,2.787" transform="translate(-93.25 -546)"/>
  <path id="图层_157" data-name="图层 157" class="cls-4" d="M125.536,585.968h-0.018c-15.864-.931-19.932-5.464-20.1-5.656a0.3,0.3,0,1,1,.449-0.386c0.039,0.045,4.127,4.539,19.683,5.451a0.3,0.3,0,0,1-.017.591" transform="translate(-93.25 -546)"/>
  <path id="图层_158" data-name="图层 158" class="cls-4" d="M126.309,590.2a0.2,0.2,0,0,1,0-.395l0.192,0c3.415-.051,8.092-0.119,11.281-0.974,3.847-1.03,6.585-2.787,8.14-5.221a0.2,0.2,0,0,1,.332.212c-1.609,2.52-4.425,4.334-8.37,5.391-3.237.867-7.941,0.936-11.377,0.986l-0.192,0h0Z" transform="translate(-93.25 -546)"/>
  <path id="图层_159" data-name="图层 159" class="cls-4" d="M128.66,594.8a0.885,0.885,0,0,0-.642.531,4.235,4.235,0,0,0-.268,3.185,0.626,0.626,0,0,0,1.244.1,4.233,4.233,0,0,0,.268-3.184,0.844,0.844,0,0,0-.573-0.635H128.66m-0.306,4.746-0.064,0a1.18,1.18,0,0,1-.909-0.889,4.624,4.624,0,0,1,.3-3.523,1,1,0,0,1,1.954.165,4.622,4.622,0,0,1-.3,3.522,1.222,1.222,0,0,1-.981.727" transform="translate(-93.25 -546)"/>
  <path id="图层_160" data-name="图层 160" class="cls-4" d="M128.317,604.491q-1.2,0-2.429-.1a29.065,29.065,0,0,1-8.275-2.106,0.2,0.2,0,0,1,.149-0.366A28.676,28.676,0,0,0,125.916,604a27.345,27.345,0,0,0,5.836-.119,0.2,0.2,0,0,1,.052.391,26.831,26.831,0,0,1-3.487.224" transform="translate(-93.25 -546)"/>
  <path id="图层_161" data-name="图层 161" class="cls-4" d="M135.761,603.394a0.2,0.2,0,0,1-.059-0.386c7.019-2.214,11.381-7.483,11.968-14.455a17.867,17.867,0,0,0-.5-5.133,0.2,0.2,0,1,1,.383-0.092,17.743,17.743,0,0,1,.508,5.258c-0.6,7.14-5.063,12.533-12.243,14.8a0.2,0.2,0,0,1-.059.009" transform="translate(-93.25 -546)"/>
  <path id="图层_162" data-name="图层 162" class="cls-4" d="M107.414,585.176a9.413,9.413,0,0,0,.333,5.637,7.76,7.76,0,0,0,3.822,4.641,7.293,7.293,0,0,0,6.238-.139,9.219,9.219,0,0,0,4.346-4.1Zm7.057,11.5a7.3,7.3,0,0,1-3.159-.692A8.35,8.35,0,0,1,107.185,591a9.933,9.933,0,0,1-.256-6.3,0.3,0.3,0,0,1,.4-0.2l15.336,6.285a0.3,0.3,0,0,1,.16.39,9.656,9.656,0,0,1-4.754,4.671,8.2,8.2,0,0,1-3.6.833" transform="translate(-93.25 -546)"/>
  <path id="图层_163" data-name="图层 163" class="cls-4" d="M112.3,589.6c-0.2,2.412.994,4.482,2.673,4.623s3.2-1.7,3.407-4.111a6.178,6.178,0,0,0,.015-0.755l-5.347-2.192a5.767,5.767,0,0,0-.748,2.435" transform="translate(-93.25 -546)"/>
  <path id="图层_164" data-name="图层 164" class="cls-4" d="M132.078,593.661a6.348,6.348,0,0,0,2.658,3.151,5.025,5.025,0,0,0,4.261.581,5.343,5.343,0,0,0,2.979-2.88,6.48,6.48,0,0,0,.666-3.84Zm5.451,4.367a5.619,5.619,0,0,1-3.006-.884,6.641,6.641,0,0,1-2.885-3.561,0.2,0.2,0,0,1,.016-0.151,0.2,0.2,0,0,1,.12-0.1l10.977-3.105a0.2,0.2,0,0,1,.16.024,0.2,0.2,0,0,1,.089.135,6.837,6.837,0,0,1-.665,4.288,5.747,5.747,0,0,1-3.208,3.087,4.86,4.86,0,0,1-1.6.262" transform="translate(-93.25 -546)"/>
  <path id="图层_165" data-name="图层 165" class="cls-4" d="M138.95,593.327c-0.049,1.665-1.028,2.988-2.188,2.954s-2.059-1.412-2.01-3.077a4.333,4.333,0,0,1,.048-0.518l3.828-1.082a3.963,3.963,0,0,1,.322,1.723" transform="translate(-93.25 -546)"/>
  <path id="图层_166" data-name="图层 166" class="cls-4" d="M113.843,577.93A12.071,12.071,0,1,0,125.914,590a12.085,12.085,0,0,0-12.071-12.071m0,24.931A12.86,12.86,0,1,1,126.7,590a12.875,12.875,0,0,1-12.86,12.86" transform="translate(-93.25 -546)"/>
  <path id="图层_167" data-name="图层 167" class="cls-4" d="M109.871,602.115a0.292,0.292,0,0,1-.16-0.047,16.352,16.352,0,0,1-6.549-10.056,15.524,15.524,0,0,1,1.743-11.111,0.3,0.3,0,0,1,.491.332,15.213,15.213,0,0,0-1.652,10.667,16.054,16.054,0,0,0,6.288,9.671,0.3,0.3,0,0,1-.161.544" transform="translate(-93.25 -546)"/>
  <path id="图层_168" data-name="图层 168" class="cls-4" d="M143.134,584.6a0.191,0.191,0,0,1-.052-0.007,0.2,0.2,0,0,1-.139-0.242c0.007-.024.647-2.6-0.954-9.98s-8.163-11.285-8.229-11.323a0.2,0.2,0,1,1,.2-0.341c0.067,0.04,6.779,4.042,8.416,11.58,1.628,7.5.978,10.062,0.949,10.167a0.2,0.2,0,0,1-.19.146" transform="translate(-93.25 -546)"/>
  <path id="图层_169" data-name="图层 169" class="cls-4" d="M112.374,577.768a0.186,0.186,0,0,1-.052-0.007,0.2,0.2,0,0,1-.138-0.242,24,24,0,0,1,3.648-7.51,26.682,26.682,0,0,1,9.624-7.887,0.2,0.2,0,0,1,.161.36,26.259,26.259,0,0,0-9.463,7.755,23.623,23.623,0,0,0-3.59,7.386,0.2,0.2,0,0,1-.19.145" transform="translate(-93.25 -546)"/>
  <path id="图层_170" data-name="图层 170" class="cls-4" d="M131.287,562.482a0.2,0.2,0,0,1-.031-0.392,6.814,6.814,0,0,0,3.341-1.544,2.308,2.308,0,0,0,.623-0.738,0.9,0.9,0,0,0,0-.831,0.938,0.938,0,0,0-.9-0.372,2.724,2.724,0,0,0-1.07.428,9.1,9.1,0,0,0-3.422,3.189,0.2,0.2,0,0,1-.366-0.07,5.032,5.032,0,0,0-1.432-2.711,17.072,17.072,0,0,0-2.525-2.166,0.982,0.982,0,0,0-.67-0.286,0.546,0.546,0,0,0-.379.371,1.522,1.522,0,0,0-.031.67,4.951,4.951,0,0,0,3.3,4.013,0.2,0.2,0,0,1-.123.375,5.35,5.35,0,0,1-3.568-4.339,1.9,1.9,0,0,1,.049-0.848,0.934,0.934,0,0,1,.685-0.631,1.3,1.3,0,0,1,.974.359,17.412,17.412,0,0,1,2.582,2.218,5.868,5.868,0,0,1,1.428,2.423,9.987,9.987,0,0,1,3.3-2.906,3.066,3.066,0,0,1,1.232-.482,1.2,1.2,0,0,1,1.289,1.763,2.711,2.711,0,0,1-.725.872,7.2,7.2,0,0,1-3.534,1.632l-0.032,0" transform="translate(-93.25 -546)"/>
  <path id="图层_171" data-name="图层 171" class="cls-4" d="M130.18,599.2a7.984,7.984,0,0,1,3.259,4.473,16.006,16.006,0,0,1,.384,2.08,8.824,8.824,0,0,0,.877,3.259,4.476,4.476,0,0,0,4.868,2.048c1.318-.341,1.755-2.256,1.979-3.928a10.954,10.954,0,0,0-4.221-2.109,2.614,2.614,0,0,0-.933,2.122,0.2,0.2,0,1,1-.392-0.041,7,7,0,0,1,.156-0.964,0.2,0.2,0,0,1-.039-0.094,8.744,8.744,0,0,0-2.445-4.909,7.357,7.357,0,0,0-3.493-1.937m8.373,12.382a4.908,4.908,0,0,1-4.195-2.373,9.239,9.239,0,0,1-.926-3.4,15.845,15.845,0,0,0-.373-2.028,7.576,7.576,0,0,0-4.166-4.84,0.2,0.2,0,0,1,.109-0.375,8.3,8.3,0,0,1,4.951,2.295,9.142,9.142,0,0,1,2.464,4.6,2.417,2.417,0,0,1,.753-0.813,0.194,0.194,0,0,1,.16-0.03,11.34,11.34,0,0,1,4.553,2.279,0.2,0.2,0,0,1,.07.178c-0.251,1.932-.72,3.962-2.286,4.367a4.418,4.418,0,0,1-1.114.14" transform="translate(-93.25 -546)"/>
  <path id="图层_172" data-name="图层 172" class="cls-4" d="M130.247,609.784a9.074,9.074,0,0,1-4.515-1.219,0.2,0.2,0,0,1,.2-0.343,8.6,8.6,0,0,0,8.263.211,0.2,0.2,0,1,1,.177.353,9.119,9.119,0,0,1-4.12,1" transform="translate(-93.25 -546)"/>
  <path id="图层_173" data-name="图层 173" class="cls-4" d="M133.132,615.01a0.2,0.2,0,0,1-.059-0.009c-3.309-1.042-5.232-4.23-6.265-5.943a0.2,0.2,0,0,1,.067-0.271,0.2,0.2,0,0,1,.271.067c1.006,1.668,2.879,4.773,6.045,5.77a0.2,0.2,0,0,1-.059.386" transform="translate(-93.25 -546)"/>
  <path id="图层_174" data-name="图层 174" class="cls-4" d="M137.205,605.068a0.2,0.2,0,0,1-.179-0.115c-0.288-.624-0.6-1.245-0.927-1.846a0.2,0.2,0,1,1,.346-0.189c0.331,0.609.647,1.238,0.939,1.87a0.2,0.2,0,0,1-.1.262,0.2,0.2,0,0,1-.083.018" transform="translate(-93.25 -546)"/>
  <path id="图层_175" data-name="图层 175" class="cls-4" d="M109.873,615.215a1.029,1.029,0,0,1-.123-0.008,0.986,0.986,0,0,1-.857-1.1l1.49-12.011a0.987,0.987,0,0,1,1.958.243l-1.49,12.011a0.987,0.987,0,0,1-.978.865" transform="translate(-93.25 -546)"/>
  <path id="图层_176" data-name="图层 176" class="cls-4" d="M104.566,604.419h0Zm3.145-1.907-0.118,0a3.123,3.123,0,0,0-2.845,1.98,6.242,6.242,0,0,0-.242,3.1,6.43,6.43,0,0,0,1.522,3.773,3.021,3.021,0,0,0,3.625.673,4.3,4.3,0,0,0,1.514-2.819,7.311,7.311,0,0,0-.285-4.744,3.534,3.534,0,0,0-3.171-1.964m0.684,10.275a3.826,3.826,0,0,1-2.651-1.147,6.806,6.806,0,0,1-1.63-4,6.612,6.612,0,0,1,.27-3.3,3.5,3.5,0,0,1,3.2-2.224,3.928,3.928,0,0,1,3.656,2.182,7.673,7.673,0,0,1,.317,5,4.639,4.639,0,0,1-1.686,3.072,2.691,2.691,0,0,1-1.472.416" transform="translate(-93.25 -546)"/>
  <path id="图层_177" data-name="图层 177" class="cls-4" d="M110.625,611.93a0.2,0.2,0,0,1-.022-0.393,5.083,5.083,0,0,0,3.591-2.164,3.812,3.812,0,0,0,.664-2.949,2.244,2.244,0,0,0-2.028-1.829,1.633,1.633,0,0,0-1.482,1.2,2.7,2.7,0,0,0,.332,2.061,1.653,1.653,0,0,0,1.117.9,0.2,0.2,0,0,1-.041.393,2.031,2.031,0,0,1-1.419-1.1,3.09,3.09,0,0,1-.367-2.369,2.007,2.007,0,0,1,1.866-1.484,2.642,2.642,0,0,1,2.406,2.136,4.205,4.205,0,0,1-.722,3.259,5.485,5.485,0,0,1-3.873,2.334h-0.022" transform="translate(-93.25 -546)"/>
  <path id="图层_178" data-name="图层 178" class="cls-4" d="M110.2,616.287a4.1,4.1,0,0,1-1.58-.3,3.327,3.327,0,0,1-1.991-3.932,0.2,0.2,0,1,1,.373.127,2.963,2.963,0,0,0,1.77,3.441,4.614,4.614,0,0,0,4.159-.567,10.64,10.64,0,0,0,2.991-3.276,0.2,0.2,0,1,1,.332.213,10.99,10.99,0,0,1-3.11,3.395,5.515,5.515,0,0,1-2.944.9" transform="translate(-93.25 -546)"/>
  <path id="图层_179" data-name="图层 179" class="cls-4" d="M127.417,616.093l-0.292,0a43.421,43.421,0,0,1-10.95-1.914,0.2,0.2,0,0,1-.135-0.17,34.285,34.285,0,0,1,.183-6.556,0.2,0.2,0,1,1,.391.057,34.131,34.131,0,0,0-.192,6.333,42.685,42.685,0,0,0,10.71,1.855c4.821,0.085,11.348-1.909,12.443-2.255-0.107-.7-0.238-1.4-0.391-2.092a0.2,0.2,0,0,1,.385-0.085c0.168,0.754.309,1.523,0.421,2.285a0.2,0.2,0,0,1-.134.216c-0.072.024-7.146,2.328-12.439,2.328" transform="translate(-93.25 -546)"/>
  <path id="图层_180" data-name="图层 180" class="cls-4" d="M126.673,608.89a0.2,0.2,0,0,1-.078-0.016l-1.15-.5a2.647,2.647,0,0,1-1.1-.726,3.763,3.763,0,0,1-.7-1.652,2.152,2.152,0,0,1-.855-0.788,1.183,1.183,0,0,1,.16-1.426,0.2,0.2,0,0,1,.243.311,0.821,0.821,0,0,0-.057.926,1.95,1.95,0,0,0,.789.683,0.2,0.2,0,0,1,.095.141,3.4,3.4,0,0,0,.632,1.559,2.3,2.3,0,0,0,.943.61l1.15,0.5a0.2,0.2,0,0,1-.078.379" transform="translate(-93.25 -546)"/>
  <path id="图层_181" data-name="图层 181" class="cls-4" d="M132.037,604.857a0.2,0.2,0,0,1-.179-0.114,4.19,4.19,0,0,1-.511-1.725c0-.084,0-0.168-0.006-0.252a1.079,1.079,0,0,1,.582-1.295,0.2,0.2,0,0,1,.109.379c-0.293.085-.316,0.34-0.3,0.9,0,0.088.006,0.176,0.006,0.263a3.9,3.9,0,0,0,.475,1.561,0.2,0.2,0,0,1-.1.262,0.2,0.2,0,0,1-.083.018" transform="translate(-93.25 -546)"/>
  <path id="图层_182" data-name="图层 182" class="cls-4" d="M127.975,611.007h0c-7.35-.059-11.181-3.679-11.593-4.091a1.973,1.973,0,0,0-1.316-.339,0.2,0.2,0,1,1-.028-0.393,2.386,2.386,0,0,1,1.623.453c0.4,0.4,4.124,3.917,11.318,3.975a0.2,0.2,0,0,1,0,.395" transform="translate(-93.25 -546)"/>
  <path id="图层_183" data-name="图层 183" class="cls-4" d="M134.073,555.659a0.158,0.158,0,0,0,.04,0l-0.04,0m-5.615-.513a30.027,30.027,0,0,0-25.446,45.963,0.593,0.593,0,0,1-.041.688,6.276,6.276,0,0,0-.932,1.567,9.009,9.009,0,0,0-.444,4.605,9.279,9.279,0,0,0,2.253,5.372,0.593,0.593,0,0,1,.155.325,6.016,6.016,0,0,0,3.665,4.692,6.673,6.673,0,0,0,2.558.5,8.029,8.029,0,0,0,4.33-1.309,9.734,9.734,0,0,0,.885-0.642,0.592,0.592,0,0,1,.542-0.109,45.091,45.091,0,0,0,11.115,1.863c0.115,0,.23,0,0.344,0,5.738,0,13.2-2.44,13.272-2.465a0.485,0.485,0,0,1,.075-0.019,2.66,2.66,0,0,0,1.575-1.52,0.593,0.593,0,0,1,1.1.116,2.988,2.988,0,0,0,.417.98,0.644,0.644,0,0,1,.052.065,1.583,1.583,0,0,0,1.271.673q0.5,0.007.981,0.008a17.021,17.021,0,0,0,5.386-.683,7.011,7.011,0,0,0,2.849-1.679,0.589,0.589,0,0,1,.572-0.156,1.6,1.6,0,0,0,.4.055h2.991a0.591,0.591,0,0,1,.592.59,1.581,1.581,0,0,0,1.579,1.574c0.2,0,.4,0,0.595,0,0.174,0,.346,0,0.515,0,0.23,0,.414,0,0.579.015,0.082,0,.16.007,0.234,0.007a2.27,2.27,0,0,0,1.679-.639,2.093,2.093,0,0,0,.571-1.122,0.589,0.589,0,0,1,.594-0.483,1.729,1.729,0,0,0,.444-0.044,4.441,4.441,0,0,0,3.649-4.2c0.013-.827.01-1.661,0.007-2.468,0-.295,0-0.577,0-0.859a4.583,4.583,0,0,0-.42-2.068,0.592,0.592,0,0,1,.092-0.669l0.046-.05a2.97,2.97,0,0,0,.446-2.51,0.6,0.6,0,0,1,.1-0.4,2.5,2.5,0,0,0,.353-1.678v0l0-.045a0.717,0.717,0,0,1,0-.131,2.134,2.134,0,0,0-.442-1.694,1.971,1.971,0,0,0-1.015-.637,0.592,0.592,0,0,1-.433-0.59l0.059-1.816c0.006-.191.024-0.387,0.043-0.6,0.015-.159.03-0.322,0.038-0.485a0.592,0.592,0,0,1,.266-0.462,1.8,1.8,0,0,0,.47-0.455,2.613,2.613,0,0,0,.39-1.611c0-.134,0-0.291.012-0.473a2.228,2.228,0,0,0-.583-1.724,2,2,0,0,0-.714-0.474,0.592,0.592,0,0,1,0-1.1,3.621,3.621,0,0,0,1.7-2.1,1.7,1.7,0,0,0,.117-1.029c0-.01,0-0.02,0-0.029a1.579,1.579,0,0,0-.493-0.956,0.594,0.594,0,0,1-.146-0.659,1.564,1.564,0,0,0,.117-0.565,1.58,1.58,0,0,0-.658-1.314l-0.132-.1a0.592,0.592,0,0,1,0-.959,2.206,2.206,0,0,0,.77-1.036,3.488,3.488,0,0,0-.238-3.316,3.089,3.089,0,0,0-.618-0.66,0.592,0.592,0,0,1-.223-0.463v-0.549a0.592,0.592,0,0,1,.394-0.557,1.582,1.582,0,0,0,1.049-1.486v-1.877a1.575,1.575,0,0,0-.859-1.4,0.591,0.591,0,0,1-.054-1.022l0.019-.013a1.583,1.583,0,0,0,.72-1.266,1.621,1.621,0,0,0-.051-0.46,0.584,0.584,0,0,1,.036-0.4,1.583,1.583,0,0,0,.135-0.868l-0.231-1.8a1.579,1.579,0,0,0-.2-0.595,0.581,0.581,0,0,1-.08-0.275,1.719,1.719,0,0,0-.017-0.176L168.908,559a1.586,1.586,0,0,0-1.559-1.343H167.31a0.588,0.588,0,0,1-.431-0.167,1.622,1.622,0,0,0-.2-0.162c-0.211-.147-0.418-0.294-0.623-0.438-0.606-.428-1.169-0.826-1.77-1.214a2.466,2.466,0,0,0-2.1-.237,0.591,0.591,0,0,1-.465-0.01,1.565,1.565,0,0,0-.651-0.14c-0.248,0-.485,0-0.716.006H160.3c-0.185,0-.365,0-0.542,0-0.28,0-.506-0.006-0.71-0.017-0.078,0-.152-0.007-0.223-0.007a2.229,2.229,0,0,0-1.693.662,2.009,2.009,0,0,0-.452.776,0.592,0.592,0,0,1-1.1.068,1.589,1.589,0,0,0-1.1-.882c-0.352-.075-0.684-0.144-1-0.21-0.7-.145-1.3-0.268-1.876-0.418a2.852,2.852,0,0,0-.724-0.1,2.465,2.465,0,0,0-1.98,1.049c-0.953,1.2-1.894,2.372-2.922,3.473-0.073.078-.146,0.164-0.223,0.262a0.593,0.593,0,0,1-.791.127,29.833,29.833,0,0,0-8.458-3.849l-0.038-.012a14.432,14.432,0,0,0-2.4-.566,0.606,0.606,0,0,1-.112-0.01,30.3,30.3,0,0,0-5.5-.5m-18.232,64.891a7.84,7.84,0,0,1-3.012-.586,7.213,7.213,0,0,1-4.356-5.438,10.506,10.506,0,0,1-2.437-5.894,10.13,10.13,0,0,1,.524-5.206,7.45,7.45,0,0,1,.848-1.524,31.211,31.211,0,0,1,26.665-47.427,31.513,31.513,0,0,1,5.687.519,14.916,14.916,0,0,1,2.692.621,31.005,31.005,0,0,1,8.339,3.714c0.972-1.048,1.875-2.173,2.792-3.327a3.609,3.609,0,0,1,2.907-1.5,3.991,3.991,0,0,1,1.021.136c0.55,0.142,1.131.263,1.8,0.4,0.335,0.069.669,0.139,1.025,0.215a2.784,2.784,0,0,1,1.3.678,3.1,3.1,0,0,1,.245-0.294,3.382,3.382,0,0,1,2.555-1.035c0.092,0,.188,0,0.289.009,0.182,0.01.386,0.015,0.644,0.015,0.172,0,.348,0,0.528,0h0.058c0.235,0,.477-0.006.73-0.006a2.757,2.757,0,0,1,.908.153,3.71,3.71,0,0,1,2.952.424c0.621,0.4,1.2.805,1.8,1.234l0.628,0.442c0.055,0.038.109,0.079,0.16,0.121a2.78,2.78,0,0,1,2.558,2.345l0.269,1.787c0.008,0.053.014,0.106,0.019,0.159a2.76,2.76,0,0,1,.283.912l0.23,1.8a2.754,2.754,0,0,1-.155,1.325,2.674,2.674,0,0,1,.043.6,2.637,2.637,0,0,0,.175,3.661v1.877a2.766,2.766,0,0,1-1.372,2.385,4.288,4.288,0,0,1,.562.658,4.638,4.638,0,0,1,.372,4.4,3.5,3.5,0,0,1-.638,1.082,2.758,2.758,0,0,1,.736,1.933,2.721,2.721,0,0,1-.082.618,2.774,2.774,0,0,1,.593,1.372,2.867,2.867,0,0,1-.206,1.714,5.991,5.991,0,0,1-1.427,2.162c0.076,0.065.149,0.134,0.219,0.206a3.4,3.4,0,0,1,.913,2.59c-0.007.173-.01,0.321-0.012,0.448a3.7,3.7,0,0,1-.612,2.282,3,3,0,0,1-.534.572c-0.007.083-.015,0.165-0.022,0.247-0.017.189-.034,0.369-0.039,0.525l-0.045,1.384a3.105,3.105,0,0,1,1.157.86,3.292,3.292,0,0,1,.718,2.546,3.7,3.7,0,0,1-.438,2.247,4.075,4.075,0,0,1-.566,2.974,6.071,6.071,0,0,1,.387,2.242c0,0.281,0,.562,0,0.843,0,0.826.006,1.665-.007,2.5a5.618,5.618,0,0,1-4.587,5.335c-0.077.016-.156,0.03-0.236,0.041A3.222,3.222,0,0,1,165,616.4a3.426,3.426,0,0,1-2.522.992c-0.1,0-.2,0-0.3-0.01-0.142-.008-0.3-0.012-0.509-0.012-0.164,0-.329,0-0.5,0-0.2,0-.4,0-0.612,0a2.768,2.768,0,0,1-2.7-2.165H155.4a2.666,2.666,0,0,1-.365-0.025,8.312,8.312,0,0,1-3.089,1.747,18.109,18.109,0,0,1-5.754.742c-0.329,0-.662,0-1-0.008a2.769,2.769,0,0,1-2.2-1.148,1.976,1.976,0,0,1-.229-0.331,3.463,3.463,0,0,1-1.7,1.132c-0.557.182-7.8,2.517-13.619,2.517-0.122,0-.243,0-0.365,0a45.9,45.9,0,0,1-11.134-1.825q-0.366.282-.748,0.527a9.213,9.213,0,0,1-4.969,1.5" transform="translate(-93.25 -546)"/>
  <path id="图层_184" data-name="图层 184" class="cls-4" d="M124.938,556a1.35,1.35,0,0,0-.238.021,1.525,1.525,0,0,0-1.142,1.021,2.445,2.445,0,0,0-.077,1.112,5.928,5.928,0,0,0,1.67,3.384,22,22,0,0,0-13.094,5.123,21.679,21.679,0,0,0-7.121,12.964,0.887,0.887,0,0,0-.152.472c-0.14.129-.275,0.258-0.4,0.385a0.589,0.589,0,0,0-.174.407,3.78,3.78,0,0,1-.356,1.247,16.086,16.086,0,0,0-.726,10.965,19.243,19.243,0,0,0,4.385,7.717,0.593,0.593,0,0,0-.259.737,4.072,4.072,0,0,0-3.39,2.567,7.149,7.149,0,0,0-.31,3.6,7.36,7.36,0,0,0,1.793,4.333,4.042,4.042,0,0,0,.6.513,4,4,0,0,0,2.473,3.969,4.7,4.7,0,0,0,1.808.347,6.143,6.143,0,0,0,3.263-1,9.12,9.12,0,0,0,1.991-1.787,0.78,0.78,0,0,0,.542.644,43.765,43.765,0,0,0,11.12,1.941c0.1,0,.2,0,0.3,0,5.4,0,12.556-2.333,12.626-2.357a0.791,0.791,0,0,0,.533-0.863c-0.076-.519-0.171-1.061-0.282-1.62,1.524-.721,2-2.752,2.246-4.69a0.793,0.793,0,0,0-.274-0.708,11.947,11.947,0,0,0-4.551-2.34q-0.158-.33-0.321-0.65a17.013,17.013,0,0,0,11.26-14.821,17.784,17.784,0,0,0-.36-4.7c0.185-.053.329-0.1,0.4-0.118a0.794,0.794,0,0,0,.554-0.629,21.307,21.307,0,0,0-2.466-12.7c-2.513-4.334-8.226-7.164-12.735-8.368l-0.037-.008-0.155-.039a8.243,8.243,0,0,0,1.252-.87,2.966,2.966,0,0,0,.848-1.026,1.756,1.756,0,0,0-1.528-2.558,1.922,1.922,0,0,0-.2.01,3.563,3.563,0,0,0-1.475.562,11.1,11.1,0,0,0-2.792,2.339,7.571,7.571,0,0,0-1.186-1.743,17.859,17.859,0,0,0-2.668-2.3,2,2,0,0,0-1.194-.489m0,0.592a1.462,1.462,0,0,1,.839.371,17.4,17.4,0,0,1,2.582,2.217,6.25,6.25,0,0,1,1.45,2.567,10.068,10.068,0,0,1,3.273-3.05,3.042,3.042,0,0,1,1.232-.481,1.307,1.307,0,0,1,.138-0.008,1.165,1.165,0,0,1,.992,1.716,2.438,2.438,0,0,1-.7.827,8.111,8.111,0,0,1-2.871,1.535c0.548,0.1,1.426.24,2.03,0.4l0.012,0c4.384,1.17,9.946,3.9,12.376,8.093a20.706,20.706,0,0,1,2.394,12.31,0.2,0.2,0,0,1-.139.155c-0.015.006-.347,0.107-0.927,0.267a17.624,17.624,0,0,1,.466,5.074c-0.58,6.892-4.759,12.156-11.5,14.551,0.261,0.485.51,0.982,0.744,1.481h0.018l0.01,0a11.352,11.352,0,0,1,4.553,2.279,0.2,0.2,0,0,1,.069.178c-0.25,1.931-.72,3.961-2.286,4.368l-0.057.012c0.148,0.692.278,1.394,0.38,2.093a0.2,0.2,0,0,1-.134.217c-0.071.024-7.146,2.326-12.439,2.326-0.1,0-.194,0-0.29,0a43.458,43.458,0,0,1-10.952-1.914,0.191,0.191,0,0,1-.134-0.169c-0.042-.458-0.065-1-0.075-1.577a10.265,10.265,0,0,1-2.822,2.956,5.523,5.523,0,0,1-2.943.9,4.12,4.12,0,0,1-1.58-.3,3.366,3.366,0,0,1-2.052-3.711,3.645,3.645,0,0,1-.823-0.635,6.807,6.807,0,0,1-1.632-4,6.6,6.6,0,0,1,.271-3.3,3.5,3.5,0,0,1,3.2-2.223l0.132,0a3.947,3.947,0,0,1,2.551.94l0.085-.685a12.654,12.654,0,0,1-2.573-1.042,4.939,4.939,0,0,1,1.655.575,19.258,19.258,0,0,1-5.761-8.969,15.417,15.417,0,0,1,.7-10.558,4.4,4.4,0,0,0,.41-1.481c0.2-.206.42-0.4,0.64-0.6a0.3,0.3,0,0,1,.039-0.407c0.006-.006.014-0.01,0.02-0.015a21.011,21.011,0,0,1,6.942-12.771,22.084,22.084,0,0,1,14.354-5.061,5.369,5.369,0,0,1-2.727-3.97,1.922,1.922,0,0,1,.049-0.846,0.93,0.93,0,0,1,.685-0.631,0.79,0.79,0,0,1,.136-0.012" transform="translate(-93.25 -546)"/>
</svg>
