<svg id="线索区bg" xmlns="http://www.w3.org/2000/svg" width="649.13" height="559.063" viewBox="0 0 649.13 559.063">
  <metadata><?xpacket begin="﻿" id="W5M0MpCehiHzreSzNTczkc9d"?>
<x:xmpmeta xmlns:x="adobe:ns:meta/" x:xmptk="Adobe XMP Core 5.6-c142 79.160924, 2017/07/13-01:06:39        ">
   <rdf:RDF xmlns:rdf="http://www.w3.org/1999/02/22-rdf-syntax-ns#">
      <rdf:Description rdf:about=""/>
   </rdf:RDF>
</x:xmpmeta>
                                                                                                    
                                                                                                    
                                                                                                    
                                                                                                    
                                                                                                    
                                                                                                    
                                                                                                    
                                                                                                    
                                                                                                    
                                                                                                    
                                                                                                    
                                                                                                    
                                                                                                    
                                                                                                    
                                                                                                    
                                                                                                    
                                                                                                    
                                                                                                    
                                                                                                    
                                                                                                    
                           
<?xpacket end="w"?></metadata>
<defs>
    <style>
      .cls-1 {
        fill: #e8e1c1;
      }

      .cls-1, .cls-2, .cls-3, .cls-4 {
        stroke: #2d267f;
        stroke-miterlimit: 10;
        stroke-width: 1px;
        fill-rule: evenodd;
      }

      .cls-2 {
        fill: #f2eccc;
      }

      .cls-3 {
        fill: #fffcdc;
      }

      .cls-4 {
        fill: #fff;
      }
    </style>
  </defs>
  <path id="图层_424" data-name="图层 424" class="cls-1" d="M1091.35,865.779H485.323a14.28,14.28,0,0,1-14.28-14.281l-0.5-517.438a14.281,14.281,0,0,1,14.28-14.281H1090.85a14.279,14.279,0,0,1,14.28,14.281l0.5,517.438A14.278,14.278,0,0,1,1091.35,865.779Z" transform="translate(-457 -319.281)"/>
  <path id="图层_425" data-name="图层 425" class="cls-2" d="M1085.38,871.784H479.348A14.282,14.282,0,0,1,465.067,857.5l-0.5-517.438a14.281,14.281,0,0,1,14.28-14.281H1089.79a9.37,9.37,0,0,1,9.37,9.365l0.5,522.354A14.285,14.285,0,0,1,1085.38,871.784Z" transform="translate(-457 -319.281)"/>
  <path id="图层_426" data-name="图层 426" class="cls-3" d="M1078.3,877.837H472.268a14.28,14.28,0,0,1-14.28-14.281l-0.5-517.438a14.28,14.28,0,0,1,14.28-14.281H1085.95a6.125,6.125,0,0,1,6.13,6.126l0.5,525.593A14.285,14.285,0,0,1,1078.3,877.837Z" transform="translate(-457 -319.281)"/>
  <path id="图层_427" data-name="图层 427" class="cls-4" d="M1066.45,858.65H484.114a7.038,7.038,0,0,1-7.038-7.038l-0.5-493.55a7.038,7.038,0,0,1,7.038-7.038H1065.95a7.038,7.038,0,0,1,7.04,7.038l0.5,493.55A7.038,7.038,0,0,1,1066.45,858.65Z" transform="translate(-457 -319.281)"/>
</svg>
