<svg id="线索_错误" data-name="线索 错误" xmlns="http://www.w3.org/2000/svg" width="287.44" height="137.031" viewBox="0 0 287.44 137.031">
  <metadata><?xpacket begin="﻿" id="W5M0MpCehiHzreSzNTczkc9d"?>
<x:xmpmeta xmlns:x="adobe:ns:meta/" x:xmptk="Adobe XMP Core 5.6-c142 79.160924, 2017/07/13-01:06:39        ">
   <rdf:RDF xmlns:rdf="http://www.w3.org/1999/02/22-rdf-syntax-ns#">
      <rdf:Description rdf:about=""/>
   </rdf:RDF>
</x:xmpmeta>
                                                                                                    
                                                                                                    
                                                                                                    
                                                                                                    
                                                                                                    
                                                                                                    
                                                                                                    
                                                                                                    
                                                                                                    
                                                                                                    
                                                                                                    
                                                                                                    
                                                                                                    
                                                                                                    
                                                                                                    
                                                                                                    
                                                                                                    
                                                                                                    
                                                                                                    
                                                                                                    
                           
<?xpacket end="w"?></metadata>
<defs>
    <style>
      .cls-1 {
        fill: #e8e1c1;
      }

      .cls-1, .cls-2, .cls-3 {
        stroke: #2d267f;
        stroke-miterlimit: 10;
        stroke-width: 1px;
      }

      .cls-1, .cls-2, .cls-3, .cls-4, .cls-5 {
        fill-rule: evenodd;
      }

      .cls-2 {
        fill: #f2eccc;
      }

      .cls-3 {
        fill: #fffcdc;
      }

      .cls-4 {
        fill: #ffa627;
      }

      .cls-5 {
        fill: #fff;
      }
    </style>
  </defs>
  <path id="图层_415" data-name="图层 415" class="cls-1" d="M1642.7,271.289H1395.32a14.279,14.279,0,0,1-14.28-14.282V160.04a14.279,14.279,0,0,1,14.28-14.282h245.35a16.308,16.308,0,0,1,16.31,16.309v94.94A14.286,14.286,0,0,1,1642.7,271.289Z" transform="translate(-1370.03 -145.25)"/>
  <path id="图层_418" data-name="图层 418" class="cls-2" d="M1637.7,276.288H1390.32a14.278,14.278,0,0,1-14.28-14.281V165.039a14.278,14.278,0,0,1,14.28-14.281h249.31a12.352,12.352,0,0,1,12.35,12.353v98.9A14.284,14.284,0,0,1,1637.7,276.288Z" transform="translate(-1370.03 -145.25)"/>
  <path id="图层_420" data-name="图层 420" class="cls-3" d="M1632.2,281.789H1384.82a14.279,14.279,0,0,1-14.28-14.281V170.54a14.278,14.278,0,0,1,14.28-14.281h253.76a7.9,7.9,0,0,1,7.9,7.894V267.508A14.285,14.285,0,0,1,1632.2,281.789Z" transform="translate(-1370.03 -145.25)"/>
  <path id="图层_421" data-name="图层 421" class="cls-4" d="M1392,260.992h233.01v4.022H1392v-4.022Z" transform="translate(-1370.03 -145.25)"/>
  <path id="图层_422" data-name="图层 422" class="cls-4" d="M1628.35,186.948a13.18,13.18,0,1,1-13.18-13.177,13.179,13.179,0,0,1,13.18,13.177" transform="translate(-1370.03 -145.25)"/>
  <path id="图层_451_拷贝" data-name="图层 451 拷贝" class="cls-5" d="M1616.01,189.009h-2.02v-7.02h2.02v7.02Zm0,3.994h-2.02v-2.009h2.02V193Z" transform="translate(-1370.03 -145.25)"/>
</svg>
