<svg id="线索_未解锁_h" data-name="线索 未解锁_h" xmlns="http://www.w3.org/2000/svg" width="287.44" height="137.031" viewBox="0 0 287.44 137.031">
  <metadata><?xpacket begin="﻿" id="W5M0MpCehiHzreSzNTczkc9d"?>
<x:xmpmeta xmlns:x="adobe:ns:meta/" x:xmptk="Adobe XMP Core 5.6-c142 79.160924, 2017/07/13-01:06:39        ">
   <rdf:RDF xmlns:rdf="http://www.w3.org/1999/02/22-rdf-syntax-ns#">
      <rdf:Description rdf:about=""/>
   </rdf:RDF>
</x:xmpmeta>
                                                                                                    
                                                                                                    
                                                                                                    
                                                                                                    
                                                                                                    
                                                                                                    
                                                                                                    
                                                                                                    
                                                                                                    
                                                                                                    
                                                                                                    
                                                                                                    
                                                                                                    
                                                                                                    
                                                                                                    
                                                                                                    
                                                                                                    
                                                                                                    
                                                                                                    
                                                                                                    
                           
<?xpacket end="w"?></metadata>
<defs>
    <style>
      .cls-1 {
        fill: #e2e2e2;
      }

      .cls-1, .cls-2, .cls-3 {
        stroke: #2d267f;
        stroke-miterlimit: 10;
        stroke-width: 1px;
      }

      .cls-1, .cls-2, .cls-3, .cls-4, .cls-5 {
        fill-rule: evenodd;
      }

      .cls-2 {
        fill: #f4f4f4;
      }

      .cls-3, .cls-5 {
        fill: #fff;
      }

      .cls-4 {
        fill: #ea4766;
      }
    </style>
  </defs>
  <path id="图层_406" data-name="图层 406" class="cls-1" d="M1338.74,131.289H1091.36a14.286,14.286,0,0,1-14.28-14.282V20.04a14.285,14.285,0,0,1,14.28-14.281h245.35a16.308,16.308,0,0,1,16.31,16.308v94.94A14.279,14.279,0,0,1,1338.74,131.289Z" transform="translate(-1066.09 -5.25)"/>
  <path id="图层_409" data-name="图层 409" class="cls-2" d="M1333.74,136.288H1086.36a14.284,14.284,0,0,1-14.28-14.281V25.039a14.285,14.285,0,0,1,14.28-14.281h249.31a12.351,12.351,0,0,1,12.35,12.352v98.9A14.278,14.278,0,0,1,1333.74,136.288Z" transform="translate(-1066.09 -5.25)"/>
  <path id="图层_411" data-name="图层 411" class="cls-3" d="M1328.24,141.789H1080.86a14.285,14.285,0,0,1-14.28-14.281V30.54a14.285,14.285,0,0,1,14.28-14.281h253.77a7.891,7.891,0,0,1,7.89,7.895V127.508A14.279,14.279,0,0,1,1328.24,141.789Z" transform="translate(-1066.09 -5.25)"/>
  <path id="图层_412" data-name="图层 412" class="cls-4" d="M1088.01,120.992h232.98v4.022H1088.01v-4.022Z" transform="translate(-1066.09 -5.25)"/>
  <path id="图层_413" data-name="图层 413" class="cls-4" d="M1324.39,46.948a13.175,13.175,0,1,1-13.18-13.177,13.178,13.178,0,0,1,13.18,13.177" transform="translate(-1066.09 -5.25)"/>
  <path id="图层_414" data-name="图层 414" class="cls-5" d="M1313.05,49.561a0.248,0.248,0,0,1-.25.248h-3.17a0.248,0.248,0,0,1-.25-0.248V48.834a0.248,0.248,0,0,1,.25-0.248h3.17a0.248,0.248,0,0,1,.25.248v0.727Zm-4.24-5.4a2.4,2.4,0,0,1,4.8,0v1.777h-4.8V44.159Zm7.98,1.777h-0.78V44.159a4.8,4.8,0,0,0-9.6,0v1.777h-0.77l-0.43.42v5.759l0.43,0.42h11.15l0.42-.42V46.356Z" transform="translate(-1066.09 -5.25)"/>
</svg>
