<svg id="考试标题" xmlns="http://www.w3.org/2000/svg" width="251.813" height="126.437" viewBox="0 0 251.813 126.437">
  <metadata><?xpacket begin="﻿" id="W5M0MpCehiHzreSzNTczkc9d"?>
<x:xmpmeta xmlns:x="adobe:ns:meta/" x:xmptk="Adobe XMP Core 5.6-c142 79.160924, 2017/07/13-01:06:39        ">
   <rdf:RDF xmlns:rdf="http://www.w3.org/1999/02/22-rdf-syntax-ns#">
      <rdf:Description rdf:about=""/>
   </rdf:RDF>
</x:xmpmeta>
                                                                                                    
                                                                                                    
                                                                                                    
                                                                                                    
                                                                                                    
                                                                                                    
                                                                                                    
                                                                                                    
                                                                                                    
                                                                                                    
                                                                                                    
                                                                                                    
                                                                                                    
                                                                                                    
                                                                                                    
                                                                                                    
                                                                                                    
                                                                                                    
                                                                                                    
                                                                                                    
                           
<?xpacket end="w"?></metadata>
<defs>
    <style>
      .cls-1 {
        fill: #f99b46;
      }

      .cls-1, .cls-2 {
        stroke: #2d267f;
        stroke-width: 1px;
      }

      .cls-1, .cls-2, .cls-3 {
        fill-rule: evenodd;
      }

      .cls-2 {
        fill: #fffcdc;
        stroke-miterlimit: 10;
      }

      .cls-3 {
        fill: #2d267f;
      }
    </style>
  </defs>
  <path id="图层_457" data-name="图层 457" class="cls-1" d="M70.549,182.569a53.481,53.481,0,0,0-4.381,13.946c-1.794,11.571,1.593,21.112,9.793,27.591,6.525,5.154,16.874,5.909,29.14,2.124,12.684-3.915,26.012-12.186,38.546-23.919,14.366-13.45,24.929-33.5,24.567-46.637-0.129-4.657-1.666-8.349-4.446-10.678-16-13.4-56.964,14.264-65.678,22.955l4.388,4.4c4.01-4,15.446-12.38,28.312-18.488,13.746-6.526,24.313-8.022,28.989-4.1,1.4,1.17,2.146,3.218,2.225,6.085,0.273,9.954-8.106,28.359-22.6,41.931-24.85,23.266-49.812,29.179-59.588,21.456-6.43-5.082-8.955-12.4-7.5-21.764,3.03-19.541,22.921-43.187,42.568-50.6l-2.193-5.813c-16.933,6.393-34.04,23.884-42.133,41.518" transform="translate(-65.188 -140.563)"/>
  <path id="图层_484" data-name="图层 484" class="cls-2" d="M312.9,266.509H94.114A3.611,3.611,0,0,1,90.5,262.9V246.117a3.611,3.611,0,0,1,3.611-3.609H312.9a3.611,3.611,0,0,1,3.611,3.609V262.9A3.61,3.61,0,0,1,312.9,266.509Z" transform="translate(-65.188 -140.563)"/>
  <path id="形状_1" data-name="形状 1" class="cls-3" d="M105.378,249.173v1.663h-3.254v10h-1.869v-10H97v-1.663h8.378Zm3.271,9.984h5.139v1.681H106.78V249.173h6.658v1.663h-4.789v3.178H113.1v1.579h-4.455v3.564Zm6.592,1.411v-1.714a8.785,8.785,0,0,0,1.518.353,11.87,11.87,0,0,0,1.869.152,3.286,3.286,0,0,0,1.836-.4,1.53,1.53,0,0,0,.567-1.352,2.159,2.159,0,0,0-.192-1,1.436,1.436,0,0,0-.7-0.6,9.015,9.015,0,0,0-1.56-.487,8.156,8.156,0,0,1-1.944-.672,2.264,2.264,0,0,1-.976-0.966,3.69,3.69,0,0,1-.3-1.64,2.971,2.971,0,0,1,.993-2.462,4.723,4.723,0,0,1,3-.8,10.772,10.772,0,0,1,1.66.126,7.2,7.2,0,0,1,1.277.294v1.647a7.421,7.421,0,0,0-1.327-.319,9.692,9.692,0,0,0-1.56-.134,3.153,3.153,0,0,0-1.686.336,1.432,1.432,0,0,0-.5,1.277,1.817,1.817,0,0,0,.15.815,1.248,1.248,0,0,0,.617.513,8.1,8.1,0,0,0,1.452.453,8.32,8.32,0,0,1,2.1.732,2.432,2.432,0,0,1,1.051,1.084,4.318,4.318,0,0,1,.317,1.815,3.052,3.052,0,0,1-1.051,2.538,5.046,5.046,0,0,1-3.188.84,13.943,13.943,0,0,1-1.944-.134A9.053,9.053,0,0,1,115.241,260.568ZM132,249.173v1.663h-3.254v10h-1.869v-10h-3.254v-1.663H132Z" transform="translate(-65.188 -140.563)"/>
  <path id="矩形_1_拷贝_4" data-name="矩形 1 拷贝 4" class="cls-3" d="M299,250h1v1h-1v-1Zm4,0h1v1h-1v-1Zm4,0h1v1h-1v-1Zm-8,4h1v1h-1v-1Zm4,0h1v1h-1v-1Zm4,0h1v1h-1v-1Zm-8,4h1v1h-1v-1Zm4,0h1v1h-1v-1Zm4,0h1v1h-1v-1Z" transform="translate(-65.188 -140.563)"/>
</svg>
