<svg id="解题提示" xmlns="http://www.w3.org/2000/svg" width="89" height="26" viewBox="0 0 89 26">
  <metadata><?xpacket begin="﻿" id="W5M0MpCehiHzreSzNTczkc9d"?>
<x:xmpmeta xmlns:x="adobe:ns:meta/" x:xmptk="Adobe XMP Core 5.6-c142 79.160924, 2017/07/13-01:06:39        ">
   <rdf:RDF xmlns:rdf="http://www.w3.org/1999/02/22-rdf-syntax-ns#">
      <rdf:Description rdf:about=""/>
   </rdf:RDF>
</x:xmpmeta>
                                                                                                    
                                                                                                    
                                                                                                    
                                                                                                    
                                                                                                    
                                                                                                    
                                                                                                    
                                                                                                    
                                                                                                    
                                                                                                    
                                                                                                    
                                                                                                    
                                                                                                    
                                                                                                    
                                                                                                    
                                                                                                    
                                                                                                    
                                                                                                    
                                                                                                    
                                                                                                    
                           
<?xpacket end="w"?></metadata>
<defs>
    <style>
      .cls-1, .cls-3 {
        fill: #fffcdc;
      }

      .cls-1 {
        stroke: #2d267f;
        stroke-miterlimit: 10;
        stroke-width: 1px;
      }

      .cls-1, .cls-2, .cls-3 {
        fill-rule: evenodd;
      }

      .cls-2 {
        fill: #2d267f;
      }
    </style>
  </defs>
  <path id="图层_448" data-name="图层 448" class="cls-1" d="M1564.94,410.492h-64.86c-6.39,0-11.57-5.6-11.57-12.5s5.18-12.5,11.57-12.5h64.86c6.39,0,11.57,5.6,11.57,12.5S1571.33,410.492,1564.94,410.492Z" transform="translate(-1488 -385)"/>
  <path id="图层_449" data-name="图层 449" class="cls-2" d="M1502,390a8,8,0,1,0,8.01,7.994A8.007,8.007,0,0,0,1502,390" transform="translate(-1488 -385)"/>
  <path id="图层_451" data-name="图层 451" class="cls-3" d="M1500.98,398.013h2.03v3.994h-2.03v-3.994Zm0-4.015h2.03v1.987h-2.03V394Z" transform="translate(-1488 -385)"/>
  <path id="解题提示-2" data-name="解题提示" class="cls-2" d="M1524.83,400.462v-1.386h1.87V397.83h-1.87v-1.064l-1.22-.056v1.12h-0.84c0.06-.271.12-0.546,0.17-0.826l-1.1-.252a5.767,5.767,0,0,0,1.18-1.3,4.127,4.127,0,0,0,.56-1.47c0.03-.122.06-0.3,0.1-0.546h1.61c-0.02.3-.05,0.625-0.1,0.98a1.475,1.475,0,0,1-.11.434,0.346,0.346,0,0,1-.22.2,2.218,2.218,0,0,1-.5.084l-0.68.042,0.38,1.218,0.74-.056a3.383,3.383,0,0,0,.94-0.168,0.925,0.925,0,0,0,.49-0.413,2.466,2.466,0,0,0,.21-0.847c0.02-.2.09-1.078,0.19-2.646h-5.49v1.176h1.25l-0.04.182a3.877,3.877,0,0,1-.45,1.246,4.679,4.679,0,0,1-1.09,1.092V395h-1.33l0.92-1.288v-1.092h-2.39c0.11-.215.23-0.472,0.35-0.77l-1.18-.42a14.768,14.768,0,0,1-1.15,2.149,12.206,12.206,0,0,1-1.58,1.911l0.88,0.854a1.883,1.883,0,0,0,.31-0.308v2.52a19.109,19.109,0,0,1-.1,2.233,7.173,7.173,0,0,1-.31,1.484,14.457,14.457,0,0,1-.67,1.547l1.18,0.42a11.09,11.09,0,0,0,.66-1.575,8.7,8.7,0,0,0,.32-1.659h0.92v2.436h1.17l0.22,0.784,0.63-.07a2.742,2.742,0,0,0,.68-0.161,0.7,0.7,0,0,0,.36-0.357,1.906,1.906,0,0,0,.11-0.714v-2.912l1.06,0.406c0.2-.448.37-0.9,0.52-1.344h1.22v1.386h-2.49v1.246h2.49v2.548h1.22v-2.548h2.32v-1.246h-2.32Zm-5.93-6.664-0.84,1.2h-1.49c0.28-.374.56-0.775,0.82-1.2h1.51Zm-2.1,2.352h0.84v1.26h-0.84v-1.26Zm2.01,0h0.85v1.26h-0.85v-1.26Zm2.7,0.882,0.33-.28a16.838,16.838,0,0,1-.44,1.652,11.66,11.66,0,0,1-.59,1.512v-3.7Zm-4.72,2.8c0.01-.159.01-0.406,0.01-0.742v-0.476h0.84v1.218h-0.85Zm2.02-1.218h0.85v1.218h-0.85v-1.218Zm0,4.4v-2h0.85v1.414a0.679,0.679,0,0,1-.09.4,0.533,0.533,0,0,1-.37.147Zm10.29-6.034h4.73v-4.858h-4.73v4.858Zm5.74-2.254v5.222h1.13v-4.088h2.73v4.074h1.15v-5.208h-2.17c0.03-.094.11-0.411,0.26-0.952,0.01-.075.04-0.178,0.07-0.308h2.4v-1.176h-5.92v1.176h2.29c-0.17.662-.27,1.082-0.32,1.26h-1.62Zm-4.53-.7v-0.868h2.3v0.868h-2.3Zm2.3,1.036v0.84h-2.3v-0.84h2.3Zm7.63,6.412a18.1,18.1,0,0,0-1.96-1.6l-0.66.966a17.7,17.7,0,0,1,1.95,1.736c-1.02.056-2.29,0.084-3.82,0.084h-1.05a8.536,8.536,0,0,0,1.89-1.127,3.449,3.449,0,0,0,.99-1.323,5.143,5.143,0,0,0,.31-1.89v-1.806l-1.07-.056v1.61a4.6,4.6,0,0,1-.19,1.463,2.369,2.369,0,0,1-.81,1.057,8.036,8.036,0,0,1-1.85,1.022l0.57,1.05-1.33-.028a6.006,6.006,0,0,1-.73-0.042v-1.33h1.8v-1.134h-1.8v-1.134h1.94v-1.176h-5.93v1.176h2.79v3.234a3.227,3.227,0,0,1-1.01-1.428,13.171,13.171,0,0,0,.16-1.344l-1.14-.126a9.523,9.523,0,0,1-.4,2.317,9.012,9.012,0,0,1-.97,1.939l1.04,0.6a12.832,12.832,0,0,0,.92-1.862,2.909,2.909,0,0,0,1.31,1.26,5.385,5.385,0,0,0,2.02.364c1.03,0.018,1.79.028,2.3,0.028,1.73,0,3.39-.047,4.97-0.14l0.32-1.33c-0.54.037-.95,0.06-1.22,0.07Zm10.35-.014h2.68v-1.232h-2.68V399.1h3.27v-1.218h-8.03l-0.02-.56-0.01-.686-1.14.462v-1.708h1.31V394.05h-1.31v-2.31l-1.3-.056v2.366h-1.45v1.344h1.45v2.2c-0.69.261-1.29,0.471-1.79,0.63l0.11,1.456q0.765-.238,1.68-0.588V402.3a0.46,0.46,0,0,1-.13.4,1.347,1.347,0,0,1-.55.133l-0.59.042,0.42,1.358,0.6-.056a3.718,3.718,0,0,0,.99-0.182,0.745,0.745,0,0,0,.45-0.42l1.05,0.854a8.058,8.058,0,0,0,1.57-2.226,3.333,3.333,0,0,0,1.35,1.386,4.869,4.869,0,0,0,2.05.448c0.23,0.009.59,0.014,1.07,0.014,0.67,0,1.43-.024,2.29-0.07l0.28-1.33c-0.9.046-1.73,0.07-2.46,0.07-0.52,0-.9,0-1.16-0.014v-1.246Zm-4.05-4.382h6.41V392.1h-6.41v4.97Zm1.37-3.08V393.21h3.66v0.784h-3.66Zm3.66,1.134v0.812h-3.66v-0.812h3.66Zm-3.22,6.811a4.36,4.36,0,0,1-.72-1.141,12.483,12.483,0,0,0,.24-1.316l-1.27-.112a7.762,7.762,0,0,1-.61,2.282,7.236,7.236,0,0,1-1.42,1.876,2.617,2.617,0,0,0,.09-0.77v-4.172c0.23-.084.56-0.224,1-0.42V399.1h3.61v3.416A2.286,2.286,0,0,1,1548.35,401.939Zm8.24-8.211h9.7V392.3h-9.7v1.428Zm10.88,2.282h-12.03v1.428h5.42v4.48a1.463,1.463,0,0,1-.07.546,0.4,0.4,0,0,1-.26.231,3.011,3.011,0,0,1-.62.105l-1.04.07,0.45,1.428,1.08-.084a4,4,0,0,0,1.15-.217,1.06,1.06,0,0,0,.58-0.518,2.521,2.521,0,0,0,.17-1.029v-5.012h5.17V396.01Zm-9.39,2.184a18.907,18.907,0,0,1-1.27,2.191,23.887,23.887,0,0,1-1.6,2.149l1.2,0.91a25.324,25.324,0,0,0,2.9-4.578Zm5.53,0.77q0.615,0.783,1.47,2.135c0.56,0.9,1,1.649,1.31,2.247l1.21-.9c-0.42-.71-0.9-1.494-1.47-2.352a22.079,22.079,0,0,0-1.35-1.9Z" transform="translate(-1488 -385)"/>
</svg>
