<svg id="追桃高手" xmlns="http://www.w3.org/2000/svg" width="82" height="82" viewBox="0 0 82 82">
  <metadata><?xpacket begin="﻿" id="W5M0MpCehiHzreSzNTczkc9d"?>
<x:xmpmeta xmlns:x="adobe:ns:meta/" x:xmptk="Adobe XMP Core 5.6-c142 79.160924, 2017/07/13-01:06:39        ">
   <rdf:RDF xmlns:rdf="http://www.w3.org/1999/02/22-rdf-syntax-ns#">
      <rdf:Description rdf:about=""/>
   </rdf:RDF>
</x:xmpmeta>
                                                                                                    
                                                                                                    
                                                                                                    
                                                                                                    
                                                                                                    
                                                                                                    
                                                                                                    
                                                                                                    
                                                                                                    
                                                                                                    
                                                                                                    
                                                                                                    
                                                                                                    
                                                                                                    
                                                                                                    
                                                                                                    
                                                                                                    
                                                                                                    
                                                                                                    
                                                                                                    
                           
<?xpacket end="w"?></metadata>
<defs>
    <style>
      .cls-1 {
        fill: #e4683c;
      }

      .cls-1, .cls-10, .cls-11, .cls-2, .cls-3, .cls-4, .cls-5, .cls-6, .cls-7, .cls-8, .cls-9 {
        fill-rule: evenodd;
      }

      .cls-2 {
        fill: #a73c24;
      }

      .cls-3 {
        fill: #2d267f;
      }

      .cls-4 {
        fill: #fff;
      }

      .cls-5 {
        fill: #878f93;
      }

      .cls-6 {
        fill: #ccc;
      }

      .cls-7 {
        fill: #eabe64;
      }

      .cls-8 {
        fill: #f6c5c2;
      }

      .cls-9 {
        fill: #e58a83;
      }

      .cls-10 {
        fill: #abbb7b;
      }

      .cls-11 {
        fill: #f6cf5e;
      }
    </style>
  </defs>
  <path id="图层_189" data-name="图层 189" class="cls-1" d="M136.7,815.857a33.227,33.227,0,0,1-27.538-14.605,39.207,39.207,0,0,1-8.412-2.07,2.928,2.928,0,0,1-.7-5.136,13.425,13.425,0,0,1,4.466-2.1c-0.047-.092-0.093-0.184-0.137-0.276a12.959,12.959,0,0,1-1.22-6.467,10.243,10.243,0,0,1-3.222-4.461,4.459,4.459,0,0,1,.371-4.127,4.17,4.17,0,0,1,3.527-1.785c0.167,0,.337.009,0.509,0.026a33.129,33.129,0,0,1,1.775-5.365,4.488,4.488,0,0,1-1.649-1.458c-0.422-.623-0.846-1.238-1.26-1.829a4.319,4.319,0,0,1,.275-5.368,4.2,4.2,0,0,1-1.168-2.692l-0.1-1.884a4.511,4.511,0,0,1,.434-2.169,4.207,4.207,0,0,1-.324-2.159,4.884,4.884,0,0,1,1.425-2.906c0.427-.424.873-0.873,1.325-1.334a4.772,4.772,0,0,1,2.241-1.3,4.318,4.318,0,0,1,.811-0.121c0.069,0,.138-0.005.207-0.005a3.833,3.833,0,0,1,1.593.338c0.123-.039.247-0.073,0.372-0.1s0.254-.052.38-0.068l0.256-.033a4.66,4.66,0,0,1,2.445-1.471,4.061,4.061,0,0,1,.689-0.094c0.066,0,.133,0,0.2,0q0.154,0,.306.012c0.656,0.05,1.335.109,2.017,0.176a3.829,3.829,0,0,1,2.58,1.359,5.076,5.076,0,0,1,.743.252c0.059-.092.121-0.182,0.186-0.269a4.477,4.477,0,0,1,2.839-1.8,4.054,4.054,0,0,1,.41-0.048c0.644-.04,1.282-0.075,1.919-0.108,0.066,0,.132,0,0.2,0a3.855,3.855,0,0,1,1.245.2,4.125,4.125,0,0,1,1.17-.353c0.12-.017.244-0.029,0.367-0.036H128.3c0.643-.023,1.275-0.042,1.907-0.058h0.1a3.722,3.722,0,0,1,.471.029l0.059,0c0.638-.014,1.27-0.025,1.9-0.033h0.051a3.927,3.927,0,0,1,3.085,1.5,4.086,4.086,0,0,1,1.78-.616c0.061-.006.124-0.011,0.187-0.014s0.136,0,.2,0h0.024c3.849,0.046,7.884.188,12,.424a4.076,4.076,0,0,1,2.709,1.273,4.02,4.02,0,0,1,1.01-.181l0.046,0c0.05,0,.1,0,0.155,0H154.1a4.132,4.132,0,0,1,2.867-1.382c0.052,0,.1,0,0.156,0h0.044c0.113,0,.228,0,0.343.015,0.719,0.064,1.423.129,2.126,0.2a4.247,4.247,0,0,1,2.6,1.249,3.98,3.98,0,0,1,.75-0.109q0.1-.006.21-0.006a4.194,4.194,0,0,1,1.564.307c0.67,0.271,1.329.533,1.956,0.779a4.406,4.406,0,0,1,2.761,4.566,4.258,4.258,0,0,1,.871,2.376l0.106,1.92a4.555,4.555,0,0,1-1.167,3.258c-0.1.115-.213,0.225-0.326,0.328l0.254,4.655a4.821,4.821,0,0,1-1.066,3.238,5.1,5.1,0,0,1-1.113,1.039,32.986,32.986,0,0,1,2.925,13.655,33.623,33.623,0,0,1-.405,5.192c0.2,0.165.39,0.333,0.572,0.5,0.048,0.044.094,0.089,0.138,0.136,1.124,1.189,2.511,3.067,1.608,5.643a5.36,5.36,0,0,1-3.883,3.513,4.875,4.875,0,0,1-.723.09,3.335,3.335,0,0,1,.11,1.123,6.757,6.757,0,0,1,1.564,6.723,3.743,3.743,0,0,1-3.636,2.866c-0.108,0-.217,0-0.325-0.015a4.242,4.242,0,0,1-2.67-1.417,13.011,13.011,0,0,1-1.362-1.59,33.332,33.332,0,0,1-24.248,10.5" transform="translate(-94.484 -739)"/>
  <path id="图层_190" data-name="图层 190" class="cls-2" d="M99.3,798.118a2.9,2.9,0,0,0,1.633,1.5,39.108,39.108,0,0,0,7.486,1.922l26.591-19.3Z" transform="translate(-94.484 -739)"/>
  <path id="图层_191" data-name="图层 191" class="cls-2" d="M102.4,756.419c0,0.093-.008.187,0,0.28l0.1,1.883a4.2,4.2,0,0,0,1.168,2.693,4.3,4.3,0,0,0-.715,4.559l32.053,14.249Z" transform="translate(-94.484 -739)"/>
  <path id="图层_192" data-name="图层 192" class="cls-2" d="M100.219,777.539a4.588,4.588,0,0,0-.1,3.642,9.654,9.654,0,0,0,2.1,3.4l32.5-3.414Z" transform="translate(-94.484 -739)"/>
  <path id="图层_193" data-name="图层 193" class="cls-2" d="M170.088,784.424c0.019-.464.054-0.928,0.054-1.39a33.542,33.542,0,0,0-.39-5.1l-30.707,3.226Z" transform="translate(-94.484 -739)"/>
  <path id="图层_194" data-name="图层 194" class="cls-2" d="M170.828,796.5l-32.072-14.258,30.649,22.243a6.773,6.773,0,0,0-1.845-5.254,3.333,3.333,0,0,0-.111-1.123,4.878,4.878,0,0,0,.723-0.091,5.107,5.107,0,0,0,2.656-1.517" transform="translate(-94.484 -739)"/>
  <path id="图层_195" data-name="图层 195" class="cls-2" d="M135.8,779.292l-14.818-33.246a4.945,4.945,0,0,0-.7.75c-0.064.087-.126,0.177-0.185,0.268a5.235,5.235,0,0,0-.743-0.251,3.835,3.835,0,0,0-2.58-1.36c-0.682-.066-1.361-0.125-2.017-0.176-0.1-.008-0.2-0.012-0.306-0.012q-0.1,0-.2.006a4.063,4.063,0,0,0-.688.094,4.523,4.523,0,0,0-1.809.881Z" transform="translate(-94.484 -739)"/>
  <path id="图层_196" data-name="图层 196" class="cls-2" d="M136.882,779l3.531-33.519c-0.725-.015-1.451-0.03-2.164-0.039h-0.024c-0.068,0-.136,0-0.2,0s-0.126.008-.187,0.014a4.086,4.086,0,0,0-1.78.616,3.921,3.921,0,0,0-2.794-1.466Z" transform="translate(-94.484 -739)"/>
  <path id="图层_197" data-name="图层 197" class="cls-2" d="M135.8,783.034L116.616,809.4a33.158,33.158,0,0,0,5.833,3.591Z" transform="translate(-94.484 -739)"/>
  <path id="图层_198" data-name="图层 198" class="cls-2" d="M137.964,783.034l13.349,29.951a33.3,33.3,0,0,0,5.833-3.588Z" transform="translate(-94.484 -739)"/>
  <path id="图层_199" data-name="图层 199" class="cls-2" d="M140.336,816.113l-3.454-32.789L133.43,816.1a33.524,33.524,0,0,0,3.452.192,33.053,33.053,0,0,0,3.454-.182" transform="translate(-94.484 -739)"/>
  <path id="图层_200" data-name="图层 200" class="cls-2" d="M170.63,756.95l-31.875,23.133,30.471-13.546a4.534,4.534,0,0,0,.169-1.435l-0.253-4.654c0.113-.1.222-0.214,0.325-0.329a4.548,4.548,0,0,0,1.163-3.169" transform="translate(-94.484 -739)"/>
  <path id="图层_201" data-name="图层 201" class="cls-2" d="M161.808,746.522a4.224,4.224,0,0,0-2-.742c-0.7-.067-1.407-0.132-2.126-0.2-0.115-.01-0.23-0.014-0.343-0.014H157.3c-0.052,0-.1,0-0.156,0a4.125,4.125,0,0,0-2.866,1.383l-0.112,0c-0.053,0-.1,0-0.155,0l-0.046,0a4.066,4.066,0,0,0-1.01.181,4.316,4.316,0,0,0-.476-0.414l-14.514,32.564Z" transform="translate(-94.484 -739)"/>
  <path id="图层_202" data-name="图层 202" class="cls-3" d="M109.284,753.911a2.1,2.1,0,0,1,1.178,1.846q-0.078-1.486-.156-2.968-0.51.567-1.022,1.122M120.7,766.2h-0.051q-4.4-.279-8.794-0.67a3.373,3.373,0,0,1-1.357-.4,4.831,4.831,0,0,1-.918-0.649,4.3,4.3,0,0,1-.346-0.356q-0.49.433-.982,0.853a0.52,0.52,0,0,1-.344.126,0.563,0.563,0,0,1-.1-0.009,0.629,0.629,0,0,1-.4-0.275q-0.644-.966-1.285-1.9a0.625,0.625,0,0,1,.11-0.843q0.686-.546,1.372-1.117-0.1-1.936-.209-3.863l-0.94.018a0.559,0.559,0,0,1-.564-0.546q-0.054-.98-0.108-1.956a0.688,0.688,0,0,1,.164-0.477,0.643,0.643,0,0,1,.384-0.223,0.426,0.426,0,0,1,.05-0.006q0.755-.053,1.51-0.1c-0.083-.127-0.172-0.261-0.266-0.4q-0.288-.42-0.583-0.83t-0.574-.782c-0.181-.242-0.341-0.442-0.474-0.6a0.566,0.566,0,0,1-.124-0.433,0.747,0.747,0,0,1,.216-0.446q0.674-.672,1.347-1.363a0.674,0.674,0,0,1,.328-0.191,0.483,0.483,0,0,1,.464.128c0.152,0.157.332,0.352,0.549,0.6s0.42,0.486.635,0.746,0.421,0.517.619,0.77l0.2,0.256-0.081-1.545a0.788,0.788,0,0,1,.163-0.515,0.668,0.668,0,0,1,.385-0.252,0.471,0.471,0,0,1,.05-0.008q0.99-.111,1.98-0.211a0.473,0.473,0,0,1,.34.1c0.058-.275.115-0.551,0.173-0.828a0.74,0.74,0,0,1,.532-0.587,0.5,0.5,0,0,1,.149-0.009q0.986,0.092,1.973.2a0.5,0.5,0,0,1,.381.264,0.777,0.777,0,0,1,.071.535c-0.038.181-.077,0.363-0.115,0.544q0.6-.046,1.191-0.089h0.03a1.873,1.873,0,0,1,1.419.6,2.719,2.719,0,0,1,.664,1.8q0.108,2.166.214,4.336a0.84,0.84,0,0,1-.164.545l-0.019.023a2.937,2.937,0,0,1,.6,1.764q0.111,2.266.222,4.539c0,0.013,0,.026,0,0.039l0.183,0.007a0.661,0.661,0,0,1,.57.679q0.055,1.126.11,2.255a0.8,0.8,0,0,1-.164.539,0.526,0.526,0,0,1-.387.206" transform="translate(-94.484 -739)"/>
  <path id="图层_203" data-name="图层 203" class="cls-4" d="M113.733,746.738a1.5,1.5,0,0,0-1.064,1.178c-0.011.051-.022,0.1-0.032,0.153q-0.939.1-1.877,0.214c-0.034,0-.068.01-0.1,0.017a1.358,1.358,0,0,0-.768.511,1.591,1.591,0,0,0-.3.636q-0.19-.225-0.377-0.44c-0.22-.25-0.4-0.451-0.564-0.616a0.95,0.95,0,0,0-.927-0.252,1.374,1.374,0,0,0-.656.387q-0.675.695-1.347,1.37a1.494,1.494,0,0,0-.432.888,1.122,1.122,0,0,0,.249.859c0.127,0.149.281,0.341,0.457,0.573s0.373,0.5.569,0.773l0.193,0.27-0.362.029c-0.034,0-.068.007-0.1,0.012a1.31,1.31,0,0,0-.767.452,1.366,1.366,0,0,0-.328.948q0.054,0.967.108,1.938a1.128,1.128,0,0,0,1.127,1.092l0.407,0q0.079,1.467.16,2.939-0.566.469-1.131,0.92a1.242,1.242,0,0,0-.22,1.677q0.642,0.932,1.285,1.9a1.278,1.278,0,0,0,.8.554,1.142,1.142,0,0,0,.2.021,1.035,1.035,0,0,0,.688-0.248c0.2-.17.4-0.341,0.6-0.514a5.563,5.563,0,0,0,1.031.735,3.973,3.973,0,0,0,1.582.48q4.389,0.422,8.8.726a0.868,0.868,0,0,0,.1,0,1.046,1.046,0,0,0,.773-0.41,1.614,1.614,0,0,0,.329-1.082q-0.056-1.133-.11-2.264a1.435,1.435,0,0,0-.781-1.275q-0.1-2.007-.2-4.009a4.042,4.042,0,0,0-.479-1.8,1.735,1.735,0,0,0,.058-0.544q-0.106-2.179-.213-4.354a3.419,3.419,0,0,0-.848-2.274,2.323,2.323,0,0,0-1.774-.75l-0.06,0-0.49.039a1.47,1.47,0,0,0-.179-0.755A1,1,0,0,0,116,746.91q-0.987-.1-1.972-0.191a1,1,0,0,0-.3.019m-7.37,7.785q0.972-.058,1.945-0.111,1.5-.084,1.6,1.78,0.108,2.056.216,4.122a3.188,3.188,0,0,0,.546,1.856,1.965,1.965,0,0,0,1.487.644q4.188,0.234,8.394.419,0.055,1.122.11,2.246-4.4-.257-8.794-0.613a2.785,2.785,0,0,1-1.133-.319,4.132,4.132,0,0,1-.8-0.555,3.333,3.333,0,0,1-.633-0.775q-0.719.644-1.435,1.257-0.644-.968-1.285-1.9,0.806-.639,1.613-1.314-0.129-2.408-.257-4.8l-1.475.041q-0.054-.987-0.107-1.973m1.431-5.137c0.15,0.155.329,0.349,0.535,0.583s0.416,0.479.628,0.735,0.417,0.509.614,0.76,0.371,0.479.525,0.683q-0.744.828-1.487,1.633-0.217-.357-0.507-0.782t-0.587-.841q-0.3-.416-0.577-0.791c-0.187-.25-0.351-0.457-0.492-0.623q0.673-.669,1.348-1.357m9.878,10.223-0.066-1.32q-2.224-.018-4.445-0.028,0.031,0.632.065,1.265l4.446,0.083m-0.638-6.658q-0.029-.6-0.059-1.2-2.07.1-4.136,0.234,0.03,0.575.059,1.148,2.066-.106,4.136-0.187m-3.232-4.868q0.985,0.1,1.973.214-0.149.7-.3,1.4,0.962-.072,1.924-0.135a1.409,1.409,0,0,1,1.064.451,2.012,2.012,0,0,1,.48,1.338q0.106,2.155.213,4.317-0.995.01-1.988,0.026c-0.009-.193-0.019-0.387-0.029-0.58q-2.07.042-4.137,0.1c0.016,0.322.033,0.644,0.049,0.965q2.487-.045,4.979-0.069a1.486,1.486,0,0,1,1.066.521,2.128,2.128,0,0,1,.48,1.358q0.111,2.257.222,4.52l-1.989-.081q-0.016-.321-0.032-0.642-2.226-.081-4.448-0.172c0.011,0.2.021,0.41,0.032,0.615q-0.993-.047-1.984-0.1-0.327-6.3-.654-12.534,0.99-.1,1.98-0.2l0.027,0.517,0.7-.061q0.185-.884.368-1.776" transform="translate(-94.484 -739)"/>
  <path id="图层_204" data-name="图层 204" class="cls-3" d="M126.344,754.109c0.134,0.177.271,0.363,0.411,0.556-0.078-.2-0.152-0.393-0.223-0.58a0.5,0.5,0,0,1-.093.021l-0.051,0h-0.044m1.157,8.322a0.728,0.728,0,0,0,.31-0.5,5.687,5.687,0,0,0,.228-1.4c-0.233.18-.493,0.376-0.775,0.583a0.509,0.509,0,0,1-.256.1,0.465,0.465,0,0,1-.2-0.025,0.628,0.628,0,0,1-.356-0.359c-0.043-.1-0.087-0.206-0.131-0.308l0.09,1.885,1.088,0.028m8.636,4.052a0.436,0.436,0,0,1-.051,0q-1.151-.009-2.3-0.027a4.089,4.089,0,0,1-1.269-.192,2.134,2.134,0,0,1-1-.705,3.194,3.194,0,0,1-.574-1.316q-0.076-.349-0.127-0.772a5.5,5.5,0,0,1-.356.963,3.229,3.229,0,0,1-1.338,1.465,3.36,3.36,0,0,1-1.386.381,5.088,5.088,0,0,1-.569.008l-0.721-.03a0.548,0.548,0,0,1-.1-0.015,0.522,0.522,0,0,1-.332.157h-0.051q-0.944-.042-1.886-0.091a0.681,0.681,0,0,1-.571-0.7q-0.052-1.1-.106-2.2l-0.045.048a1.457,1.457,0,0,1-.993.455,1.744,1.744,0,0,1-.2,0l-0.292-.013a0.668,0.668,0,0,1-.57-0.683q-0.055-1.158-.113-2.315a0.831,0.831,0,0,1,.165-0.546,0.615,0.615,0,0,1,.2-0.169c0-.158,0-0.361-0.008-0.606-0.012-.354-0.033-0.834-0.062-1.427l-0.174-3.572a0.864,0.864,0,0,1,.148-0.531,0.721,0.721,0,0,1-.262-0.544q-0.054-1.116-.109-2.231a0.87,0.87,0,0,1,.164-0.556,0.6,0.6,0,0,1,.386-0.247,0.294,0.294,0,0,1,.051,0c0.364-.015.727-0.029,1.091-0.042q-0.06-1.214-.118-2.426a0.9,0.9,0,0,1,.164-0.564,0.607,0.607,0,0,1,.386-0.255l0.051,0q0.942-.049,1.884-0.089a0.611,0.611,0,0,1,.57.652q0.054,1.107.107,2.215l1.642-.694a0.464,0.464,0,0,1,.127-0.035l0.024,0q-0.036-.738-0.071-1.476a0.913,0.913,0,0,1,.164-0.573,0.59,0.59,0,0,1,.387-0.251,0.438,0.438,0,0,1,.051,0q0.936-.027,1.871-0.046a0.485,0.485,0,0,1,.339.133,0.512,0.512,0,0,1,.241-0.1,0.292,0.292,0,0,1,.051,0q0.936-.017,1.872-0.025a0.646,0.646,0,0,1,.571.685l0.123,2.6c0.07-.169.142-0.345,0.214-0.527a0.683,0.683,0,0,1,.36-0.392,0.471,0.471,0,0,1,.461.06q0.851,0.617,1.7,1.239a0.871,0.871,0,0,1,.21,1.022c-0.337.761-.689,1.5-1.046,2.2-0.331.649-.7,1.359-1.1,2.11l0.667,0.668c0.224,0.225.459,0.447,0.7,0.66s0.514,0.454.812,0.706a0.884,0.884,0,0,1,.18,1l-0.97,2.211a0.647,0.647,0,0,1-.392.375,0.478,0.478,0,0,1-.473-0.125c-0.292-.275-0.57-0.533-0.828-0.768q0.043,0.928.088,1.856c0,0.022,0,.043,0,0.061l0.06,0q1.074,0.012,2.149.02a0.658,0.658,0,0,1,.571.694q0.057,1.213.115,2.426a0.911,0.911,0,0,1-.164.576,0.561,0.561,0,0,1-.388.24" transform="translate(-94.484 -739)"/>
  <path id="图层_205" data-name="图层 205" class="cls-4" d="M123.171,746.465a1.224,1.224,0,0,0-.773.511,1.8,1.8,0,0,0-.328,1.127q0.041,0.815.08,1.63l-0.451.02a0.88,0.88,0,0,0-.1.01,1.21,1.21,0,0,0-.772.5,1.735,1.735,0,0,0-.328,1.11l0.108,2.222a1.637,1.637,0,0,0,.151.615,1.83,1.83,0,0,0-.037.456q0.087,1.777.174,3.559c0.028,0.579.049,1.053,0.061,1.408,0,0.073.005,0.139,0.006,0.2l-0.033.041a1.647,1.647,0,0,0-.328,1.088q0.055,1.152.112,2.306a1.344,1.344,0,0,0,1.14,1.368l0.291,0.014a2.443,2.443,0,0,0,.257,0,2.109,2.109,0,0,0,.47-0.081c0.018,0.361.035,0.723,0.052,1.084a1.369,1.369,0,0,0,1.142,1.395q0.942,0.052,1.886.1a0.868,0.868,0,0,0,.1,0A0.973,0.973,0,0,0,126.49,767l0.663,0.029a5.516,5.516,0,0,0,.619-0.006,3.838,3.838,0,0,0,1.583-.437,3.663,3.663,0,0,0,1.309-1.236,3.306,3.306,0,0,0,.44.745,2.692,2.692,0,0,0,1.252.9,4.516,4.516,0,0,0,1.412.219q1.15,0.02,2.3.028a0.7,0.7,0,0,0,.1,0,1.12,1.12,0,0,0,.774-0.48,1.823,1.823,0,0,0,.328-1.152l-0.114-2.427a1.317,1.317,0,0,0-1.143-1.387l-0.284,0a1.639,1.639,0,0,0,.173-0.3l0.969-2.211a1.765,1.765,0,0,0-.359-1.989c-0.293-.248-0.562-0.482-0.8-0.695s-0.458-.421-0.673-0.637l-0.24-.24c0.285-.541.551-1.054,0.8-1.534,0.363-.712.722-1.467,1.066-2.242a1.744,1.744,0,0,0-.421-2.045q-0.851-.623-1.7-1.24a0.947,0.947,0,0,0-.669-0.184,0.914,0.914,0,0,0-.154.031c-0.016-.332-0.031-0.664-0.047-1a1.3,1.3,0,0,0-1.143-1.371q-0.936.011-1.872,0.027a0.876,0.876,0,0,0-.1.008,0.968,0.968,0,0,0-.156.034,0.916,0.916,0,0,0-.372-0.07q-0.936.019-1.871,0.049c-0.034,0-.069,0-0.1.009a1.184,1.184,0,0,0-.774.5,1.825,1.825,0,0,0-.328,1.145q0.02,0.428.041,0.855l-0.635.271-0.063-1.3a1.221,1.221,0,0,0-1.14-1.305q-0.942.043-1.884,0.1a0.883,0.883,0,0,0-.1.011m-1.281,8.055,1.455-.019q0.087,1.808.175,3.617,0.062,1.273.055,2.244a7.6,7.6,0,0,1-.153,1.6,1.991,1.991,0,0,1-.444.943,0.952,0.952,0,0,1-.649.289,1.327,1.327,0,0,1-.155,0l-0.291-.011q-0.057-1.163-.113-2.324l0.2,0h0.009a0.129,0.129,0,0,0,.094-0.088,1.286,1.286,0,0,0,.058-0.389q0.015-.3,0-0.842t-0.062-1.444q-0.088-1.794-.175-3.586m8.738-6.857q0.936-.014,1.872-0.022,0.119,2.493.236,4.986,0.324-.606.609-1.232t0.6-1.421q0.851,0.616,1.7,1.238-0.5,1.126-1.027,2.16t-1.161,2.221q-0.306-.326-0.614-0.65l0.036,0.752q0.388,0.418.734,0.765l0.693,0.694q0.346,0.346.723,0.684t0.824,0.716q-0.484,1.106-.97,2.21-0.514-.486-0.971-0.9t-0.874-.812q0.081,1.734.164,3.467a1.169,1.169,0,0,0,.136.617,0.663,0.663,0,0,0,.5.143q1.074,0.014,2.149.02l0.114,2.427q-1.15-.007-2.3-0.025a3.708,3.708,0,0,1-1.128-.166,1.57,1.57,0,0,1-.737-0.514,2.4,2.4,0,0,1-.423-0.987,9.748,9.748,0,0,1-.181-1.564q-0.351-7.413-.7-14.81m-4.225,5.7-1.011.012q0.036,0.775.074,1.551c0.116-.144.232-0.287,0.347-0.431q0.36,0.468.755,1.031t0.726,1.079q-0.549.708-1.1,1.41c0.247-.176.466-0.338,0.659-0.488s0.376-.295.554-0.438,0.353-.3.529-0.462,0.372-.349.588-0.555q-0.03-.611-0.058-1.219l-0.756.558q-0.418-1.05-.744-1.92t-0.645-1.788q0.039,0.829.079,1.66m-3.162-5.45q0.942-.045,1.884-0.082,0.078,1.629.157,3.26l0.827-.019c-0.058-.149-0.1-0.284-0.142-0.406l1.655-.694q0.2,0.635.362,1.148t0.355,1.007l-0.213-4.457q0.936-.024,1.871-0.042,0.271,5.715.543,11.441a19.413,19.413,0,0,1-.052,2.938,6.155,6.155,0,0,1-.525,2.033,2.572,2.572,0,0,1-1.071,1.171,2.9,2.9,0,0,1-1.19.325,4.629,4.629,0,0,1-.517.009l-0.721-.028-0.114-2.38,1.135,0.033c0.021,0,.042,0,0.063,0a1.15,1.15,0,0,0,.8-0.956,9.916,9.916,0,0,0,.308-3.04q-0.37.285-.769,0.6t-0.917.694q-0.492-1.158-.984-2.309l0.089-.06c-0.166-.275-0.333-0.548-0.5-0.822q0.2,4.188.4,8.387-0.943-.04-1.887-0.085-0.294-6.1-.587-12.173-0.865.015-1.731,0.034-0.054-1.121-.109-2.239,0.865-.031,1.731-0.057-0.079-1.615-.157-3.228" transform="translate(-94.484 -739)"/>
  <path id="图层_206" data-name="图层 206" class="cls-3" d="M151.17,765.631a0.443,0.443,0,0,1-.051.006c-4.417.259-8.845,0.375-13.276,0.374a0.654,0.654,0,0,1-.571-0.691l-0.126-2.656a0.912,0.912,0,0,1,.165-0.576,0.562,0.562,0,0,1,.387-0.241l0.051,0q2.481,0.007,4.96-.015l-0.15-3.166q-1.956,0-3.912-.007a0.656,0.656,0,0,1-.571-0.693l-0.123-2.592a0.9,0.9,0,0,1,.165-0.575,0.556,0.556,0,0,1,.387-0.239,0.436,0.436,0,0,1,.051,0q1.9,0.015,3.81.035-0.063-1.3-.124-2.61-2.171-.038-4.342-0.057a0.662,0.662,0,0,1-.572-0.7q-0.061-1.317-.124-2.635a0.9,0.9,0,0,1,.164-0.575,0.56,0.56,0,0,1,.387-0.238l0.051,0q5.941,0.072,11.876.378a0.678,0.678,0,0,1,.571.691q0.062,1.264.122,2.529a0.828,0.828,0,0,1-.164.548,0.546,0.546,0,0,1-.387.221,0.41,0.41,0,0,1-.05,0q-2.117-.057-4.235-0.1l0.123,2.583q1.954,0.021,3.907.045a0.645,0.645,0,0,1,.57.67q0.061,1.245.121,2.489a0.853,0.853,0,0,1-.164.554,0.577,0.577,0,0,1-.386.238,0.436,0.436,0,0,1-.051,0q-1.9.021-3.8,0.03l0.15,3.131q2.513-.045,5.022-0.127a0.607,0.607,0,0,1,.57.638l0.123,2.522a0.884,0.884,0,0,1-.164.559,0.613,0.613,0,0,1-.386.254" transform="translate(-94.484 -739)"/>
  <path id="图层_207" data-name="图层 207" class="cls-4" d="M137.72,747.025a1.118,1.118,0,0,0-.775.476,1.816,1.816,0,0,0-.328,1.15q0.061,1.318.124,2.636a1.321,1.321,0,0,0,1.144,1.39q1.9,0.016,3.8.044c0.017,0.37.035,0.74,0.052,1.11q-1.584-.018-3.168-0.032c-0.034,0-.069,0-0.1,0a1.12,1.12,0,0,0-.775.478,1.817,1.817,0,0,0-.328,1.151q0.061,1.3.122,2.593a1.314,1.314,0,0,0,1.143,1.385q1.688,0.006,3.373,0,0.039,0.834.079,1.669-2.159.014-4.319,0a0.872,0.872,0,0,0-.1.006,1.125,1.125,0,0,0-.775.481,1.823,1.823,0,0,0-.328,1.152q0.063,1.327.125,2.657a1.309,1.309,0,0,0,1.143,1.383c4.431,0,8.859-.127,13.276-0.407,0.034,0,.068-0.006.1-0.011a1.242,1.242,0,0,0,.773-0.512,1.768,1.768,0,0,0,.328-1.114q-0.063-1.255-.124-2.513a1.218,1.218,0,0,0-1.138-1.275q-2.241.063-4.485,0.1-0.039-.822-0.079-1.644,1.583-.015,3.163-0.038c0.034,0,.068,0,0.1-0.007a1.164,1.164,0,0,0,.773-0.477,1.713,1.713,0,0,0,.328-1.107l-0.12-2.48a1.3,1.3,0,0,0-1.14-1.339q-1.685-.027-3.369-0.052c-0.018-.365-0.035-0.73-0.053-1.095q1.8,0.036,3.594.076l0.1,0a1.113,1.113,0,0,0,.773-0.446,1.66,1.66,0,0,0,.329-1.092l-0.123-2.52a1.357,1.357,0,0,0-1.14-1.382c-3.955-.215-7.916-0.358-11.877-0.408a0.87,0.87,0,0,0-.1,0m0.071,1.507q5.942,0.067,11.876.349l0.123,2.538q-2.437-.076-4.876-0.134,0.1,2.04.194,4.077l4.446,0.037q0.06,1.25.121,2.5-2.222.015-4.445,0.017,0.111,2.314.221,4.625,2.783-.054,5.561-0.157l0.123,2.533c-4.417.239-8.845,0.344-13.276,0.342q-0.063-1.327-.125-2.656,2.8,0.008,5.6-.028-0.111-2.328-.222-4.659-2.225,0-4.45-.012-0.061-1.3-.122-2.592l4.45,0.035q-0.1-2.051-.194-4.105-2.441-.048-4.881-0.073-0.063-1.317-.125-2.634" transform="translate(-94.484 -739)"/>
  <path id="图层_208" data-name="图层 208" class="cls-3" d="M164.864,764.921l-0.05.01q-0.942.133-1.884,0.256a0.494,0.494,0,0,1-.551-0.415q-2.266.273-4.538,0.488a0.832,0.832,0,0,1-.141.3,0.649,0.649,0,0,1-.385.257l-0.051.008q-0.947.091-1.893,0.172a0.561,0.561,0,0,1-.568-0.594q-0.13-2.631-.262-5.27l-0.13.013c-0.236.021-.479,0.036-0.723,0.043l-0.81.025a0.609,0.609,0,0,1-.569-0.638q-0.06-1.207-.119-2.416a0.842,0.842,0,0,1,.164-0.546,0.615,0.615,0,0,1,.245-0.193,0.65,0.65,0,0,1-.492-0.648q-0.057-1.168-.115-2.34a0.822,0.822,0,0,1,.165-0.543,0.551,0.551,0,0,1,.386-0.219,0.434,0.434,0,0,1,.051,0l0.959,0.025a0.768,0.768,0,0,1-.2-0.49q-0.056-1.12-.11-2.243a0.782,0.782,0,0,1,.164-0.532,0.535,0.535,0,0,1,.386-0.207h0.051q1.334,0.073,2.665.153-0.021-.447-0.044-0.895a0.733,0.733,0,0,1,.164-0.514,0.525,0.525,0,0,1,.386-0.192,0.435,0.435,0,0,1,.051,0q1.047,0.08,2.093.166a0.669,0.669,0,0,1,.568.657l0.051,0.983q1.251,0.082,2.5.17a0.558,0.558,0,0,1,.153.034c0.044-.115.087-0.232,0.129-0.35a0.553,0.553,0,0,1,.511-0.387,0.537,0.537,0,0,1,.209.039q0.992,0.39,1.982.767a0.643,0.643,0,0,1,.354.345,0.656,0.656,0,0,1,.01.5,18.913,18.913,0,0,1-1.093,2.313l1.429,0.043a0.6,0.6,0,0,1,.564.574q0.055,1,.11,1.993a0.657,0.657,0,0,1-.164.469,0.606,0.606,0,0,1-.384.2l-0.05,0q-1.009.021-2.019,0.038a1.574,1.574,0,0,1,.562.466,3.219,3.219,0,0,1,.527,1.792q0.151,2.793.3,5.569a0.76,0.76,0,0,1-.163.5,0.7,0.7,0,0,1-.384.256" transform="translate(-94.484 -739)"/>
  <path id="图层_209" data-name="图层 209" class="cls-4" d="M156.981,747.091a1.035,1.035,0,0,0-.772.38,1.488,1.488,0,0,0-.329,1.034c0,0.047,0,.1.007,0.143q-1.013-.066-2.026-0.127c-0.034,0-.068,0-0.1,0a1.06,1.06,0,0,0-.773.41,1.583,1.583,0,0,0-.328,1.07l0.1,1.964-0.144-.005c-0.034,0-.068,0-0.1,0a1.094,1.094,0,0,0-.773.437,1.646,1.646,0,0,0-.329,1.088q0.058,1.176.115,2.35a1.618,1.618,0,0,0,.191.7,1.742,1.742,0,0,0-.107.7q0.059,1.212.118,2.425a1.212,1.212,0,0,0,1.139,1.276l0.81-.028c0.106,0,.212-0.01.318-0.016q0.114,2.316.229,4.625a1.12,1.12,0,0,0,1.136,1.191q0.946-.087,1.892-0.184c0.034,0,.068-0.009.1-0.016a1.312,1.312,0,0,0,.77-0.519c0.018-.024.035-0.048,0.051-0.073q1.926-.2,3.847-0.442a0.936,0.936,0,0,0,.9.367q0.942-.13,1.883-0.272c0.034,0,.068-0.012.1-0.02a1.421,1.421,0,0,0,.767-0.517,1.506,1.506,0,0,0,.327-0.993q-0.15-2.751-.3-5.521a4.493,4.493,0,0,0-.334-1.575l0.665-.019c0.034,0,.068,0,0.1-0.008a1.233,1.233,0,0,0,.768-0.413,1.305,1.305,0,0,0,.327-0.931q-0.054-.986-0.109-1.975a1.2,1.2,0,0,0-1.128-1.149l-0.466-.018c0.23-.468.448-0.959,0.651-1.468a1.3,1.3,0,0,0-.727-1.68q-0.992-.385-1.982-0.784a1.114,1.114,0,0,0-.418-0.082,1.086,1.086,0,0,0-.986.68l-1.721-.131c-0.006-.123-0.013-0.245-0.019-0.368a1.347,1.347,0,0,0-1.135-1.315q-1.047-.095-2.094-0.182a0.869,0.869,0,0,0-.1,0m5.839,15.067c-0.015-.279-0.029-0.558-0.044-0.837q-2.831.223-5.669,0.383l0.045,0.892q2.838-.185,5.668-0.438m-0.141-2.672-0.039-.732q-2.831.128-5.672,0.212,0.021,0.39.04,0.78,2.84-.106,5.671-0.26m-1.743-5.918c0.144-.167.287-0.349,0.429-0.544s0.278-.393.41-0.593q-1.22-.045-2.441-0.087,0.031,0.6.061,1.19l1.541,0.034m-3.886-5.1q1.047,0.073,2.094.152,0.04,0.8.082,1.6,1.519,0.088,3.036.182,0.029,0.549.058,1.1,0.221-.42.417-0.871t0.369-.935q0.992,0.382,1.982.752a16.871,16.871,0,0,1-1.622,3.176l2.48,0.051q0.054,1.008.109,2.012-2.1.023-4.215,0.033-0.288.309-.572,0.566l-0.576.519q1.106-.018,2.209-0.04a1.4,1.4,0,0,1,1.221.456,2.7,2.7,0,0,1,.406,1.462q0.15,2.818.3,5.618-0.942.124-1.884,0.24c-0.008-.16-0.017-0.32-0.025-0.48q-2.829.327-5.667,0.567c0.009,0.171.017,0.341,0.026,0.512q-0.946.086-1.893,0.161-0.147-2.961-.3-5.932l-0.1.014c-0.2.026-.4,0.048-0.591,0.064-0.229.019-.46,0.032-0.695,0.038l-0.81.02q-0.06-1.2-.119-2.405l0.658,0a10.815,10.815,0,0,0,1.108-.065,9.589,9.589,0,0,0,3.868-1.3q-2.854,0-5.717-.01l-0.114-2.331q2.364,0.05,4.725.1-0.03-.608-0.061-1.216-1.65-.056-3.3-0.108-0.056-1.114-.11-2.232,1.653,0.081,3.3.171-0.042-.819-0.083-1.638" transform="translate(-94.484 -739)"/>
  <path id="图层_210" data-name="图层 210" class="cls-5" d="M135.537,786.408c0.458-.561.827-1.206,1.294-1.755,0.493-.584.934-0.035,1.332,0.364,0.5,0.5,1.025.982,1.565,1.44,0.257,0.22.519,0.432,0.785,0.64a3.343,3.343,0,0,0,.795.611,13.227,13.227,0,0,1-5.771-1.3m32.749,3.892a12.855,12.855,0,0,0-9.734-3.338,14.71,14.71,0,0,0,3.052-2.5,12.639,12.639,0,0,0,3.3-10.194,11.468,11.468,0,0,0-1.145-3.808,11.26,11.26,0,0,0-2.369-7.564,0.2,0.2,0,0,0-.2-0.067,0.2,0.2,0,0,0-.147.159,8.614,8.614,0,0,1-.5,1.912,5.744,5.744,0,0,0-.718-0.974,0.2,0.2,0,0,0-.207-0.055,0.2,0.2,0,0,0-.139.161,2.782,2.782,0,0,1-.487,1.213,16.829,16.829,0,0,0-9.577-2.63,2.293,2.293,0,0,1-.335-1.652,0.2,0.2,0,0,0-.282-0.218,6.755,6.755,0,0,0-1.871,1.363,0.214,0.214,0,0,0-.023-0.073,1.727,1.727,0,0,1-.2-1.488,0.2,0.2,0,0,0-.07-0.194,0.2,0.2,0,0,0-.208-0.027,6.694,6.694,0,0,0-3.549,3.915,15.451,15.451,0,0,0-5.756,4.661,1.688,1.688,0,0,1-.287-0.9,0.2,0.2,0,0,0-.328-0.136,2.685,2.685,0,0,0-.626.711,4.048,4.048,0,0,1-.328-0.959c-0.033-.125-0.068-0.266-0.114-0.439a0.2,0.2,0,0,0-.167-0.145,0.194,0.194,0,0,0-.2.1,12.2,12.2,0,0,0-.679,9.575,0.2,0.2,0,0,0,.134.128c0.01,0.351.034,0.7,0.076,1.056a13.726,13.726,0,0,0,.7,3.041c-0.063.008-.124,0.021-0.188,0.035a3.771,3.771,0,0,0-1.8,1.324,12.256,12.256,0,0,0-2.281-5.009,19.152,19.152,0,0,1-1.377-7.224c0-.15.01-0.3,0.015-0.451a7.213,7.213,0,0,0-.22-2.607,2.461,2.461,0,0,0-2.44-1.8,2.807,2.807,0,0,0-1.929,1.592,7.421,7.421,0,0,0-.842,5.308q-0.315-.171-0.63-0.338a19.85,19.85,0,0,0-8.512-2.554,0.2,0.2,0,0,0-.179.306,3.344,3.344,0,0,1,.414,2.259l-0.9-3.2a2.352,2.352,0,0,0-1.359-1.864,1.606,1.606,0,0,0-1.525.5,3.373,3.373,0,0,0-.724,1.369,9.368,9.368,0,0,0,1.1,7.671c-0.214.155-.427,0.31-0.639,0.46a20.53,20.53,0,0,0-2.2,1.725,9.659,9.659,0,0,0-1.2,1.362l-0.653-.516a9.508,9.508,0,0,0-2.386-1.521,1.6,1.6,0,0,0-2.325,2.093,8.215,8.215,0,0,0,3.557,4.1,10.4,10.4,0,0,0,.765,6.538,11.345,11.345,0,0,0,3.436,4.108,10.279,10.279,0,0,0-8.641,1.674,0.2,0.2,0,0,0-.081.189,0.2,0.2,0,0,0,.129.16,36.462,36.462,0,0,0,9.26,2.088h0.006c2.011,0.184,4.556.205,6.383-1.282a0.2,0.2,0,0,0,.073-0.135c0.083,0.007.164,0.017,0.248,0.024,0.327,0.03.66,0.049,0.993,0.061a0.185,0.185,0,0,0,.029.079,12.694,12.694,0,0,0,9.32,5.5,11.809,11.809,0,0,0,2.407-.024,0.2,0.2,0,0,0,.144-0.091,0.193,0.193,0,0,0,.022-0.168,9.5,9.5,0,0,0-6.14-5.911,12.355,12.355,0,0,0,3.275-1.426c8.466-.887,14.867-2.087,19.556-3.663a15.381,15.381,0,0,0,3.662,5.524,8.849,8.849,0,0,0,1.669,3.292,2.542,2.542,0,0,0,1.194.774,0.345,0.345,0,0,0,.054.011,0.2,0.2,0,0,0,.1-0.017,0.189,0.189,0,0,0,.079-0.077l0.1,0.172a0.234,0.234,0,0,0-.012.065,3.419,3.419,0,0,0,2.4,3.142,1.507,1.507,0,0,0,.312.064,0.893,0.893,0,0,0,.315-0.023,1.129,1.129,0,0,0,.711-1.056,2.7,2.7,0,0,0-1.488-2.6,0.274,0.274,0,0,0,.023-0.036,1.212,1.212,0,0,1,.135-0.22,0.937,0.937,0,0,0,.235-0.563,9.4,9.4,0,0,0-.363-2.047,5.014,5.014,0,0,0,2.134-.5,8.66,8.66,0,0,0,3.174,3.4,0.241,0.241,0,0,0,.073.02,0.2,0.2,0,0,0,.2-0.116l0.009-.029c0.2,0.213.378,0.417,0.544,0.62a3.09,3.09,0,0,0,.453,2.012,8.651,8.651,0,0,0,1.3,1.588,1.626,1.626,0,0,0,.951.59,0.826,0.826,0,0,0,.192,0,1.282,1.282,0,0,0,.922-0.97,4.079,4.079,0,0,0-1.129-4.179,0.2,0.2,0,0,0-.2-0.038l-0.667-1.547a0.391,0.391,0,0,0,.186-0.087,0.47,0.47,0,0,0,.03-0.612A27.562,27.562,0,0,0,158.9,789.9a10.119,10.119,0,0,1,4.908,2.044,2.626,2.626,0,0,0,.214,1.9,1.694,1.694,0,0,0,1.242.8,1.26,1.26,0,0,0,.595-0.088,2.015,2.015,0,0,0,1.006.38,1.966,1.966,0,0,0,.577-0.031,2.646,2.646,0,0,0,1.861-1.743c0.29-.827.219-1.56-1.015-2.866" transform="translate(-94.484 -739)"/>
  <path id="图层_211" data-name="图层 211" class="cls-5" d="M168.286,790.3a12.859,12.859,0,0,0-9.734-3.339,14.642,14.642,0,0,0,3.051-2.5,12.637,12.637,0,0,0,3.3-10.194,11.461,11.461,0,0,0-1.145-3.808,11.26,11.26,0,0,0-2.369-7.564,0.2,0.2,0,0,0-.2-0.067,0.2,0.2,0,0,0-.147.159,8.7,8.7,0,0,1-.5,1.912,5.744,5.744,0,0,0-.718-0.974,0.2,0.2,0,0,0-.207-0.055,0.2,0.2,0,0,0-.139.161,2.782,2.782,0,0,1-.487,1.213,16.821,16.821,0,0,0-9.577-2.63,2.284,2.284,0,0,1-.335-1.652,0.2,0.2,0,0,0-.283-0.218,6.733,6.733,0,0,0-1.87,1.362,0.242,0.242,0,0,0-.023-0.072,1.727,1.727,0,0,1-.2-1.488,0.2,0.2,0,0,0-.071-0.194,0.2,0.2,0,0,0-.207-0.027,6.7,6.7,0,0,0-3.55,3.915,15.456,15.456,0,0,0-5.755,4.661,1.692,1.692,0,0,1-.287-0.906,0.206,0.206,0,0,0-.123-0.167,0.2,0.2,0,0,0-.2.031,2.685,2.685,0,0,0-.626.712,4.051,4.051,0,0,1-.329-0.959c-0.032-.125-0.067-0.267-0.114-0.439a0.2,0.2,0,0,0-.167-0.145,0.193,0.193,0,0,0-.2.1,12.2,12.2,0,0,0-.679,9.575,0.2,0.2,0,0,0,.134.128c0.01,0.351.034,0.7,0.076,1.056a13.781,13.781,0,0,0,.7,3.041c-0.062.008-.124,0.021-0.187,0.035a3.778,3.778,0,0,0-1.805,1.324,12.261,12.261,0,0,0-2.28-5.009,19.133,19.133,0,0,1-1.377-7.225c0-.149.009-0.3,0.015-0.451a7.209,7.209,0,0,0-.22-2.606,2.461,2.461,0,0,0-2.44-1.8,2.807,2.807,0,0,0-1.929,1.591,7.421,7.421,0,0,0-.842,5.308c-0.21-.113-0.42-0.226-0.63-0.337a19.87,19.87,0,0,0-8.513-2.555,0.2,0.2,0,0,0-.181.1,0.2,0.2,0,0,0,0,.206,3.358,3.358,0,0,1,.414,2.26l-0.9-3.2a2.352,2.352,0,0,0-1.359-1.864,1.6,1.6,0,0,0-1.524.5,3.383,3.383,0,0,0-.724,1.37,9.368,9.368,0,0,0,1.1,7.671c-0.215.155-.427,0.309-0.639,0.46a20.641,20.641,0,0,0-2.2,1.725,9.716,9.716,0,0,0-1.195,1.362l-0.654-.516a9.534,9.534,0,0,0-2.385-1.522,1.6,1.6,0,0,0-2.325,2.094,8.215,8.215,0,0,0,3.557,4.1,10.393,10.393,0,0,0,.765,6.538,11.335,11.335,0,0,0,3.436,4.108,10.279,10.279,0,0,0-8.641,1.674,0.2,0.2,0,0,0-.082.188,0.2,0.2,0,0,0,.13.16,36.412,36.412,0,0,0,9.26,2.089h0.006c2.011,0.184,4.555.205,6.383-1.282a0.2,0.2,0,0,0,.072-0.135c0.084,0.007.165,0.017,0.248,0.024,0.328,0.03.66,0.049,0.994,0.061a0.2,0.2,0,0,0,.028.079,12.7,12.7,0,0,0,9.321,5.5,11.809,11.809,0,0,0,2.407-.024,0.2,0.2,0,0,0,.144-0.091,0.192,0.192,0,0,0,.021-0.168,9.491,9.491,0,0,0-6.139-5.911,12.355,12.355,0,0,0,3.275-1.426c8.465-.887,14.867-2.088,19.555-3.663a15.4,15.4,0,0,0,3.663,5.524,8.842,8.842,0,0,0,1.669,3.292,2.55,2.55,0,0,0,1.194.774,0.247,0.247,0,0,0,.053.01,0.2,0.2,0,0,0,.1-0.016,0.2,0.2,0,0,0,.079-0.077l0.1,0.172a0.268,0.268,0,0,0-.012.065,3.422,3.422,0,0,0,2.4,3.142,1.507,1.507,0,0,0,.312.064,0.887,0.887,0,0,0,.314-0.023,1.133,1.133,0,0,0,.712-1.056,2.7,2.7,0,0,0-1.488-2.6,0.274,0.274,0,0,0,.023-0.036,1.2,1.2,0,0,1,.134-0.22,0.932,0.932,0,0,0,.236-0.563,9.446,9.446,0,0,0-.363-2.047,5.017,5.017,0,0,0,2.134-.5,8.643,8.643,0,0,0,3.174,3.4,0.237,0.237,0,0,0,.072.021,0.205,0.205,0,0,0,.085-0.01,0.209,0.209,0,0,0,.116-0.106l0.009-.029c0.2,0.213.378,0.417,0.544,0.62a3.1,3.1,0,0,0,.452,2.012,8.767,8.767,0,0,0,1.3,1.588,1.632,1.632,0,0,0,.951.59,0.96,0.96,0,0,0,.193,0,1.279,1.279,0,0,0,.921-0.97,4.077,4.077,0,0,0-1.129-4.18,0.2,0.2,0,0,0-.2-0.038l-0.668-1.546a0.391,0.391,0,0,0,.186-0.087,0.469,0.469,0,0,0,.03-0.612A27.54,27.54,0,0,0,158.9,789.9a10.119,10.119,0,0,1,4.908,2.044,2.626,2.626,0,0,0,.214,1.9,1.694,1.694,0,0,0,1.242.8,1.256,1.256,0,0,0,.594-0.088,2.025,2.025,0,0,0,1.007.38,1.97,1.97,0,0,0,.577-0.031,2.649,2.649,0,0,0,1.861-1.744c0.29-.826.219-1.559-1.015-2.865" transform="translate(-94.484 -739)"/>
  <path id="图层_212" data-name="图层 212" class="cls-6" d="M136.411,776.316l10.922,2.372,12.634-8.543s3.946,2.523,1.988,8.211c-2.726,7.92-12.6,4.078-12.6,4.078l-1.063-.169-0.829.758s-3.635,3.653-6.294,2.86c-5.481-1.633-4.755-9.567-4.755-9.567" transform="translate(-94.484 -739)"/>
  <path id="图层_213" data-name="图层 213" class="cls-7" d="M161.783,800.552a6.543,6.543,0,0,0,.165-1.23,4.826,4.826,0,0,1,1.223.426,3.32,3.32,0,0,1,.243-1.41l0.724,0.261a8.157,8.157,0,0,0,.7,2.183,0.443,0.443,0,0,1,.44.036,1.189,1.189,0,0,1,.3.367,5.721,5.721,0,0,1,.756,2.343,2.479,2.479,0,0,1-.107,1.133,1.179,1.179,0,0,1-.809.748,4.222,4.222,0,0,1-2.6-3.809c-0.295-.289-0.776-0.729-1.037-1.048" transform="translate(-94.484 -739)"/>
  <path id="图层_214" data-name="图层 214" class="cls-7" d="M153.835,800.805l0.494-1.031a4.434,4.434,0,0,0,1.383.871c0.1,0.145.2,0.359,0.305,0.5a2.151,2.151,0,0,1,1.2,3.343,3.382,3.382,0,0,1-2.76-2.6,3.642,3.642,0,0,0-.624-1.089" transform="translate(-94.484 -739)"/>
  <path id="图层_215" data-name="图层 215" class="cls-6" d="M150.013,791.59a1.466,1.466,0,0,0,.641-1.108,1.108,1.108,0,0,1-1.577.263,1.1,1.1,0,0,0,.936.845" transform="translate(-94.484 -739)"/>
  <path id="图层_216" data-name="图层 216" class="cls-6" d="M153.356,791.9a1.466,1.466,0,0,0,.641-1.108,1.108,1.108,0,0,1-1.577.263,1.1,1.1,0,0,0,.936.845" transform="translate(-94.484 -739)"/>
  <path id="图层_217" data-name="图层 217" class="cls-6" d="M155.539,790.628a1.466,1.466,0,0,0,.641-1.108,1.108,1.108,0,0,1-1.577.263,1.1,1.1,0,0,0,.936.845" transform="translate(-94.484 -739)"/>
  <path id="图层_218" data-name="图层 218" class="cls-7" d="M150.879,779.749l8.1-6.5s1.413,1.532.843,4.68a4.154,4.154,0,0,1-3.418,3.656c-2.773,1.012-5.523-1.836-5.523-1.836" transform="translate(-94.484 -739)"/>
  <path id="图层_219" data-name="图层 219" class="cls-7" d="M148.593,780.6a1.937,1.937,0,0,1,.4.735,5.721,5.721,0,0,1,.312,1.865,1.052,1.052,0,0,1-.148.631,0.774,0.774,0,0,1-1.032.1,1.834,1.834,0,0,1-.621-0.941,3.6,3.6,0,0,1-.246-1.462c0.053-.744.563-1.72,1.332-0.924" transform="translate(-94.484 -739)"/>
  <path id="图层_220" data-name="图层 220" class="cls-7" d="M138.015,778.747l7.414,1.953a4.428,4.428,0,0,1-3.338,3.738c-3.029.692-4.172-4.911-4.172-4.911Z" transform="translate(-94.484 -739)"/>
  <path id="图层_221" data-name="图层 221" class="cls-8" d="M115.242,769.312c0.812,1.774.013,3.919-1.282,5.377a39.159,39.159,0,0,1-4.519,3.7c-1.5,1.25-2.84,2.936-2.878,4.886,0,0-2.514,5.144,2.983,10.452s15.4,2.662,15.4,2.662a12.605,12.605,0,0,0,8.514-10.452c1.1-8.369-8.922-13.449-8.922-13.449l-4.39-2.052Z" transform="translate(-94.484 -739)"/>
  <path id="图层_222" data-name="图层 222" class="cls-9" d="M120.15,770.439l-4.279-.983-0.535.256,0.23,0.983a7.567,7.567,0,0,1-1.605,3.994s0.983-1.378-.322.315a6.525,6.525,0,0,0,1.424,2.015,5.845,5.845,0,0,0,5.707,1.041,4.649,4.649,0,0,0,2.955-5.163l-0.375-.963Z" transform="translate(-94.484 -739)"/>
  <path id="图层_223" data-name="图层 223" class="cls-4" d="M124.53,780.36a2.137,2.137,0,0,1,.932.571,2.055,2.055,0,0,1,.333,1.155,24.819,24.819,0,0,1,.038,2.95,5.183,5.183,0,0,1-.282,1.662,2.031,2.031,0,0,1-1.128,1.2,1.962,1.962,0,0,1-1.687-.259,4.1,4.1,0,0,1-1.189-1.291,9.313,9.313,0,0,1-1.4-5.664c0.062-.829.074-1.794,1.12-1.6a19.373,19.373,0,0,1,3.262,1.279" transform="translate(-94.484 -739)"/>
  <path id="图层_224" data-name="图层 224" class="cls-4" d="M129.228,780.171a3.582,3.582,0,0,0,1.492-2.062,18.575,18.575,0,0,1,1.484,7.176,2.933,2.933,0,0,1-.094,1.078,0.916,0.916,0,0,1-1.65.326,2.744,2.744,0,0,1-.457-0.906,17.477,17.477,0,0,1-.775-5.612" transform="translate(-94.484 -739)"/>
  <path id="图层_225" data-name="图层 225" class="cls-4" d="M126.084,789.491A2.068,2.068,0,0,0,126,790.55a1.158,1.158,0,0,0,.626.824,1.512,1.512,0,0,0,1.52-.4,2.431,2.431,0,0,0,.925-1.961,1.482,1.482,0,0,0-1.464-1.407,2.965,2.965,0,0,0-1.519,1.885" transform="translate(-94.484 -739)"/>
  <path id="图层_226" data-name="图层 226" class="cls-4" d="M114.938,788.208a0.752,0.752,0,0,0,.319.572,0.517,0.517,0,0,0,.532-0.083,1.213,1.213,0,0,0,.325-0.459,3.421,3.421,0,0,0,.289-2.028,2.827,2.827,0,0,0-.482-1.145c-0.386-.534-0.53-0.66-0.809-0.076a5.75,5.75,0,0,0-.174,3.219" transform="translate(-94.484 -739)"/>
  <path id="图层_227" data-name="图层 227" class="cls-10" d="M101.756,796.432s4.8-3.27,9.109-1.543A19.043,19.043,0,0,0,116.772,797l0.44,0.27s-1.232,1.929-7.2,1.026a39.423,39.423,0,0,1-8.254-1.864" transform="translate(-94.484 -739)"/>
  <path id="图层_228" data-name="图层 228" class="cls-10" d="M118.847,797.344a12.446,12.446,0,0,0,11.537,5.383s-1.1-3.155-3.212-4.347a21.316,21.316,0,0,0-3.513-1.644s-1.057.123-2.3,0.354a17.3,17.3,0,0,1-2.516.254" transform="translate(-94.484 -739)"/>
  <path id="图层_229" data-name="图层 229" class="cls-3" d="M136.239,770.815a0.185,0.185,0,0,1-.09-0.023,0.188,0.188,0,0,1-.075-0.255,15.1,15.1,0,0,1,6.817-6.3,0.188,0.188,0,1,1,.161.34,14.724,14.724,0,0,0-6.648,6.136,0.186,0.186,0,0,1-.165.1" transform="translate(-94.484 -739)"/>
  <path id="图层_230" data-name="图层 230" class="cls-3" d="M135.576,781.291a0.189,0.189,0,0,1-.176-0.121,13.612,13.612,0,0,1-.793-3.286,12.064,12.064,0,0,1,.175-3.856,0.188,0.188,0,1,1,.368.077,11.657,11.657,0,0,0-.169,3.735,13.207,13.207,0,0,0,.771,3.2,0.189,0.189,0,0,1-.109.243,0.2,0.2,0,0,1-.067.012" transform="translate(-94.484 -739)"/>
  <path id="图层_231" data-name="图层 231" class="cls-3" d="M148.985,789.557c-4.9,0-9.208-1.881-11.82-5.245a0.188,0.188,0,0,1,.3-0.23c2.943,3.789,8.116,5.643,13.837,4.959,8.405-1,14.088-7.337,13.221-14.73a11.115,11.115,0,0,0-1.15-3.77,0.188,0.188,0,1,1,.335-0.171,11.45,11.45,0,0,1,1.188,3.9,12.63,12.63,0,0,1-3.3,10.185,16.507,16.507,0,0,1-10.25,4.963,19.964,19.964,0,0,1-2.359.142" transform="translate(-94.484 -739)"/>
  <path id="图层_232" data-name="图层 232" class="cls-3" d="M158.932,765.666A16.417,16.417,0,0,0,149.315,763l-0.013-.376a16.8,16.8,0,0,1,9.839,2.727Z" transform="translate(-94.484 -739)"/>
  <path id="图层_233" data-name="图层 233" class="cls-3" d="M134.576,776.828a0.189,0.189,0,0,1-.179-0.13,12.2,12.2,0,0,1,.679-9.567,0.188,0.188,0,0,1,.346.044c0.046,0.171.082,0.313,0.113,0.437a4.33,4.33,0,0,0,.459,1.222,0.188,0.188,0,1,1-.334.174,4.628,4.628,0,0,1-.481-1.266,11.977,11.977,0,0,0-.424,8.84,0.188,0.188,0,0,1-.121.237,0.2,0.2,0,0,1-.058.009" transform="translate(-94.484 -739)"/>
  <path id="图层_234" data-name="图层 234" class="cls-3" d="M135.75,769.949h-0.019a0.187,0.187,0,0,1-.168-0.206,2.376,2.376,0,0,1,.944-1.875,0.188,0.188,0,0,1,.309.128,1.338,1.338,0,0,0,.388,1.01,0.192,0.192,0,0,1,.059.258,0.187,0.187,0,0,1-.253.065,1.353,1.353,0,0,1-.517-0.938,2.011,2.011,0,0,0-.556,1.389,0.188,0.188,0,0,1-.187.17" transform="translate(-94.484 -739)"/>
  <path id="图层_235" data-name="图层 235" class="cls-3" d="M163.229,773.123a0.21,0.21,0,0,1-.043,0,0.188,0.188,0,0,1-.14-0.226,11.478,11.478,0,0,0-1.7-9.426,8.059,8.059,0,0,1-.582,1.9,0.187,0.187,0,0,1-.247.1,0.189,0.189,0,0,1-.1-0.248,8.479,8.479,0,0,0,.633-2.232,0.186,0.186,0,0,1,.137-0.149,0.188,0.188,0,0,1,.194.063,11.748,11.748,0,0,1,2.03,10.077,0.189,0.189,0,0,1-.183.145" transform="translate(-94.484 -739)"/>
  <path id="图层_236" data-name="图层 236" class="cls-3" d="M161.014,766.782a0.188,0.188,0,0,1-.183-0.145,5.515,5.515,0,0,0-1.05-2.165,3.14,3.14,0,0,1-.9,1.477,0.188,0.188,0,0,1-.255-0.277,2.8,2.8,0,0,0,.859-1.64,0.188,0.188,0,0,1,.325-0.1,5.875,5.875,0,0,1,1.384,2.62,0.188,0.188,0,0,1-.14.226,0.21,0.21,0,0,1-.043,0" transform="translate(-94.484 -739)"/>
  <path id="图层_237" data-name="图层 237" class="cls-3" d="M142.7,765.562a0.167,0.167,0,0,1-.053-0.008,0.188,0.188,0,0,1-.128-0.233,7.207,7.207,0,0,1,3.907-4.988,0.189,0.189,0,0,1,.2.025,0.187,0.187,0,0,1,.066.185,1.741,1.741,0,0,0,.2,1.5,0.188,0.188,0,1,1-.326.187,1.959,1.959,0,0,1-.309-1.391,6.968,6.968,0,0,0-3.374,4.593,0.189,0.189,0,0,1-.181.135" transform="translate(-94.484 -739)"/>
  <path id="图层_238" data-name="图层 238" class="cls-3" d="M150.183,763.86a0.183,0.183,0,0,1-.1-0.031,2.992,2.992,0,0,1-1.428-2.575,6.343,6.343,0,0,0-2.19,2.041,0.188,0.188,0,1,1-.315-0.207,6.732,6.732,0,0,1,2.651-2.336,0.189,0.189,0,0,1,.268.206,2.545,2.545,0,0,0,1.221,2.557,0.188,0.188,0,0,1-.1.345" transform="translate(-94.484 -739)"/>
  <path id="图层_239" data-name="图层 239" class="cls-3" d="M138.267,779.09a6.136,6.136,0,0,0,.7,2.822,3.883,3.883,0,0,0,2.09,2.086,2.664,2.664,0,0,0,2.61-.644,4.812,4.812,0,0,0,1.477-2.487Zm3.525,5.59a2.893,2.893,0,0,1-.913-0.146,4.444,4.444,0,0,1-2.42-2.377,6.643,6.643,0,0,1-.749-3.442l0.016-.348,8.063,2.084-0.039.253a5.322,5.322,0,0,1-1.7,3.067,3.376,3.376,0,0,1-2.257.909" transform="translate(-94.484 -739)"/>
  <path id="图层_240" data-name="图层 240" class="cls-3" d="M139.7,780.467c0.149,1.33.889,2.339,1.654,2.253s1.263-1.233,1.114-2.563a3.829,3.829,0,0,0-.068-0.411l-2.608-.674a3.761,3.761,0,0,0-.092,1.395" transform="translate(-94.484 -739)"/>
  <path id="图层_241" data-name="图层 241" class="cls-3" d="M151.323,779.8a5.721,5.721,0,0,0,3.212,1.569,4.46,4.46,0,0,0,3.679-1.012,4.752,4.752,0,0,0,1.425-3.4,5.807,5.807,0,0,0-.742-3.286Zm3.964,2.2a5.107,5.107,0,0,1-.845-0.07,6.134,6.134,0,0,1-3.744-1.978l-0.183-.22,8.526-6.9,0.17,0.269a6.389,6.389,0,0,1,.993,3.875,5.318,5.318,0,0,1-1.609,3.8,4.949,4.949,0,0,1-3.308,1.222" transform="translate(-94.484 -739)"/>
  <path id="图层_242" data-name="图层 242" class="cls-3" d="M156.154,777.707c0.554,1.408.209,2.862-.771,3.248s-2.224-.443-2.779-1.851a3.9,3.9,0,0,1-.144-0.449l2.809-2.272a3.606,3.606,0,0,1,.885,1.324" transform="translate(-94.484 -739)"/>
  <path id="图层_243" data-name="图层 243" class="cls-3" d="M147.9,780.458a0.32,0.32,0,0,0-.083.011,0.7,0.7,0,0,0-.372.6,3.361,3.361,0,0,0,.713,2.524,0.523,0.523,0,0,0,1-.283,3.058,3.058,0,0,0-.1-1.335,1.877,1.877,0,0,0-1.159-1.514m0.8,3.834a1.159,1.159,0,0,1-.822-0.45,3.728,3.728,0,0,1-.8-2.845,1.022,1.022,0,0,1,.639-0.89c0.628-.177,1.378.6,1.707,1.763a3.418,3.418,0,0,1,.109,1.506,1.027,1.027,0,0,1-.64.89,0.712,0.712,0,0,1-.189.026" transform="translate(-94.484 -739)"/>
  <path id="图层_244" data-name="图层 244" class="cls-3" d="M151.106,797.273a0.185,0.185,0,0,1-.126-0.049,16.57,16.57,0,0,1-4.071-6.427,0.188,0.188,0,1,1,.348-0.143,16.251,16.251,0,0,0,3.975,6.291,0.188,0.188,0,0,1-.126.328" transform="translate(-94.484 -739)"/>
  <path id="图层_245" data-name="图层 245" class="cls-3" d="M156.4,798.061c-0.1,0-.2,0-0.294-0.01a0.188,0.188,0,0,1,.026-0.376,5.049,5.049,0,0,0,3.359-1.134,0.188,0.188,0,1,1,.223.3,5.631,5.631,0,0,1-3.314,1.218" transform="translate(-94.484 -739)"/>
  <path id="图层_246" data-name="图层 246" class="cls-3" d="M161.792,800.976a0.2,0.2,0,0,1-.085-0.02,8.644,8.644,0,0,1-3.175-3.4,0.188,0.188,0,0,1,.318-0.2,8.765,8.765,0,0,0,2.828,3.157,2.6,2.6,0,0,0,.021-0.44,1.826,1.826,0,0,1,.111-0.795,0.189,0.189,0,0,1,.253-0.092c0.224,0.109.441,0.2,0.649,0.295,0.127,0.055.256,0.112,0.388,0.172a3.514,3.514,0,0,1,.22-1.3,0.189,0.189,0,0,1,.279-0.086,1.231,1.231,0,0,0,.675.264,0.45,0.45,0,0,0-.051-0.152c-1.888-3.867-4.194-7.781-8.249-10.214a0.188,0.188,0,0,1,.193-0.323c4.14,2.484,6.481,6.453,8.394,10.372a0.457,0.457,0,0,1-.027.6,0.889,0.889,0,0,1-.938-0.107,4.01,4.01,0,0,0-.116,1.236,0.188,0.188,0,0,1-.27.175c-0.224-.108-0.44-0.2-0.649-0.295-0.15-.066-0.3-0.133-0.464-0.207a2.536,2.536,0,0,0-.022.452,1.833,1.833,0,0,1-.112.8,0.191,0.191,0,0,1-.171.11" transform="translate(-94.484 -739)"/>
  <path id="图层_247" data-name="图层 247" class="cls-3" d="M163.629,802.821a0.187,0.187,0,0,1-.145-0.068l-0.094-.113a0.2,0.2,0,0,1-.039-0.081,13.073,13.073,0,0,0-1.609-1.984,0.188,0.188,0,0,1,.269-0.264,13.88,13.88,0,0,1,1.774,2.217,0.188,0.188,0,0,1-.044.256,0.186,0.186,0,0,1-.112.037" transform="translate(-94.484 -739)"/>
  <path id="图层_248" data-name="图层 248" class="cls-3" d="M165.3,801.793a0.189,0.189,0,0,1-.173-0.114L163.9,798.84a0.188,0.188,0,1,1,.346-0.149l1.225,2.839a0.189,0.189,0,0,1-.1.248,0.192,0.192,0,0,1-.074.015" transform="translate(-94.484 -739)"/>
  <path id="图层_249" data-name="图层 249" class="cls-3" d="M165.313,805.643a1.521,1.521,0,0,1-1.023-.59,8.67,8.67,0,0,1-1.3-1.586,3.053,3.053,0,0,1-.445-2.053,0.188,0.188,0,1,1,.37.067,2.681,2.681,0,0,0,.4,1.8,8.407,8.407,0,0,0,1.247,1.516,1.108,1.108,0,0,0,.815.469,0.962,0.962,0,0,0,.6-0.7,3.679,3.679,0,0,0-1.02-3.771,0.188,0.188,0,0,1,.251-0.281,4.068,4.068,0,0,1,1.127,4.168,1.271,1.271,0,0,1-.912.962,0.724,0.724,0,0,1-.113.008" transform="translate(-94.484 -739)"/>
  <path id="图层_250" data-name="图层 250" class="cls-3" d="M152.275,794.291a0.5,0.5,0,0,0-.14.017,1.722,1.722,0,0,0-.9,1.5c-0.192,1.676.794,3.257,1.674,4.447a1.947,1.947,0,0,0,.841.57l0.345-1a0.194,0.194,0,0,1,.106-0.113,0.19,0.19,0,0,1,.155.006l1.765,0.866c0.027-.042.057-0.084,0.085-0.125a0.815,0.815,0,0,0,.167-0.31,6.631,6.631,0,0,0-2.362-4.989,4.574,4.574,0,0,0-.736-0.517,2.252,2.252,0,0,0-1-.351m1.585,6.966a0.188,0.188,0,0,1-.066-0.012,2.551,2.551,0,0,1-1.191-.769c-0.921-1.246-1.952-2.908-1.745-4.714a2.019,2.019,0,0,1,1.179-1.818,2.152,2.152,0,0,1,1.422.371,4.913,4.913,0,0,1,.8.563,7.055,7.055,0,0,1,2.487,5.241,0.924,0.924,0,0,1-.233.555,1.176,1.176,0,0,0-.136.222,0.192,0.192,0,0,1-.107.111,0.186,0.186,0,0,1-.153-0.006l-1.738-.853-0.34.983a0.19,0.19,0,0,1-.178.126" transform="translate(-94.484 -739)"/>
  <path id="图层_251" data-name="图层 251" class="cls-3" d="M155.123,802.411a0.185,0.185,0,0,1-.126-0.049,4.918,4.918,0,0,1-1.2-1.673,0.188,0.188,0,1,1,.345-0.151,4.552,4.552,0,0,0,1.109,1.545,0.188,0.188,0,0,1-.126.328" transform="translate(-94.484 -739)"/>
  <path id="图层_252" data-name="图层 252" class="cls-3" d="M156.512,802.275a0.191,0.191,0,0,1-.149-0.072,7.641,7.641,0,0,1-.912-1.5,0.188,0.188,0,1,1,.342-0.157,7.287,7.287,0,0,0,.867,1.423,0.188,0.188,0,0,1-.032.264,0.19,0.19,0,0,1-.116.04" transform="translate(-94.484 -739)"/>
  <path id="图层_253" data-name="图层 253" class="cls-3" d="M156.92,804.61a1.445,1.445,0,0,1-.4-0.068,3.409,3.409,0,0,1-2.388-3.131,0.189,0.189,0,0,1,.185-0.192,0.191,0.191,0,0,1,.192.185,3.064,3.064,0,0,0,2.117,2.777,0.817,0.817,0,0,0,.416.038,0.779,0.779,0,0,0,.426-0.716,2.293,2.293,0,0,0-1.472-2.3,0.188,0.188,0,0,1,.127-0.354,2.679,2.679,0,0,1,1.72,2.692,1.12,1.12,0,0,1-.7,1.046,0.847,0.847,0,0,1-.216.027" transform="translate(-94.484 -739)"/>
  <path id="图层_254" data-name="图层 254" class="cls-3" d="M167.045,794.937a1.881,1.881,0,0,1-1.8-1.229,0.188,0.188,0,0,1,.359-0.113,1.545,1.545,0,0,0,1.761.933,2.251,2.251,0,0,0,1.573-1.49c0.247-.7.173-1.3-0.922-2.463-2.716-2.49-5.978-3.5-10.256-3.18a0.189,0.189,0,0,1-.029-0.376c4.389-.332,7.741.713,10.549,3.288,1.231,1.3,1.3,2.032,1.013,2.855a2.633,2.633,0,0,1-1.852,1.735,1.949,1.949,0,0,1-.393.04" transform="translate(-94.484 -739)"/>
  <path id="图层_255" data-name="图层 255" class="cls-3" d="M164.572,792.514a0.187,0.187,0,0,1-.125-0.048c-2.015-1.8-3.226-2.066-5.639-2.6-0.209-.046-0.428-0.094-0.656-0.146a0.188,0.188,0,1,1,.083-0.367l0.654,0.146c2.477,0.548,3.721.824,5.808,2.687a0.187,0.187,0,0,1,.015.266,0.185,0.185,0,0,1-.14.063" transform="translate(-94.484 -739)"/>
  <path id="图层_256" data-name="图层 256" class="cls-3" d="M165.383,794.641a1.65,1.65,0,0,1-1.352-.8,2.655,2.655,0,0,1-.2-1.958,0.188,0.188,0,0,1,.367.086,2.27,2.27,0,0,0,.158,1.679,1.176,1.176,0,0,0,1.365.554,0.188,0.188,0,0,1,.143.348,1.232,1.232,0,0,1-.479.095" transform="translate(-94.484 -739)"/>
  <path id="图层_257" data-name="图层 257" class="cls-3" d="M127.633,795.325a0.188,0.188,0,0,1-.019-0.375c8.617-.9,15.086-2.124,19.778-3.736a0.188,0.188,0,0,1,.122.356c-4.719,1.621-11.216,2.849-19.861,3.754h-0.02" transform="translate(-94.484 -739)"/>
  <path id="图层_258" data-name="图层 258" class="cls-3" d="M141.791,787.908h0a15.377,15.377,0,0,1-6.372-1.308,0.188,0.188,0,0,1,.14-0.349,15.075,15.075,0,0,0,6.237,1.281,0.188,0.188,0,0,1,0,.376" transform="translate(-94.484 -739)"/>
  <path id="图层_259" data-name="图层 259" class="cls-3" d="M115.41,769.612a4.247,4.247,0,0,1-.172,3.7A9.04,9.04,0,0,1,112.5,776.3c-0.329.248-.669,0.491-1,0.726a20.26,20.26,0,0,0-2.157,1.691,10.22,10.22,0,0,0-2.154,11.606,11.851,11.851,0,0,0,7,5.888,18.221,18.221,0,0,0,9.33.365,11.994,11.994,0,0,0,7.024-19.281c-1.871-2.3-4.545-3.825-7.123-5.19a19.685,19.685,0,0,0-8.012-2.49m3.938,27.767a16.6,16.6,0,0,1-5.277-.814,12.233,12.233,0,0,1-7.216-6.082,10.605,10.605,0,0,1,2.234-12.043,20.61,20.61,0,0,1,2.2-1.723c0.327-.234.665-0.475,0.99-0.72a8.7,8.7,0,0,0,2.626-2.852,3.764,3.764,0,0,0,.02-3.641,0.186,0.186,0,0,1,0-.194,0.189,0.189,0,0,1,.171-0.093,19.82,19.82,0,0,1,8.508,2.552c2.612,1.384,5.323,2.932,7.238,5.286a12.37,12.37,0,0,1-7.242,19.887,21.547,21.547,0,0,1-4.247.437" transform="translate(-94.484 -739)"/>
  <path id="图层_260" data-name="图层 260" class="cls-3" d="M119.4,774.354a0.188,0.188,0,0,1-.169-0.105,11.153,11.153,0,0,0-4.157-4.533,0.188,0.188,0,0,1,.195-0.322,11.534,11.534,0,0,1,4.3,4.688,0.188,0.188,0,0,1-.169.272" transform="translate(-94.484 -739)"/>
  <path id="图层_261" data-name="图层 261" class="cls-3" d="M120.589,779.054a10.321,10.321,0,0,0,1.186,7.2,3.817,3.817,0,0,0,1.2,1.383,1.6,1.6,0,0,0,1.641.086,2.358,2.358,0,0,0,.82-1.479,12.027,12.027,0,0,0-.095-5.437l-0.1-.031a28.507,28.507,0,0,1-4.649-1.718m3.326,9.234a2.175,2.175,0,0,1-1.137-.335,4.156,4.156,0,0,1-1.329-1.516,10.689,10.689,0,0,1-1.175-7.711,0.193,0.193,0,0,1,.108-0.131,0.19,0.19,0,0,1,.169.009,25.5,25.5,0,0,0,4.8,1.807c0.249,0.075.356,0.107,0.348,0.241a12.438,12.438,0,0,1,.109,5.676,2.677,2.677,0,0,1-.984,1.708,1.665,1.665,0,0,1-.9.252" transform="translate(-94.484 -739)"/>
  <path id="图层_262" data-name="图层 262" class="cls-3" d="M129.276,780.448a14.9,14.9,0,0,0,.164,2.591c0.533,2.625,1.2,3.926,1.984,3.862a0.437,0.437,0,0,0,.311-0.173c0.271-.323.545-1.23,0.307-3.718a11.369,11.369,0,0,0-1.214-4.462,5.785,5.785,0,0,1-1.552,1.9m2.084,6.832c-1,0-1.706-1.294-2.289-4.166a15.72,15.72,0,0,1-.17-2.762,0.192,0.192,0,0,1,.074-0.145,5.03,5.03,0,0,0,1.619-2.137,0.189,0.189,0,0,1,.332-0.071c0.047,0.061,1.161,1.526,1.491,4.976,0.2,2.13.075,3.437-.393,4a0.806,0.806,0,0,1-.57.306c-0.032,0-.063,0-0.094,0" transform="translate(-94.484 -739)"/>
  <path id="图层_263" data-name="图层 263" class="cls-3" d="M127.084,791.61a1.187,1.187,0,0,1-.714-0.225,1.584,1.584,0,0,1-.548-1.37,2.95,2.95,0,0,1,1.656-2.511,0.188,0.188,0,1,1,.16.34,2.567,2.567,0,0,0-1.44,2.184,1.279,1.279,0,0,0,.4,1.053,1.253,1.253,0,0,0,1.478-.259,2.453,2.453,0,0,0,.684-2.49,0.188,0.188,0,0,1,.359-0.113,2.839,2.839,0,0,1-.792,2.883,1.937,1.937,0,0,1-1.239.508" transform="translate(-94.484 -739)"/>
  <path id="图层_264" data-name="图层 264" class="cls-3" d="M115.458,789.042a0.679,0.679,0,0,1-.078,0,0.97,0.97,0,0,1-.742-0.558,2.032,2.032,0,0,1-.171-0.836,6.131,6.131,0,0,1,.594-2.841,0.189,0.189,0,0,1,.34.163,5.749,5.749,0,0,0-.558,2.666,1.7,1.7,0,0,0,.132.681,0.6,0.6,0,0,0,.442.351,0.845,0.845,0,0,0,.7-0.527,2.6,2.6,0,0,0,.183-2.024,0.188,0.188,0,1,1,.357-0.118,2.983,2.983,0,0,1-.209,2.322,1.205,1.205,0,0,1-.99.725" transform="translate(-94.484 -739)"/>
  <path id="图层_265" data-name="图层 265" class="cls-3" d="M112.66,798.783c-0.591,0-1.167-.037-1.706-0.087a36.483,36.483,0,0,1-9.263-2.087,0.188,0.188,0,0,1-.045-0.33,10.192,10.192,0,0,1,10.232-1.1,0.188,0.188,0,0,1-.156.343,9.789,9.789,0,0,0-9.559.861,36.162,36.162,0,0,0,8.825,1.941c1.94,0.178,4.386.2,6.105-1.2a0.188,0.188,0,1,1,.237.292,7.25,7.25,0,0,1-4.67,1.366" transform="translate(-94.484 -739)"/>
  <path id="图层_266" data-name="图层 266" class="cls-3" d="M129.091,802.988a12.676,12.676,0,0,1-10.4-5.54A0.188,0.188,0,1,1,119,797.24a12.259,12.259,0,0,0,11.126,5.324,9.134,9.134,0,0,0-6.615-5.651,0.188,0.188,0,0,1,.075-0.369,9.5,9.5,0,0,1,6.973,6.124,0.188,0.188,0,0,1-.02.16,0.191,0.191,0,0,1-.137.086,11.562,11.562,0,0,1-1.314.074" transform="translate(-94.484 -739)"/>
  <path id="图层_267" data-name="图层 267" class="cls-3" d="M131.2,778.41a0.188,0.188,0,0,1-.173-0.113,20,20,0,0,1-1.761-8.254c0-.152.01-0.3,0.016-0.457a6.89,6.89,0,0,0-.2-2.466,2.069,2.069,0,0,0-2.021-1.537,2.526,2.526,0,0,0-1.644,1.4,6.993,6.993,0,0,0-.692,5.457,0.188,0.188,0,1,1-.361.107,7.364,7.364,0,0,1,.726-5.75,2.788,2.788,0,0,1,1.92-1.583A2.444,2.444,0,0,1,129.433,767a7.182,7.182,0,0,1,.221,2.6c-0.006.152-.012,0.3-0.016,0.452a19.664,19.664,0,0,0,1.73,8.1,0.187,0.187,0,0,1-.1.247,0.184,0.184,0,0,1-.075.016" transform="translate(-94.484 -739)"/>
  <path id="图层_268" data-name="图层 268" class="cls-3" d="M130.068,793.326a0.188,0.188,0,0,1-.071-0.362,4.371,4.371,0,0,0,2.575-1.945,24.928,24.928,0,0,1,3.281-5.377l0.165-.2a6.791,6.791,0,0,0,1.042-1.564,2.067,2.067,0,0,0-.07-1.926,1.72,1.72,0,0,0-1.788-.61,3.7,3.7,0,0,0-1.847,1.557,0.188,0.188,0,1,1-.323-0.192,4.055,4.055,0,0,1,2.084-1.731,2.1,2.1,0,0,1,2.183.761,2.384,2.384,0,0,1,.108,2.287,7.06,7.06,0,0,1-1.1,1.654l-0.163.2a24.528,24.528,0,0,0-3.231,5.3,4.674,4.674,0,0,1-2.777,2.139,0.2,0.2,0,0,1-.071.014" transform="translate(-94.484 -739)"/>
  <path id="图层_269" data-name="图层 269" class="cls-3" d="M112.188,776.49a0.188,0.188,0,0,1-.156-0.083,9.348,9.348,0,0,1-1.2-7.827,3.385,3.385,0,0,1,.72-1.365,1.594,1.594,0,0,1,1.515-.494,2.338,2.338,0,0,1,1.35,1.856l1.108,3.936a0.188,0.188,0,1,1-.362.1l-1.108-3.936a2.045,2.045,0,0,0-1.087-1.594,1.21,1.21,0,0,0-1.144.391,3.025,3.025,0,0,0-.632,1.215,8.963,8.963,0,0,0,1.153,7.5,0.19,0.19,0,0,1-.051.262,0.185,0.185,0,0,1-.105.032" transform="translate(-94.484 -739)"/>
  <path id="图层_270" data-name="图层 270" class="cls-3" d="M106.311,784.049a0.182,0.182,0,0,1-.1-0.028,8.283,8.283,0,0,1-3.679-4.175,1.586,1.586,0,0,1,2.311-2.08,9.54,9.54,0,0,1,2.383,1.522l0.818,0.645a0.188,0.188,0,0,1-.233.3L107,779.583a9.243,9.243,0,0,0-2.287-1.466,1.55,1.55,0,0,0-1.809.242,1.528,1.528,0,0,0-.01,1.364,8.071,8.071,0,0,0,3.521,3.977,0.188,0.188,0,0,1-.1.349" transform="translate(-94.484 -739)"/>
  <path id="图层_271" data-name="图层 271" class="cls-3" d="M125.434,786.292a10.607,10.607,0,0,0,.075-5.7,4.515,4.515,0,0,0-.927-0.218c-0.444-.05-0.412-0.1-0.475.356a7.423,7.423,0,0,0,.074,1.946,9.812,9.812,0,0,0,1.253,3.618" transform="translate(-94.484 -739)"/>
  <path id="图层_272" data-name="图层 272" class="cls-3" d="M132.2,785.063a10.219,10.219,0,0,1-1.735-5.972,3.277,3.277,0,0,1,.43-1.019,16.792,16.792,0,0,1,1.305,6.991" transform="translate(-94.484 -739)"/>
  <path id="图层_273" data-name="图层 273" class="cls-3" d="M136.434,786.15q0.09-.127.177-0.255c0.217-.313.422-0.609,0.65-0.878l0.035-.038a2.561,2.561,0,0,1,.363.331l0.1,0.105c0.523,0.52,1.061,1.015,1.6,1.472q0.1,0.09.216,0.183a15.846,15.846,0,0,1-3.146-.92M146.5,759.741a0.74,0.74,0,0,0-.317.07,7.161,7.161,0,0,0-3.756,4.014,16.136,16.136,0,0,0-5.092,3.9,0.764,0.764,0,0,0-1.2-.3l-0.048.041-0.032-.124c-0.024-.094-0.05-0.2-0.082-0.315a0.76,0.76,0,0,0-.635-0.559,0.773,0.773,0,0,0-.108-0.008,0.764,0.764,0,0,0-.658.386,12.78,12.78,0,0,0-.727,10.03,0.8,0.8,0,0,0,.116.223c0.014,0.294.038,0.58,0.07,0.854a14.481,14.481,0,0,0,.543,2.6,3.987,3.987,0,0,0-.968.619A12.811,12.811,0,0,0,131.525,777a18.659,18.659,0,0,1-1.311-6.931c0-.142.009-0.284,0.015-0.425v-0.019a7.7,7.7,0,0,0-.249-2.809,3.1,3.1,0,0,0-2.736-2.2,2.355,2.355,0,0,0-.314.021,3.337,3.337,0,0,0-2.346,1.874,8.139,8.139,0,0,0-1.067,4.565,20.109,20.109,0,0,0-8.4-2.436h-0.034l-0.05,0-0.062-.221a2.925,2.925,0,0,0-1.754-2.256,1.854,1.854,0,0,0-.478-0.062,2.256,2.256,0,0,0-1.6.712,3.908,3.908,0,0,0-.856,1.595,9.986,9.986,0,0,0,.885,7.685l-0.214.153a21.055,21.055,0,0,0-2.258,1.774,10.05,10.05,0,0,0-.906.976l-0.2-.162-0.013-.01a9.893,9.893,0,0,0-2.518-1.6,3.375,3.375,0,0,0-1.21-.236,2.011,2.011,0,0,0-1.733.829,2.413,2.413,0,0,0-.121,2.211,8.584,8.584,0,0,0,3.468,4.182,10.945,10.945,0,0,0,.879,6.515,11.519,11.519,0,0,0,2.106,2.993c-0.232-.016-0.466-0.023-0.7-0.023a11.027,11.027,0,0,0-6.43,2.108,0.763,0.763,0,0,0,.19,1.341,36.96,36.96,0,0,0,9.394,2.118h0.01c0.662,0.061,1.22.089,1.755,0.089a7.708,7.708,0,0,0,5.009-1.476c0.2,0.017.415,0.032,0.647,0.043a13.184,13.184,0,0,0,9.632,5.586c0.38,0.034.764,0.052,1.142,0.052a12.2,12.2,0,0,0,1.38-.078,0.763,0.763,0,0,0,.637-1,10.033,10.033,0,0,0-5.052-5.684,13.066,13.066,0,0,0,1.839-.924c8.154-.86,14.4-2.011,19.06-3.515a15.383,15.383,0,0,0,3.46,5.124,9.644,9.644,0,0,0,1.726,3.331,3.027,3.027,0,0,0,1.437.962,4.011,4.011,0,0,0,2.775,3.314,2,2,0,0,0,.421.085,1.435,1.435,0,0,0,.145.007,1.416,1.416,0,0,0,.365-0.047,1.656,1.656,0,0,0,1.129-1.55,3.259,3.259,0,0,0-1.27-2.829,1.185,1.185,0,0,0,.176-0.683,10.927,10.927,0,0,0-.21-1.491,5.72,5.72,0,0,0,1.2-.311,8.363,8.363,0,0,0,3.139,3.2l0.029,0.013a0.8,0.8,0,0,0,.248.066q0.033,0,.069,0c0.024,0,.047,0,0.07,0l0.078,0.091a3.77,3.77,0,0,0,.553,2.119,9.239,9.239,0,0,0,1.384,1.695,2.133,2.133,0,0,0,1.306.76c0.042,0,.083,0,0.125,0a1.523,1.523,0,0,0,.189-0.012,1.778,1.778,0,0,0,1.389-1.358,4.656,4.656,0,0,0-1.29-4.772,0.759,0.759,0,0,0-.173-0.116l-0.373-.864a1.047,1.047,0,0,0,.029-1.13,31.976,31.976,0,0,0-4.426-7.062,7.513,7.513,0,0,1,2.538,1.273,2.99,2.99,0,0,0,.345,1.954,2.239,2.239,0,0,0,1.675,1.078c0.057,0,.114.008,0.17,0.008a1.806,1.806,0,0,0,.39-0.042,2.569,2.569,0,0,0,1.041.326c0.076,0.007.154,0.011,0.232,0.011a2.552,2.552,0,0,0,.508-0.051,3.225,3.225,0,0,0,2.282-2.109c0.412-1.174.093-2.139-1.137-3.441l-0.029-.028a13.057,13.057,0,0,0-8.354-3.469,14.7,14.7,0,0,0,1.705-1.573,13.2,13.2,0,0,0,3.446-10.642,12.03,12.03,0,0,0-1.137-3.866,11.759,11.759,0,0,0-2.5-7.8,0.753,0.753,0,0,0-.591-0.281,0.746,0.746,0,0,0-.188.024,0.768,0.768,0,0,0-.563.6s0,0.007,0,.011c-0.051.292-.1,0.538-0.147,0.762l-0.1-.108a0.772,0.772,0,0,0-.564-0.248h0a0.772,0.772,0,0,0-.223.033,0.762,0.762,0,0,0-.534.622,2.131,2.131,0,0,1-.135.5,17.512,17.512,0,0,0-8.884-2.408h-0.15a1.661,1.661,0,0,1-.118-0.973,0.763,0.763,0,0,0-1.091-.83,7.143,7.143,0,0,0-1.353.863,2.64,2.64,0,0,1,.065-0.442,0.765,0.765,0,0,0-.75-0.919m-5.753,27.989c0.186,0,.372-0.007.559-0.022a3.4,3.4,0,0,1-.795-0.611c-0.265-.209-0.528-0.421-0.785-0.64q-0.81-.687-1.565-1.441a1.592,1.592,0,0,0-.884-0.618,0.591,0.591,0,0,0-.448.254c-0.467.55-.836,1.195-1.294,1.756a14.678,14.678,0,0,0,5.212,1.322m5.753-27.424a0.2,0.2,0,0,1,.2.239,1.727,1.727,0,0,0,.2,1.488,0.216,0.216,0,0,1,.023.072,6.752,6.752,0,0,1,1.871-1.362,0.185,0.185,0,0,1,.086-0.021,0.2,0.2,0,0,1,.122.042,0.2,0.2,0,0,1,.074.2,2.3,2.3,0,0,0,.335,1.652c0.163-.005.325-0.007,0.487-0.007a16.781,16.781,0,0,1,9.09,2.637,2.787,2.787,0,0,0,.487-1.213,0.2,0.2,0,0,1,.139-0.162,0.21,0.21,0,0,1,.061-0.009,0.2,0.2,0,0,1,.146.064,5.792,5.792,0,0,1,.718.975,8.643,8.643,0,0,0,.5-1.912,0.2,0.2,0,0,1,.147-0.159,0.214,0.214,0,0,1,.05-0.006,0.2,0.2,0,0,1,.154.073,11.257,11.257,0,0,1,2.369,7.563,11.473,11.473,0,0,1,1.145,3.809,12.64,12.64,0,0,1-3.3,10.194,14.706,14.706,0,0,1-3.052,2.5q0.357-.014.705-0.013a12.644,12.644,0,0,1,9.029,3.352c1.234,1.306,1.305,2.039,1.015,2.865a2.649,2.649,0,0,1-1.861,1.744,2.037,2.037,0,0,1-.4.039c-0.061,0-.121,0-0.181-0.008a2.034,2.034,0,0,1-1.006-.38,1.249,1.249,0,0,1-.476.093c-0.039,0-.079,0-0.119,0a1.692,1.692,0,0,1-1.242-.805,2.623,2.623,0,0,1-.214-1.9A10.119,10.119,0,0,0,158.9,789.9a27.562,27.562,0,0,1,5.674,8.318,0.47,0.47,0,0,1-.03.612,0.4,0.4,0,0,1-.187.087l0.668,1.546a0.212,0.212,0,0,1,.066-0.011,0.2,0.2,0,0,1,.131.049,4.08,4.08,0,0,1,1.129,4.179,1.284,1.284,0,0,1-.922.971,0.951,0.951,0,0,1-.119.008,0.6,0.6,0,0,1-.073,0,1.619,1.619,0,0,1-.951-0.589,8.657,8.657,0,0,1-1.3-1.589,3.086,3.086,0,0,1-.453-2.011c-0.166-.2-0.343-0.408-0.544-0.62l-0.009.029a0.21,0.21,0,0,1-.115.106,0.219,0.219,0,0,1-.067.011h-0.018a0.243,0.243,0,0,1-.073-0.021,8.65,8.65,0,0,1-3.174-3.4,5.017,5.017,0,0,1-2.122.5h-0.012a9.4,9.4,0,0,1,.363,2.047,0.926,0.926,0,0,1-.235.563,1.247,1.247,0,0,0-.135.22,0.185,0.185,0,0,1-.023.036,2.7,2.7,0,0,1,1.488,2.6,1.13,1.13,0,0,1-.711,1.056,0.885,0.885,0,0,1-.221.027c-0.031,0-.063,0-0.094,0a1.442,1.442,0,0,1-.312-0.065,3.417,3.417,0,0,1-2.4-3.141,0.227,0.227,0,0,1,.012-0.065l-0.1-.172a0.2,0.2,0,0,1-.079.077,0.2,0.2,0,0,1-.083.017h-0.021a0.209,0.209,0,0,1-.053-0.011,2.548,2.548,0,0,1-1.194-.773,8.865,8.865,0,0,1-1.669-3.292,15.381,15.381,0,0,1-3.662-5.524c-4.689,1.575-11.09,2.775-19.556,3.663a12.421,12.421,0,0,1-3.275,1.426,9.5,9.5,0,0,1,6.14,5.91,0.2,0.2,0,0,1-.166.259,11.6,11.6,0,0,1-1.316.075q-0.546,0-1.091-.05a12.694,12.694,0,0,1-9.32-5.5,0.2,0.2,0,0,1-.029-0.079c-0.333-.012-0.666-0.031-0.993-0.061l-0.248-.025a0.2,0.2,0,0,1-.073.136,7.261,7.261,0,0,1-4.676,1.369c-0.591,0-1.168-.038-1.707-0.087h-0.006a36.377,36.377,0,0,1-9.26-2.088,0.2,0.2,0,0,1-.13-0.16,0.2,0.2,0,0,1,.082-0.189,10.492,10.492,0,0,1,6.1-2,9.945,9.945,0,0,1,2.539.329,11.334,11.334,0,0,1-3.436-4.107,10.4,10.4,0,0,1-.765-6.538,8.219,8.219,0,0,1-3.557-4.1,1.887,1.887,0,0,1,.054-1.709,1.461,1.461,0,0,1,1.266-.582,2.831,2.831,0,0,1,1.006.2,9.505,9.505,0,0,1,2.385,1.522l0.653,0.516a9.659,9.659,0,0,1,1.2-1.362,20.279,20.279,0,0,1,2.2-1.725c0.212-.151.425-0.306,0.639-0.46a9.37,9.37,0,0,1-1.1-7.672,3.386,3.386,0,0,1,.724-1.369,1.7,1.7,0,0,1,1.195-.54,1.261,1.261,0,0,1,.33.043,2.352,2.352,0,0,1,1.359,1.864l0.9,3.2a3.346,3.346,0,0,0-.414-2.26,0.2,0.2,0,0,1,.171-0.306h0.008a19.878,19.878,0,0,1,8.512,2.554l0.63,0.338a7.421,7.421,0,0,1,.842-5.308,2.8,2.8,0,0,1,1.929-1.591,1.755,1.755,0,0,1,.239-0.016,2.545,2.545,0,0,1,2.2,1.813,7.205,7.205,0,0,1,.22,2.606c0,0.15-.011.3-0.015,0.451a19.153,19.153,0,0,0,1.377,7.225,12.25,12.25,0,0,1,2.281,5.009,3.765,3.765,0,0,1,1.8-1.324,1.821,1.821,0,0,1,.188-0.035,13.739,13.739,0,0,1-.7-3.041c-0.042-.353-0.066-0.7-0.076-1.056a0.2,0.2,0,0,1-.134-0.129,12.206,12.206,0,0,1,.679-9.575,0.2,0.2,0,0,1,.169-0.1l0.031,0a0.2,0.2,0,0,1,.167.146c0.046,0.172.081,0.314,0.114,0.439a4.048,4.048,0,0,0,.328.959,2.672,2.672,0,0,1,.626-0.712,0.2,0.2,0,0,1,.129-0.046,0.2,0.2,0,0,1,.2.182,1.684,1.684,0,0,0,.287.9,15.439,15.439,0,0,1,5.756-4.66,6.7,6.7,0,0,1,3.549-3.916,0.193,0.193,0,0,1,.081-0.017" transform="translate(-94.484 -739)"/>
  <path id="图层_274" data-name="图层 274" class="cls-11" d="M138.763,798.074l0.518,2.586a2.679,2.679,0,0,0,1.356,2l1.752,0.765-1.752.764a2.683,2.683,0,0,0-1.356,2l-0.518,2.585-0.518-2.585a2.683,2.683,0,0,0-1.356-2l-1.752-.764,1.752-.765a2.679,2.679,0,0,0,1.356-2Z" transform="translate(-94.484 -739)"/>
  <path id="图层_275" data-name="图层 275" class="cls-3" d="M135.843,803.427L137,803.933a2.946,2.946,0,0,1,1.52,2.205l0.241,1.2,0.241-1.2a2.946,2.946,0,0,1,1.52-2.205l1.159-.506-1.159-.506a2.946,2.946,0,0,1-1.52-2.205l-0.241-1.2-0.241,1.2a2.946,2.946,0,0,1-1.52,2.205Zm2.92,5.635a0.283,0.283,0,0,1-.277-0.227l-0.517-2.586a2.432,2.432,0,0,0-1.193-1.8l-1.752-.764a0.283,0.283,0,0,1,0-.518l1.752-.764a2.432,2.432,0,0,0,1.193-1.8l0.517-2.586a0.283,0.283,0,0,1,.554,0l0.518,2.586a2.434,2.434,0,0,0,1.192,1.8l1.752,0.764a0.283,0.283,0,0,1,0,.518l-1.752.764a2.434,2.434,0,0,0-1.192,1.8l-0.518,2.586a0.283,0.283,0,0,1-.277.227" transform="translate(-94.484 -739)"/>
  <path id="图层_276" data-name="图层 276" class="cls-3" d="M132.79,743.672h-0.058c-0.615.008-1.257,0.019-1.905,0.033H130.8a4.254,4.254,0,0,0-.491-0.028h-0.114c-0.653.017-1.277,0.036-1.907,0.058l-0.046,0c-0.146.007-.285,0.021-0.42,0.041a4.485,4.485,0,0,0-1.13.316,4.334,4.334,0,0,0-1.217-.173c-0.073,0-.147,0-0.221,0-0.647.033-1.294,0.069-1.923,0.108-0.156.01-.31,0.028-0.461,0.053a4.949,4.949,0,0,0-3.122,1.966c-0.1-.036-0.2-0.068-0.308-0.1a4.288,4.288,0,0,0-2.8-1.411c-0.684-.066-1.366-0.126-2.026-0.177-0.112-.008-0.227-0.013-0.341-0.013q-0.113,0-.225.006a4.653,4.653,0,0,0-.766.1,5.115,5.115,0,0,0-2.574,1.486l-0.086.011c-0.142.019-.284,0.044-0.424,0.076-0.08.018-.16,0.038-0.239,0.06a4.313,4.313,0,0,0-1.621-.309c-0.078,0-.154,0-0.231.006a4.7,4.7,0,0,0-.9.135,5.231,5.231,0,0,0-2.462,1.431c-0.449.458-.894,0.906-1.321,1.33a5.351,5.351,0,0,0-1.561,3.188,4.675,4.675,0,0,0,.28,2.2,4.951,4.951,0,0,0-.392,2.2l0.1,1.883a4.686,4.686,0,0,0,1.022,2.681,4.784,4.784,0,0,0-.045,5.624c0.413,0.589.835,1.2,1.256,1.822a4.945,4.945,0,0,0,1.443,1.395,33.687,33.687,0,0,0-1.543,4.67l-0.146,0a4.634,4.634,0,0,0-3.915,1.989A4.916,4.916,0,0,0,99.5,780.9a10.63,10.63,0,0,0,3.183,4.515,13.44,13.44,0,0,0,1.172,6.234,13.945,13.945,0,0,0-4.072,2.018,3.4,3.4,0,0,0,.812,5.961,39.653,39.653,0,0,0,8.3,2.065,33.71,33.71,0,0,0,52.014,4.4c0.374,0.472.756,0.867,1.067,1.19a4.747,4.747,0,0,0,2.964,1.559c0.123,0.011.246,0.017,0.368,0.017a4.22,4.22,0,0,0,4.084-3.194,7.23,7.23,0,0,0-1.532-7.042,3.781,3.781,0,0,0-.029-0.531q0.126-.02.252-0.045a5.829,5.829,0,0,0,4.236-3.817c0.99-2.82-.5-4.845-1.708-6.122-0.052-.056-0.106-0.109-0.161-0.16-0.125-.114-0.255-0.229-0.387-0.343a34.143,34.143,0,0,0,.371-5,33.449,33.449,0,0,0-2.812-13.5,5.514,5.514,0,0,0,.9-0.9,5.291,5.291,0,0,0,1.167-3.556q-0.122-2.212-.242-4.439c0.066-.066.131-0.134,0.193-0.2a5.02,5.02,0,0,0,1.287-3.6l-0.105-1.92a4.736,4.736,0,0,0-.857-2.487,4.858,4.858,0,0,0-.405-2.3,4.909,4.909,0,0,0-2.667-2.562c-0.629-.246-1.286-0.508-1.953-0.777a4.606,4.606,0,0,0-1.723-.341H163.2q-0.117,0-.234.006a4.361,4.361,0,0,0-.581.067,4.7,4.7,0,0,0-2.7-1.2c-0.72-.069-1.415-0.133-2.13-0.2-0.133-.011-0.261-0.016-0.387-0.016h-0.047c-0.061,0-.119,0-0.177.006a4.57,4.57,0,0,0-3.044,1.381l-0.085,0-0.041,0a4.46,4.46,0,0,0-.859.125,4.512,4.512,0,0,0-2.815-1.216c-4.121-.237-8.164-0.38-12.017-0.426h-0.033q-0.114,0-.228.006c-0.07,0-.141.009-0.208,0.015a4.552,4.552,0,0,0-1.635.486,4.364,4.364,0,0,0-3.185-1.371m0,0.941a3.527,3.527,0,0,1,2.978,1.682,3.653,3.653,0,0,1,1.934-.8c0.053,0,.108-0.009.164-0.012s0.12,0,.18,0h0.022c3.842,0.046,7.867.188,11.971,0.424a3.653,3.653,0,0,1,2.6,1.352,3.572,3.572,0,0,1,1.173-.26l0.042,0c0.044,0,.09,0,0.136,0,0.072,0,.146,0,0.219.007L154.3,747q0.039-.048.081-0.1a3.674,3.674,0,0,1,2.6-1.3c0.046,0,.092,0,0.139,0h0.037c0.1,0,.2,0,0.3.012,0.715,0.064,1.418.129,2.121,0.2a3.8,3.8,0,0,1,2.5,1.311,3.607,3.607,0,0,1,.923-0.17c0.062,0,.124,0,0.187,0h0.012a3.682,3.682,0,0,1,1.374.272c0.673,0.272,1.333.534,1.962,0.781a3.933,3.933,0,0,1,2.44,4.266,3.794,3.794,0,0,1,.893,2.264l0.106,1.92a4.078,4.078,0,0,1-1.047,2.918,4.283,4.283,0,0,1-.457.438q0.132,2.451.265,4.884a4.349,4.349,0,0,1-.965,2.921,4.573,4.573,0,0,1-1.344,1.151,32.659,32.659,0,0,1,3.055,13.834,33.057,33.057,0,0,1-.442,5.384c0.258,0.209.512,0.426,0.761,0.655,0.04,0.037.078,0.075,0.115,0.114,1.126,1.191,2.315,2.855,1.5,5.163a4.884,4.884,0,0,1-3.534,3.208,4.318,4.318,0,0,1-.854.086c-0.129,0-.259-0.006-0.387-0.017l-0.077-.008,0.021,0.042a2.961,2.961,0,0,1,.287,1.743,6.323,6.323,0,0,1,1.609,6.406,3.442,3.442,0,0,1-2.773,2.513,3.288,3.288,0,0,1-.416.028c-0.094,0-.189,0-0.282-0.013a3.8,3.8,0,0,1-2.373-1.275,10.766,10.766,0,0,1-1.62-2.007l-0.014-.024a32.792,32.792,0,0,1-51.583-3.782,38.616,38.616,0,0,1-8.521-2.072,2.458,2.458,0,0,1-.585-4.311,12.958,12.958,0,0,1,4.9-2.164q-0.226-.393-0.421-0.8a12.55,12.55,0,0,1-1.156-6.472,9.8,9.8,0,0,1-3.265-4.4,4.007,4.007,0,0,1,.316-3.71,3.7,3.7,0,0,1,3.137-1.578,4.788,4.788,0,0,1,.871.082,32.527,32.527,0,0,1,2.031-6.13,4,4,0,0,1-1.878-1.484c-0.423-.625-0.848-1.241-1.264-1.834a3.861,3.861,0,0,1,.567-5.118,3.686,3.686,0,0,1-1.375-2.7l-0.1-1.883a4.093,4.093,0,0,1,.488-2.137,3.735,3.735,0,0,1-.38-2.114,4.409,4.409,0,0,1,1.289-2.624c0.433-.429.88-0.88,1.329-1.338a4.294,4.294,0,0,1,2.019-1.177,3.718,3.718,0,0,1,.721-0.108c0.062,0,.123,0,0.184,0a3.357,3.357,0,0,1,1.562.376,3.866,3.866,0,0,1,.506-0.15c0.112-.026.226-0.046,0.337-0.061l0.435-.056a4.2,4.2,0,0,1,2.308-1.455,3.68,3.68,0,0,1,.61-0.084c0.059,0,.118,0,0.177,0,0.09,0,.18,0,0.269.01,0.655,0.051,1.331.11,2.008,0.176a3.377,3.377,0,0,1,2.361,1.312,4.618,4.618,0,0,1,1.2.442,4.69,4.69,0,0,1,.377-0.6,4.015,4.015,0,0,1,2.539-1.62,3.592,3.592,0,0,1,.361-0.042c0.642-.039,1.277-0.075,1.913-0.107,0.058,0,.116,0,0.174,0a3.4,3.4,0,0,1,1.274.247,3.686,3.686,0,0,1,1.209-.4c0.1-.016.214-0.026,0.323-0.032l0.04,0c0.638-.022,1.269-0.041,1.9-0.057h0.088a3.4,3.4,0,0,1,.451.03l0.09,0c0.636-.014,1.267-0.025,1.9-0.033h0.045" transform="translate(-94.484 -739)"/>
</svg>
