<svg id="_2" data-name="2" xmlns="http://www.w3.org/2000/svg" width="33.72" height="33.718" viewBox="0 0 33.72 33.718">
  <metadata><?xpacket begin="﻿" id="W5M0MpCehiHzreSzNTczkc9d"?>
<x:xmpmeta xmlns:x="adobe:ns:meta/" x:xmptk="Adobe XMP Core 5.6-c142 79.160924, 2017/07/13-01:06:39        ">
   <rdf:RDF xmlns:rdf="http://www.w3.org/1999/02/22-rdf-syntax-ns#">
      <rdf:Description rdf:about=""/>
   </rdf:RDF>
</x:xmpmeta>
                                                                                                    
                                                                                                    
                                                                                                    
                                                                                                    
                                                                                                    
                                                                                                    
                                                                                                    
                                                                                                    
                                                                                                    
                                                                                                    
                                                                                                    
                                                                                                    
                                                                                                    
                                                                                                    
                                                                                                    
                                                                                                    
                                                                                                    
                                                                                                    
                                                                                                    
                                                                                                    
                           
<?xpacket end="w"?></metadata>
<defs>
    <style>
      .cls-1 {
        fill: #2d267f;
      }

      .cls-1, .cls-2 {
        fill-rule: evenodd;
      }

      .cls-2 {
        fill: #fff;
      }
    </style>
  </defs>
  <path id="图层_246" data-name="图层 246" class="cls-1" d="M1298.89,406.674a16.87,16.87,0,1,1-16.87-16.87,16.875,16.875,0,0,1,16.87,16.87" transform="translate(-1265.16 -389.813)"/>
  <path id="_2-2" data-name="2" class="cls-2" d="M1277.73,413.248h8.57v-1.89h-5.8v-0.144l0.77-.612c0.95-.756,1.73-1.419,2.33-1.989a10.735,10.735,0,0,0,1.41-1.584,4.772,4.772,0,0,0,.71-1.422,5.449,5.449,0,0,0,.2-1.485,3.149,3.149,0,0,0-1.14-2.682,5,5,0,0,0-3.11-.864,13.59,13.59,0,0,0-1.66.1,9.579,9.579,0,0,0-1.49.3v1.908a9.465,9.465,0,0,1,1.46-.324,9.888,9.888,0,0,1,1.29-.09,4.486,4.486,0,0,1,.92.09,2.06,2.06,0,0,1,.75.306,1.456,1.456,0,0,1,.49.594,2.173,2.173,0,0,1,.18.936,2.852,2.852,0,0,1-.26,1.179,5.689,5.689,0,0,1-.91,1.368,19.192,19.192,0,0,1-1.8,1.773q-1.155,1.01-2.91,2.412v2.124Z" transform="translate(-1265.16 -389.813)"/>
</svg>
