<svg id="_3" data-name="3" xmlns="http://www.w3.org/2000/svg" width="33.72" height="33.75" viewBox="0 0 33.72 33.75">
  <metadata><?xpacket begin="﻿" id="W5M0MpCehiHzreSzNTczkc9d"?>
<x:xmpmeta xmlns:x="adobe:ns:meta/" x:xmptk="Adobe XMP Core 5.6-c142 79.160924, 2017/07/13-01:06:39        ">
   <rdf:RDF xmlns:rdf="http://www.w3.org/1999/02/22-rdf-syntax-ns#">
      <rdf:Description rdf:about=""/>
   </rdf:RDF>
</x:xmpmeta>
                                                                                                    
                                                                                                    
                                                                                                    
                                                                                                    
                                                                                                    
                                                                                                    
                                                                                                    
                                                                                                    
                                                                                                    
                                                                                                    
                                                                                                    
                                                                                                    
                                                                                                    
                                                                                                    
                                                                                                    
                                                                                                    
                                                                                                    
                                                                                                    
                                                                                                    
                                                                                                    
                           
<?xpacket end="w"?></metadata>
<defs>
    <style>
      .cls-1 {
        fill: #2d267f;
      }

      .cls-1, .cls-2 {
        fill-rule: evenodd;
      }

      .cls-2 {
        fill: #fff;
      }
    </style>
  </defs>
  <path id="图层_247" data-name="图层 247" class="cls-1" d="M1298.89,478.761a16.87,16.87,0,1,1-16.87-16.87,16.875,16.875,0,0,1,16.87,16.87" transform="translate(-1265.16 -461.875)"/>
  <path id="_3-2" data-name="3" class="cls-2" d="M1285.95,481.756a3.067,3.067,0,0,0-.59-1.953,2.887,2.887,0,0,0-1.82-1V478.7a3.176,3.176,0,0,0,1.57-1.008,2.735,2.735,0,0,0,.52-1.746,3.557,3.557,0,0,0-.31-1.566,2.55,2.55,0,0,0-.87-1.044,3.878,3.878,0,0,0-1.38-.576,8.532,8.532,0,0,0-1.83-.18,10.582,10.582,0,0,0-1.52.108,7.666,7.666,0,0,0-1.2.252v1.854a8.654,8.654,0,0,1,1.22-.261,8.95,8.95,0,0,1,1.25-.1,3.64,3.64,0,0,1,1.78.36,1.365,1.365,0,0,1,.63,1.3,1.5,1.5,0,0,1-.8,1.422,4.774,4.774,0,0,1-2.23.432h-0.95v1.746h0.97a5.736,5.736,0,0,1,2.4.405,1.529,1.529,0,0,1,.84,1.521,1.787,1.787,0,0,1-.22.945,1.646,1.646,0,0,1-.62.585,3,3,0,0,1-.92.306,6.655,6.655,0,0,1-1.14.09,12.226,12.226,0,0,1-1.36-.072,12.06,12.06,0,0,1-1.37-.234v1.962a11.176,11.176,0,0,0,1.32.18c0.46,0.036.97,0.054,1.52,0.054q5.115,0,5.11-3.672h0Z" transform="translate(-1265.16 -461.875)"/>
</svg>
