<svg id="_5" data-name="5" xmlns="http://www.w3.org/2000/svg" width="33.72" height="33.75" viewBox="0 0 33.72 33.75">
  <metadata><?xpacket begin="﻿" id="W5M0MpCehiHzreSzNTczkc9d"?>
<x:xmpmeta xmlns:x="adobe:ns:meta/" x:xmptk="Adobe XMP Core 5.6-c142 79.160924, 2017/07/13-01:06:39        ">
   <rdf:RDF xmlns:rdf="http://www.w3.org/1999/02/22-rdf-syntax-ns#">
      <rdf:Description rdf:about=""/>
   </rdf:RDF>
</x:xmpmeta>
                                                                                                    
                                                                                                    
                                                                                                    
                                                                                                    
                                                                                                    
                                                                                                    
                                                                                                    
                                                                                                    
                                                                                                    
                                                                                                    
                                                                                                    
                                                                                                    
                                                                                                    
                                                                                                    
                                                                                                    
                                                                                                    
                                                                                                    
                                                                                                    
                                                                                                    
                                                                                                    
                           
<?xpacket end="w"?></metadata>
<defs>
    <style>
      .cls-1 {
        fill: #2d267f;
      }

      .cls-1, .cls-2 {
        fill-rule: evenodd;
      }

      .cls-2 {
        fill: #fff;
      }
    </style>
  </defs>
  <path id="图层_249" data-name="图层 249" class="cls-1" d="M1298.89,644.622a16.87,16.87,0,1,1-16.87-16.87,16.875,16.875,0,0,1,16.87,16.87" transform="translate(-1265.16 -627.75)"/>
  <path id="_5-2" data-name="5" class="cls-2" d="M1284.78,649.429a4.334,4.334,0,0,0,.29-6.066,4.862,4.862,0,0,0-3.22-.927c-0.28,0-.52.009-0.73,0.027s-0.42.045-.64,0.081l0.43-2.844h4.45v-1.944h-6.25l-0.86,6.66c0.41-.072.84-0.135,1.3-0.189a10.558,10.558,0,0,1,1.24-.081,4.241,4.241,0,0,1,2.34.5,1.9,1.9,0,0,1,.72,1.683,2.262,2.262,0,0,1-.23,1.071,1.748,1.748,0,0,1-.63.675,2.779,2.779,0,0,1-.97.36,6.61,6.61,0,0,1-1.23.108,10.152,10.152,0,0,1-1.29-.072,12.088,12.088,0,0,1-1.23-.234v1.962a12.089,12.089,0,0,0,1.26.18c0.41,0.036.88,0.054,1.42,0.054A6.479,6.479,0,0,0,1284.78,649.429Z" transform="translate(-1265.16 -627.75)"/>
</svg>
