<svg xmlns="http://www.w3.org/2000/svg" width="282" height="32" viewBox="0 0 282 32">
  <metadata><?xpacket begin="﻿" id="W5M0MpCehiHzreSzNTczkc9d"?>
<x:xmpmeta xmlns:x="adobe:ns:meta/" x:xmptk="Adobe XMP Core 5.6-c142 79.160924, 2017/07/13-01:06:39        ">
   <rdf:RDF xmlns:rdf="http://www.w3.org/1999/02/22-rdf-syntax-ns#">
      <rdf:Description rdf:about=""/>
   </rdf:RDF>
</x:xmpmeta>
                                                                                                    
                                                                                                    
                                                                                                    
                                                                                                    
                                                                                                    
                                                                                                    
                                                                                                    
                                                                                                    
                                                                                                    
                                                                                                    
                                                                                                    
                                                                                                    
                                                                                                    
                                                                                                    
                                                                                                    
                                                                                                    
                                                                                                    
                                                                                                    
                                                                                                    
                                                                                                    
                           
<?xpacket end="w"?></metadata>
<defs>
    <style>
      .cls-1 {
        fill: #f99b46;
        stroke: #2d267f;
        stroke-width: 1px;
        fill-rule: evenodd;
      }
    </style>
  </defs>
  <path id="get-ready" class="cls-1" d="M363,798.5q0-8.336,3.889-11.919T378.251,783a37.379,37.379,0,0,1,4.519.282,18.869,18.869,0,0,1,3.694.76v6.687a22.78,22.78,0,0,0-7.561-1.216,9.516,9.516,0,0,0-4.367.847,4.988,4.988,0,0,0-2.369,2.8,15.532,15.532,0,0,0-.738,5.34,19.344,19.344,0,0,0,.608,5.558,4.405,4.405,0,0,0,2.129,2.714,9.6,9.6,0,0,0,4.389.8,17.1,17.1,0,0,0,2.52-.131V802.06h-4.736v-6.426h11.819v16.978a30.166,30.166,0,0,1-4.584.977,37.593,37.593,0,0,1-5.454.412,22.908,22.908,0,0,1-8.364-1.3,9.473,9.473,0,0,1-5.019-4.69Q363,804.622,363,798.5Zm47.928,15.068h-19.51V783.432h19.119v6.644H399.108v4.95h10.516v6.383H399.108v5.515h11.819v6.643Zm17.946-23.4v23.4h-7.648v-23.4h-7.517v-6.73H436.39v6.73h-7.517Zm30.633,7.209V803.1H445.949v-5.731h13.557Zm22.681,5.688h-2.434v10.508h-7.691V783.432H483.4q6,0,8.821,2.3t2.825,7.512a11.186,11.186,0,0,1-1.326,5.862,7.425,7.425,0,0,1-4.106,3.127l8.256,11.333h-9.082Zm-0.087-5.6a7.176,7.176,0,0,0,4.171-.891q1.173-.889,1.173-3.322a4.671,4.671,0,0,0-.5-2.388,2.683,2.683,0,0,0-1.652-1.15,12.266,12.266,0,0,0-3.193-.326h-2.347v8.077H482.1Zm37.455,16.109h-19.51V783.432h19.119v6.644H507.736v4.95h10.516v6.383H507.736v5.515h11.819v6.643Zm12.3-6.861-2.347,6.861h-8l11.167-30.135h10.342l11.08,30.135H545.93l-2.3-6.861H531.852Zm9.69-6.253-3.476-10.377h-0.522l-3.563,10.377h7.561Zm41.323-1.954q0,8.295-3.781,11.681t-10.993,3.387H557.1V783.432h10.994a22.861,22.861,0,0,1,8.082,1.216,9.28,9.28,0,0,1,4.931,4.516Q582.865,792.464,582.865,798.5Zm-15.209,8.511a9.868,9.868,0,0,0,4.258-.76,4.515,4.515,0,0,0,2.26-2.583,15.093,15.093,0,0,0,.7-5.168,15.523,15.523,0,0,0-.717-5.34,4.44,4.44,0,0,0-2.259-2.584,10.262,10.262,0,0,0-4.237-.716h-2.868V807.01h2.868Zm14.209-23.578H590.9l5.779,11.377h0.26l6.128-11.377h8.69l-11.081,18.411v11.724H592.9V802.06Zm41.67,22.449a8.349,8.349,0,0,1,2.65.3,1.757,1.757,0,0,1,1.108,1.108,8.264,8.264,0,0,1,.283,2.539,8.489,8.489,0,0,1-.283,2.562,1.753,1.753,0,0,1-1.13,1.129,8.349,8.349,0,0,1-2.628.3,8.55,8.55,0,0,1-2.673-.3,1.752,1.752,0,0,1-1.129-1.107,8.463,8.463,0,0,1-.283-2.584,8.24,8.24,0,0,1,.283-2.561,1.756,1.756,0,0,1,1.129-1.086A8.58,8.58,0,0,1,623.535,805.881Zm4-22.449-0.912,18.324h-6.214l-0.912-18.324h8.038Zm12.428,22.449a8.358,8.358,0,0,1,2.65.3,1.76,1.76,0,0,1,1.108,1.108,8.3,8.3,0,0,1,.283,2.539,8.522,8.522,0,0,1-.283,2.562,1.755,1.755,0,0,1-1.13,1.129,8.349,8.349,0,0,1-2.628.3,8.55,8.55,0,0,1-2.673-.3,1.756,1.756,0,0,1-1.13-1.107,8.5,8.5,0,0,1-.282-2.584,8.278,8.278,0,0,1,.282-2.561,1.76,1.76,0,0,1,1.13-1.086A8.58,8.58,0,0,1,639.96,805.881Zm4-22.449-0.912,18.324h-6.214l-0.912-18.324h8.038Z" transform="translate(-362.5 -782.5)"/>
</svg>
