<svg xmlns="http://www.w3.org/2000/svg" width="187.062" height="62.718" viewBox="0 0 187.062 62.718">
  <metadata><?xpacket begin="﻿" id="W5M0MpCehiHzreSzNTczkc9d"?>
<x:xmpmeta xmlns:x="adobe:ns:meta/" x:xmptk="Adobe XMP Core 5.6-c142 79.160924, 2017/07/13-01:06:39        ">
   <rdf:RDF xmlns:rdf="http://www.w3.org/1999/02/22-rdf-syntax-ns#">
      <rdf:Description rdf:about=""/>
   </rdf:RDF>
</x:xmpmeta>
                                                                                                    
                                                                                                    
                                                                                                    
                                                                                                    
                                                                                                    
                                                                                                    
                                                                                                    
                                                                                                    
                                                                                                    
                                                                                                    
                                                                                                    
                                                                                                    
                                                                                                    
                                                                                                    
                                                                                                    
                                                                                                    
                                                                                                    
                                                                                                    
                                                                                                    
                                                                                                    
                           
<?xpacket end="w"?></metadata>
<defs>
    <style>
      .cls-1 {
        fill: #2d267f;
        fill-rule: evenodd;
      }
    </style>
  </defs>
  <path id="准备好" class="cls-1" d="M167.079,827.336h10.608v-8.024H167.079v-6.324h10.608v-7.82H167.079v-6.12h12.444v-8.5H168.3l-1.428-7.888-9.18.272,1.564,7.616h-8.024a64.062,64.062,0,0,0,2.244-7.956l-9.452-1.156a67.021,67.021,0,0,1-12.172,25.976l6.528,7.956,1.7-2.448v29.1h40.6v-8.5h-13.6v-6.188Zm-29.92-28.7a164.494,164.494,0,0,0-7.276-15.232l-8.228,3.74q1.292,2.448,3.434,7.412t3.3,8.228Zm12.036,0.408h8.976v6.12H149.2v-6.12ZM128.319,812.58q-1.632,6.393-3.842,13.192t-4.386,12.172l9.52,2.924q1.9-4.9,4.046-12t3.706-13.5l-4.284-1.292Zm20.876,0.408h8.976v6.324H149.2v-6.324Zm8.976,20.536H149.2v-6.188h8.976v6.188ZM244.4,806.936a172.013,172.013,0,0,1-20.06-3.876,99.512,99.512,0,0,0,13.056-8.5v-9.18h-27.54q1.767-2.514,1.972-2.788l-10.2-1.768a60.083,60.083,0,0,1-7.48,8.16,68.532,68.532,0,0,1-9.928,7.616l5.712,7q3.264-2.106,7.14-5.168a58.464,58.464,0,0,0,5.644,4.352q-9.318,2.652-20.332,4.624l2.924,8.568,4.352-.816V842.3h47.532V815.164l4.284,0.816Zm-19.856-13.4a81.716,81.716,0,0,1-11.288,5.576,44.134,44.134,0,0,1-8.636-5.576h19.924Zm-27,19.788a121.083,121.083,0,0,0,15.64-5.032,116.837,116.837,0,0,0,15.708,5.032H197.543Zm1.156,6.664h10.4v4.08H198.7v-4.08Zm19.04,0h10.2v4.08h-10.2v-4.08ZM209.1,835.02H198.7V830.6h10.4v4.42Zm18.836-4.42v4.42h-10.2V830.6h10.2Zm45.627-39.032H261.938l1.088-9.452-8.908-.544q-0.408,5.238-1.02,10h-5.916v9.52h4.624q-1.632,10-3.944,18.632,3.468,2.382,8.364,6.528a64.9,64.9,0,0,1-11.424,10.54l6.732,6.732a92.968,92.968,0,0,0,11.424-11.356q4.216,3.876,7.072,6.732l5.236-8.432q-1.836-1.632-7.276-6.256a50.023,50.023,0,0,0,3.332-9.894,126.9,126.9,0,0,0,2.244-13.566v-9.18Zm20.74,16.252v-4.08l11.356-10.2v-9.384H275.81v9.384H294.1l-9.316,8.228v6.052H273.634v9.588h11.152v12.716a4.564,4.564,0,0,1-.51,2.652,3.925,3.925,0,0,1-2.482.816l-4.76.34,2.924,9.452,4.964-.408a21.774,21.774,0,0,0,5.78-1.122,4.917,4.917,0,0,0,2.788-2.55,12.784,12.784,0,0,0,.816-5.168V817.408h12.852V807.82H294.306Zm-28.968-6.732A71.458,71.458,0,0,1,261.19,818.7q-2.04-1.632-3.944-2.992a147.63,147.63,0,0,0,2.924-14.62h5.168Z" transform="translate(-120.094 -780.813)"/>
</svg>
