<svg id="学习教程_h" xmlns="http://www.w3.org/2000/svg" width="234" height="62.656" viewBox="0 0 234 62.656">
  <metadata><?xpacket begin="﻿" id="W5M0MpCehiHzreSzNTczkc9d"?>
<x:xmpmeta xmlns:x="adobe:ns:meta/" x:xmptk="Adobe XMP Core 5.6-c142 79.160924, 2017/07/13-01:06:39        ">
   <rdf:RDF xmlns:rdf="http://www.w3.org/1999/02/22-rdf-syntax-ns#">
      <rdf:Description rdf:about=""/>
   </rdf:RDF>
</x:xmpmeta>
                                                                                                    
                                                                                                    
                                                                                                    
                                                                                                    
                                                                                                    
                                                                                                    
                                                                                                    
                                                                                                    
                                                                                                    
                                                                                                    
                                                                                                    
                                                                                                    
                                                                                                    
                                                                                                    
                                                                                                    
                                                                                                    
                                                                                                    
                                                                                                    
                                                                                                    
                                                                                                    
                           
<?xpacket end="w"?></metadata>
<defs>
    <style>
      .cls-1 {
        fill: #2d267f;
        stroke-miterlimit: 10;
      }

      .cls-1, .cls-2, .cls-3 {
        stroke: #2d267f;
        stroke-width: 1px;
        fill-rule: evenodd;
      }

      .cls-2 {
        fill: #93e5b6;
      }

      .cls-3 {
        fill: #fffcdc;
      }

      .cls-4 {
        font-size: 32px;
        fill: #fff;
        font-family: AlibabaPuHuiTi_2_55_Regular, "Alibaba PuHuiTi 2.0";
      }
    </style>
  </defs>
  <path id="图层_201" data-name="图层 201" class="cls-1" d="M1341.92,769.75h-209.4a11.8,11.8,0,0,1-11.8-11.8V719.905a11.8,11.8,0,0,1,11.8-11.8h209.4a11.808,11.808,0,0,1,11.81,11.8v38.042A11.808,11.808,0,0,1,1341.92,769.75Z" transform="translate(-1120.22 -707.594)"/>
  <path id="图层_202" data-name="图层 202" class="cls-2" d="M1341.92,769.75h-49.44V708.1h49.44a11.808,11.808,0,0,1,11.81,11.8v38.042a11.808,11.808,0,0,1-11.81,11.8" transform="translate(-1120.22 -707.594)"/>
  <path id="图层_203" data-name="图层 203" class="cls-3" d="M1328.45,739.748a4.362,4.362,0,1,1,0-6.172,4.368,4.368,0,0,1,0,6.172m2.83-9a8.356,8.356,0,0,0-13.06,10.236l-5.74,5.738,2.83,2.828,5.74-5.738a8.357,8.357,0,0,0,10.23-13.064" transform="translate(-1120.22 -707.594)"/>
  <text id="学习教程" class="cls-4" x="21.781" y="43.156">学习教程</text>
</svg>
