<svg id="小七" xmlns="http://www.w3.org/2000/svg" width="158.68" height="126.688" viewBox="0 0 158.68 126.688">
  <metadata><?xpacket begin="﻿" id="W5M0MpCehiHzreSzNTczkc9d"?>
<x:xmpmeta xmlns:x="adobe:ns:meta/" x:xmptk="Adobe XMP Core 5.6-c142 79.160924, 2017/07/13-01:06:39        ">
   <rdf:RDF xmlns:rdf="http://www.w3.org/1999/02/22-rdf-syntax-ns#">
      <rdf:Description rdf:about=""/>
   </rdf:RDF>
</x:xmpmeta>
                                                                                                    
                                                                                                    
                                                                                                    
                                                                                                    
                                                                                                    
                                                                                                    
                                                                                                    
                                                                                                    
                                                                                                    
                                                                                                    
                                                                                                    
                                                                                                    
                                                                                                    
                                                                                                    
                                                                                                    
                                                                                                    
                                                                                                    
                                                                                                    
                                                                                                    
                                                                                                    
                           
<?xpacket end="w"?></metadata>
<defs>
    <style>
      .cls-1, .cls-10 {
        fill: #fff;
      }

      .cls-1, .cls-10, .cls-2, .cls-3, .cls-4, .cls-5, .cls-6, .cls-7, .cls-8, .cls-9 {
        fill-rule: evenodd;
      }

      .cls-2 {
        fill: none;
      }

      .cls-10, .cls-2, .cls-3, .cls-7, .cls-8, .cls-9 {
        stroke: #2d267f;
        stroke-miterlimit: 10;
        stroke-width: 1px;
      }

      .cls-3, .cls-4 {
        fill: #f99b46;
      }

      .cls-5 {
        fill: #1a1856;
      }

      .cls-6 {
        fill: #4e5868;
      }

      .cls-7 {
        fill: #d1dbe0;
      }

      .cls-8 {
        fill: #f7d77f;
      }

      .cls-9 {
        fill: #f4e08c;
      }
    </style>
  </defs>
  <path id="图层_106" data-name="图层 106" class="cls-1" d="M1841.54,818.592h0m-64.59,60.244c-19.88,0-34.58-2.787-44.97-8.52a35.912,35.912,0,0,1-14.07-13.426c-3.42-5.912-5.15-13.14-5.15-21.483a98.931,98.931,0,0,1,.87-13.2,5.1,5.1,0,0,1-3.43-1.079,2.45,2.45,0,0,1-.75-2.058,10.6,10.6,0,0,1,1.32-3.783c-4.71-1.838-12.12-5.39-12.58-9.69a4.73,4.73,0,0,1,1.3-3.636c2.43-2.808,8.45-5.27,16.39-6.762-2.9-3.581-3.97-6.273-3.35-8.359,0.34-1.145,1.33-2.593,4.1-2.989a43.131,43.131,0,0,1,6.58-.376c-2.81-8.839-1.4-18.409,3.79-24.471a15.627,15.627,0,0,1,11.07-5.8c6.04-.408,12.95,2.509,20.52,8.672a4.774,4.774,0,0,1,5.63-.731l1.42,0.792a62.342,62.342,0,0,1,22.56.027l1.47-.819a4.736,4.736,0,0,1,3.64-.42,4.786,4.786,0,0,1,2,1.15c7.56-6.162,14.46-9.076,20.52-8.672a15.611,15.611,0,0,1,11.06,5.8c5.19,6.06,6.6,15.63,3.79,24.468a43.681,43.681,0,0,1,6.19.379c2.77,0.4,3.75,1.844,4.09,2.989,0.62,2.07-.43,4.736-3.28,8.276,8.16,1.482,14.34,3.974,16.83,6.844a4.731,4.731,0,0,1,1.3,3.636c-0.46,4.3-7.86,7.853-12.58,9.691a10.586,10.586,0,0,1,1.32,3.784,2.42,2.42,0,0,1-.75,2.057,5.243,5.243,0,0,1-3.57,1.086,95.851,95.851,0,0,1,.9,13.193c0,8.343-1.73,15.571-5.15,21.483a35.845,35.845,0,0,1-14.07,13.426c-10.38,5.733-25.09,8.52-44.96,8.52" transform="translate(-1697.66 -752.656)"/>
  <path id="图层_107" data-name="图层 107" class="cls-2" d="M1841.54,818.592h0Zm-64.59,60.244c-19.88,0-34.58-2.787-44.97-8.52a35.912,35.912,0,0,1-14.07-13.426c-3.42-5.912-5.15-13.14-5.15-21.483a98.931,98.931,0,0,1,.87-13.2,5.1,5.1,0,0,1-3.43-1.079,2.45,2.45,0,0,1-.75-2.058,10.6,10.6,0,0,1,1.32-3.783c-4.71-1.838-12.12-5.39-12.58-9.69a4.73,4.73,0,0,1,1.3-3.636c2.43-2.808,8.45-5.27,16.39-6.762-2.9-3.581-3.97-6.273-3.35-8.359,0.34-1.145,1.33-2.593,4.1-2.989a43.131,43.131,0,0,1,6.58-.376c-2.81-8.839-1.4-18.409,3.79-24.471a15.627,15.627,0,0,1,11.07-5.8c6.04-.408,12.95,2.509,20.52,8.672a4.774,4.774,0,0,1,5.63-.731l1.42,0.792a62.342,62.342,0,0,1,22.56.027l1.47-.819a4.736,4.736,0,0,1,3.64-.42,4.786,4.786,0,0,1,2,1.15c7.56-6.162,14.46-9.076,20.52-8.672a15.611,15.611,0,0,1,11.06,5.8c5.19,6.06,6.6,15.63,3.79,24.468a43.681,43.681,0,0,1,6.19.379c2.77,0.4,3.75,1.844,4.09,2.989,0.62,2.07-.43,4.736-3.28,8.276,8.16,1.482,14.34,3.974,16.83,6.844a4.731,4.731,0,0,1,1.3,3.636c-0.46,4.3-7.86,7.853-12.58,9.691a10.586,10.586,0,0,1,1.32,3.784,2.42,2.42,0,0,1-.75,2.057,5.243,5.243,0,0,1-3.57,1.086,95.851,95.851,0,0,1,.9,13.193c0,8.343-1.73,15.571-5.15,21.483a35.845,35.845,0,0,1-14.07,13.426C1811.53,876.049,1796.82,878.836,1776.95,878.836Z" transform="translate(-1697.66 -752.656)"/>
  <path id="图层_108" data-name="图层 108" class="cls-3" d="M1731.42,786.856a52.226,52.226,0,0,0-12.39-.073c-8.42,1.2,6.56,14.354,6.56,14.354l10.13-2.981Z" transform="translate(-1697.66 -752.656)"/>
  <path id="图层_109" data-name="图层 109" class="cls-3" d="M1822.09,786.856a52.3,52.3,0,0,1,12.4-.073c8.41,1.2-6.57,14.354-6.57,14.354l-10.12-2.981Z" transform="translate(-1697.66 -752.656)"/>
  <path id="图层_110" data-name="图层 110" class="cls-4" d="M1760.48,767.233c9.52,8.488,7.42,17.848.6,25.821s-21.94,9.373-29.85-.64c-6.73-8.51-7.91-22.235-1.08-30.208s17.42-6.487,30.33,5.027" transform="translate(-1697.66 -752.656)"/>
  <path id="图层_111" data-name="图层 111" class="cls-2" d="M1760.48,767.233c9.52,8.488,7.42,17.848.6,25.821s-21.94,9.373-29.85-.64c-6.73-8.51-7.91-22.235-1.08-30.208S1747.57,755.719,1760.48,767.233Z" transform="translate(-1697.66 -752.656)"/>
  <path id="图层_112" data-name="图层 112" class="cls-5" d="M1750.83,770.58c4.64,4,5.75,10.358,2.46,14.192s-9.71,3.7-14.35-.307-4.42-11.582-1.14-15.416,8.38-2.473,13.03,1.531" transform="translate(-1697.66 -752.656)"/>
  <path id="图层_113" data-name="图层 113" class="cls-4" d="M1793.41,767.233c-9.51,8.488-7.42,17.848-.59,25.821s21.94,9.373,29.85-.64c6.73-8.51,7.91-22.235,1.08-30.208s-17.42-6.487-30.34,5.027" transform="translate(-1697.66 -752.656)"/>
  <path id="图层_114" data-name="图层 114" class="cls-2" d="M1793.41,767.233c-9.51,8.488-7.42,17.848-.59,25.821s21.94,9.373,29.85-.64c6.73-8.51,7.91-22.235,1.08-30.208S1806.33,755.719,1793.41,767.233Z" transform="translate(-1697.66 -752.656)"/>
  <path id="图层_115" data-name="图层 115" class="cls-5" d="M1803.07,770.58c-4.64,4-5.75,10.358-2.47,14.192s9.71,3.7,14.36-.307,4.42-11.582,1.14-15.416-8.38-2.473-13.03,1.531" transform="translate(-1697.66 -752.656)"/>
  <path id="图层_116" data-name="图层 116" class="cls-4" d="M1837.05,834.718c0,32.122-26.91,40.078-60.1,40.078s-60.1-7.956-60.1-40.078c0-42.731,26.9-70.035,60.1-70.035s60.1,28.3,60.1,70.035" transform="translate(-1697.66 -752.656)"/>
  <path id="图层_117" data-name="图层 117" class="cls-6" d="M1820.31,833.678c0,24.035-19.42,25.759-43.37,25.759s-43.66-1.724-43.66-25.759,19.71-39.893,43.67-39.893,43.36,15.857,43.36,39.893" transform="translate(-1697.66 -752.656)"/>
  <path id="图层_118" data-name="图层 118" class="cls-2" d="M1820.31,833.678c0,24.035-19.42,25.759-43.37,25.759s-43.66-1.724-43.66-25.759,19.71-39.893,43.67-39.893S1820.31,809.642,1820.31,833.678Z" transform="translate(-1697.66 -752.656)"/>
  <path id="图层_119" data-name="图层 119" class="cls-7" d="M1776.8,823.943c-9.5-3.1-25.66-8.359-37.03-12.039a38.267,38.267,0,0,0-6.49,21.774c0,16.635,9.44,22.581,23.19,24.667,5.18-1.6,10.97-4.785,17.43-10.182h5.8c6.48,5.42,12.29,8.608,17.49,10.2,13.75-2.065,23.12-7.994,23.12-24.689a38.525,38.525,0,0,0-6.43-21.8C1802.51,815.564,1786.31,820.85,1776.8,823.943Z" transform="translate(-1697.66 -752.656)"/>
  <path id="图层_120" data-name="图层 120" class="cls-8" d="M1774.54,850.51l-1.03-2.871a5.139,5.139,0,0,1,.1-3.721l0.97-2.332a2.392,2.392,0,0,1,4.42,0l0.98,2.332a5.138,5.138,0,0,1,.09,3.721l-1.02,2.871A2.392,2.392,0,0,1,1774.54,850.51Z" transform="translate(-1697.66 -752.656)"/>
  <path id="图层_121" data-name="图层 121" class="cls-9" d="M1768.03,835.156l-25.75-8.5a0.923,0.923,0,0,0-1.21.835c-0.11,2.417.07,8,3.45,12.356,4.33,5.574,18.01,8.706,24.05-3.407A0.925,0.925,0,0,0,1768.03,835.156Z" transform="translate(-1697.66 -752.656)"/>
  <path id="图层_122" data-name="图层 122" class="cls-5" d="M1746.53,827.876c-0.05.548-.08,1.106-0.08,1.674,0,7.013,3.96,12.7,8.86,12.7,3.91,0,7.22-3.632,8.4-8.67Z" transform="translate(-1697.66 -752.656)"/>
  <path id="图层_123" data-name="图层 123" class="cls-9" d="M1785.56,835.156l25.74-8.5a0.923,0.923,0,0,1,1.21.835c0.11,2.417-.07,8-3.45,12.356-4.32,5.574-18,8.706-24.04-3.407A0.925,0.925,0,0,1,1785.56,835.156Z" transform="translate(-1697.66 -752.656)"/>
  <path id="图层_124" data-name="图层 124" class="cls-5" d="M1807.06,827.876c0.05,0.548.08,1.106,0.08,1.674,0,7.013-3.97,12.7-8.86,12.7-3.91,0-7.23-3.632-8.4-8.67Z" transform="translate(-1697.66 -752.656)"/>
  <path id="图层_125" data-name="图层 125" class="cls-2" d="M1837.05,834.718c0,32.122-26.91,40.078-60.1,40.078s-60.1-7.956-60.1-40.078c0-32.336,15.41-55.838,37.29-65.359a56.917,56.917,0,0,1,22.81-4.676C1810.14,764.683,1837.05,792.981,1837.05,834.718Z" transform="translate(-1697.66 -752.656)"/>
  <path id="图层_126" data-name="图层 126" class="cls-5" d="M1771.21,776.04c0,3.174-2.21,5.747-4.95,5.747s-4.95-2.573-4.95-5.747,2.22-5.747,4.95-5.747,4.95,2.573,4.95,5.747" transform="translate(-1697.66 -752.656)"/>
  <path id="图层_127" data-name="图层 127" class="cls-5" d="M1792.59,776.04c0,3.174-2.22,5.747-4.95,5.747s-4.95-2.573-4.95-5.747,2.21-5.747,4.95-5.747,4.95,2.573,4.95,5.747" transform="translate(-1697.66 -752.656)"/>
  <path id="图层_128" data-name="图层 128" class="cls-10" d="M1762.41,796.253c0.08,0.337,2.16,7.044,3.53,11.473a1.223,1.223,0,0,0,2.43.016l3.67-11.489h-9.63Z" transform="translate(-1697.66 -752.656)"/>
  <path id="图层_129" data-name="图层 129" class="cls-10" d="M1781.86,796.253c0.08,0.337,2.16,7.044,3.53,11.473,0.45,1.451,1.96,1.46,2.42.016l3.68-11.489h-9.63Z" transform="translate(-1697.66 -752.656)"/>
  <path id="图层_130" data-name="图层 130" class="cls-1" d="M1795.99,796.817c0,4.84-4.62,3.669-19.12,3.669s-18.85.043-18.85-4.8,4.42-11.808,18.93-11.808,19.04,8.1,19.04,12.936" transform="translate(-1697.66 -752.656)"/>
  <path id="图层_131" data-name="图层 131" class="cls-2" d="M1795.99,796.817c0,4.84-4.62,3.669-19.12,3.669s-18.85.043-18.85-4.8,4.42-11.808,18.93-11.808S1795.99,791.977,1795.99,796.817Z" transform="translate(-1697.66 -752.656)"/>
  <path id="图层_132" data-name="图层 132" class="cls-5" d="M1784.07,784.909c0,2.963-3.19,4.433-7.12,4.433s-7.12-1.47-7.12-4.433,3.19-5.523,7.12-5.523,7.12,2.56,7.12,5.523" transform="translate(-1697.66 -752.656)"/>
  <path id="图层_133" data-name="图层 133" class="cls-1" d="M1782.57,774.677a2.791,2.791,0,0,0,1.76-.327l8.5-4.742a2.819,2.819,0,0,0-2.73-4.932l-8.5,4.742a2.824,2.824,0,0,0,.97,5.259" transform="translate(-1697.66 -752.656)"/>
  <path id="图层_134" data-name="图层 134" class="cls-2" d="M1782.57,774.677a2.791,2.791,0,0,0,1.76-.327l8.5-4.742a2.819,2.819,0,0,0-2.73-4.932l-8.5,4.742A2.824,2.824,0,0,0,1782.57,774.677Z" transform="translate(-1697.66 -752.656)"/>
  <path id="图层_135" data-name="图层 135" class="cls-1" d="M1771.33,774.677a2.767,2.767,0,0,1-1.76-.327l-8.5-4.742a2.819,2.819,0,0,1,2.73-4.932l8.5,4.742a2.824,2.824,0,0,1-.97,5.259" transform="translate(-1697.66 -752.656)"/>
  <path id="图层_136" data-name="图层 136" class="cls-2" d="M1771.33,774.677a2.767,2.767,0,0,1-1.76-.327l-8.5-4.742a2.819,2.819,0,0,1,2.73-4.932l8.5,4.742A2.824,2.824,0,0,1,1771.33,774.677Z" transform="translate(-1697.66 -752.656)"/>
  <path id="图层_137" data-name="图层 137" class="cls-3" d="M1730.15,796.426c-14.64.5-27.83,5.026-27.37,9.348s13.06,8.613,13.06,8.613-1.98,2.65-2.2,4.762c-0.18,1.759,6.71.774,6.71,0.774" transform="translate(-1697.66 -752.656)"/>
  <path id="图层_138" data-name="图层 138" class="cls-3" d="M1823.86,796.426c14.63,0.5,27.82,5.026,27.36,9.348s-13.06,8.613-13.06,8.613,1.98,2.65,2.2,4.762c0.19,1.759-6.71.774-6.71,0.774" transform="translate(-1697.66 -752.656)"/>
  <path id="图层_139" data-name="图层 139" class="cls-5" d="M1716.85,832.179s3.83-7.116,9.24-8.592c2.97-.809-6.03,9.913-7.16,25.433a54.525,54.525,0,0,1-2.08-16.841" transform="translate(-1697.66 -752.656)"/>
  <path id="图层_140" data-name="图层 140" class="cls-5" d="M1725.68,843.094c-2.66,1.686-5.29,4.449-6.24,6.965a30.7,30.7,0,0,0,4.69,8.219c0.15-11.8,3.5-16.42,1.55-15.184" transform="translate(-1697.66 -752.656)"/>
  <path id="图层_141" data-name="图层 141" class="cls-5" d="M1837.02,832.179s-3.83-7.116-9.24-8.592c-2.97-.809,6.03,9.913,7.15,25.433a54.35,54.35,0,0,0,2.09-16.841" transform="translate(-1697.66 -752.656)"/>
  <path id="图层_142" data-name="图层 142" class="cls-5" d="M1828.18,843.094c2.66,1.686,5.3,4.449,6.25,6.965a30.974,30.974,0,0,1-4.69,8.219c-0.15-11.8-3.51-16.42-1.56-15.184" transform="translate(-1697.66 -752.656)"/>
</svg>
