<svg id="故事背景bg" xmlns="http://www.w3.org/2000/svg" width="1129.095" height="578.406" viewBox="0 0 1129.095 578.406">
  <metadata><?xpacket begin="﻿" id="W5M0MpCehiHzreSzNTczkc9d"?>
<x:xmpmeta xmlns:x="adobe:ns:meta/" x:xmptk="Adobe XMP Core 5.6-c142 79.160924, 2017/07/13-01:06:39        ">
   <rdf:RDF xmlns:rdf="http://www.w3.org/1999/02/22-rdf-syntax-ns#">
      <rdf:Description rdf:about=""/>
   </rdf:RDF>
</x:xmpmeta>
                                                                                                    
                                                                                                    
                                                                                                    
                                                                                                    
                                                                                                    
                                                                                                    
                                                                                                    
                                                                                                    
                                                                                                    
                                                                                                    
                                                                                                    
                                                                                                    
                                                                                                    
                                                                                                    
                                                                                                    
                                                                                                    
                                                                                                    
                                                                                                    
                                                                                                    
                                                                                                    
                           
<?xpacket end="w"?></metadata>
<defs>
    <style>
      .cls-1, .cls-2, .cls-4 {
        fill: #fff;
      }

      .cls-1 {
        stroke: #2d267f;
      }

      .cls-1, .cls-2 {
        stroke-miterlimit: 10;
        stroke-width: 1px;
      }

      .cls-1, .cls-2, .cls-3, .cls-4 {
        fill-rule: evenodd;
      }

      .cls-2 {
        stroke: #e1e1e5;
      }

      .cls-3 {
        fill: #2d267f;
      }
    </style>
  </defs>
  <path id="图层_226" data-name="图层 226" class="cls-1" d="M1166.25,717.148H86.6a24.232,24.232,0,0,1-24.231-24.231V163.99A24.231,24.231,0,0,1,86.6,139.759H1166.25a24.231,24.231,0,0,1,24.23,24.231V692.917A24.232,24.232,0,0,1,1166.25,717.148Z" transform="translate(-61.875 -139.25)"/>
  <path id="图层_230" data-name="图层 230" class="cls-2" d="M124.488,326.661h31.978v42.846h21.319V326.661h31.887v-21.15H124.488v21.15Zm92.81,42.845h71.215V351.73h-49.8v-5.743h46.681V328.94H238.708v-5.652h49.8V305.512H217.3v63.994Zm107.559-63.721q-3.722.093-7.58,0.365t-6.479.729a47.169,47.169,0,0,0-5.237,1.23,15.087,15.087,0,0,0-4.274,1.916,19.765,19.765,0,0,0-3.124,2.688,11.508,11.508,0,0,0-2.3,3.556,22.378,22.378,0,0,0-1.286,4.558,32.529,32.529,0,0,0-.459,5.743,18.789,18.789,0,0,0,.6,4.876,25.94,25.94,0,0,0,1.378,3.967,8.128,8.128,0,0,0,2.573,3.1q1.793,1.368,3.308,2.37a15.386,15.386,0,0,0,4.549,1.778q3.033,0.774,5.238,1.275a65.409,65.409,0,0,0,6.478,1q4.272,0.5,7.168.775t8.315,0.729q3.4,0.274,8.546.639a79.073,79.073,0,0,1,8.639.821,1.633,1.633,0,0,1,1.561,1.549,2.275,2.275,0,0,1-2.251,2.37,120.826,120.826,0,0,1-12.727.365h-2.205q-6.34,0-9.786-.182a25.633,25.633,0,0,1-5.376-.73,4.122,4.122,0,0,1-2.435-1.367,4.552,4.552,0,0,1-.5-2.37H295.038a61.648,61.648,0,0,0,.276,6.29,22.1,22.1,0,0,0,1.1,5.014,11.044,11.044,0,0,0,5.514,6.654,20.089,20.089,0,0,0,4.961,2.006,47.883,47.883,0,0,0,6.938,1.185q4.182,0.458,9.006.638t11.44,0.182q9.648,0,16.127-.319a90.464,90.464,0,0,0,11.532-1.23,33.524,33.524,0,0,0,7.9-2.233,12.081,12.081,0,0,0,4.641-3.693,12.973,12.973,0,0,0,2.388-5.2,35.809,35.809,0,0,0,.6-7.2q0-6.2-1.654-9.48-2.481-4.832-11.027-6.837-6.526-1.549-30.783-3.465a0.386,0.386,0,0,0-.277-0.09q-12.22-1-14.656-1.414t-2.526-1.595a1.985,1.985,0,0,1,1.01-1.914,15.785,15.785,0,0,1,4.778-.912q3.767-.363,11.946-0.364,6.155,0,9.925.319a18.421,18.421,0,0,1,5.513,1.093,5,5,0,0,1,2.251,1.6,4.351,4.351,0,0,1,.505,2.279h22.789a38.6,38.6,0,0,0-.734-8.159,17.1,17.1,0,0,0-2.619-6.062,13.857,13.857,0,0,0-4.779-4.33,30.009,30.009,0,0,0-7.672-2.689,70.325,70.325,0,0,0-10.935-1.5q-6.159-.409-14.8-0.41Q328.578,305.694,324.857,305.785Zm56.467,20.876H413.3v42.846h21.319V326.661h31.887v-21.15H381.324v21.15Z" transform="translate(-61.875 -139.25)"/>
  <path id="图层_235" data-name="图层 235" class="cls-3" d="M1130.33,241.673H119.63a7.153,7.153,0,0,1-7.153-7.152V194.849a7.153,7.153,0,0,1,7.153-7.152h1010.7a7.15,7.15,0,0,1,7.15,7.152v39.672a7.15,7.15,0,0,1-7.15,7.152" transform="translate(-61.875 -139.25)"/>
  <path id="图层_236" data-name="图层 236" class="cls-4" d="M1105.46,222.389l-9.37-11.264a1.7,1.7,0,0,1,1.31-2.788h18.74a1.7,1.7,0,0,1,1.31,2.788l-9.37,11.264a1.707,1.707,0,0,1-2.62,0" transform="translate(-61.875 -139.25)"/>
</svg>
