<svg xmlns="http://www.w3.org/2000/svg" width="38.531" height="33" viewBox="0 0 38.531 33">
  <metadata><?xpacket begin="﻿" id="W5M0MpCehiHzreSzNTczkc9d"?>
<x:xmpmeta xmlns:x="adobe:ns:meta/" x:xmptk="Adobe XMP Core 5.6-c142 79.160924, 2017/07/13-01:06:39        ">
   <rdf:RDF xmlns:rdf="http://www.w3.org/1999/02/22-rdf-syntax-ns#">
      <rdf:Description rdf:about=""/>
   </rdf:RDF>
</x:xmpmeta>
                                                                                                    
                                                                                                    
                                                                                                    
                                                                                                    
                                                                                                    
                                                                                                    
                                                                                                    
                                                                                                    
                                                                                                    
                                                                                                    
                                                                                                    
                                                                                                    
                                                                                                    
                                                                                                    
                                                                                                    
                                                                                                    
                                                                                                    
                                                                                                    
                                                                                                    
                                                                                                    
                           
<?xpacket end="w"?></metadata>
<defs>
    <style>
      .cls-1 {
        fill: #2d267f;
        fill-rule: evenodd;
      }
    </style>
  </defs>
  <path id="故事背景icon" class="cls-1" d="M131.518,512.03a3.343,3.343,0,0,0-3.34,3.34v21.461l5.736-4.44h24.055a3.344,3.344,0,0,0,3.34-3.34V515.234a3.207,3.207,0,0,0-3.2-3.2H131.518Zm-6.04,30.306V515.37a6.046,6.046,0,0,1,6.04-6.04H158.1a5.911,5.911,0,0,1,5.9,5.9v13.817a6.047,6.047,0,0,1-6.04,6.04H134.837Zm10.948-21.689h2.787v3.147h-2.787v-3.147Zm6.923,0h2.789v3.147h-2.789v-3.147Zm6.925,0h2.788v3.147h-2.788v-3.147Z" transform="translate(-125.469 -509.344)"/>
</svg>
