<svg id="LOGO" xmlns="http://www.w3.org/2000/svg" width="323.281" height="59.938" viewBox="0 0 323.281 59.938">
  <metadata><?xpacket begin="﻿" id="W5M0MpCehiHzreSzNTczkc9d"?>
<x:xmpmeta xmlns:x="adobe:ns:meta/" x:xmptk="Adobe XMP Core 5.6-c142 79.160924, 2017/07/13-01:06:39        ">
   <rdf:RDF xmlns:rdf="http://www.w3.org/1999/02/22-rdf-syntax-ns#">
      <rdf:Description rdf:about=""/>
   </rdf:RDF>
</x:xmpmeta>
                                                                                                    
                                                                                                    
                                                                                                    
                                                                                                    
                                                                                                    
                                                                                                    
                                                                                                    
                                                                                                    
                                                                                                    
                                                                                                    
                                                                                                    
                                                                                                    
                                                                                                    
                                                                                                    
                                                                                                    
                                                                                                    
                                                                                                    
                                                                                                    
                                                                                                    
                                                                                                    
                           
<?xpacket end="w"?></metadata>
<defs>
    <style>
      .cls-1, .cls-2 {
        fill: #fffcdc;
      }

      .cls-1, .cls-2, .cls-3 {
        stroke: #2d267f;
        stroke-width: 1px;
        fill-rule: evenodd;
      }

      .cls-2 {
        stroke-miterlimit: 10;
      }

      .cls-3 {
        fill: #f99b46;
      }
    </style>
  </defs>
  <path id="图层_6" data-name="图层 6" class="cls-1" d="M121.035,70.665A29.465,29.465,0,1,1,91.571,41.2a29.465,29.465,0,0,1,29.465,29.465" transform="translate(-61.594 -40.688)"/>
  <path id="图层_12" data-name="图层 12" class="cls-2" d="M181,78.855q-0.052,1.341-.214,3.03T180.409,84.7a10.293,10.293,0,0,1-1.287,3.835,4.823,4.823,0,0,1-2.493,1.9,16.937,16.937,0,0,1-4.64.751q-1.34.108-3.914,0.108t-3.969-.108a13.106,13.106,0,0,1-4.343-.857,4.678,4.678,0,0,1-2.387-2.226,9.548,9.548,0,0,1-.777-4.264V73.117a33.449,33.449,0,0,1-6.731,10.592,59.492,59.492,0,0,1-11.825,9.411l-4.935-6.274a47.877,47.877,0,0,0,11.826-8.876,27.065,27.065,0,0,0,6.033-10.645h-14.8v-6.49h16.088q0.213-2.143.268-3.593v-4.5H139.169V46.356H175.9v6.382H159.6v4.987l-0.215,3.11h19.95v6.49H158.368l-0.536,2.145,5.631,0.215v12.28a2.942,2.942,0,0,0,.616,2.119,3.577,3.577,0,0,0,2.172.777q1.609,0.109,2.092.108,0.59,0,2.092-.108a9.525,9.525,0,0,0,2.091-.4,1.711,1.711,0,0,0,.939-0.777,7.149,7.149,0,0,0,.562-1.824,19.954,19.954,0,0,0,.3-2.253q0.133-1.5.135-2.574Zm39.686-9.224h3.325V67.539h-3.325v2.092Zm3.325-8.741h-3.325v2.145h3.325V60.89Zm-10.3,25.151h9.653V82.609h-9.653v3.432ZM207.706,53.7v9.332h7.616V60.89H209.1V55.955h6.221V53.7h-7.616Zm24.241,9.278v4.666h-3v6.918h-8.259v2.681h7.883v14H208.511v-14h6.811V74.565H209.1V69.631h6.221V67.539h-7.616a90.163,90.163,0,0,1-1.018,13.622A42.909,42.909,0,0,1,203.2,92l-5.31-2.628a44.131,44.131,0,0,0,2.9-6.731,35.439,35.439,0,0,0,1.448-6.784L198.8,79.391q-1.126-1.931-2.413-3.861V91.565h-5.524V78.319q-1.018,1.93-3.539,6.167l-4.613-4.075a50.761,50.761,0,0,0,7.241-12.5h-4.667V61.747h5.578V59.388l-3.914,1.448q-2.093-7.99-3.057-10.886l4.558-1.61q0.589,1.878,2.413,8.259V44.747l5.524,0.269V57.243l0.321-1.341q1.341-5.471,1.663-7.616l4.076,0.859q-0.375,2.2-1.153,5.711t-1.368,5.5l-3.539-.965v2.359h4.773v6.168h-4.773V70.6l1.716-1.449,1.823,2.468,2.414,3.324a88.352,88.352,0,0,0,.375-8.9V48.019h11.8l-0.965-3.861,6.436-.323,0.858,4.184h10.028V53.7H220.685v2.252h8.259v7.026h3Zm42.634-18.395,6.168,0.268V85.4a8.043,8.043,0,0,1-.671,3.646,4.213,4.213,0,0,1-2.172,1.931,14.822,14.822,0,0,1-4.237.912l-3.164.322-2.037-6.06,3.379-.322a9.249,9.249,0,0,0,1.742-.268,1.238,1.238,0,0,0,.751-0.617,3.172,3.172,0,0,0,.241-1.421V44.586Zm-7.883,4.4,5.255,0.269V79.928H266.7V48.983Zm-3.486,8.42A76.19,76.19,0,0,1,260.048,72.8q3.7,6.651,6.435,11.959l-5.256,3.433q-1.822-3.969-4.183-8.42a66.742,66.742,0,0,1-8.312,11.905l-5.042-4.183a47.256,47.256,0,0,0,9.869-14.319q-4.185-7.668-7.133-12.388l4.987-3q2.253,3.755,4.612,7.883a65.949,65.949,0,0,0,1.4-8.259H247.338V51.29h6.006q-0.591-3.646-1.287-6.382l5.845-.376a29.745,29.745,0,0,1,1.181,6.758h6.381V57.4h-2.252Zm-19.735-1.877a43.828,43.828,0,0,0-3.352-3.19,49.424,49.424,0,0,0-3.889-3.084l3.7-4.72a55.343,55.343,0,0,1,7.187,5.739Zm3.539,16.786q-0.375,2.2-2.628,9.841t-2.95,9.358l-6.113-1.877q0.8-1.984,3.083-9.546a98.182,98.182,0,0,0,2.6-9.653Zm-4.237-3.164a58.082,58.082,0,0,0-4.237-4.451,42.315,42.315,0,0,0-4.075-3.54l3.754-4.933q1.877,1.395,4.371,3.646a49.467,49.467,0,0,1,3.995,3.969Zm63.389-9.975v3.218h-6.7V43.835l6.7,0.322V56.492a53.538,53.538,0,0,0,3.861-6.7,39.477,39.477,0,0,0,2.575-6.65l6.543,1.984q-0.162.431-.376,1.073t-0.59,1.5H331.91v6.329h-10.4a61.809,61.809,0,0,1,7.884,5.309l-3.326,5.631-0.536-.482V80.571h-6.06V69.685H299.089V80.571h-7.025V63.624h32.392q-1.77-1.394-4.4-3.19t-4.5-2.977l2.467-3.432h-2.682a61.912,61.912,0,0,1-5.095,8.259ZM289.007,45.819l6.7,0.322V62.069h-6.7V45.819Zm44.137,35.127q-0.055.7-.644,4.237a11.9,11.9,0,0,1-1.233,3.862,4.066,4.066,0,0,1-2.2,1.742,17.135,17.135,0,0,1-4.451.671q-1.393.107-4.611,0.107t-4.612-.107a13.03,13.03,0,0,1-4.157-.8,4.307,4.307,0,0,1-2.253-2.091,9.151,9.151,0,0,1-.723-4.022V83.9a19.053,19.053,0,0,1-6.945,4.666,107.767,107.767,0,0,1-12.9,4.236l-2.306-6.649a81.787,81.787,0,0,0,10.162-2.708A19.182,19.182,0,0,0,302.2,80.3a9.192,9.192,0,0,0,2.9-4.29,26.01,26.01,0,0,0,.563-2.548,10.569,10.569,0,0,0,.241-2.333l6.6,0.322a27.165,27.165,0,0,1-.805,4.666l2.9,0.161v6.274a2.591,2.591,0,0,0,.563,2.012,5.277,5.277,0,0,0,2.44.67q1.5,0.108,2.306.107,0.912,0,2.414-.107a13.518,13.518,0,0,0,2.091-.349,1.647,1.647,0,0,0,.939-0.616,4.171,4.171,0,0,0,.51-1.341q0.266-1.5.482-3.915ZM367.2,54.829h7.133v-4.29H367.2v4.29Zm-0.054,31.212h7.079V80.356h-7.079v5.685Zm-5.791-40.865h18.716V60.3H361.353V45.176ZM345.96,86.041h6.7V80.356h-6.7v5.685ZM345.8,54.829h6.864v-4.29H345.8v4.29ZM382.214,78.48q-0.753-.106-2.145-0.429V91.3H361.3V75.316h9.386a31.5,31.5,0,0,1-10.565-6.811h-0.268a16.759,16.759,0,0,1-4.291,3.647,38.873,38.873,0,0,1-6.918,3.164h9.922V91.3h-18.5V78q-0.537.16-1.046,0.3t-0.992.3l-2.092-6.007q9.815-1.769,14.48-4.075h-12.12V63.088h17.162a14.911,14.911,0,0,0,1.018-2.788H339.9V45.176h18.663V60.085l4.987,0.858L362.8,63.088h5.631l-0.59-1.823,5.149-.858,0.912,2.681h7.83v5.417H368.7a25.289,25.289,0,0,0,6.14,2.225q3.674,0.886,9.359,1.8Z" transform="translate(-61.594 -40.688)"/>
  <path id="图层_13" data-name="图层 13" class="cls-3" d="M104.71,79.874c-0.285.391-.576,0.756-0.863,1.087l-0.365.418-0.391-.392L101.3,79.2l-0.553-.556-0.334-.335,0.3-.362c0.24-.286.466-0.583,0.671-0.883a11.8,11.8,0,1,0-20.814-2.626l8.287-8.286,0.365-.366,0.367,0.365,4.2,4.2,4.579-4.581,0.366-.366L99.1,65.764l2.429,2.429,0.365,0.366-0.365.366L94.2,76.25l-0.366.365-0.365-.365-4.312-4.31-6.641,6.641L81.9,79.2l-1.807,1.808-0.181.151H79.462l-0.155-.178a16.207,16.207,0,1,1,25.4-1.1M91.57,46.223a24.442,24.442,0,1,0,24.442,24.441A24.468,24.468,0,0,0,91.57,46.223" transform="translate(-61.594 -40.688)"/>
</svg>
