<svg id="主页" xmlns="http://www.w3.org/2000/svg" width="109" height="109" viewBox="0 0 109 109">
  <metadata><?xpacket begin="﻿" id="W5M0MpCehiHzreSzNTczkc9d"?>
<x:xmpmeta xmlns:x="adobe:ns:meta/" x:xmptk="Adobe XMP Core 5.6-c142 79.160924, 2017/07/13-01:06:39        ">
   <rdf:RDF xmlns:rdf="http://www.w3.org/1999/02/22-rdf-syntax-ns#">
      <rdf:Description rdf:about=""/>
   </rdf:RDF>
</x:xmpmeta>
                                                                                                    
                                                                                                    
                                                                                                    
                                                                                                    
                                                                                                    
                                                                                                    
                                                                                                    
                                                                                                    
                                                                                                    
                                                                                                    
                                                                                                    
                                                                                                    
                                                                                                    
                                                                                                    
                                                                                                    
                                                                                                    
                                                                                                    
                                                                                                    
                                                                                                    
                                                                                                    
                           
<?xpacket end="w"?></metadata>
<defs>
    <style>
      .cls-1 {
        fill: #fffcdc;
        stroke: #2d267f;
        stroke-width: 1px;
      }

      .cls-1, .cls-2 {
        fill-rule: evenodd;
      }

      .cls-2, .cls-3 {
        fill: #2d267f;
      }

      .cls-3 {
        font-size: 19.305px;
        font-family: AlibabaPuHuiTi_2_55_Regular, "Alibaba PuHuiTi 2.0";
      }
    </style>
  </defs>
  <path id="图层_100" data-name="图层 100" class="cls-1" d="M1780.46,173.391a54,54,0,1,1,54-54,54,54,0,0,1-54,54" transform="translate(-1725.97 -64.906)"/>
  <path id="图层_105" data-name="图层 105" class="cls-2" d="M1779.52,100.056l-12.18,8.352a1.671,1.671,0,0,0-.72,1.374v11.242a0.5,0.5,0,0,0,.5.508h9.07a0.51,0.51,0,0,0,.51-0.508V114.5a0.51,0.51,0,0,1,.51-0.508h6.51a0.5,0.5,0,0,1,.5.508v6.525a0.51,0.51,0,0,0,.51.508h9.07a0.51,0.51,0,0,0,.51-0.508V109.782a1.655,1.655,0,0,0-.73-1.374l-12.18-8.352a1.662,1.662,0,0,0-1.88,0m19.21,2.252-15.7-10.65a4.552,4.552,0,0,0-5.14,0l-15.7,10.651v5.2l18.12-12.289a0.276,0.276,0,0,1,.31,0l18.11,12.289v-5.2Z" transform="translate(-1725.97 -64.906)"/>
  <text id="主页-2" data-name="主页" class="cls-3" x="35.453" y="83.728">主页</text>
</svg>
