<svg id="字母" xmlns="http://www.w3.org/2000/svg" width="1325.531" height="185.719" viewBox="0 0 1325.531 185.719">
  <metadata><?xpacket begin="﻿" id="W5M0MpCehiHzreSzNTczkc9d"?>
<x:xmpmeta xmlns:x="adobe:ns:meta/" x:xmptk="Adobe XMP Core 5.6-c142 79.160924, 2017/07/13-01:06:39        ">
   <rdf:RDF xmlns:rdf="http://www.w3.org/1999/02/22-rdf-syntax-ns#">
      <rdf:Description rdf:about=""/>
   </rdf:RDF>
</x:xmpmeta>
                                                                                                    
                                                                                                    
                                                                                                    
                                                                                                    
                                                                                                    
                                                                                                    
                                                                                                    
                                                                                                    
                                                                                                    
                                                                                                    
                                                                                                    
                                                                                                    
                                                                                                    
                                                                                                    
                                                                                                    
                                                                                                    
                                                                                                    
                                                                                                    
                                                                                                    
                                                                                                    
                           
<?xpacket end="w"?></metadata>
<defs>
    <style>
      .cls-1 {
        fill: #fff;
      }

      .cls-1, .cls-3 {
        stroke: #2d267f;
        stroke-miterlimit: 10;
        stroke-width: 1px;
      }

      .cls-1, .cls-2, .cls-3 {
        fill-rule: evenodd;
      }

      .cls-2 {
        fill: #2d267f;
      }

      .cls-3 {
        fill: #f99b46;
      }
    </style>
  </defs>
  <path id="图层_15" data-name="图层 15" class="cls-1" d="M240.542,616.11v12.972l19.982,0v6.905H245.762a40.131,40.131,0,0,0-10.745-10.338A39.18,39.18,0,0,0,240.542,616.11ZM1027.2,635.989h-10.68v-6.7h10.68v6.7Zm163.69-6.906h8.57v6.905h-8.57v-6.906Zm-364.831.209h10.575v6.7h-12.5Zm-200.7,3.368c0.061-1.209.1-2.311,0.123-3.368h8.077l1.924,6.7h-10C625.46,634.945,625.421,633.855,625.36,632.66Zm739.35-26.328c0.08-1.075.13-2.158,0.13-3.251a55.614,55.614,0,0,0-.31-5.759,41.156,41.156,0,0,0,.31-4.954c0-16.187-6.67-29.145-19.29-37.474-11.68-7.707-27.98-11.453-49.83-11.453H1113.65v9.738c-7.96-6.4-18.66-9.738-31.84-9.738H942.7L942.627,557.2q-0.988-.936-2.034-1.832c-11.677-10.008-26.866-15.082-45.145-15.082-16.672,0-30.581,4.176-41.342,12.413a44.68,44.68,0,0,0-6.483,6.08V543.441H742.406v13.671H717.214V543.441H611.958L612,554.153h-0.041l0.094,24.721a82.613,82.613,0,0,0-11.73-14.243c-16.631-16.154-40.329-24.346-70.437-24.346s-53.807,8.192-70.437,24.346a80.58,80.58,0,0,0-23.029,41.7H425.77q0.128-1.613.128-3.251a55.326,55.326,0,0,0-.3-5.759,40.941,40.941,0,0,0,.3-4.954c0-16.187-6.67-29.145-19.289-37.474-11.678-7.707-27.978-11.453-49.832-11.453H240.542v28.617a40.043,40.043,0,0,0-15.862-17.991c-11.156-7.051-27.431-10.626-48.371-10.626H62.807V629.5H81.948v6.276H61.966v86.063H182.829c22.051,0,39.2-4.064,50.975-12.079a49.46,49.46,0,0,0,6.738-5.491v17.57H349.966V706.073a41.524,41.524,0,0,0,5.014,5.24C365.34,720.391,378.824,725,395.059,725c16.31,0,29.263-4.593,38.5-13.653,6.867-6.737,11.224-15.641,13.034-26.555a81.394,81.394,0,0,0,12.871,15.985C476.092,716.846,499.784,725,529.885,725c30.249,0,53.983-8.155,70.542-24.24a79.9,79.9,0,0,0,21.455-35.717v56.8H837.737V705.985l4.755,2.256c10.827,5.113,24.279,9.238,39.982,12.26A238.13,238.13,0,0,0,927.209,725a201.276,201.276,0,0,0,43.673-4.348c13.712-3.074,25.362-8.474,34.628-16.049,0.59-.479,1.15-0.969,1.71-1.465v18.708H1288.9V706.073a41.289,41.289,0,0,0,5.02,5.24C1304.28,720.391,1317.76,725,1334,725c16.31,0,29.26-4.593,38.5-13.653,9.29-9.114,14-22.185,14-38.849V606.332h-21.79Z" transform="translate(-61.469 -539.781)"/>
  <path id="图层_16" data-name="图层 16" class="cls-2" d="M145.665,641.223h32.747a10.961,10.961,0,0,1,7.257,2.2,6.658,6.658,0,0,1,2.562,5.308,6.581,6.581,0,0,1-2.858,5.5c-1.935,1.469-4.631,2.215-8.013,2.215h-31.7V641.223Zm48.1-5.18h-1.827v-2.6c13-.076,23.346-3.19,30.742-9.259,7.515-6.169,11.326-14.753,11.326-25.512,0-11.062-4.888-19.765-14.529-25.863-9.576-6.051-24.1-9.119-43.169-9.119H72.545v55.871H82.708a8.91,8.91,0,0,1,6.393,2.494,8.381,8.381,0,0,1,2.585,6.275v18.929a8.375,8.375,0,0,1-2.585,6.276,8.907,8.907,0,0,1-6.393,2.492h-11V711.9H182.829c20.06,0,35.367-3.5,45.5-10.392,10.189-6.932,15.356-16.62,15.356-28.8,0-24.329-16.793-36.665-49.916-36.665" transform="translate(-61.469 -539.781)"/>
  <path id="图层_17" data-name="图层 17" class="cls-2" d="M410.558,642.84c0,9.3-2.868,13.816-8.768,13.816A12.554,12.554,0,0,1,395,654.942a18.623,18.623,0,0,1-4.716-4.2,42.878,42.878,0,0,0-4.574-4.895,17.64,17.64,0,0,0-7.244-3.684,36.957,36.957,0,0,0-9.912-1.28h-2.668v-3.023h8.768c11.7,0,21.648-3.508,29.557-10.427,7.927-6.935,11.946-15.2,11.946-24.555,0-26-19.979-39.189-59.382-39.189h-106.5v55.451h11a8.726,8.726,0,0,1,6.386,2.592,8.476,8.476,0,0,1,2.592,6.176v19.561a8.373,8.373,0,0,1-2.585,6.275,8.9,8.9,0,0,1-6.393,2.494h-11V711.9h89.947V656.236H333.22a8.816,8.816,0,0,1-6.288-2.6,8.3,8.3,0,0,1-2.69-6.169V618.928h20.547c10.7,0,16.13,2.879,16.13,8.557a6.676,6.676,0,0,1-2.652,5.611,9.459,9.459,0,0,1-5.906,2.105h-2.1a8.579,8.579,0,0,0-3.608-5.692,12.254,12.254,0,0,0-7.353-2.3h0a11.537,11.537,0,0,0-7.02,2.639,8.1,8.1,0,0,0-2.906,6.472,9.474,9.474,0,0,0,3.107,7.409,11.153,11.153,0,0,0,7.686,2.753,11.9,11.9,0,0,0,5.476-1.163l2.03,21.515c0.561,17.03,5.182,29.462,13.733,36.949,8.531,7.477,19.855,11.268,33.66,11.268,13.669,0,24.329-3.655,31.681-10.866s11.083-17.946,11.083-31.9V626.578H410.558V642.84Z" transform="translate(-61.469 -539.781)"/>
  <path id="图层_18" data-name="图层 18" class="cls-2" d="M510.005,622.7c4.653-3.9,11.342-5.88,19.88-5.88,8.395,0,15.012,1.978,19.669,5.88a18.866,18.866,0,0,1,6.977,15.087,19.091,19.091,0,0,1-6.977,15.3c-4.657,3.9-11.274,5.88-19.669,5.88-8.538,0-15.227-1.978-19.88-5.88a19.081,19.081,0,0,1-6.977-15.3,18.858,18.858,0,0,1,6.977-15.087m19.88-62.173c-27.487,0-48.9,7.265-63.651,21.593S444,615.184,444,637.791c0,22.75,7.481,41.515,22.234,55.774s36.162,21.486,63.65,21.486c27.627,0,49.078-7.229,63.756-21.487s22.127-33.026,22.127-55.773c0-22.608-7.48-41.337-22.232-55.667s-36.165-21.593-63.651-21.593" transform="translate(-61.469 -539.781)"/>
  <path id="图层_19" data-name="图层 19" class="cls-2" d="M752.145,617.245h7.216c2.631,0,4.483.679,5.5,2.016a6.739,6.739,0,0,1,1.583,4.017,7.6,7.6,0,0,1-.4,2.395l-2.311,8.4a94.89,94.89,0,0,0-3.986,20.5l-3.116.163a203.983,203.983,0,0,0-4.158-21.266l-13.251-55.74-0.088-.375H720.7l-13.553,56.119c-1.778,7.791-3.173,14.942-4.146,21.261l-2.916-.161a98.5,98.5,0,0,0-3.982-20.491l-2.323-8.438a7.47,7.47,0,0,1-.395-2.37,7,7,0,0,1,1.487-4.028c0.95-1.331,2.833-2,5.6-2h7.008V563.687H621.734l0.214,55.661h12.684c4.144,0,6.813,2.158,8.156,6.589l6.112,21.279a8.606,8.606,0,0,1,.6,2.986,6.723,6.723,0,0,1-1.583,4.015c-1.021,1.339-2.943,2.018-5.712,2.018H631.621V711.9h90.368v-15.21a41.78,41.78,0,0,1,.412-6.852L725.557,673a179.362,179.362,0,0,0,2.741-29.884h3.235a179,179,0,0,0,2.742,29.891l3.154,16.824a42.054,42.054,0,0,1,.413,6.855V711.9H828V656.235H817.626c-2.9,0-4.858-.674-5.808-2.006a7.247,7.247,0,0,1-1.488-4.238,11.775,11.775,0,0,1,.4-2.811l6.1-21.252a8.8,8.8,0,0,1,8.365-6.58h12.687V563.687h-85.74v53.558Z" transform="translate(-61.469 -539.781)"/>
  <path id="图层_20" data-name="图层 20" class="cls-2" d="M1000.49,648.974c-7.322-5.632-16.313-9.308-26.722-10.928-10.353-1.606-20.805-2.775-31.067-3.475a221.891,221.891,0,0,1-26.338-3.148c-7-1.343-10.542-3.587-10.542-6.672,0-2.33,1.622-4.145,4.959-5.546,3.427-1.441,8.176-2.171,14.115-2.171,7.879,0,14.71,1.329,20.3,3.952,5.543,2.6,8.238,6.1,8.238,10.705v0.486l53.346,0.214v-68.7H952.386l-0.21,42.488h-3.028c-0.118-13.465-5.127-24.534-14.892-32.907-9.862-8.452-22.919-12.737-38.808-12.737-14.484,0-26.4,3.5-35.422,10.406-9.06,6.937-13.654,16.9-13.654,29.625,0,9.61,2.657,17.676,7.9,23.974a40.017,40.017,0,0,0,19.586,12.985,169.619,169.619,0,0,0,25.208,5.38,196.958,196.958,0,0,0,25.2,2,82.47,82.47,0,0,1,19.234,2.088c4.922,1.266,7.418,3.2,7.418,5.733,0,4.422-7.763,6.665-23.072,6.665a170.033,170.033,0,0,1-46.036-6.4c-15.072-4.235-26.721-9.9-34.622-16.83l-0.809-.708V699.1l0.279,0.132c10.09,4.766,22.762,8.636,37.662,11.5a228.306,228.306,0,0,0,42.9,4.32,191.69,191.69,0,0,0,41.543-4.112c12.217-2.739,22.511-7.478,30.6-14.087,8.143-6.656,12.273-14.992,12.273-24.776,0-9.647-3.74-17.419-11.13-23.1" transform="translate(-61.469 -539.781)"/>
  <path id="图层_21" data-name="图层 21" class="cls-2" d="M1126.75,646.416a9.566,9.566,0,0,1-2.69,7.22,9.07,9.07,0,0,1-6.5,2.6h-26.65V644.8h8.77c3.78,0,5.62,1.974,5.62,6.034v1.328h10.86V623.633H1105.3v1.328c0,4.2-1.84,6.244-5.62,6.244h-8.77V619.348h23.5a8.971,8.971,0,0,1,6.59,2.592,9.818,9.818,0,0,1,2.59,7.228v4.9H1178V563.687h-54.62v42.488h-2.81c-0.15-28.192-13.19-42.488-38.77-42.488h-64v55.661h10.16a8.845,8.845,0,0,1,6.29,2.6,8.21,8.21,0,0,1,2.69,6.17v19.351a8.316,8.316,0,0,1-2.69,6.169,8.822,8.822,0,0,1-6.29,2.6h-11.01V711.9h164.2V641.511h-54.4v4.905Z" transform="translate(-61.469 -539.781)"/>
  <path id="图层_22" data-name="图层 22" class="cls-2" d="M1349.5,626.578V642.84c0,9.3-2.87,13.816-8.77,13.816a12.574,12.574,0,0,1-6.79-1.714,18.779,18.779,0,0,1-4.72-4.2,43.015,43.015,0,0,0-4.57-4.895,17.609,17.609,0,0,0-7.24-3.684,37,37,0,0,0-9.92-1.28h-2.66v-3.023h8.76c11.71,0,21.65-3.508,29.56-10.427,7.93-6.935,11.95-15.2,11.95-24.555,0-26-19.98-39.189-59.38-39.189h-106.5v55.451h11a8.721,8.721,0,0,1,6.39,2.592,8.474,8.474,0,0,1,2.59,6.176v19.561a8.391,8.391,0,0,1-2.58,6.275,8.94,8.94,0,0,1-6.4,2.494h-11V711.9h89.95V656.236h-7.01a8.822,8.822,0,0,1-6.29-2.6,8.281,8.281,0,0,1-2.69-6.169V618.928h20.55c10.7,0,16.13,2.879,16.13,8.557a6.667,6.667,0,0,1-2.66,5.611,9.433,9.433,0,0,1-5.9,2.105h-2.1a8.622,8.622,0,0,0-3.61-5.692,12.249,12.249,0,0,0-7.35-2.3h-0.01a11.547,11.547,0,0,0-7.02,2.638,8.092,8.092,0,0,0-2.9,6.472,9.475,9.475,0,0,0,3.1,7.409,11.157,11.157,0,0,0,7.69,2.753,11.875,11.875,0,0,0,5.47-1.163l2.03,21.515c0.57,17.03,5.19,29.462,13.74,36.949,8.53,7.477,19.85,11.268,33.66,11.268,13.67,0,24.33-3.655,31.68-10.866s11.08-17.946,11.08-31.9V626.578H1349.5Z" transform="translate(-61.469 -539.781)"/>
  <path id="图层_31" data-name="图层 31" class="cls-3" d="M145.178,646.219H177.36q5.254,0,8.308-2.313a7.1,7.1,0,0,0,3.05-5.89,7.181,7.181,0,0,0-2.734-5.679q-2.738-2.313-7.573-2.314H145.178v16.2ZM170.839,621.4a9.328,9.328,0,0,0,6.311-2,6.072,6.072,0,0,0,2.313-4.733,5.906,5.906,0,0,0-2.524-4.732,10.91,10.91,0,0,0-6.942-2H145.178V621.4h25.661ZM72.191,645.8H82.708a9.336,9.336,0,0,0,6.731-2.63,8.81,8.81,0,0,0,2.734-6.625v-18.93a8.818,8.818,0,0,0-2.734-6.626,9.348,9.348,0,0,0-6.731-2.629H73.033v-54.9H176.308q28.6,0,42.909,9.045t14.3,25.451q0,15.987-11.148,25.135t-30.92,9.149v3.577h2.314q49.425,0,49.43,36.177,0,18.093-15.145,28.4T182.828,700.7H72.191V645.8Zm189.094,0.21a9.339,9.339,0,0,0,6.73-2.629,8.81,8.81,0,0,0,2.735-6.626V617.193a8.911,8.911,0,0,0-2.735-6.521,9.16,9.16,0,0,0-6.73-2.734H250.766V553.46H356.777q58.893,0,58.9,38.7,0,13.882-11.779,24.189t-29.237,10.306H365.4v4h3.154a36.321,36.321,0,0,1,9.783,1.261,17.091,17.091,0,0,1,7.046,3.576,41.923,41.923,0,0,1,4.522,4.838,18.991,18.991,0,0,0,4.838,4.312,12.966,12.966,0,0,0,7.046,1.787q9.253,0,9.255-14.3V616.351h26.292v45.222q0,20.825-10.938,31.551t-31.342,10.728q-20.615,0-33.336-11.149t-13.567-36.6l-2.1-22.3a10.786,10.786,0,0,1-5.89,1.472,10.64,10.64,0,0,1-7.362-2.628,8.972,8.972,0,0,1-2.945-7.047,7.6,7.6,0,0,1,2.735-6.1,11.006,11.006,0,0,1,6.73-2.524,11.7,11.7,0,0,1,7.047,2.209,8.076,8.076,0,0,1,3.471,5.784h2.523a9.9,9.9,0,0,0,6.206-2.208,7.192,7.192,0,0,0,2.839-6q0-9.042-16.616-9.044H323.755v29.026a8.741,8.741,0,0,0,2.839,6.521,9.252,9.252,0,0,0,6.627,2.734h6.518V700.7H250.766V646.009h10.519ZM502.54,627.078a19.462,19.462,0,0,0,7.152,15.67q7.148,6,20.192,6,12.828,0,19.982-6a19.47,19.47,0,0,0,7.152-15.67,19.253,19.253,0,0,0-7.152-15.46q-7.152-5.994-19.982-5.994-13.044,0-20.192,5.994a19.245,19.245,0,0,0-7.152,15.46M466.573,571.76Q488.658,550.3,529.884,550.3T593.2,571.76q22.084,21.453,22.085,55.318,0,34.075-21.98,55.424t-63.417,21.349q-41.228,0-63.311-21.349t-22.086-55.424q0-33.862,22.086-55.318m240.415-18.3v52.584h-6.521q-4.417,0-6,2.209a7.451,7.451,0,0,0-1.577,4.312,7.87,7.87,0,0,0,.421,2.524l2.314,8.413a96.718,96.718,0,0,1,4,20.824l3.786,0.21q1.468-9.672,4.207-21.664l13.461-55.74h17.669L752,622.872a201.092,201.092,0,0,1,4.207,21.664l4-.21a93.516,93.516,0,0,1,4-20.824l2.314-8.413a7.952,7.952,0,0,0,.42-2.524,7.167,7.167,0,0,0-1.682-4.312q-1.686-2.208-5.89-2.209h-6.73V553.46H837.4v54.688H825.2a9.287,9.287,0,0,0-8.834,6.941l-6.1,21.244a12.252,12.252,0,0,0-.421,2.945,7.7,7.7,0,0,0,1.578,4.522q1.577,2.21,6.205,2.209h9.885V700.7H738.328V685.973a42.3,42.3,0,0,0-.421-6.942l-3.155-16.826a177.2,177.2,0,0,1-2.735-30.289H727.81a177.6,177.6,0,0,1-2.734,30.289l-3.154,16.826a41.741,41.741,0,0,0-.421,6.942V700.7H632.107V646.009h10.1q4.416,0,6.1-2.209a7.158,7.158,0,0,0,1.683-4.312,9.048,9.048,0,0,0-.631-3.155l-6.1-21.244q-2.106-6.941-8.624-6.941h-12.2l-0.21-54.688h84.767ZM846.86,589.849q0-18.93,13.462-29.237t35.126-10.306q23.768,0,38.492,12.62t14.724,33.023h4l0.21-42.489h53.43v67.729l-52.378-.21q0-7.149-8.519-11.148t-20.508-4q-9.045,0-14.3,2.209t-5.258,5.994q0,5.049,10.937,7.152a221.79,221.79,0,0,0,26.4,3.155q15.459,1.054,31.024,3.471t26.507,10.832q10.935,8.415,10.93,22.717,0,14.512-12.091,24.4T968.645,699.75a190.19,190.19,0,0,1-41.436,4.1,226.781,226.781,0,0,1-42.8-4.312q-22.4-4.309-37.546-11.463v-62.26q11.989,10.52,34.812,16.931a169.7,169.7,0,0,0,46.167,6.416q23.556,0,23.559-7.151,0-4.206-7.783-6.206a82.53,82.53,0,0,0-19.351-2.1,195.379,195.379,0,0,1-25.135-2,168.507,168.507,0,0,1-25.135-5.364,39.354,39.354,0,0,1-19.352-12.83q-7.784-9.357-7.782-23.663m170.58,56.16h10.52a9.241,9.241,0,0,0,6.62-2.734,8.717,8.717,0,0,0,2.84-6.521V617.4a8.716,8.716,0,0,0-2.84-6.52,9.25,9.25,0,0,0-6.62-2.735h-9.68V553.46h63.52q38.28,0,38.29,42.488h3.78V553.46h53.64v69.412h-53.43v-4.418a10.244,10.244,0,0,0-2.73-7.571,9.428,9.428,0,0,0-6.94-2.735h-23.98v12.831h9.25q6.1,0,6.1-6.731v-0.842h9.89v27.555h-9.89v-0.842q0-6.516-6.1-6.52h-9.25v12.41h27.13a9.512,9.512,0,0,0,6.84-2.734,10.026,10.026,0,0,0,2.84-7.573v-4.417h53.42V700.7H1017.44V646.009Zm182.78,0a9.334,9.334,0,0,0,6.73-2.629,8.818,8.818,0,0,0,2.74-6.626V617.193a8.92,8.92,0,0,0-2.74-6.521,9.155,9.155,0,0,0-6.73-2.734H1189.7V553.46h106.01q58.9,0,58.9,38.7,0,13.882-11.78,24.189t-29.24,10.306h-9.25v4h3.15a36.358,36.358,0,0,1,9.79,1.261,17.064,17.064,0,0,1,7.04,3.576,41.728,41.728,0,0,1,4.52,4.838,19.067,19.067,0,0,0,4.84,4.312,12.966,12.966,0,0,0,7.05,1.787q9.255,0,9.25-14.3V616.351h26.29v45.222q0,20.825-10.93,31.551-10.95,10.728-31.34,10.728-20.625,0-33.34-11.149-12.735-11.145-13.57-36.6l-2.1-22.3a10.8,10.8,0,0,1-5.89,1.472,10.619,10.619,0,0,1-7.36-2.628,8.959,8.959,0,0,1-2.95-7.047,7.586,7.586,0,0,1,2.74-6.1,10.992,10.992,0,0,1,6.73-2.524,11.68,11.68,0,0,1,7.04,2.209,8.069,8.069,0,0,1,3.47,5.784h2.53a9.878,9.878,0,0,0,6.2-2.208,7.174,7.174,0,0,0,2.84-6q0-9.042-16.61-9.044h-21.04v29.026a8.753,8.753,0,0,0,2.84,6.521,9.247,9.247,0,0,0,6.63,2.734h6.52V700.7H1189.7V646.009h10.52Z" transform="translate(-61.469 -539.781)"/>
</svg>
