<svg id="小七" xmlns="http://www.w3.org/2000/svg" width="470.4" height="373.875" viewBox="0 0 470.4 373.875">
  <metadata><?xpacket begin="﻿" id="W5M0MpCehiHzreSzNTczkc9d"?>
<x:xmpmeta xmlns:x="adobe:ns:meta/" x:xmptk="Adobe XMP Core 5.6-c142 79.160924, 2017/07/13-01:06:39        ">
   <rdf:RDF xmlns:rdf="http://www.w3.org/1999/02/22-rdf-syntax-ns#">
      <rdf:Description rdf:about=""/>
   </rdf:RDF>
</x:xmpmeta>
                                                                                                    
                                                                                                    
                                                                                                    
                                                                                                    
                                                                                                    
                                                                                                    
                                                                                                    
                                                                                                    
                                                                                                    
                                                                                                    
                                                                                                    
                                                                                                    
                                                                                                    
                                                                                                    
                                                                                                    
                                                                                                    
                                                                                                    
                                                                                                    
                                                                                                    
                                                                                                    
                           
<?xpacket end="w"?></metadata>
<defs>
    <style>
      .cls-1, .cls-10 {
        fill: #fff;
      }

      .cls-1, .cls-10, .cls-2, .cls-3, .cls-4, .cls-5, .cls-6, .cls-7, .cls-8, .cls-9 {
        fill-rule: evenodd;
      }

      .cls-2 {
        fill: none;
      }

      .cls-10, .cls-2, .cls-3, .cls-7, .cls-8, .cls-9 {
        stroke: #2d267f;
        stroke-miterlimit: 10;
        stroke-width: 1px;
      }

      .cls-3, .cls-4 {
        fill: #f99b46;
      }

      .cls-5 {
        fill: #1a1856;
      }

      .cls-6 {
        fill: #4e5868;
      }

      .cls-7 {
        fill: #d1dbe0;
      }

      .cls-8 {
        fill: #f7d77f;
      }

      .cls-9 {
        fill: #f4e08c;
      }
    </style>
  </defs>
  <path id="图层_106" data-name="图层 106" class="cls-1" d="M1845.49,707.848h0M1653.17,886.606c-59.16,0-102.95-8.27-133.87-25.281-18.32-10.076-32.41-23.479-41.89-39.836-10.18-17.543-15.33-38.991-15.33-63.746a295.394,295.394,0,0,1,2.57-39.168c-4.98-.239-8.17-1.254-10.2-3.2a7.242,7.242,0,0,1-2.24-6.105,31.533,31.533,0,0,1,3.94-11.224c-14.04-5.454-36.1-15.994-37.46-28.755-0.27-2.569.18-6.525,3.88-10.789,7.24-8.332,25.15-15.636,48.79-20.065-8.63-10.625-11.81-18.611-9.97-24.8,1.01-3.4,3.94-7.695,12.2-8.871a129.034,129.034,0,0,1,19.6-1.115c-8.38-26.229-4.17-54.623,11.28-72.611,9.07-10.556,20.15-16.345,32.94-17.206,18.01-1.211,38.57,7.445,61.1,25.734a14.268,14.268,0,0,1,16.78-2.169l4.23,2.35a186.122,186.122,0,0,1,67.16.08l4.37-2.43a14.276,14.276,0,0,1,16.79,2.166c22.52-18.285,43.05-26.932,61.08-25.732,12.8,0.862,23.88,6.651,32.95,17.207,15.44,17.98,19.66,46.378,11.28,72.6a130,130,0,0,1,18.41,1.123c8.26,1.176,11.2,5.473,12.2,8.871,1.83,6.142-1.29,14.051-9.77,24.557,24.3,4.4,42.7,11.791,50.1,20.308,3.7,4.264,4.16,8.22,3.88,10.789-1.36,12.762-23.42,23.3-37.46,28.756a31.733,31.733,0,0,1,3.95,11.226,7.284,7.284,0,0,1-2.25,6.105c-2.08,2-5.4,3.02-10.63,3.221a284.486,284.486,0,0,1,2.68,39.149c0,24.755-5.15,46.2-15.33,63.746-9.48,16.357-23.58,29.76-41.89,39.836-30.92,17.011-74.71,25.281-133.87,25.281" transform="translate(-1418.13 -513.219)"/>
  <path id="图层_107" data-name="图层 107" class="cls-2" d="M1845.49,707.848h0ZM1653.17,886.606c-59.16,0-102.95-8.27-133.87-25.281-18.32-10.076-32.41-23.479-41.89-39.836-10.18-17.543-15.33-38.991-15.33-63.746a295.394,295.394,0,0,1,2.57-39.168c-4.98-.239-8.17-1.254-10.2-3.2a7.242,7.242,0,0,1-2.24-6.105,31.533,31.533,0,0,1,3.94-11.224c-14.04-5.454-36.1-15.994-37.46-28.755-0.27-2.569.18-6.525,3.88-10.789,7.24-8.332,25.15-15.636,48.79-20.065-8.63-10.625-11.81-18.611-9.97-24.8,1.01-3.4,3.94-7.695,12.2-8.871a129.034,129.034,0,0,1,19.6-1.115c-8.38-26.229-4.17-54.623,11.28-72.611,9.07-10.556,20.15-16.345,32.94-17.206,18.01-1.211,38.57,7.445,61.1,25.734a14.268,14.268,0,0,1,16.78-2.169l4.23,2.35a186.122,186.122,0,0,1,67.16.08l4.37-2.43a14.276,14.276,0,0,1,16.79,2.166c22.52-18.285,43.05-26.932,61.08-25.732,12.8,0.862,23.88,6.651,32.95,17.207,15.44,17.98,19.66,46.378,11.28,72.6a130,130,0,0,1,18.41,1.123c8.26,1.176,11.2,5.473,12.2,8.871,1.83,6.142-1.29,14.051-9.77,24.557,24.3,4.4,42.7,11.791,50.1,20.308,3.7,4.264,4.16,8.22,3.88,10.789-1.36,12.762-23.42,23.3-37.46,28.756a31.733,31.733,0,0,1,3.95,11.226,7.284,7.284,0,0,1-2.25,6.105c-2.08,2-5.4,3.02-10.63,3.221a284.486,284.486,0,0,1,2.68,39.149c0,24.755-5.15,46.2-15.33,63.746-9.48,16.357-23.58,29.76-41.89,39.836C1756.12,878.336,1712.33,886.606,1653.17,886.606Z" transform="translate(-1418.13 -513.219)"/>
  <path id="图层_108" data-name="图层 108" class="cls-3" d="M1517.64,613.679s-19.66-2.676-36.91-.218c-25.06,3.569,19.54,42.592,19.54,42.592l30.15-8.846Z" transform="translate(-1418.13 -513.219)"/>
  <path id="图层_109" data-name="图层 109" class="cls-3" d="M1787.57,613.679s19.65-2.676,36.91-.218c25.06,3.569-19.55,42.592-19.55,42.592l-30.14-8.846Z" transform="translate(-1418.13 -513.219)"/>
  <path id="图层_110" data-name="图层 110" class="cls-4" d="M1604.15,555.451c28.34,25.186,22.1,52.96,1.77,76.618s-65.31,27.812-88.87-1.9c-20.02-25.253-23.54-65.977-3.22-89.635s51.88-19.25,90.32,14.914" transform="translate(-1418.13 -513.219)"/>
  <path id="图层_111" data-name="图层 111" class="cls-2" d="M1604.15,555.451c28.34,25.186,22.1,52.96,1.77,76.618s-65.31,27.812-88.87-1.9c-20.02-25.253-23.54-65.977-3.22-89.635S1565.71,521.287,1604.15,555.451Z" transform="translate(-1418.13 -513.219)"/>
  <path id="图层_112" data-name="图层 112" class="cls-5" d="M1575.4,565.383c13.83,11.881,17.12,30.735,7.35,42.112s-28.91,10.969-42.74-.912-13.16-34.367-3.38-45.744,24.94-7.337,38.77,4.544" transform="translate(-1418.13 -513.219)"/>
  <path id="图层_113" data-name="图层 113" class="cls-4" d="M1702.2,555.451c-28.34,25.186-22.09,52.96-1.77,76.618s65.31,27.812,88.87-1.9c20.02-25.253,23.54-65.977,3.22-89.635s-51.88-19.25-90.32,14.914" transform="translate(-1418.13 -513.219)"/>
  <path id="图层_114" data-name="图层 114" class="cls-2" d="M1702.2,555.451c-28.34,25.186-22.09,52.96-1.77,76.618s65.31,27.812,88.87-1.9c20.02-25.253,23.54-65.977,3.22-89.635S1740.64,521.287,1702.2,555.451Z" transform="translate(-1418.13 -513.219)"/>
  <path id="图层_115" data-name="图层 115" class="cls-5" d="M1730.95,565.383c-13.83,11.881-17.12,30.735-7.35,42.112s28.91,10.969,42.74-.912,13.16-34.367,3.39-45.744-24.95-7.337-38.78,4.544" transform="translate(-1418.13 -513.219)"/>
  <path id="图层_116" data-name="图层 116" class="cls-4" d="M1832.12,755.7c0,95.312-80.12,118.92-178.94,118.92s-178.95-23.608-178.95-118.92c0-126.795,80.12-207.814,178.95-207.814s178.94,83.968,178.94,207.814" transform="translate(-1418.13 -513.219)"/>
  <path id="图层_117" data-name="图层 117" class="cls-6" d="M1782.27,752.611c0,71.319-57.82,76.434-129.13,76.434s-129.99-5.115-129.99-76.434,58.71-118.373,130.03-118.373,129.09,47.053,129.09,118.373" transform="translate(-1418.13 -513.219)"/>
  <path id="图层_118" data-name="图层 118" class="cls-2" d="M1782.27,752.611c0,71.319-57.82,76.434-129.13,76.434s-129.99-5.115-129.99-76.434,58.71-118.373,130.03-118.373S1782.27,681.291,1782.27,752.611Z" transform="translate(-1418.13 -513.219)"/>
  <path id="图层_119" data-name="图层 119" class="cls-7" d="M1652.73,723.725c-28.28-9.192-76.4-24.8-110.23-35.722-12.25,17.969-19.35,39.821-19.35,64.609,0,49.361,28.11,67.005,69.06,73.193,15.42-4.752,32.67-14.2,51.9-30.212h17.25c19.3,16.081,36.6,25.542,52.07,30.277,40.94-6.128,68.84-23.72,68.84-73.258,0-24.82-7-46.7-19.13-64.679C1729.27,698.862,1681.04,714.547,1652.73,723.725Z" transform="translate(-1418.13 -513.219)"/>
  <path id="图层_120" data-name="图层 120" class="cls-8" d="M1645.99,802.556l-3.05-8.519a15.245,15.245,0,0,1,.29-11.041l2.9-6.92a7.132,7.132,0,0,1,13.16,0l2.9,6.92a15.245,15.245,0,0,1,.29,11.041l-3.05,8.519A7.138,7.138,0,0,1,1645.99,802.556Z" transform="translate(-1418.13 -513.219)"/>
  <path id="图层_121" data-name="图层 121" class="cls-9" d="M1626.61,757l-76.65-25.215a2.747,2.747,0,0,0-3.6,2.479c-0.32,7.171.21,23.746,10.27,36.662,12.88,16.539,53.61,25.834,71.59-10.109A2.747,2.747,0,0,0,1626.61,757Z" transform="translate(-1418.13 -513.219)"/>
  <path id="图层_122" data-name="图层 122" class="cls-5" d="M1562.6,735.4c-0.15,1.626-.24,3.282-0.24,4.967,0,20.809,11.81,37.678,26.38,37.678,11.64,0,21.51-10.777,25.01-25.725Z" transform="translate(-1418.13 -513.219)"/>
  <path id="图层_123" data-name="图层 123" class="cls-9" d="M1678.81,757l76.65-25.215a2.747,2.747,0,0,1,3.6,2.479c0.32,7.171-.21,23.746-10.27,36.662-12.88,16.539-53.61,25.834-71.59-10.109A2.747,2.747,0,0,1,1678.81,757Z" transform="translate(-1418.13 -513.219)"/>
  <path id="图层_124" data-name="图层 124" class="cls-5" d="M1742.82,735.4c0.15,1.626.24,3.282,0.24,4.967,0,20.809-11.81,37.678-26.38,37.678-11.64,0-21.51-10.777-25.01-25.725Z" transform="translate(-1418.13 -513.219)"/>
  <path id="图层_125" data-name="图层 125" class="cls-2" d="M1832.12,755.7c0,95.312-80.12,118.92-178.94,118.92s-178.95-23.608-178.95-118.92c0-95.951,45.88-165.688,111.03-193.938a170.062,170.062,0,0,1,67.92-13.876C1752,547.885,1832.12,631.853,1832.12,755.7Z" transform="translate(-1418.13 -513.219)"/>
  <path id="图层_126" data-name="图层 126" class="cls-5" d="M1636.1,581.584c0,9.418-6.6,17.053-14.74,17.053s-14.74-7.635-14.74-17.053,6.6-17.052,14.74-17.052,14.74,7.634,14.74,17.052" transform="translate(-1418.13 -513.219)"/>
  <path id="图层_127" data-name="图层 127" class="cls-5" d="M1699.73,581.584c0,9.418-6.6,17.053-14.74,17.053s-14.74-7.635-14.74-17.053,6.6-17.052,14.74-17.052,14.74,7.634,14.74,17.052" transform="translate(-1418.13 -513.219)"/>
  <path id="图层_128" data-name="图层 128" class="cls-10" d="M1609.88,641.562c0.25,1,6.43,20.9,10.52,34.042,1.34,4.308,5.85,4.335,7.22.048l10.95-34.09h-28.69Z" transform="translate(-1418.13 -513.219)"/>
  <path id="图层_129" data-name="图层 129" class="cls-10" d="M1667.78,641.562c0.25,1,6.44,20.9,10.53,34.042,1.34,4.308,5.84,4.335,7.22.048l10.94-34.09h-28.69Z" transform="translate(-1418.13 -513.219)"/>
  <path id="图层_130" data-name="图层 130" class="cls-1" d="M1709.87,643.236c0,14.362-13.75,10.885-56.94,10.885s-56.1.128-56.1-14.234,13.15-35.036,56.35-35.036,56.69,24.023,56.69,38.385" transform="translate(-1418.13 -513.219)"/>
  <path id="图层_131" data-name="图层 131" class="cls-2" d="M1709.87,643.236c0,14.362-13.75,10.885-56.94,10.885s-56.1.128-56.1-14.234,13.15-35.036,56.35-35.036S1709.87,628.874,1709.87,643.236Z" transform="translate(-1418.13 -513.219)"/>
  <path id="图层_132" data-name="图层 132" class="cls-5" d="M1674.37,607.9c0,8.792-9.49,13.152-21.19,13.152s-21.2-4.36-21.2-13.152,9.49-16.388,21.2-16.388,21.19,7.6,21.19,16.388" transform="translate(-1418.13 -513.219)"/>
  <path id="图层_133" data-name="图层 133" class="cls-1" d="M1669.9,577.541a8.362,8.362,0,0,0,5.26-.972l25.3-14.07a8.373,8.373,0,0,0-8.14-14.635l-25.3,14.07a8.373,8.373,0,0,0,2.88,15.607" transform="translate(-1418.13 -513.219)"/>
  <path id="图层_134" data-name="图层 134" class="cls-2" d="M1669.9,577.541a8.362,8.362,0,0,0,5.26-.972l25.3-14.07a8.373,8.373,0,0,0-8.14-14.635l-25.3,14.07A8.373,8.373,0,0,0,1669.9,577.541Z" transform="translate(-1418.13 -513.219)"/>
  <path id="图层_135" data-name="图层 135" class="cls-1" d="M1636.45,577.541a8.362,8.362,0,0,1-5.26-.972L1605.9,562.5a8.371,8.371,0,1,1,8.13-14.635l25.3,14.07a8.373,8.373,0,0,1-2.88,15.607" transform="translate(-1418.13 -513.219)"/>
  <path id="图层_136" data-name="图层 136" class="cls-2" d="M1636.45,577.541a8.362,8.362,0,0,1-5.26-.972L1605.9,562.5a8.371,8.371,0,1,1,8.13-14.635l25.3,14.07A8.373,8.373,0,0,1,1636.45,577.541Z" transform="translate(-1418.13 -513.219)"/>
  <path id="图层_137" data-name="图层 137" class="cls-3" d="M1513.83,642.074c-43.57,1.5-82.84,14.914-81.47,27.74s38.88,25.555,38.88,25.555-5.9,7.864-6.55,14.132c-0.55,5.219,19.98,2.3,19.98,2.3" transform="translate(-1418.13 -513.219)"/>
  <path id="图层_138" data-name="图层 138" class="cls-3" d="M1792.83,642.074c43.58,1.5,82.84,14.914,81.47,27.74s-38.87,25.555-38.87,25.555,5.89,7.864,6.55,14.132c0.54,5.219-19.99,2.3-19.99,2.3" transform="translate(-1418.13 -513.219)"/>
  <path id="图层_139" data-name="图层 139" class="cls-5" d="M1474.23,748.163s11.41-21.115,27.52-25.494c8.84-2.4-17.95,29.415-21.3,75.466-7.54-23.444-6.22-49.972-6.22-49.972" transform="translate(-1418.13 -513.219)"/>
  <path id="图层_140" data-name="图层 140" class="cls-5" d="M1500.54,780.552c-7.91,5-15.75,13.2-18.58,20.667a91.608,91.608,0,0,0,13.95,24.387c0.45-35.007,10.44-48.722,4.63-45.054" transform="translate(-1418.13 -513.219)"/>
  <path id="图层_141" data-name="图层 141" class="cls-5" d="M1832.03,748.163s-11.41-21.115-27.52-25.494c-8.84-2.4,17.95,29.415,21.3,75.466,7.54-23.444,6.22-49.972,6.22-49.972" transform="translate(-1418.13 -513.219)"/>
  <path id="图层_142" data-name="图层 142" class="cls-5" d="M1805.72,780.552c7.92,5,15.76,13.2,18.58,20.667a91.855,91.855,0,0,1-13.94,24.387c-0.45-35.007-10.45-48.722-4.64-45.054" transform="translate(-1418.13 -513.219)"/>
</svg>
