<svg id="按钮_开始答题" data-name="按钮 开始答题" xmlns="http://www.w3.org/2000/svg" width="693.25" height="145" viewBox="0 0 693.25 145">
  <metadata><?xpacket begin="﻿" id="W5M0MpCehiHzreSzNTczkc9d"?>
<x:xmpmeta xmlns:x="adobe:ns:meta/" x:xmptk="Adobe XMP Core 5.6-c142 79.160924, 2017/07/13-01:06:39        ">
   <rdf:RDF xmlns:rdf="http://www.w3.org/1999/02/22-rdf-syntax-ns#">
      <rdf:Description rdf:about=""/>
   </rdf:RDF>
</x:xmpmeta>
                                                                                                    
                                                                                                    
                                                                                                    
                                                                                                    
                                                                                                    
                                                                                                    
                                                                                                    
                                                                                                    
                                                                                                    
                                                                                                    
                                                                                                    
                                                                                                    
                                                                                                    
                                                                                                    
                                                                                                    
                                                                                                    
                                                                                                    
                                                                                                    
                                                                                                    
                                                                                                    
                           
<?xpacket end="w"?></metadata>
<defs>
    <style>
      .cls-1 {
        fill: #fff;
      }

      .cls-1, .cls-2 {
        stroke: #2d267f;
        stroke-miterlimit: 10;
        stroke-width: 1px;
      }

      .cls-1, .cls-2, .cls-3, .cls-4 {
        fill-rule: evenodd;
      }

      .cls-2 {
        fill: #f99b46;
      }

      .cls-3 {
        fill: #2d267f;
      }

      .cls-4 {
        fill: #fffcdc;
      }
    </style>
  </defs>
  <path id="图层_32" data-name="图层 32" class="cls-1" d="M725.361,888.015H90.832a28.9,28.9,0,0,1-28.866-28.866V772.861A28.9,28.9,0,0,1,90.832,744H725.361a28.9,28.9,0,0,1,28.866,28.866v86.288A28.9,28.9,0,0,1,725.361,888.015Z" transform="translate(-61.469 -743.5)"/>
  <path id="图层_33" data-name="图层 33" class="cls-2" d="M721.269,879.288H94.924a24.232,24.232,0,0,1-24.231-24.231v-78.1a24.232,24.232,0,0,1,24.231-24.231H721.269A24.231,24.231,0,0,1,745.5,776.953v78.1A24.231,24.231,0,0,1,721.269,879.288Z" transform="translate(-61.469 -743.5)"/>
  <path id="图层_34" data-name="图层 34" class="cls-3" d="M721.269,879.288H619.755V752.722H721.269A24.231,24.231,0,0,1,745.5,776.953v78.1a24.231,24.231,0,0,1-24.231,24.231" transform="translate(-61.469 -743.5)"/>
  <path id="图层_38" data-name="图层 38" class="cls-1" d="M137.179,812.525H152.13v-14.8H137.179v14.8Zm40.221,0v12.186H164.914V851.7H152.13V824.711H136.805a57.382,57.382,0,0,1-2.056,11.513,31.609,31.609,0,0,1-4.112,8.672,48.034,48.034,0,0,1-6.99,7.925l-12.783-6.43q6.576-5.231,9.457-9.98a28.932,28.932,0,0,0,3.7-11.7H110.04V812.525h14.43v-14.8H114.228V785.612h58.836v12.111h-8.15v14.8H177.4Zm59.358,16.3H224.722v10.99h12.036v-10.99Zm-39.1-24.073q-0.823,6.431-2.692,16.148,1.571,1.2,3.215,2.617a80.731,80.731,0,0,0,3.065-18.765h-3.588Zm15.923,13.008h34.39v33.119h-34.39V837.794l-7.027,10.99q-3.739-4.038-6.878-7.177-2.768,4.11-8.373,11.064l-9.345-7.326a115.714,115.714,0,0,0,9.644-11.588q-5.01-4.858-8.3-7.551,2.616-10.839,4.111-21.456H183.23V793.237h5.607q0.6-7.625.823-10.765l11.138,0.6q-0.075,1.869-.522,7.775l-0.225,2.392h10.691v9.794a13.321,13.321,0,0,0,2.879-2.131,14.935,14.935,0,0,0,2.279-3.1,101.441,101.441,0,0,0,7.178-15.7l12.185,1.645q-1.794,4.26-4.373,9.344a90.3,90.3,0,0,1-5.047,8.823q5.681-.374,7.7-0.524l2.318-.149a62.034,62.034,0,0,0-3.962-7.626l8.9-4.187q2.316,3.59,5.831,9.906t5.907,11.251l-9.719,6.355-1.047-2.467q-0.824-1.944-.972-2.243-14.28.9-20.259,1.5a64.545,64.545,0,0,0-7.776,1.047l-2.018-9.2a118.351,118.351,0,0,1-1.757,13.793,58.389,58.389,0,0,1-3.177,10.8q5.084,4.561,7.774,7.252V817.758Zm84.628-1.943a52.453,52.453,0,0,1-8.972-5.309,66.313,66.313,0,0,1-9.344,5.309H298.21Zm5.682,20.26H274.437v5.906h29.455v-5.906Zm11.812,14.8h-53.08V827.1H315.7v23.773Zm-44.931-54.126a65.876,65.876,0,0,1-5.682,9.644l-10.167-6.056a80.867,80.867,0,0,0,5.457-8.56,69.783,69.783,0,0,0,4.411-9.157l12.036,0.448q-0.672,1.945-1.346,3.439h12.785v9.719q1.794-3.364,3.364-7.1a65.259,65.259,0,0,0,2.392-6.5L305.985,783l-1.271,3.514h17.718v10.242h-8.448q1.644,2.842,3.439,6.8l-11.438,1.42a80.4,80.4,0,0,0-3.588-8.223H300.3q-0.6,1.272-2.542,5.009L287,798.47l0.972-1.719H282.36q1.122,2.169,2.094,4.486l-10.765,1.42a48.342,48.342,0,0,0-2.168-5.906h-0.748Zm24.97,5.756a58.306,58.306,0,0,0,12.821,6.392,94.9,94.9,0,0,0,15.886,4.449l-4.186,11.064q-5.085-1.419-10.915-3.663v2.916h-40.37v-3.29q-4.336,1.645-10.99,3.664L253.653,813.2a109.717,109.717,0,0,0,15.512-4.448,77.945,77.945,0,0,0,13.195-6.243h13.383Zm89.636,37.156-6.952-6.13q-2.692,3.44-8.673,6.354Q377.53,839.887,385.379,839.663Zm-12.934-41.492q0.523-1.346,1.2-3.663H363.4V784.341h30.726v10.167H383.884l-1.5,3.663h10.616v27.213h-7.85V806.993H371.7v18.615h-7.4V798.171h8.148Zm-19.288,41.417h0.151q3.812,0.151,11.437.3l-3.887-5.906v1.795h-7.7v3.812Zm-11.811-35.959h8.224v-2.691h-8.224v2.691Zm8.223-11.812h-8.224v2.616h8.224v-2.616Zm-18.316-7.85h28.782v26.988H331.253V783.967Zm58.687,55.547,7.252-.374L394.351,850.2q-11.59.6-21.756,0.6-9.72,0-19.438-.448a26.146,26.146,0,0,1-9.494-1.907,15.375,15.375,0,0,1-6.5-5.644,93.712,93.712,0,0,1-3.963,9.046l-6.578-6.43q2.316-5.755,3.588-10.092a42.374,42.374,0,0,0,1.5-10.242l8.747,1.2L340,830.916a14.017,14.017,0,0,0,3.514,5.831V823.515h-14.5V814.17H362.2v9.345h-9.046v3.738h7.7v5.457a39.746,39.746,0,0,0,8.634-4.074,10.61,10.61,0,0,0,4.037-5.009,24.022,24.022,0,0,0,1.16-8.336v-6.429l7.55,0.3v8.971a42.049,42.049,0,0,1-.374,6.355q8.3,5.457,12.112,8.373Z" transform="translate(-61.469 -743.5)"/>
  <path id="图层_39" data-name="图层 39" class="cls-4" d="M698.3,819.914l-23.125,19.238a3.492,3.492,0,0,1-5.725-2.685V797.991a3.492,3.492,0,0,1,5.725-2.684L698.3,814.545a3.492,3.492,0,0,1,0,5.369" transform="translate(-61.469 -743.5)"/>
</svg>
