<svg id="按钮_继续答题" data-name="按钮 继续答题" xmlns="http://www.w3.org/2000/svg" width="693.282" height="145" viewBox="0 0 693.282 145">
  <metadata><?xpacket begin="﻿" id="W5M0MpCehiHzreSzNTczkc9d"?>
<x:xmpmeta xmlns:x="adobe:ns:meta/" x:xmptk="Adobe XMP Core 5.6-c142 79.160924, 2017/07/13-01:06:39        ">
   <rdf:RDF xmlns:rdf="http://www.w3.org/1999/02/22-rdf-syntax-ns#">
      <rdf:Description rdf:about=""/>
   </rdf:RDF>
</x:xmpmeta>
                                                                                                    
                                                                                                    
                                                                                                    
                                                                                                    
                                                                                                    
                                                                                                    
                                                                                                    
                                                                                                    
                                                                                                    
                                                                                                    
                                                                                                    
                                                                                                    
                                                                                                    
                                                                                                    
                                                                                                    
                                                                                                    
                                                                                                    
                                                                                                    
                                                                                                    
                                                                                                    
                           
<?xpacket end="w"?></metadata>
<defs>
    <style>
      .cls-1 {
        fill: #fff;
      }

      .cls-1, .cls-2 {
        stroke: #2d267f;
        stroke-miterlimit: 10;
        stroke-width: 1px;
      }

      .cls-1, .cls-2, .cls-3, .cls-4 {
        fill-rule: evenodd;
      }

      .cls-2 {
        fill: #f99b46;
      }

      .cls-3 {
        fill: #2d267f;
      }

      .cls-4 {
        fill: #fffcdc;
      }
    </style>
  </defs>
  <path id="图层_171" data-name="图层 171" class="cls-1" d="M725.971,735.982H91.442a28.9,28.9,0,0,1-28.866-28.866V620.828a28.9,28.9,0,0,1,28.866-28.866H725.971a28.9,28.9,0,0,1,28.866,28.866v86.288A28.9,28.9,0,0,1,725.971,735.982Z" transform="translate(-62.063 -591.469)"/>
  <path id="图层_172" data-name="图层 172" class="cls-2" d="M721.879,727.255H95.534A24.231,24.231,0,0,1,71.3,703.024v-78.1a24.231,24.231,0,0,1,24.231-24.231H721.879A24.231,24.231,0,0,1,746.11,624.92v78.1A24.231,24.231,0,0,1,721.879,727.255Z" transform="translate(-62.063 -591.469)"/>
  <path id="图层_173" data-name="图层 173" class="cls-3" d="M721.879,727.255H620.365V600.689H721.879A24.231,24.231,0,0,1,746.11,624.92v78.1a24.231,24.231,0,0,1-24.231,24.231" transform="translate(-62.063 -591.469)"/>
  <path id="图层_177" data-name="图层 177" class="cls-1" d="M146.087,675.221v12.484h10.541V676.567a62.979,62.979,0,0,1-6.8,8.522Zm4.411-24q-2.243-6.055-4.411-10.99v32.894a44.726,44.726,0,0,0,8-8.9h-6.354V653.017h8.9v-4.561Zm16.522,36.482h12.037v11.514H135.621v-47.1q-2.169,4.636-4.822,9.532t-4.524,7.737a31.285,31.285,0,0,0,4.038-.261q2.017-.263,2.392-0.261v10.765q-3.215.223-12.111,1.271-2.916.375-6.355,0.971l-2.168-11.737a8.76,8.76,0,0,0,2.878-1.27,9.614,9.614,0,0,0,2.281-2.468,45.88,45.88,0,0,0,3.214-5.383l-3.513.225a23.588,23.588,0,0,0-4.037.523l-2.168-11.214a7.409,7.409,0,0,0,1.906-1.421,17.051,17.051,0,0,0,1.906-2.616,50.636,50.636,0,0,0,3.178-6.392q2.13-4.821,3.7-9.158l9.5,3.439a82.826,82.826,0,0,1-4.112,8.149q-2.991,5.382-4.859,8.373h4.411q1.642-3.289,2.691-5.906l6.579,2.99v-14.13l10.466,0.3v3.813l5.981-2.542q1.047,2.242,4.56,10.616v-14.13l10.392,0.3v13.681q2.391-5.607,3.963-10.616l7.027,3.215-2.168,5.382q-2.768,6.8-2.916,7.1l-5.906-2.84v4.859h9.794v11.214H167.02v5.009l2.84-2.841a126.966,126.966,0,0,1,9.271,9.345l-7.252,8q-2.842-3.513-4.859-5.681v9.643Zm-56.668-1.046q9.793-.822,22.877-2.243L133.3,696.3q-16.6,1.867-22.353,2.393ZM185.41,661.24l-2.243-11.064a7.862,7.862,0,0,0,2.056-1.458,14.6,14.6,0,0,0,1.981-2.729,65.994,65.994,0,0,0,3.364-6.766q2.242-4.971,3.813-9.233l9.5,3.589q-1.421,3.215-4.15,8.448t-4.448,8l4.187-.3,0.748-1.5q2.166-4.486,2.616-5.607l8.148,3.738h12.785V642.55H211.277v-8.373h12.485v-3.738l10.839,0.3v3.439h13.383v8.373H234.6v3.813h15.028v10.018l-1.645,9.794-7.476-.973,1.421-9.27H217.407a65.746,65.746,0,0,1,9.644,3.813l-2.318,6.28q-2.243-1.122-6.317-2.766t-6.167-2.243l2.317-5.084h-4.635v-6.953q-2.169,4.413-5.419,10.056t-5.571,9.232q2.169-.224,4.225-0.485t3.475-.561v10.765q-5.157.6-13.083,1.944-3.962.6-6.728,1.271l-2.317-11.439a12.409,12.409,0,0,0,3.1-1.569,10.221,10.221,0,0,0,2.356-2.542,42.648,42.648,0,0,0,3.663-5.532l-3.888.373Q186.6,660.942,185.41,661.24Zm66.013,21.979H235.8a3.011,3.011,0,0,1-.3.673q3.364,1.272,7.551,3.29t7.027,3.663l-3.813,9.5a73.89,73.89,0,0,0-7.438-4.6,92.042,92.042,0,0,0-8.784-4.374,33.5,33.5,0,0,1-7.589,4.822,99.557,99.557,0,0,1-11.625,4.524l-3.514-6.205-23.1,3.364-1.2-12.037q10.99-1.346,22.354-2.991l2.467-.3,0.224,8.074a65.406,65.406,0,0,0,9.906-3.4,15.792,15.792,0,0,0,5.569-4H208.511v-9.943h9.943a86.556,86.556,0,0,0-8.6-3.588l2.767-5.906a79.322,79.322,0,0,1,12.185,4.785l-1.794,4.709h4.261q0.3-2.166.524-5.98l0.149-1.869q0.15-1.8.225-3.962t0.074-3.663l10.467,0.3-0.15,5.757q-0.15,5.907-.6,9.419h13.456v9.943Zm47.4-19.437a52.457,52.457,0,0,1-8.972-5.308,66.425,66.425,0,0,1-9.344,5.308H298.82Zm5.682,20.26H275.047v5.906H304.5v-5.906Zm11.812,14.8h-53.08V675.072h53.08v23.773Zm-44.931-54.126a65.912,65.912,0,0,1-5.682,9.643l-10.167-6.056a80.947,80.947,0,0,0,5.457-8.559,69.79,69.79,0,0,0,4.411-9.158l12.036,0.448q-0.672,1.945-1.346,3.439h12.785V644.2q1.794-3.365,3.364-7.1a65.259,65.259,0,0,0,2.392-6.5l11.962,0.374-1.271,3.513h17.718v10.243h-8.448q1.644,2.841,3.439,6.8L306.6,652.942a80.3,80.3,0,0,0-3.588-8.223h-2.094q-0.6,1.27-2.542,5.008l-10.765-3.289,0.972-1.719H282.97q1.122,2.167,2.094,4.485l-10.765,1.42a48.284,48.284,0,0,0-2.168-5.9h-0.748Zm24.97,5.755a58.3,58.3,0,0,0,12.821,6.393,94.989,94.989,0,0,0,15.886,4.448l-4.186,11.065q-5.085-1.421-10.915-3.664v2.916h-40.37v-3.289q-4.337,1.644-10.99,3.663l-4.336-10.841a109.717,109.717,0,0,0,15.512-4.448,77.945,77.945,0,0,0,13.2-6.243h13.383Zm89.636,37.157-6.952-6.131q-2.692,3.439-8.673,6.355Q378.14,687.855,385.989,687.631Zm-12.934-41.492q0.523-1.346,1.2-3.663H364.01V632.309h30.726v10.167H384.494l-1.5,3.663h10.616v27.213h-7.85V654.961H372.308v18.615h-7.4V646.139h8.148Zm-19.288,41.417h0.151q3.812,0.15,11.437.3l-3.887-5.906v1.794h-7.7v3.813ZM341.956,651.6h8.224v-2.691h-8.224V651.6Zm8.223-11.813h-8.224V642.4h8.224v-2.617Zm-18.316-7.849h28.782v26.988H331.863V631.935Zm58.687,55.547,7.252-.374-2.841,11.064q-11.591.6-21.756,0.6-9.72,0-19.438-.449a26.147,26.147,0,0,1-9.494-1.906,15.375,15.375,0,0,1-6.5-5.644,93.82,93.82,0,0,1-3.963,9.046l-6.578-6.43q2.316-5.755,3.588-10.092a42.389,42.389,0,0,0,1.5-10.242l8.747,1.2-0.448,4.635a14.017,14.017,0,0,0,3.514,5.831V671.483h-14.5v-9.345h33.193v9.345h-9.046v3.738h7.7v5.457A39.793,39.793,0,0,0,370.1,676.6a10.615,10.615,0,0,0,4.037-5.009,24.026,24.026,0,0,0,1.16-8.336V656.83l7.55,0.3V666.1a42.043,42.043,0,0,1-.374,6.354q8.3,5.458,12.112,8.373Z" transform="translate(-62.063 -591.469)"/>
  <path id="图层_178" data-name="图层 178" class="cls-4" d="M698.913,667.881l-23.125,19.238a3.492,3.492,0,0,1-5.725-2.685V645.958a3.492,3.492,0,0,1,5.725-2.684l23.125,19.238a3.492,3.492,0,0,1,0,5.369" transform="translate(-62.063 -591.469)"/>
</svg>
