<svg id="标题" xmlns="http://www.w3.org/2000/svg" width="866.691" height="517.875" viewBox="0 0 866.691 517.875">
  <metadata><?xpacket begin="﻿" id="W5M0MpCehiHzreSzNTczkc9d"?>
<x:xmpmeta xmlns:x="adobe:ns:meta/" x:xmptk="Adobe XMP Core 5.6-c142 79.160924, 2017/07/13-01:06:39        ">
   <rdf:RDF xmlns:rdf="http://www.w3.org/1999/02/22-rdf-syntax-ns#">
      <rdf:Description rdf:about=""/>
   </rdf:RDF>
</x:xmpmeta>
                                                                                                    
                                                                                                    
                                                                                                    
                                                                                                    
                                                                                                    
                                                                                                    
                                                                                                    
                                                                                                    
                                                                                                    
                                                                                                    
                                                                                                    
                                                                                                    
                                                                                                    
                                                                                                    
                                                                                                    
                                                                                                    
                                                                                                    
                                                                                                    
                                                                                                    
                                                                                                    
                           
<?xpacket end="w"?></metadata>
<defs>
    <style>
      .cls-1 {
        fill: #f99b46;
      }

      .cls-1, .cls-2, .cls-4 {
        stroke: #2d267f;
        stroke-miterlimit: 10;
        stroke-width: 1px;
      }

      .cls-1, .cls-2, .cls-3, .cls-4 {
        fill-rule: evenodd;
      }

      .cls-2 {
        fill: #fffed7;
      }

      .cls-3 {
        fill: #2d267f;
      }

      .cls-4 {
        fill: #fff;
      }
    </style>
  </defs>
  <path id="图层_143" data-name="图层 143" class="cls-1" d="M801.06,434.2L789.648,436.6c0.076,0.4,1.75,9.857-6.971,20.666-10.852,13.45-38.427,29.816-108.084,32l-0.176-15.439-21,21.49,21.485,21-0.176-15.4c60.145-1.854,99.655-14.236,117.424-36.832C804.068,448.93,801.189,434.8,801.06,434.2Z" transform="translate(-652.719 -54.188)"/>
  <path id="图层_144" data-name="图层 144" class="cls-2" d="M1519.15,571.6L1186.93,379.278c61.17-27.042,99.39-65.469,99.39-108.108,0-81.864-140.84-148.227-314.576-148.227S657.162,189.306,657.162,271.17,798.005,419.4,971.744,419.4c47.116,0,91.8-4.889,131.916-13.635Z" transform="translate(-652.719 -54.188)"/>
  <path id="图层_148" data-name="图层 148" class="cls-1" d="M754.592,149.148l-24.161,4.916-0.053-15.674,26.875-5.468q7.491-1.524,11.318,1.557t3.849,10.429l0.01,2.816c0,0.49-.02.985-0.06,1.483s-0.062.953-.06,1.36l0.129-.026q0.063,18.858,3.466,31.337t9.374,19.6a27.236,27.236,0,0,0,14.125,9.258,38.411,38.411,0,0,0,17.584.221l5.685-1.157,0.051,15.307-6.848,1.393q-18.477,3.759-31.358-1.462t-20.3-20.01Q757.683,222.654,745.369,233t-31.434,14.237l-6.848,1.393-0.052-15.306,5.685-1.156a44.839,44.839,0,0,0,16.784-7.214,46.356,46.356,0,0,0,13.332-14.843,80.7,80.7,0,0,0,8.714-23.278q3.12-13.806,3.059-32.665ZM919.5,129.81l-77.651,15.8,0.042,12.613-16.022,3.26-0.1-29.267,16.021-3.259,0.01,2.939,4.522-.92q-2.08-3.373-4.223-6.738t-3.055-4.648l13.806-8.568q0.518,0.878,1.754,2.645t2.793,4.088q1.558,2.32,3.248,4.854T863.9,127.4l11.628-2.366q-1.043-2.238-2.084-4.661t-2.019-4.491q-0.975-2.067-1.758-3.747c-0.52-1.12-.956-1.97-1.3-2.553l14.843-7.555q0.519,1.121,1.5,3.127t2.278,4.56q1.3,2.556,2.734,5.632t2.865,6.218l5.039-1.025q2.825-5.475,5.393-11.33T907.376,98.7l15.524,2.6q-1.413,3.352-3.272,7.467t-3.658,8.035l6.33-1.288q7.235-1.471,10.219,1.045t3,7.416l0.05,15.185-16.021,3.259Zm-27.618,53.9,0.017,5.144a33.223,33.223,0,0,1-.751,7.5,20.292,20.292,0,0,1-2.822,6.518,33.048,33.048,0,0,1-5.8,6.509,111.975,111.975,0,0,1-9.542,7.456l-9.605-11.4q3.351-2.274,5.545-4.069a19.834,19.834,0,0,0,3.415-3.452,11.066,11.066,0,0,0,1.734-3.355,12.957,12.957,0,0,0,.5-3.778l-0.013-3.552-49.355,10.042-0.048-14.2,49.356-10.042-0.015-4.653,16.38-12.156-45.352,9.227-0.045-13.469,64.99-13.223q3.747-.762,5.951.811a6.834,6.834,0,0,1,2.794,4.088,10.406,10.406,0,0,1-4.039,10.441l-19.733,14.675,40.313-8.2,0.047,14.2Zm145.514-19.68q-1.95-5.85-4.76-13.674t-5.94-16.008q-3.12-8.185-6.19-15.956t-5.54-13.761l15.74-8.105q2.475,5.258,5.67,12.633t6.52,15.4q3.315,8.025,6.38,15.977t5.42,14.339Zm-31.43-82.565,0.28,84.982a35.7,35.7,0,0,1-.68,7.369,19.27,19.27,0,0,1-2.63,6.356,30.678,30.678,0,0,1-5.349,6.111,82.116,82.116,0,0,1-8.834,6.76l-9.6-11.035a33.29,33.29,0,0,0,7.735-6.72,11.306,11.306,0,0,0,2.3-7.086l-0.278-83.267ZM975.817,112.1q-1.654,8.055-3.952,16.8t-5.113,17.521q-2.815,8.784-6.02,17.276t-6.67,15.939l-16.3-2.81q3.468-7.322,6.607-15.558t5.762-16.674q2.622-8.436,4.664-16.633t3.439-15.465ZM1125.07,88.232c1.29-1.488,2.55-3.011,3.8-4.572s2.46-3.2,3.67-4.912l-21.32,4.337,0.02,7.96Zm12.31,48.1-41.47,8.438q-16.29,3.312-12.96-9l0.76-2.851q-5.3,1.936-10.65,3.454t-10.79,2.624l-6.85,1.393-0.04-14.939,5.55-1.131q25.32-5.151,44.67-18.647l-49.22,10.016-0.05-13.47,37.47-7.623-0.03-7.96-25.19,5.127-0.05-13.47,25.2-5.126-0.04-10.776,17.45-3.549,0.03,10.776,23.26-4.732,0.04,11.143a115.639,115.639,0,0,0,11.04-21.118l17.33-.216q-3.465,8.058-7.45,15.3a145.4,145.4,0,0,1-8.62,13.823l22.87-4.652,0.05,13.469-36.18,7.361q-1.8,1.838-3.54,3.539t-3.55,3.417l35.28-7.177,0.04,12.858-59.95,12.2-1.4,6.167,44.06-8.964q4.9-.752,7.63,1.572c1.81,1.551,2.73,4.04,2.74,7.468l0.03,7.837a26.761,26.761,0,0,1-.89,7.164,20.735,20.735,0,0,1-3.08,6.386,32.51,32.51,0,0,1-5.86,6.217,93.688,93.688,0,0,1-9.22,6.655l-8.83-11.193q5.8-3.633,8.12-6.554a10.589,10.589,0,0,0,2.31-6.84Z" transform="translate(-652.719 -54.188)"/>
  <path id="图层_154" data-name="图层 154" class="cls-3" d="M780.624,332.3l13.309-2.708-0.024-7.1L780.6,325.2Zm-0.085-25.47,0.022,6.245,13.307-2.708-0.02-6.245Zm-24.661-28.925,0.018,5.633,34.11-6.94-0.019-5.633ZM752.2,338.087l13.437-2.734-0.025-7.1-13.436,2.734Zm-0.064-19.225,13.436-2.734-0.02-6.245-13.438,2.734Zm37.909-30.627-34.11,6.94,0.008,2.449-14.987,3.049-0.115-34.164,14.988-3.049,0.008,2.448,38.245-7.78q5.3-.831,8.28,1.624t3,7.966l0.067,19.838-15.375,3.128Zm-53.988-22.1-0.044-13.226,71.061-14.458,0.044,13.226Zm59.558,25.255q7.235-1.471,10.087.828t2.876,9.4l0.136,40.41-14.73,3-0.011-3.429-41.734,8.491,0.012,3.429-14.73,3-0.143-42.981-6.179,8.119q-1.816-1.345-3.564-2.767t-3.566-2.767l0.145,43.1-15.246,3.1-0.13-38.817q-2.192,2.531-4.315,5.044t-4.572,5.1l-8.573-11.734a119.1,119.1,0,0,0,8.308-9.655q3.924-5.086,7.206-10.166t5.979-9.856q2.7-4.776,4.755-8.748l-20.156,4.1-0.047-13.96,13.825-2.812q-1.562-3.113-3.448-6.468t-3.317-5.758l13.808-8.078q0.907,1.533,2.017,3.511t2.339,4.119q1.236,2.137,2.342,4.3t2.018,3.818l-3.356,2.03,1.422-.289a10.183,10.183,0,0,1,5.819.225,7.306,7.306,0,0,1,3.565,2.889,9.01,9.01,0,0,1,1.309,4.635,11.794,11.794,0,0,1-1.211,5.393q-2.184,4.488-4.367,8.915t-4.753,8.871q2.72,1.651,5.894,3.64t6.025,3.86l-0.01-3.184Zm129.672-79.808,0.285,85.35a22.87,22.87,0,0,1-4.672,14.123q-4.7,6.285-14.117,12.123l-9.606-11.4a42.118,42.118,0,0,0,8.9-7.14,10.481,10.481,0,0,0,2.95-7.034l-0.275-82.655ZM883.974,229.79l16.539-3.364,0.244,73.226-16.538,3.365Zm-8.4,41.287q0.045,13.473.265,21.268t0.621,11.636q0.4,3.843,1.05,4.75a1.468,1.468,0,0,0,1.554.725l2.454-.5,0.05,14.816-3.618.736q-6.2,1.263-9.762-.1t-5.323-6.881q-1.766-5.523-2.252-15.962t-0.544-27.337Zm-57.127-32.612,32.172-6.546q4.392-.893,5.874-2.6a6.64,6.64,0,0,0,1.472-4.527l21.318-4.337q0.034,10.41-5.311,16.458t-18.006,8.627l-0.388.079,0.029,8.939,23-4.68,0.05,14.939-23,4.68,0.208,62.45-16.279,3.313-0.209-62.451-22.869,4.653-0.05-14.939,22.869-4.653-0.029-8.939-20.8,4.232Zm16.428,40.893q0.038,11.268-.128,19.693T834.024,313.6a63.184,63.184,0,0,1-1.646,10.2,18.977,18.977,0,0,1-3.081,6.692,13.927,13.927,0,0,1-4.9,4.06,28.627,28.627,0,0,1-7.039,2.29l-3.617.736-0.05-14.816,2.455-.5a2.4,2.4,0,0,0,1.547-1.356,16.118,16.118,0,0,0,1.017-5.17q0.375-4,.543-11.874t0.122-21.346Zm211.69,13.174-31.52,6.414a43.555,43.555,0,0,1-9.44,1.062,10.607,10.607,0,0,1-6.013-1.717,8.705,8.705,0,0,1-3.185-5.111,36.9,36.9,0,0,1-.935-9l-0.294-87.92,16.8-3.417,0.29,86.451c0,1.879.35,3.012,1.04,3.4s2.12,0.366,4.27-.072l28.94-5.888ZM971.537,200.58l0.065,19.47,18.735-3.811,0.05,15.061-18.735,3.812,0.055,16.164q4.9-2.345,9.358-4.417t7.94-3.759l0.954,14.633q-3.229,1.515-8,3.65t-10.2,4.709l0.068,20.45a29.312,29.312,0,0,1-.943,7.728,22.909,22.909,0,0,1-3.145,6.827,36.322,36.322,0,0,1-5.732,6.5,69.521,69.521,0,0,1-8.705,6.611l-8.96-11.655q6.063-3.929,8.379-7.1a12.007,12.007,0,0,0,2.3-7.331l-0.047-14.2L936,282.926l-2.764-14.388q3.742-1.617,9.425-4.123t12.265-5.437l-0.069-20.449-19.381,3.943-0.049-15.061,19.379-3.943L954.741,204Zm135.843,64.876,16.8-3.418-0.04-11.511-16.8,3.418Zm-0.08-25.1,16.79-3.418-0.03-11.388-16.8,3.418Zm-0.09-24.735,16.8-3.418-0.04-11.388-16.79,3.417Zm-18.07,47.789q-2.97,1.707-7.87,4.481t-10.32,5.715q-5.43,2.942-10.65,5.781t-8.84,4.678l-4.96-13.817,14.59-7.012-0.13-37.347-11.37,2.313-0.05-15.062,11.37-2.313-0.08-25.715,15.76-3.207,0.09,25.715,8.78-1.788,0.02,6.857a3.8,3.8,0,0,0,2.26-1.5,5.427,5.427,0,0,0,.96-3.441l-0.09-28.287,16.02-3.26,0.05,14.817,22.48-4.574q-1.95-2.421-4.03-4.756t-3.5-3.883l12.64-10.045,12.33,14.156-1.68,1.321,16.93-3.444,0.04,13.715-20.93,4.259,0.04,11.388,18.86-3.838,0.05,13.347-18.87,3.838,0.04,11.388,18.86-3.838,0.05,13.593-18.86,3.837,0.04,11.511,22.61-4.6,0.04,13.714-54.39,11.067,0.01,3.184-15.38,3.128-0.2-59.267a31.5,31.5,0,0,1-5.55,1.621l-2.84.578-0.03-7.1-6.71,1.368,0.1,32.571,8.14-4.349Zm84.59-29.708-1.51-66.229,20.41-4.153-1.07,66.755Zm19.96,13.34a11.828,11.828,0,0,1-3.08,7.978,13.951,13.951,0,0,1-7.87,4.787,9.479,9.479,0,0,1-7.89-1.58,7.9,7.9,0,0,1-3.26-6.69,11.94,11.94,0,0,1,3.21-8.25,14.009,14.009,0,0,1,7.87-4.419,9.572,9.572,0,0,1,7.83,1.348,7.932,7.932,0,0,1,3.19,6.826m11.18-19.675-1.52-66.229,20.42-4.153-1.07,66.755Zm19.95,13.34a11.817,11.817,0,0,1-3.07,7.978,13.951,13.951,0,0,1-7.87,4.787,9.476,9.476,0,0,1-7.89-1.58,7.875,7.875,0,0,1-3.26-6.69,11.972,11.972,0,0,1,3.2-8.249,14.064,14.064,0,0,1,7.88-4.42,9.538,9.538,0,0,1,7.82,1.349,7.9,7.9,0,0,1,3.19,6.825" transform="translate(-652.719 -54.188)"/>
  <path id="图层_157" data-name="图层 157" class="cls-4" d="M915.94,385.428l-0.894-39.1,12.053-2.452-0.632,39.412Zm11.782,7.876a6.978,6.978,0,0,1-1.816,4.711,8.244,8.244,0,0,1-4.648,2.827,5.6,5.6,0,0,1-4.659-.934,4.659,4.659,0,0,1-1.922-3.95,7.046,7.046,0,0,1,1.893-4.87,8.286,8.286,0,0,1,4.647-2.609,5.64,5.64,0,0,1,4.621.8,4.674,4.674,0,0,1,1.884,4.029m6.6-11.616-0.894-39.1,12.053-2.452-0.632,39.412Zm11.782,7.876a6.982,6.982,0,0,1-1.815,4.711,8.242,8.242,0,0,1-4.648,2.826,5.6,5.6,0,0,1-4.659-.933,4.659,4.659,0,0,1-1.922-3.95,7.05,7.05,0,0,1,1.892-4.87,8.293,8.293,0,0,1,4.647-2.61,5.643,5.643,0,0,1,4.621.8,4.671,4.671,0,0,1,1.884,4.029M750.494,377.852q-0.607,1.137-1.138,2.076t-1.062,1.844l13.961-2.84q4.119-.839,5.725.209t1.618,4.013l0,1.59a23.4,23.4,0,0,1-1.31,7.646,19.442,19.442,0,0,1-4.975,7.487,36.532,36.532,0,0,1-10.207,6.67,76.55,76.55,0,0,1-16.929,5.181l-4.425.9-0.027-8.169,4.882-.994a53.438,53.438,0,0,0,11.363-3.432,28.374,28.374,0,0,0,6.932-4.233,12.551,12.551,0,0,0,3.458-4.5,11.1,11.1,0,0,0,.941-4.242l-16.172,3.29q1.986,0.827,3.974,1.724t3.746,1.7l-5.624,7.222-7.954-4.387q-1.139,1.317-2.509,2.682l-6.123-4.326q2.434-2.666,4.3-5.034t3.42-4.675q1.557-2.306,2.923-4.682t2.809-5.057Zm-20.03,36.2,9.841-2,0,2.024q0,0.579,0,1.085a7.18,7.18,0,0,1-.071,1.027l27.156-5.525,0.028,8.1L742.4,423.846a14.941,14.941,0,0,0,8.948,4.872,34.767,34.767,0,0,0,12.976-.506l4.119-.838,0.027,8.242-4.805.978q-18.995,3.864-27.572-4.157a27.124,27.124,0,0,1-10.006,9.378q-6.591,3.765-17.347,5.954l-4.806.978-0.027-8.243,4.119-.838a41.719,41.719,0,0,0,12.962-4.626,18.354,18.354,0,0,0,7.529-8.369l-24.029,4.889-0.027-8.1,25.936-5.277a7.488,7.488,0,0,0,.073-1.027c0-.337,0-0.7,0-1.085Zm-11.394-5.712-3.769,2.72q-2.1,1.512-4.113,2.935t-3.579,2.609q-1.563,1.187-2.093,1.584l-3.613-7.3q0.686-.428,2.667-1.7t4.493-2.9q2.514-1.632,5.218-3.412t4.76-3.212l-0.011-3.326-6.469,5.8q-1.227-1.486-2.223-2.767t-2.031-2.553q-1.035-1.272-2.147-2.6t-2.49-3l7-5.621q1.148,1.214,2.106,2.321t1.954,2.207q1,1.1,2.032,2.263t2.259,2.651L718.984,382.6l9.383-1.909,0.116,34.63-9.384,1.909ZM818.132,402l0.038,11.351,11.29-2.3L829.423,399.7Zm11.355,17.079-11.291,2.3,0.009,2.457-9.459,1.925L808.64,393.8l9.459-1.925,0.007,2.025,13.731-2.794a6.172,6.172,0,0,1,5.078.739,5.17,5.17,0,0,1,1.885,4.428l0.078,23.351-9.383,1.91Zm-38.614-42.063,0.029,8.531,31.125-6.333-0.03-8.53Zm-6.916,31.937L784,420.3l11.061-2.251-0.037-11.35Zm38.1-21.5-31.125,6.332,0.008,2.024-9.765,1.987-0.1-28.92,9.764-1.986,0.007,1.88,32.268-6.566q4.27-.868,6.454.786t2.193,5.558l0.063,18.943-9.764,1.986Zm-26.971,38.622-11.061,2.25,0.008,2.458-9.459,1.924-0.107-31.955,9.459-1.924,0.008,2.024,13.654-2.778q3.2-.653,5,0.755a5.316,5.316,0,0,1,1.81,4.442l0.077,23.352-9.383,1.91Zm115.277-19.91-32.954,6.705a23.1,23.1,0,0,1-5.151.542,6.722,6.722,0,0,1-3.591-1.006,5.377,5.377,0,0,1-2.071-2.8,14.913,14.913,0,0,1-.665-4.821l-0.086-25.665-4.5,1.783-1.86-8.52,6.328-2.445-0.043-12.8,9.154-1.863,0.038,11.134,6.937-2.642-0.05-14.821L891,347.094l0.044,13.158,7.166-2.761q4.118-1.414,6.527-.061t2.424,5.981l0.043,12.8a30.036,30.036,0,0,1-.29,4.473,11.636,11.636,0,0,1-1.324,3.886,17.377,17.377,0,0,1-2.888,3.771,35.559,35.559,0,0,1-4.91,4.037l-5.214-7.042a17.21,17.21,0,0,0,4.261-4.05,7.555,7.555,0,0,0,1.206-4.3l-0.035-10.628-6.937,2.787,0.093,27.69-9.154,1.862-0.087-25.955-6.937,2.786,0.083,24.8a13.285,13.285,0,0,0,.16,2.282,1.8,1.8,0,0,0,.729,1.227,2.836,2.836,0,0,0,1.718.338,20.789,20.789,0,0,0,3.053-.441l29.6-6.021Zm-51.871-34.663q-1.3-.673-3.135-1.641t-3.823-1.935q-1.989-.969-3.823-1.9t-3.136-1.532l5.164-8.213q1.146,0.563,2.981,1.383t3.823,1.754q1.988,0.936,3.9,1.848t3.212,1.588Zm3.2,21.632c-0.151.368-.468,1.205-0.945,2.507s-1.074,2.847-1.78,4.63-1.437,3.669-2.194,5.656-1.489,3.873-2.2,5.655-1.314,3.306-1.817,4.566-0.807,2.045-.908,2.355l-9.242-1.592a27.494,27.494,0,0,0,1.212-2.67q0.834-2.014,1.932-4.661t2.271-5.636q1.172-2.986,2.2-5.583t1.741-4.514q0.717-1.918.869-2.455Zm-6.429-4.77q-1.452-.715-3.4-1.659t-3.938-1.911q-1.989-.971-3.823-1.827t-3.134-1.46l5.316-8.172q1.377,0.588,3.211,1.408t3.861,1.711q2.025,0.891,3.937,1.767t3.364,1.522Z" transform="translate(-652.719 -54.188)"/>
</svg>
