<svg id="研判高手" xmlns="http://www.w3.org/2000/svg" width="588.5" height="63.562" viewBox="0 0 588.5 63.562">
  <metadata><?xpacket begin="﻿" id="W5M0MpCehiHzreSzNTczkc9d"?>
<x:xmpmeta xmlns:x="adobe:ns:meta/" x:xmptk="Adobe XMP Core 5.6-c142 79.160924, 2017/07/13-01:06:39        ">
   <rdf:RDF xmlns:rdf="http://www.w3.org/1999/02/22-rdf-syntax-ns#">
      <rdf:Description rdf:about=""/>
   </rdf:RDF>
</x:xmpmeta>
                                                                                                    
                                                                                                    
                                                                                                    
                                                                                                    
                                                                                                    
                                                                                                    
                                                                                                    
                                                                                                    
                                                                                                    
                                                                                                    
                                                                                                    
                                                                                                    
                                                                                                    
                                                                                                    
                                                                                                    
                                                                                                    
                                                                                                    
                                                                                                    
                                                                                                    
                                                                                                    
                           
<?xpacket end="w"?></metadata>
<defs>
    <style>
      .cls-1 {
        fill: #fffcdc;
      }

      .cls-1, .cls-2 {
        stroke: #2d267f;
        stroke-miterlimit: 10;
        stroke-width: 1px;
        fill-rule: evenodd;
      }

      .cls-2 {
        fill: #f99b46;
      }
    </style>
  </defs>
  <path id="图层_40" data-name="图层 40" class="cls-1" d="M1359.27,822.51H820.232A24.232,24.232,0,0,1,796,798.279V784.162a24.232,24.232,0,0,1,24.232-24.231H1359.27a24.232,24.232,0,0,1,24.23,24.231v14.117A24.232,24.232,0,0,1,1359.27,822.51Z" transform="translate(-795.5 -759.438)"/>
  <path id="图层_53" data-name="图层 53" class="cls-2" d="M1006.75,791.127l-11.823-9.834A1.785,1.785,0,0,0,992,782.665V787H964.765A2.764,2.764,0,0,0,962,789.764v5.471A2.765,2.765,0,0,0,964.765,798H992v4.334a1.785,1.785,0,0,0,2.927,1.372l11.823-9.834A1.783,1.783,0,0,0,1006.75,791.127Z" transform="translate(-795.5 -759.438)"/>
  <path id="图层_54" data-name="图层 54" class="cls-2" d="M1216.75,791.127l-11.82-9.834a1.787,1.787,0,0,0-2.93,1.372V787h-27.24a2.764,2.764,0,0,0-2.76,2.764v5.471a2.765,2.765,0,0,0,2.76,2.765H1202v4.334a1.787,1.787,0,0,0,2.93,1.372l11.82-9.834A1.783,1.783,0,0,0,1216.75,791.127Z" transform="translate(-795.5 -759.438)"/>
</svg>
