<svg id="查看线索按钮" xmlns="http://www.w3.org/2000/svg" width="187" height="55" viewBox="0 0 187 55">
  <metadata><?xpacket begin="﻿" id="W5M0MpCehiHzreSzNTczkc9d"?>
<x:xmpmeta xmlns:x="adobe:ns:meta/" x:xmptk="Adobe XMP Core 5.6-c142 79.160924, 2017/07/13-01:06:39        ">
   <rdf:RDF xmlns:rdf="http://www.w3.org/1999/02/22-rdf-syntax-ns#">
      <rdf:Description rdf:about=""/>
   </rdf:RDF>
</x:xmpmeta>
                                                                                                    
                                                                                                    
                                                                                                    
                                                                                                    
                                                                                                    
                                                                                                    
                                                                                                    
                                                                                                    
                                                                                                    
                                                                                                    
                                                                                                    
                                                                                                    
                                                                                                    
                                                                                                    
                                                                                                    
                                                                                                    
                                                                                                    
                                                                                                    
                                                                                                    
                                                                                                    
                           
<?xpacket end="w"?></metadata>
<defs>
    <style>
      .cls-1, .cls-3 {
        fill: #fff;
      }

      .cls-1 {
        stroke: #2d267f;
        stroke-miterlimit: 10;
        stroke-width: 1px;
      }

      .cls-1, .cls-2, .cls-3 {
        fill-rule: evenodd;
      }

      .cls-2 {
        fill: #2d267f;
      }
    </style>
  </defs>
  <path id="图层_907" data-name="图层 907" class="cls-1" d="M1139.51,615.5H961.488a4,4,0,0,1-3.992-4.017V565.529a4.005,4.005,0,0,1,3.992-4.017H1139.51a4.009,4.009,0,0,1,4,4.017v45.952A4.008,4.008,0,0,1,1139.51,615.5Z" transform="translate(-957 -561)"/>
  <path id="图层_908" data-name="图层 908" class="cls-2" d="M1140.03,562.009h-57.02V616h57.02a4,4,0,0,0,3.98-4.018V566.027a4,4,0,0,0-3.98-4.018" transform="translate(-957 -561)"/>
  <path id="查看线索" class="cls-2" d="M992.11,581.4V579.46h-8.544v-2.208l-2.256-.1v2.3h-8.568V581.4h7.08a26.342,26.342,0,0,1-3.864,2.412,33.2,33.2,0,0,1-4.56,1.932l0.864,2.16q1.656-.672,3.048-1.392V594.6h14.232v-8.16q1.512,0.72,2.952,1.272l0.912-2.136a25.925,25.925,0,0,1-8.592-4.176h7.3Zm-16.392,4.92a28.3,28.3,0,0,0,5.592-3.744v3.168h2.256V582.58a24.191,24.191,0,0,0,5.712,3.744h-13.56Zm1.824,1.776h9.768v1.464h-9.768V588.1Zm9.768,3.24v1.44h-9.768v-1.44h9.768Zm4.848,4.848H972.67v1.944h19.488v-1.944Zm23.492-11.232h-11.73q0.45-1.032.6-1.44h9.31v-1.728h-8.74c0.16-.512.31-1.056,0.44-1.632,3.13-.192,5.99-0.416,8.56-0.672l-0.19-1.9q-3.645.408-8.48,0.72t-8.918.384l0.144,1.848q3.84-.1,6.644-0.264a10.251,10.251,0,0,1-.43,1.512h-5.638v1.728h5.018c-0.18.416-.41,0.9-0.7,1.44h-6.118v1.752h5.038a22.539,22.539,0,0,1-5.95,5.664l1.3,1.824a37.148,37.148,0,0,0,3.6-3.024v7.776h2.044v-0.96h9.6v0.936h2.04V588.076h-10.97c0.21-.3.5-0.76,0.89-1.368h12.64v-1.752Zm-14.2,4.848h9.6v1.128h-9.6V589.8Zm9.6,3.84h-9.6v-1.1h9.6v1.1Zm0,1.608v1.056h-9.6v-1.056h9.6Zm8.28-8.988c0.17-.024.34-0.052,0.5-0.084l1.73-.168,1.13-.1a19.44,19.44,0,0,1-2.67,3.792,1.6,1.6,0,0,1-.49.444,3.11,3.11,0,0,1-.73.276l0.45,2.088,1.4-.264,2.85-.456c0.39-.064.8-0.128,1.25-0.192s0.87-.136,1.27-0.216l-0.05-2.04-3.69.624a29.3,29.3,0,0,0,2.36-3.492q1.365-2.268,2.41-4.4l-1.77-.984c-0.66,1.28-1.15,2.232-1.49,2.856l-2.59.168a20.722,20.722,0,0,0,1.63-2.6q0.96-1.74,1.68-3.372l-1.87-.864a35.433,35.433,0,0,1-1.73,3.744,17.423,17.423,0,0,1-1.78,2.856,1.813,1.813,0,0,1-.76.48l0.4,1.992C1018.97,586.316,1019.15,586.288,1019.33,586.264Zm16.92-6.012q-0.99-1.1-2.88-2.832l-1.28,1.224a26.538,26.538,0,0,1,2.88,3.024Zm0.98,12.624a14.119,14.119,0,0,1-.38,2.04,4.326,4.326,0,0,1-.52,1.32,0.77,0.77,0,0,1-.64.336,1.741,1.741,0,0,1-.87-0.3,2.775,2.775,0,0,1-.9-0.972,9.888,9.888,0,0,1-.63-1.2,29.594,29.594,0,0,0,4.73-4.488l-1.29-1.416a24.455,24.455,0,0,1-4.13,3.936,24.322,24.322,0,0,1-.79-3.6l6.86-.912-0.17-1.968-6.98.912q-0.12-.936-0.24-2.376l6.91-.792-0.19-1.92-6.87.792c-0.11-1.456-.2-3.064-0.28-4.824l-2.04.024,0.28,5.04-2.2.264,0.19,1.9,2.16-.24q0.12,1.536.24,2.376l-3.27.432,0.22,1.992,3.34-.432a31.361,31.361,0,0,0,1.03,4.608,27.991,27.991,0,0,1-5.07,2.52l0.94,1.944a27.36,27.36,0,0,0,4.9-2.544,9.1,9.1,0,0,0,.52,1.008,6.634,6.634,0,0,0,1.77,2,3.217,3.217,0,0,0,1.83.588,2.4,2.4,0,0,0,1.7-.672,4.954,4.954,0,0,0,1.16-2.208l0.19-.7c0.13-.432.24-0.872,0.34-1.32Zm-11.21.744c-0.56.176-1.89,0.528-4.01,1.056s-3.46.848-4.05,0.96l0.38,1.992,4.11-1.008q3.24-.768,3.81-0.936l-0.14-1.08Zm33.03-1.008c0.6,0.56,1.07,1.008,1.39,1.344l1.17-1.584a29.145,29.145,0,0,0-2.22-2.028q-1.425-1.212-2.55-2l-1.3,1.44c0.31,0.208.78,0.568,1.42,1.08q-2.835.12-7.18,0.24a43.694,43.694,0,0,0,7.8-4.224l-1.2-1.632c-0.83.608-1.88,1.3-3.14,2.064l-4.2.1q0.885-.5,1.68-1.056t2.01-1.584h6.6v2.592h2.19v-4.464h-8.59v-1.848h7.89v-1.92h-7.89v-1.752l-2.12-.072v1.824h-7.8v1.92h7.8v1.848h-8.52v4.416h2.19v-2.544H1050a32.44,32.44,0,0,1-4.3,2.64,5.885,5.885,0,0,1-1.75.312l0.26,1.416c0.28-.032.88-0.072,1.83-0.12l4.32-.12a30.792,30.792,0,0,1-5.28,2.208,9.2,9.2,0,0,1-2.33.24l0.29,1.848,2.4-.168c1.05-.1,2.91-0.168,5.57-0.216v2.808a2.051,2.051,0,0,1-.11.756,0.709,0.709,0,0,1-.43.372,3.923,3.923,0,0,1-1,.168l-1.37.1,0.67,1.992,1.3-.1a7.349,7.349,0,0,0,1.91-.336,1.6,1.6,0,0,0,.91-0.792,3.753,3.753,0,0,0,.28-1.608v-3.432Zm-11.55.648a21.866,21.866,0,0,1-2.85,1.728c-1.17.608-2.32,1.144-3.46,1.608l0.89,1.9a40.861,40.861,0,0,0,6.43-3.432Zm7.13,1.824c1.02,0.384,2.26.928,3.71,1.632a23.517,23.517,0,0,1,3.15,1.752l0.94-1.944a36.148,36.148,0,0,0-3.36-1.752,37.456,37.456,0,0,0-3.5-1.488Z" transform="translate(-957 -561)"/>
  <path id="图层_911" data-name="图层 911" class="cls-3" d="M1113.49,595.322a5.833,5.833,0,1,1,5.82-5.833,5.821,5.821,0,0,1-5.82,5.833m15.92-7-9.14-7.016a11.128,11.128,0,0,0-13.56,0l-9.14,7.016a1.479,1.479,0,0,0,0,2.345l9.14,7.016a11.131,11.131,0,0,0,13.56,0l9.14-7.016a1.479,1.479,0,0,0,0-2.345" transform="translate(-957 -561)"/>
</svg>
