<svg xmlns="http://www.w3.org/2000/svg" width="1106.999" height="476" viewBox="0 0 1106.999 476">
  <metadata><?xpacket begin="﻿" id="W5M0MpCehiHzreSzNTczkc9d"?>
<x:xmpmeta xmlns:x="adobe:ns:meta/" x:xmptk="Adobe XMP Core 5.6-c142 79.160924, 2017/07/13-01:06:39        ">
   <rdf:RDF xmlns:rdf="http://www.w3.org/1999/02/22-rdf-syntax-ns#">
      <rdf:Description rdf:about=""/>
   </rdf:RDF>
</x:xmpmeta>
                                                                                                    
                                                                                                    
                                                                                                    
                                                                                                    
                                                                                                    
                                                                                                    
                                                                                                    
                                                                                                    
                                                                                                    
                                                                                                    
                                                                                                    
                                                                                                    
                                                                                                    
                                                                                                    
                                                                                                    
                                                                                                    
                                                                                                    
                                                                                                    
                                                                                                    
                                                                                                    
                           
<?xpacket end="w"?></metadata>
<defs>
    <style>
      .cls-1 {
        fill: #e8dfc1;
        fill-rule: evenodd;
      }
    </style>
  </defs>
  <path id="线索_待解锁_条条_bg" data-name="线索 待解锁 条条 bg" class="cls-1" d="M497.033,830.594v2.042a5.7,5.7,0,0,0,5.7,5.7H515.99l380.624-476H871.465Zm66.4,7.743H538.281l380.625-476h25.148Zm47.439,0H585.72l380.625-476h25.148Zm47.439,0H633.161l380.619-476h25.15Zm47.44,0H680.6l380.621-476h25.15Zm47.44,0H728.039l380.621-476h25.15Zm47.439,0H775.479l380.621-476h25.15Zm47.44,0H822.918l380.622-476h25.15Zm47.439,0H870.358l380.622-476h25.15Zm47.44,0H917.8l380.623-476h25.15Zm47.439,0H965.237l380.623-476h25.15Zm47.445,0h-25.15l380.62-476h25.15Zm47.43,0h-25.14l380.62-476h25.15Zm47.44,0h-25.15l380.63-476h25.15Zm47.44,0H1155l380.62-476h25.15Zm402.92-476-380.63,476h25.15l376.41-470.726a5.654,5.654,0,0,0-5.66-5.274h-15.27Zm20.97,64.547L1275.02,838.337h-25.15l354.16-442.9v31.45Zm0,59.327L1322.46,838.337h-25.15L1604.03,454.76v31.451Zm0,59.327-234.13,292.8h-25.15l259.28-324.25v31.451Zm0,59.326L1417.34,838.337h-25.15l211.84-264.923v31.45Zm0,59.327L1464.78,838.337h-25.15l164.4-205.6v31.45Zm0,59.327-91.81,114.819h-25.15l116.96-146.269v31.45Zm0,59.327-44.37,55.492h-25.15l69.52-86.943v31.451Zm0,27.876-22.08,27.616h16.38a5.7,5.7,0,0,0,5.7-5.7V810.721Zm-1107-8v-31.45L824.026,362.337h25.149Zm0-59.326V711.941l279.553-349.6h25.15Zm0-59.327V652.614L729.147,362.337H754.3Zm0-59.327v-31.45L681.707,362.337h25.149Zm0-59.327v-31.45L634.268,362.337h25.15Zm0-59.327v-31.45l89.8-112.3h25.148Zm0-59.326V415.307l42.356-52.97h25.148ZM517.1,362.337H502.735a5.7,5.7,0,0,0-5.7,5.7v19.392Z" transform="translate(-497.031 -362.344)"/>
</svg>
