<svg id="_10" data-name="10" xmlns="http://www.w3.org/2000/svg" width="24.062" height="24.031" viewBox="0 0 24.062 24.031">
  <metadata><?xpacket begin="﻿" id="W5M0MpCehiHzreSzNTczkc9d"?>
<x:xmpmeta xmlns:x="adobe:ns:meta/" x:xmptk="Adobe XMP Core 5.6-c142 79.160924, 2017/07/13-01:06:39        ">
   <rdf:RDF xmlns:rdf="http://www.w3.org/1999/02/22-rdf-syntax-ns#">
      <rdf:Description rdf:about=""/>
   </rdf:RDF>
</x:xmpmeta>
                                                                                                    
                                                                                                    
                                                                                                    
                                                                                                    
                                                                                                    
                                                                                                    
                                                                                                    
                                                                                                    
                                                                                                    
                                                                                                    
                                                                                                    
                                                                                                    
                                                                                                    
                                                                                                    
                                                                                                    
                                                                                                    
                                                                                                    
                                                                                                    
                                                                                                    
                                                                                                    
                           
<?xpacket end="w"?></metadata>
<defs>
    <style>
      .cls-1 {
        fill: #2d267f;
      }

      .cls-1, .cls-2 {
        fill-rule: evenodd;
      }

      .cls-2 {
        fill: #fff;
      }
    </style>
  </defs>
  <path id="图层_1736_拷贝" data-name="图层 1736 拷贝" class="cls-1" d="M164.768,826.706a12.022,12.022,0,1,1-12.022-12.022,12.023,12.023,0,0,1,12.022,12.022" transform="translate(-140.719 -814.688)"/>
  <path id="_10-2" data-name="10" class="cls-2" d="M148.835,831.916h1.792V822.2h-1.288l-2.9.588v1.484l2.394-.462v8.106Zm9.107-.077a2.347,2.347,0,0,0,1.085-.777,4.015,4.015,0,0,0,.693-1.533,12.548,12.548,0,0,0,0-4.935,4.088,4.088,0,0,0-.693-1.533,2.327,2.327,0,0,0-1.085-.784,4.383,4.383,0,0,0-1.421-.217,4.314,4.314,0,0,0-1.414.217,2.368,2.368,0,0,0-1.085.784,3.984,3.984,0,0,0-.7,1.533,12.548,12.548,0,0,0,0,4.935,3.915,3.915,0,0,0,.7,1.533,2.388,2.388,0,0,0,1.085.777,4.314,4.314,0,0,0,1.414.217A4.383,4.383,0,0,0,157.942,831.839Zm-2.184-1.449a1.148,1.148,0,0,1-.511-0.539,3.482,3.482,0,0,1-.294-1.064,12.393,12.393,0,0,1-.1-1.729,12.234,12.234,0,0,1,.1-1.722,3.559,3.559,0,0,1,.294-1.064,1.148,1.148,0,0,1,.511-0.546,1.967,1.967,0,0,1,1.526,0,1.188,1.188,0,0,1,.518.546,3.456,3.456,0,0,1,.3,1.064,12.388,12.388,0,0,1,.1,1.722,12.549,12.549,0,0,1-.1,1.729,3.381,3.381,0,0,1-.3,1.064,1.19,1.19,0,0,1-.518.539A1.967,1.967,0,0,1,155.758,830.39Z" transform="translate(-140.719 -814.688)"/>
</svg>
