<svg id="_2" data-name="2" xmlns="http://www.w3.org/2000/svg" width="24.062" height="24.031" viewBox="0 0 24.062 24.031">
  <metadata><?xpacket begin="﻿" id="W5M0MpCehiHzreSzNTczkc9d"?>
<x:xmpmeta xmlns:x="adobe:ns:meta/" x:xmptk="Adobe XMP Core 5.6-c142 79.160924, 2017/07/13-01:06:39        ">
   <rdf:RDF xmlns:rdf="http://www.w3.org/1999/02/22-rdf-syntax-ns#">
      <rdf:Description rdf:about=""/>
   </rdf:RDF>
</x:xmpmeta>
                                                                                                    
                                                                                                    
                                                                                                    
                                                                                                    
                                                                                                    
                                                                                                    
                                                                                                    
                                                                                                    
                                                                                                    
                                                                                                    
                                                                                                    
                                                                                                    
                                                                                                    
                                                                                                    
                                                                                                    
                                                                                                    
                                                                                                    
                                                                                                    
                                                                                                    
                                                                                                    
                           
<?xpacket end="w"?></metadata>
<defs>
    <style>
      .cls-1 {
        fill: #2d267f;
      }

      .cls-1, .cls-2 {
        fill-rule: evenodd;
      }

      .cls-2 {
        fill: #fff;
      }
    </style>
  </defs>
  <path id="图层_1736_拷贝" data-name="图层 1736 拷贝" class="cls-1" d="M164.768,399.706a12.022,12.022,0,1,1-12.022-12.022,12.023,12.023,0,0,1,12.022,12.022" transform="translate(-140.719 -387.688)"/>
  <path id="_2-2" data-name="2" class="cls-2" d="M149.5,404.916h6.664v-1.47h-4.508v-0.112l0.6-.476q1.105-.882,1.806-1.547a8.535,8.535,0,0,0,1.1-1.232,3.727,3.727,0,0,0,.553-1.106,4.209,4.209,0,0,0,.154-1.155,2.454,2.454,0,0,0-.882-2.086,3.911,3.911,0,0,0-2.422-.672,10.618,10.618,0,0,0-1.3.077,7.328,7.328,0,0,0-1.155.231v1.484a7.225,7.225,0,0,1,1.134-.252,7.668,7.668,0,0,1,1.008-.07,3.473,3.473,0,0,1,.714.07,1.6,1.6,0,0,1,.581.238,1.148,1.148,0,0,1,.385.462,1.694,1.694,0,0,1,.14.728,2.3,2.3,0,0,1-.2.917,4.437,4.437,0,0,1-.714,1.064,14.765,14.765,0,0,1-1.4,1.379q-0.889.785-2.261,1.876v1.652Z" transform="translate(-140.719 -387.688)"/>
</svg>
