<svg id="_3" data-name="3" xmlns="http://www.w3.org/2000/svg" width="24.062" height="24.031" viewBox="0 0 24.062 24.031">
  <metadata><?xpacket begin="﻿" id="W5M0MpCehiHzreSzNTczkc9d"?>
<x:xmpmeta xmlns:x="adobe:ns:meta/" x:xmptk="Adobe XMP Core 5.6-c142 79.160924, 2017/07/13-01:06:39        ">
   <rdf:RDF xmlns:rdf="http://www.w3.org/1999/02/22-rdf-syntax-ns#">
      <rdf:Description rdf:about=""/>
   </rdf:RDF>
</x:xmpmeta>
                                                                                                    
                                                                                                    
                                                                                                    
                                                                                                    
                                                                                                    
                                                                                                    
                                                                                                    
                                                                                                    
                                                                                                    
                                                                                                    
                                                                                                    
                                                                                                    
                                                                                                    
                                                                                                    
                                                                                                    
                                                                                                    
                                                                                                    
                                                                                                    
                                                                                                    
                                                                                                    
                           
<?xpacket end="w"?></metadata>
<defs>
    <style>
      .cls-1 {
        fill: #2d267f;
      }

      .cls-1, .cls-2 {
        fill-rule: evenodd;
      }

      .cls-2 {
        fill: #fff;
      }
    </style>
  </defs>
  <path id="图层_1736_拷贝" data-name="图层 1736 拷贝" class="cls-1" d="M164.768,453.706a12.022,12.022,0,1,1-12.022-12.022,12.023,12.023,0,0,1,12.022,12.022" transform="translate(-140.719 -441.688)"/>
  <path id="_3-2" data-name="3" class="cls-2" d="M155.9,456.2a2.4,2.4,0,0,0-.462-1.519,2.24,2.24,0,0,0-1.414-.777V453.82a2.476,2.476,0,0,0,1.218-.784,2.142,2.142,0,0,0,.406-1.358,2.845,2.845,0,0,0-.238-1.218,2.026,2.026,0,0,0-.679-0.812,2.979,2.979,0,0,0-1.071-.448,6.632,6.632,0,0,0-1.428-.14,8.247,8.247,0,0,0-1.183.084,5.9,5.9,0,0,0-.931.2v1.442a6.583,6.583,0,0,1,.952-0.2,6.831,6.831,0,0,1,.966-0.077,2.82,2.82,0,0,1,1.386.28,1.062,1.062,0,0,1,.49,1.008,1.161,1.161,0,0,1-.623,1.106,3.683,3.683,0,0,1-1.729.336h-0.742v1.358h0.756a4.421,4.421,0,0,1,1.862.315,1.189,1.189,0,0,1,.658,1.183,1.4,1.4,0,0,1-.175.735,1.267,1.267,0,0,1-.483.455,2.317,2.317,0,0,1-.714.238,5.171,5.171,0,0,1-.882.07,9.185,9.185,0,0,1-2.128-.238v1.526a8.72,8.72,0,0,0,1.029.14q0.539,0.042,1.183.042,3.975,0,3.976-2.856h0Z" transform="translate(-140.719 -441.688)"/>
</svg>
