<svg id="_5" data-name="5" xmlns="http://www.w3.org/2000/svg" width="24.062" height="24.031" viewBox="0 0 24.062 24.031">
  <metadata><?xpacket begin="﻿" id="W5M0MpCehiHzreSzNTczkc9d"?>
<x:xmpmeta xmlns:x="adobe:ns:meta/" x:xmptk="Adobe XMP Core 5.6-c142 79.160924, 2017/07/13-01:06:39        ">
   <rdf:RDF xmlns:rdf="http://www.w3.org/1999/02/22-rdf-syntax-ns#">
      <rdf:Description rdf:about=""/>
   </rdf:RDF>
</x:xmpmeta>
                                                                                                    
                                                                                                    
                                                                                                    
                                                                                                    
                                                                                                    
                                                                                                    
                                                                                                    
                                                                                                    
                                                                                                    
                                                                                                    
                                                                                                    
                                                                                                    
                                                                                                    
                                                                                                    
                                                                                                    
                                                                                                    
                                                                                                    
                                                                                                    
                                                                                                    
                                                                                                    
                           
<?xpacket end="w"?></metadata>
<defs>
    <style>
      .cls-1 {
        fill: #2d267f;
      }

      .cls-1, .cls-2 {
        fill-rule: evenodd;
      }

      .cls-2 {
        fill: #fff;
      }
    </style>
  </defs>
  <path id="图层_1736_拷贝" data-name="图层 1736 拷贝" class="cls-1" d="M164.768,559.706a12.022,12.022,0,1,1-12.022-12.022,12.023,12.023,0,0,1,12.022,12.022" transform="translate(-140.719 -547.688)"/>
  <path id="_5-2" data-name="5" class="cls-2" d="M154.981,564.279a3.369,3.369,0,0,0,.231-4.718,3.794,3.794,0,0,0-2.506-.721q-0.322,0-.567.021c-0.164.014-.329,0.035-0.5,0.063l0.336-2.212h3.458V555.2h-4.858l-0.672,5.18q0.476-.084,1.008-0.147a8.261,8.261,0,0,1,.966-0.063,3.3,3.3,0,0,1,1.82.385,1.475,1.475,0,0,1,.56,1.309,1.77,1.77,0,0,1-.175.833,1.367,1.367,0,0,1-.49.525,2.191,2.191,0,0,1-.756.28,5.133,5.133,0,0,1-.959.084,7.855,7.855,0,0,1-1-.056,9.508,9.508,0,0,1-.959-0.182v1.526a9.588,9.588,0,0,0,.98.14q0.476,0.042,1.106.042A5.027,5.027,0,0,0,154.981,564.279Z" transform="translate(-140.719 -547.688)"/>
</svg>
