<svg id="_6" data-name="6" xmlns="http://www.w3.org/2000/svg" width="24.062" height="24.031" viewBox="0 0 24.062 24.031">
  <metadata><?xpacket begin="﻿" id="W5M0MpCehiHzreSzNTczkc9d"?>
<x:xmpmeta xmlns:x="adobe:ns:meta/" x:xmptk="Adobe XMP Core 5.6-c142 79.160924, 2017/07/13-01:06:39        ">
   <rdf:RDF xmlns:rdf="http://www.w3.org/1999/02/22-rdf-syntax-ns#">
      <rdf:Description rdf:about=""/>
   </rdf:RDF>
</x:xmpmeta>
                                                                                                    
                                                                                                    
                                                                                                    
                                                                                                    
                                                                                                    
                                                                                                    
                                                                                                    
                                                                                                    
                                                                                                    
                                                                                                    
                                                                                                    
                                                                                                    
                                                                                                    
                                                                                                    
                                                                                                    
                                                                                                    
                                                                                                    
                                                                                                    
                                                                                                    
                                                                                                    
                           
<?xpacket end="w"?></metadata>
<defs>
    <style>
      .cls-1 {
        fill: #2d267f;
      }

      .cls-1, .cls-2 {
        fill-rule: evenodd;
      }

      .cls-2 {
        fill: #fff;
      }
    </style>
  </defs>
  <path id="图层_1736_拷贝" data-name="图层 1736 拷贝" class="cls-1" d="M164.768,613.706a12.022,12.022,0,1,1-12.022-12.022,12.023,12.023,0,0,1,12.022,12.022" transform="translate(-140.719 -601.688)"/>
  <path id="_6-2" data-name="6" class="cls-2" d="M154.365,618.811a2.831,2.831,0,0,0,1.05-.679,2.686,2.686,0,0,0,.609-1.043,4.412,4.412,0,0,0,.2-1.351,3.185,3.185,0,0,0-.77-2.331,2.94,2.94,0,0,0-2.184-.777,3.32,3.32,0,0,0-1.106.182,2.535,2.535,0,0,0-.84.462h-0.042a2.81,2.81,0,0,1,1.057-1.953,4.136,4.136,0,0,1,2.611-.749l0.014-1.512a6.521,6.521,0,0,0-2.492.427,4.364,4.364,0,0,0-1.708,1.225,5.053,5.053,0,0,0-.987,1.932,9.465,9.465,0,0,0-.315,2.534,5.562,5.562,0,0,0,.266,1.862,3.063,3.063,0,0,0,.728,1.19,2.633,2.633,0,0,0,1.078.637,4.51,4.51,0,0,0,1.33.189A4.2,4.2,0,0,0,154.365,618.811Zm-2.807-1.687a2.353,2.353,0,0,1-.42-1.512,1.742,1.742,0,0,1,.413-1.2,1.8,1.8,0,0,1,1.407-.469,1.579,1.579,0,0,1,1.19.448,1.885,1.885,0,0,1,.434,1.358,1.975,1.975,0,0,1-.455,1.414,1.729,1.729,0,0,1-1.309.476A1.527,1.527,0,0,1,151.558,617.124Z" transform="translate(-140.719 -601.688)"/>
</svg>
