<svg id="_8" data-name="8" xmlns="http://www.w3.org/2000/svg" width="24.062" height="24.031" viewBox="0 0 24.062 24.031">
  <metadata><?xpacket begin="﻿" id="W5M0MpCehiHzreSzNTczkc9d"?>
<x:xmpmeta xmlns:x="adobe:ns:meta/" x:xmptk="Adobe XMP Core 5.6-c142 79.160924, 2017/07/13-01:06:39        ">
   <rdf:RDF xmlns:rdf="http://www.w3.org/1999/02/22-rdf-syntax-ns#">
      <rdf:Description rdf:about=""/>
   </rdf:RDF>
</x:xmpmeta>
                                                                                                    
                                                                                                    
                                                                                                    
                                                                                                    
                                                                                                    
                                                                                                    
                                                                                                    
                                                                                                    
                                                                                                    
                                                                                                    
                                                                                                    
                                                                                                    
                                                                                                    
                                                                                                    
                                                                                                    
                                                                                                    
                                                                                                    
                                                                                                    
                                                                                                    
                                                                                                    
                           
<?xpacket end="w"?></metadata>
<defs>
    <style>
      .cls-1 {
        fill: #2d267f;
      }

      .cls-1, .cls-2 {
        fill-rule: evenodd;
      }

      .cls-2 {
        fill: #fff;
      }
    </style>
  </defs>
  <path id="图层_1736_拷贝" data-name="图层 1736 拷贝" class="cls-1" d="M164.768,719.706a12.022,12.022,0,1,1-12.022-12.022,12.023,12.023,0,0,1,12.022,12.022" transform="translate(-140.719 -707.688)"/>
  <path id="_8-2" data-name="8" class="cls-2" d="M155.408,724.405a2.357,2.357,0,0,0,.91-2.037,3.094,3.094,0,0,0-.14-0.987,2.278,2.278,0,0,0-.371-0.7,1.988,1.988,0,0,0-.539-0.469,3.276,3.276,0,0,0-.658-0.294v-0.056a2.283,2.283,0,0,0,1.043-.791,2.452,2.452,0,0,0,.357-1.421,2.421,2.421,0,0,0-.784-1.911,4.433,4.433,0,0,0-4.76,0,2.417,2.417,0,0,0-.784,1.911,3.075,3.075,0,0,0,.1.819,1.949,1.949,0,0,0,.28.616,2.111,2.111,0,0,0,.42.448,2.722,2.722,0,0,0,.532.329v0.056a3.507,3.507,0,0,0-.588.294,2.075,2.075,0,0,0-.525.469,2.387,2.387,0,0,0-.378.693,2.889,2.889,0,0,0-.147.98,2.37,2.37,0,0,0,.91,2.051A5.268,5.268,0,0,0,155.408,724.405ZM151.6,718.84a1.56,1.56,0,0,1-.35-1.036,1.326,1.326,0,0,1,1.6-1.386,1.747,1.747,0,0,1,1.2.357,1.309,1.309,0,0,1,.4,1.029,1.529,1.529,0,0,1-.364,1.036A2.037,2.037,0,0,1,151.6,718.84Zm-0.154,4.438a1.334,1.334,0,0,1-.434-1.064,1.515,1.515,0,0,1,.469-1.232,2.573,2.573,0,0,1,2.73,0,1.518,1.518,0,0,1,.469,1.232,1.326,1.326,0,0,1-.441,1.064A2.769,2.769,0,0,1,151.446,723.278Z" transform="translate(-140.719 -707.688)"/>
</svg>
