<svg id="_9" data-name="9" xmlns="http://www.w3.org/2000/svg" width="24.062" height="24.031" viewBox="0 0 24.062 24.031">
  <metadata><?xpacket begin="﻿" id="W5M0MpCehiHzreSzNTczkc9d"?>
<x:xmpmeta xmlns:x="adobe:ns:meta/" x:xmptk="Adobe XMP Core 5.6-c142 79.160924, 2017/07/13-01:06:39        ">
   <rdf:RDF xmlns:rdf="http://www.w3.org/1999/02/22-rdf-syntax-ns#">
      <rdf:Description rdf:about=""/>
   </rdf:RDF>
</x:xmpmeta>
                                                                                                    
                                                                                                    
                                                                                                    
                                                                                                    
                                                                                                    
                                                                                                    
                                                                                                    
                                                                                                    
                                                                                                    
                                                                                                    
                                                                                                    
                                                                                                    
                                                                                                    
                                                                                                    
                                                                                                    
                                                                                                    
                                                                                                    
                                                                                                    
                                                                                                    
                                                                                                    
                           
<?xpacket end="w"?></metadata>
<defs>
    <style>
      .cls-1 {
        fill: #2d267f;
      }

      .cls-1, .cls-2 {
        fill-rule: evenodd;
      }

      .cls-2 {
        fill: #fff;
      }
    </style>
  </defs>
  <path id="图层_1736_拷贝" data-name="图层 1736 拷贝" class="cls-1" d="M164.768,773.706a12.022,12.022,0,1,1-12.022-12.022,12.023,12.023,0,0,1,12.022,12.022" transform="translate(-140.719 -761.688)"/>
  <path id="_9-2" data-name="9" class="cls-2" d="M150.732,779.07a7.065,7.065,0,0,0,2.555-.406,4.14,4.14,0,0,0,1.694-1.176,4.68,4.68,0,0,0,.938-1.89,10.247,10.247,0,0,0,.287-2.534,6.052,6.052,0,0,0-.259-1.9,3.184,3.184,0,0,0-.721-1.239,2.6,2.6,0,0,0-1.085-.665,4.424,4.424,0,0,0-1.337-.2,3.921,3.921,0,0,0-1.5.259,2.883,2.883,0,0,0-1.043.707,2.849,2.849,0,0,0-.616,1.078,4.385,4.385,0,0,0-.2,1.358,3.088,3.088,0,0,0,.8,2.331,3.129,3.129,0,0,0,2.254.763,2.936,2.936,0,0,0,1.113-.2,2.6,2.6,0,0,0,.763-0.448h0.056a2.612,2.612,0,0,1-1.085,1.953,4.379,4.379,0,0,1-2.611.693v1.512Zm0.791-5.264a1.807,1.807,0,0,1-.455-1.344,2.184,2.184,0,0,1,.448-1.463,1.633,1.633,0,0,1,1.316-.525,1.5,1.5,0,0,1,1.281.567,2.5,2.5,0,0,1,.427,1.533,1.553,1.553,0,0,1-1.806,1.68A1.649,1.649,0,0,1,151.523,773.806Z" transform="translate(-140.719 -761.688)"/>
</svg>
