<svg id="tab_bg" data-name="tab bg" xmlns="http://www.w3.org/2000/svg" width="1038" height="68" viewBox="0 0 1038 68">
  <metadata><?xpacket begin="﻿" id="W5M0MpCehiHzreSzNTczkc9d"?>
<x:xmpmeta xmlns:x="adobe:ns:meta/" x:xmptk="Adobe XMP Core 5.6-c142 79.160924, 2017/07/13-01:06:39        ">
   <rdf:RDF xmlns:rdf="http://www.w3.org/1999/02/22-rdf-syntax-ns#">
      <rdf:Description rdf:about=""/>
   </rdf:RDF>
</x:xmpmeta>
                                                                                                    
                                                                                                    
                                                                                                    
                                                                                                    
                                                                                                    
                                                                                                    
                                                                                                    
                                                                                                    
                                                                                                    
                                                                                                    
                                                                                                    
                                                                                                    
                                                                                                    
                                                                                                    
                                                                                                    
                                                                                                    
                                                                                                    
                                                                                                    
                                                                                                    
                                                                                                    
                           
<?xpacket end="w"?></metadata>
<defs>
    <style>
      .cls-1 {
        fill: #fff;
        stroke: #2d267f;
      }

      .cls-1, .cls-2 {
        stroke-miterlimit: 10;
        stroke-width: 1px;
        fill-rule: evenodd;
      }

      .cls-2 {
        fill: none;
        stroke: #dcdce5;
      }
    </style>
  </defs>
  <path id="图层_1746" data-name="图层 1746" class="cls-1" d="M1089.42,139.508h-241.2a5.949,5.949,0,0,0-4.206,1.743l-3.034,3.036a2.43,2.43,0,0,1-1.718.712h-1.012a2.43,2.43,0,0,1-1.718-.712l-3.034-3.036a5.949,5.949,0,0,0-4.206-1.743H589.221a5.949,5.949,0,0,0-4.206,1.743l-3.034,3.036a2.43,2.43,0,0,1-1.718.712h-1.012a2.43,2.43,0,0,1-1.718-.712l-3.034-3.036a5.949,5.949,0,0,0-4.206-1.743H333.274a5.949,5.949,0,0,0-4.206,1.743l-3.034,3.036a2.43,2.43,0,0,1-1.718.712H323.3a2.43,2.43,0,0,1-1.718-.712l-3.034-3.036a5.953,5.953,0,0,0-4.206-1.743H72.586a10.083,10.083,0,0,0-10.08,10.086v46.835a10.083,10.083,0,0,0,10.08,10.086H314.241a5.945,5.945,0,0,0,4.206-1.744l3.034-3.035a2.433,2.433,0,0,1,1.718-.711h1.012a2.433,2.433,0,0,1,1.718.711l3.034,3.035a5.942,5.942,0,0,0,4.206,1.744H570.188a5.942,5.942,0,0,0,4.206-1.744l3.034-3.035a2.433,2.433,0,0,1,1.718-.711h1.012a2.433,2.433,0,0,1,1.718.711l3.034,3.035a5.942,5.942,0,0,0,4.206,1.744H829.188a5.942,5.942,0,0,0,4.206-1.744l3.034-3.035a2.433,2.433,0,0,1,1.718-.711h1.012a2.433,2.433,0,0,1,1.718.711l3.034,3.035a5.942,5.942,0,0,0,4.206,1.744h241.3a10.09,10.09,0,0,0,10.09-10.086V149.594A10.089,10.089,0,0,0,1089.42,139.508Z" transform="translate(-62 -139)"/>
  <path id="图层_1765" data-name="图层 1765" class="cls-2" d="M838.486,163.008v19.98" transform="translate(-62 -139)"/>
  <path id="图层_1765_拷贝" data-name="图层 1765 拷贝" class="cls-2" d="M579.486,163.008v19.98" transform="translate(-62 -139)"/>
  <path id="图层_1765_拷贝_2" data-name="图层 1765 拷贝 2" class="cls-2" d="M323.486,163.008v19.98" transform="translate(-62 -139)"/>
</svg>
