<svg xmlns="http://www.w3.org/2000/svg" width="14.19" height="17.156" viewBox="0 0 14.19 17.156">
  <metadata><?xpacket begin="﻿" id="W5M0MpCehiHzreSzNTczkc9d"?>
<x:xmpmeta xmlns:x="adobe:ns:meta/" x:xmptk="Adobe XMP Core 5.6-c142 79.160924, 2017/07/13-01:06:39        ">
   <rdf:RDF xmlns:rdf="http://www.w3.org/1999/02/22-rdf-syntax-ns#">
      <rdf:Description rdf:about=""/>
   </rdf:RDF>
</x:xmpmeta>
                                                                                                    
                                                                                                    
                                                                                                    
                                                                                                    
                                                                                                    
                                                                                                    
                                                                                                    
                                                                                                    
                                                                                                    
                                                                                                    
                                                                                                    
                                                                                                    
                                                                                                    
                                                                                                    
                                                                                                    
                                                                                                    
                                                                                                    
                                                                                                    
                                                                                                    
                                                                                                    
                           
<?xpacket end="w"?></metadata>
<defs>
    <style>
      .cls-1 {
        fill: #2d267f;
        fill-rule: evenodd;
      }
    </style>
  </defs>
  <path id="top_num_3" data-name="top num 3" class="cls-1" d="M1197.08,783.621l4.53,0.026a1.69,1.69,0,0,1,.57-1.131,2.3,2.3,0,0,1,1.04-.481,1.928,1.928,0,0,0,.22-0.013,2.188,2.188,0,0,1,.22-0.013h0.29c0.1,0.018.21,0.035,0.32,0.052a1.563,1.563,0,0,1,.3.078,1.527,1.527,0,0,1,.53.377,1.825,1.825,0,0,1,.3.455,0.577,0.577,0,0,1,.07.2,1.223,1.223,0,0,1,.01.195v0.13a1.754,1.754,0,0,1-.88,1.131,3.134,3.134,0,0,1-1.75.507h-0.06a0.1,0.1,0,0,1-.07-0.026h-0.07a0.168,0.168,0,0,1-.08-0.026v2.73h0.36a3.277,3.277,0,0,1,1.94.455,1.806,1.806,0,0,1,.74,1,1.554,1.554,0,0,1,.04.208,1.456,1.456,0,0,1,.01.208v0.1a1.876,1.876,0,0,1-.13.585,1.1,1.1,0,0,1-.23.4,3.035,3.035,0,0,1-.59.416,2.328,2.328,0,0,1-.66.26c-0.09.018-.17,0.031-0.25,0.039a2.021,2.021,0,0,1-.24.013,2.285,2.285,0,0,1-1.6-.663,2.241,2.241,0,0,1-.72-1.729l-4.7.026a6.084,6.084,0,0,0,1.97,4.485,7.458,7.458,0,0,0,5.15,1.651h0.23a6.981,6.981,0,0,0,4.66-1.534,5.719,5.719,0,0,0,2.13-3.406,3.243,3.243,0,0,0,.04-0.325c0.01-.112.01-0.221,0.01-0.325a4.046,4.046,0,0,0-.56-2.054,4.263,4.263,0,0,0-1.75-1.638,3.509,3.509,0,0,0,1.82-3.068c0-.086-0.01-0.177-0.01-0.273s-0.03-.186-0.04-0.273a4.683,4.683,0,0,0-1.8-2.86,7.245,7.245,0,0,0-4.55-1.378,7.942,7.942,0,0,0-4.69,1.365,5.033,5.033,0,0,0-2.07,4.121h0Z" transform="translate(-1196.53 -778.125)"/>
</svg>
