<svg xmlns="http://www.w3.org/2000/svg" width="14.03" height="16.562" viewBox="0 0 14.03 16.562">
  <metadata><?xpacket begin="﻿" id="W5M0MpCehiHzreSzNTczkc9d"?>
<x:xmpmeta xmlns:x="adobe:ns:meta/" x:xmptk="Adobe XMP Core 5.6-c142 79.160924, 2017/07/13-01:06:39        ">
   <rdf:RDF xmlns:rdf="http://www.w3.org/1999/02/22-rdf-syntax-ns#">
      <rdf:Description rdf:about=""/>
   </rdf:RDF>
</x:xmpmeta>
                                                                                                    
                                                                                                    
                                                                                                    
                                                                                                    
                                                                                                    
                                                                                                    
                                                                                                    
                                                                                                    
                                                                                                    
                                                                                                    
                                                                                                    
                                                                                                    
                                                                                                    
                                                                                                    
                                                                                                    
                                                                                                    
                                                                                                    
                                                                                                    
                                                                                                    
                                                                                                    
                           
<?xpacket end="w"?></metadata>
<defs>
    <style>
      .cls-1 {
        fill: #2d267f;
        fill-rule: evenodd;
      }
    </style>
  </defs>
  <path id="top_num_2" data-name="top num 2" class="cls-1" d="M1197.45,527.713l4.57,0.026a3.232,3.232,0,0,1,.63-2.236,2.034,2.034,0,0,1,1.37-.728h0.26a2.328,2.328,0,0,1,1.2.442,1.1,1.1,0,0,1,.55.858v0.416a2.414,2.414,0,0,1-.07.546,2.14,2.14,0,0,1-.19.494,5.217,5.217,0,0,1-1.41,1.443q-1,.768-2.94,2.015a14.282,14.282,0,0,0-1.52,1.17,14.849,14.849,0,0,0-1.18,1.2,7.6,7.6,0,0,0-1.17,1.846,4.423,4.423,0,0,0-.39,1.742,1,1,0,0,0,.01.169c0.01,0.061.03,0.117,0.04,0.169a1.018,1.018,0,0,1,.04.143,0.5,0.5,0,0,1,.01.117h13.71v-3.978l-7.31.026c0.42-.26.89-0.537,1.43-0.832s1.09-.606,1.66-0.936a20.524,20.524,0,0,0,2.89-2.08,4.064,4.064,0,0,0,1.51-2.548,1.456,1.456,0,0,1,.01-0.208,1.442,1.442,0,0,0,.01-0.208,1.478,1.478,0,0,1,.02-0.208,1.442,1.442,0,0,0,.01-0.208v-0.078a5.559,5.559,0,0,0-1.49-3.64c-0.98-1.109-2.7-1.664-5.14-1.664q-4.11,0-5.55,1.859a8.309,8.309,0,0,0-1.57,4.875h0Z" transform="translate(-1197.16 -520.969)"/>
</svg>
