<svg id="TOP_bg" data-name="TOP bg" xmlns="http://www.w3.org/2000/svg" width="84" height="126" viewBox="0 0 84 126">
  <metadata><?xpacket begin="﻿" id="W5M0MpCehiHzreSzNTczkc9d"?>
<x:xmpmeta xmlns:x="adobe:ns:meta/" x:xmptk="Adobe XMP Core 5.6-c142 79.160924, 2017/07/13-01:06:39        ">
   <rdf:RDF xmlns:rdf="http://www.w3.org/1999/02/22-rdf-syntax-ns#">
      <rdf:Description rdf:about=""/>
   </rdf:RDF>
</x:xmpmeta>
                                                                                                    
                                                                                                    
                                                                                                    
                                                                                                    
                                                                                                    
                                                                                                    
                                                                                                    
                                                                                                    
                                                                                                    
                                                                                                    
                                                                                                    
                                                                                                    
                                                                                                    
                                                                                                    
                                                                                                    
                                                                                                    
                                                                                                    
                                                                                                    
                                                                                                    
                                                                                                    
                           
<?xpacket end="w"?></metadata>
<defs>
    <style>
      .cls-1 {
        fill: #fff;
        stroke: #e6e6ed;
        stroke-width: 1px;
      }

      .cls-1, .cls-2, .cls-3 {
        fill-rule: evenodd;
      }

      .cls-2 {
        fill: #2d267f;
      }

      .cls-3 {
        fill: #efeff4;
      }
    </style>
  </defs>
  <path id="图层_1724" data-name="图层 1724" class="cls-1" d="M1245.5,208.513h-82.99v99.048a4.944,4.944,0,0,0,4.94,4.952h73.1a4.952,4.952,0,0,0,4.95-4.952V208.513Z" transform="translate(-1162 -187)"/>
  <path id="TOP" class="cls-2" d="M1195.02,226.644v-2.706h-11.24v2.706h4.07v12.562h3.1V226.644h4.07Zm2.08,9.68a4.655,4.655,0,0,0,2.27,2.409,10.847,10.847,0,0,0,7.63,0,4.655,4.655,0,0,0,2.27-2.409,14.865,14.865,0,0,0,0-9.5,4.655,4.655,0,0,0-2.27-2.409,10.847,10.847,0,0,0-7.63,0,4.655,4.655,0,0,0-2.27,2.409A14.865,14.865,0,0,0,1197.1,236.324Zm3.83,0a2.653,2.653,0,0,1-1.08-1.617,16.473,16.473,0,0,1,0-6.259,2.757,2.757,0,0,1,1.08-1.65,5.058,5.058,0,0,1,4.5,0,2.79,2.79,0,0,1,1.07,1.65,17.324,17.324,0,0,1,.01,6.259,2.6,2.6,0,0,1-1.07,1.617A5.278,5.278,0,0,1,1200.93,236.324Zm22.65-10.241a3.356,3.356,0,0,0-1.84-1.628,9.814,9.814,0,0,0-3.55-.517h-5.04v15.268h3.1v-4.84h1.94a9.4,9.4,0,0,0,3.44-.517,3.518,3.518,0,0,0,1.89-1.672,6.659,6.659,0,0,0,.61-3.113A6.88,6.88,0,0,0,1223.58,226.083Zm-7.33,5.8v-5.456h1.54a3.892,3.892,0,0,1,2.47.594,2.648,2.648,0,0,1,.7,2.112,3.778,3.778,0,0,1-.3,1.672,1.627,1.627,0,0,1-.98.836,5.8,5.8,0,0,1-1.89.242h-1.54Z" transform="translate(-1162 -187)"/>
  <path id="图层_1727" data-name="图层 1727" class="cls-2" d="M1246,191.9v17.114h-83.99V191.9a4.917,4.917,0,0,1,4.94-4.9h74.1a4.925,4.925,0,0,1,4.95,4.9" transform="translate(-1162 -187)"/>
  <path id="_2022_-_TEST" data-name="2022 - TEST" class="cls-3" d="M1183.09,200.545h3.73v-0.736h-2.7v-0.064l0.34-.264a16.069,16.069,0,0,0,1.34-1.18,3.248,3.248,0,0,0,.64-0.892,2.117,2.117,0,0,0,.19-0.912,1.448,1.448,0,0,0-.48-1.2,2.11,2.11,0,0,0-1.36-.388,5.243,5.243,0,0,0-1.33.152v0.744a4.544,4.544,0,0,1,1.2-.168,0.9,0.9,0,0,1,1.1.92,1.49,1.49,0,0,1-.22.772,4.288,4.288,0,0,1-.78.928c-0.38.366-.94,0.839-1.67,1.42v0.864Zm4.67-1.044a1.647,1.647,0,0,0,.66.876,2.3,2.3,0,0,0,2.08,0,1.588,1.588,0,0,0,.65-0.876,6.636,6.636,0,0,0,0-3.464,1.6,1.6,0,0,0-.65-0.876,2.027,2.027,0,0,0-1.04-.248,2,2,0,0,0-1.04.252,1.674,1.674,0,0,0-.66.88A6.606,6.606,0,0,0,1187.76,199.5Zm2.64-.444a1.2,1.2,0,0,1-.34.64,0.9,0.9,0,0,1-.6.184,0.917,0.917,0,0,1-.6-0.184,1.2,1.2,0,0,1-.34-0.64,8.293,8.293,0,0,1,0-2.568,1.2,1.2,0,0,1,.34-0.64,0.923,0.923,0,0,1,.6-0.184,0.9,0.9,0,0,1,.6.184,1.2,1.2,0,0,1,.34.64A8.293,8.293,0,0,1,1190.4,199.057Zm1.66,1.488h3.74v-0.736h-2.7v-0.064l0.33-.264a13.34,13.34,0,0,0,1.34-1.18,3.309,3.309,0,0,0,.65-0.892,2.117,2.117,0,0,0,.19-0.912,1.448,1.448,0,0,0-.48-1.2,2.129,2.129,0,0,0-1.36-.388,5.326,5.326,0,0,0-1.34.152v0.744a4.544,4.544,0,0,1,1.2-.168,0.907,0.907,0,0,1,1.11.92,1.591,1.591,0,0,1-.22.772,4.6,4.6,0,0,1-.78.928q-0.57.549-1.68,1.42v0.864Zm4.49,0h3.74v-0.736h-2.71v-0.064l0.34-.264a14.579,14.579,0,0,0,1.34-1.18,3.309,3.309,0,0,0,.65-0.892,2.274,2.274,0,0,0,.19-0.912,1.448,1.448,0,0,0-.48-1.2,2.129,2.129,0,0,0-1.36-.388,5.27,5.27,0,0,0-1.34.152v0.744a4.544,4.544,0,0,1,1.2-.168,0.9,0.9,0,0,1,1.1.92,1.577,1.577,0,0,1-.21.772,4.719,4.719,0,0,1-.79.928,20.684,20.684,0,0,1-1.67,1.42v0.864Zm8.9-2.1v-0.7h-2.39v0.7h2.39Zm2.44-3.448v0.792h1.56v4.76h0.89v-4.76h1.56v-0.792h-4.01Zm5.58,3.056h2.14V197.3h-2.14v-1.512h2.3v-0.792h-3.19v5.552h3.36v-0.8h-2.47v-1.7Zm3.87,2.512a6.76,6.76,0,0,0,.93.064,2.45,2.45,0,0,0,1.53-.4,1.434,1.434,0,0,0,.5-1.208,2.069,2.069,0,0,0-.15-0.864,1.171,1.171,0,0,0-.5-0.516,4.1,4.1,0,0,0-1.01-.348,4.032,4.032,0,0,1-.7-0.216,0.581,0.581,0,0,1-.29-0.244,0.834,0.834,0,0,1-.07-0.388,0.681,0.681,0,0,1,.24-0.608,1.513,1.513,0,0,1,.8-0.16,4.709,4.709,0,0,1,.75.064,3.562,3.562,0,0,1,.64.152v-0.784a3.685,3.685,0,0,0-.61-0.14,5.287,5.287,0,0,0-.8-0.06,2.3,2.3,0,0,0-1.44.38,1.429,1.429,0,0,0-.47,1.172,1.838,1.838,0,0,0,.14.78,1.083,1.083,0,0,0,.47.46,4.015,4.015,0,0,0,.93.32,4.219,4.219,0,0,1,.75.232,0.759,0.759,0,0,1,.34.284,1.042,1.042,0,0,1,.09.476,0.729,0.729,0,0,1-.27.644,1.612,1.612,0,0,1-.88.188,5.688,5.688,0,0,1-.9-0.072,4.352,4.352,0,0,1-.73-0.168v0.816A4.341,4.341,0,0,0,1217.34,200.561Zm3.31-5.568v0.792h1.56v4.76h0.89v-4.76h1.56v-0.792h-4.01Z" transform="translate(-1162 -187)"/>
</svg>
