<svg id="TOP_bg" data-name="TOP bg" xmlns="http://www.w3.org/2000/svg" width="538" height="233.5" viewBox="0 0 538 233.5">
  <metadata><?xpacket begin="﻿" id="W5M0MpCehiHzreSzNTczkc9d"?>
<x:xmpmeta xmlns:x="adobe:ns:meta/" x:xmptk="Adobe XMP Core 5.6-c142 79.160924, 2017/07/13-01:06:39        ">
   <rdf:RDF xmlns:rdf="http://www.w3.org/1999/02/22-rdf-syntax-ns#">
      <rdf:Description rdf:about=""/>
   </rdf:RDF>
</x:xmpmeta>
                                                                                                    
                                                                                                    
                                                                                                    
                                                                                                    
                                                                                                    
                                                                                                    
                                                                                                    
                                                                                                    
                                                                                                    
                                                                                                    
                                                                                                    
                                                                                                    
                                                                                                    
                                                                                                    
                                                                                                    
                                                                                                    
                                                                                                    
                                                                                                    
                                                                                                    
                                                                                                    
                           
<?xpacket end="w"?></metadata>
<defs>
    <style>
      .cls-1 {
        fill: #fff;
        stroke: #2d267f;
        stroke-width: 1px;
      }

      .cls-1, .cls-2, .cls-3 {
        fill-rule: evenodd;
      }

      .cls-2 {
        fill: #2d267f;
      }

      .cls-3 {
        fill: #efeff4;
      }
    </style>
  </defs>
  <path id="图层_1697" data-name="图层 1697" class="cls-1" d="M1130.57,374.008a9.584,9.584,0,0,1-9.58-9.563V152H1658V364.445a9.584,9.584,0,0,1-9.58,9.563H1130.57Z" transform="translate(-1120.5 -141)"/>
  <path id="图层_1699" data-name="图层 1699" class="cls-2" d="M1120.99,151.475v0.53H1658v-0.53a10.275,10.275,0,0,0-10.08-10.467H1131.07a10.275,10.275,0,0,0-10.08,10.467" transform="translate(-1120.5 -141)"/>
  <path id="图层_1728" data-name="图层 1728" class="cls-3" d="M1163.01,342.777l11.81-14.769h9.6l-13.59,17h-7.82v-2.231Zm25.93,2.231h-9.6l13.59-17h9.61Zm18.12,0h-9.61l13.6-17h9.6Zm18.11,0h-9.6l13.59-17h9.6Zm18.11,0h-9.6l13.6-17h9.6Zm18.12,0h-9.6l13.59-17h9.6Zm18.11,0h-9.6l13.59-17h9.61Zm18.11,0h-9.6l13.6-17h9.6Zm18.12,0h-9.6l13.59-17h9.6Zm18.11,0h-9.6l13.59-17h9.61Zm18.12,0h-9.61l13.6-17h9.6Zm18.11,0h-9.6l13.59-17h9.6Zm18.11,0h-9.6l13.59-17h9.61Zm18.12,0h-9.61l13.6-17h9.6Zm18.11,0h-9.6l13.59-17h9.6Zm18.11,0h-9.6l13.6-17h9.6Zm18.12,0h-9.6l13.59-17h9.6Zm18.11,0h-9.6l13.59-17h9.61Zm18.11,0h-9.6l13.6-17h9.6Zm18.12,0h-9.6l13.59-17h9.6Zm18.11,0h-9.6l13.59-17h9.61Zm18.12,0h-9.61l13.6-17h9.6Zm18.11,0h-9.6l13.59-17h9.6Zm18.11,0h-9.6l13.59-17h9.61Zm29.57-14.324-11.45,14.324h-9.61l13.6-17h7.46v2.676Zm0,14.324h-2.94l2.94-3.681v3.681Zm-450.7-17-3.3,4.125v-4.125h3.3Z" transform="translate(-1120.5 -141)"/>
</svg>
