<svg id="账号名_bg" data-name="账号名 bg" xmlns="http://www.w3.org/2000/svg" width="353" height="54" viewBox="0 0 353 54">
  <metadata><?xpacket begin="﻿" id="W5M0MpCehiHzreSzNTczkc9d"?>
<x:xmpmeta xmlns:x="adobe:ns:meta/" x:xmptk="Adobe XMP Core 5.6-c142 79.160924, 2017/07/13-01:06:39        ">
   <rdf:RDF xmlns:rdf="http://www.w3.org/1999/02/22-rdf-syntax-ns#">
      <rdf:Description rdf:about=""/>
   </rdf:RDF>
</x:xmpmeta>
                                                                                                    
                                                                                                    
                                                                                                    
                                                                                                    
                                                                                                    
                                                                                                    
                                                                                                    
                                                                                                    
                                                                                                    
                                                                                                    
                                                                                                    
                                                                                                    
                                                                                                    
                                                                                                    
                                                                                                    
                                                                                                    
                                                                                                    
                                                                                                    
                                                                                                    
                                                                                                    
                           
<?xpacket end="w"?></metadata>
<defs>
    <style>
      .cls-1 {
        fill: #efeff4;
      }

      .cls-1, .cls-2, .cls-3 {
        fill-rule: evenodd;
      }

      .cls-2 {
        fill: #7775aa;
      }

      .cls-3 {
        fill: #2d267f;
      }
    </style>
  </defs>
  <path id="图层_1704" data-name="图层 1704" class="cls-1" d="M1611.4,241H1269.62a5.608,5.608,0,0,1-5.61-5.609V192.61a5.608,5.608,0,0,1,5.61-5.609H1611.4a5.608,5.608,0,0,1,5.61,5.609v42.782A5.608,5.608,0,0,1,1611.4,241" transform="translate(-1264 -187)"/>
  <path id="图层_1713" data-name="图层 1713" class="cls-2" d="M1588.62,206h1.77v1.767h-1.77V206Zm-7.62,0h1.77v1.767H1581V206Zm15.24,0h1.77v1.767h-1.77V206Zm-15.24,7.62h1.77v1.768H1581v-1.768Zm7.62,0h1.77v1.768h-1.77v-1.768Zm7.62,0h1.77v1.768h-1.77v-1.768Zm-15.24,7.62h1.77v1.768H1581v-1.768Zm7.62,0h1.77v1.768h-1.77v-1.768Zm7.62,0h1.77v1.768h-1.77v-1.768Z" transform="translate(-1264 -187)"/>
  <path id="图层_1714" data-name="图层 1714" class="cls-3" d="M1324.01,187h-54.39a5.608,5.608,0,0,0-5.61,5.609v42.782a5.608,5.608,0,0,0,5.61,5.609h54.39V187Z" transform="translate(-1264 -187)"/>
  <path id="图层_1716" data-name="图层 1716" class="cls-1" d="M1308.61,216.166a36.623,36.623,0,0,1-3.62,1.362l-0.06.02-3.17,6.6a8.464,8.464,0,0,1-15.35-.138l-1.09-2.387h-3.31l1.66,3.65a11.476,11.476,0,0,0,20.81.186l4.53-9.469Zm-6-20.165h-17.6l-3.39,3.378v12.065L1275,219h24.38l6.62-7.56V199.379Z" transform="translate(-1264 -187)"/>
</svg>
