<svg id="关闭-on" xmlns="http://www.w3.org/2000/svg" width="53" height="54" viewBox="0 0 53 54">
  <metadata><?xpacket begin="﻿" id="W5M0MpCehiHzreSzNTczkc9d"?>
<x:xmpmeta xmlns:x="adobe:ns:meta/" x:xmptk="Adobe XMP Core 5.6-c142 79.160924, 2017/07/13-01:06:39        ">
   <rdf:RDF xmlns:rdf="http://www.w3.org/1999/02/22-rdf-syntax-ns#">
      <rdf:Description rdf:about=""/>
   </rdf:RDF>
</x:xmpmeta>
                                                                                                    
                                                                                                    
                                                                                                    
                                                                                                    
                                                                                                    
                                                                                                    
                                                                                                    
                                                                                                    
                                                                                                    
                                                                                                    
                                                                                                    
                                                                                                    
                                                                                                    
                                                                                                    
                                                                                                    
                                                                                                    
                                                                                                    
                                                                                                    
                                                                                                    
                                                                                                    
                           
<?xpacket end="w"?></metadata>
<defs>
    <style>
      .cls-1 {
        fill: #2d267f;
        fill-rule: evenodd;
      }

      .cls-2 {
        fill: #ea4766;
      }
    </style>
  </defs>
  <path id="图层_268_拷贝" data-name="图层 268 拷贝" class="cls-1" d="M608.866,290H562.99v54.007h45.876a7.152,7.152,0,0,0,7.147-7.156V297.154A7.152,7.152,0,0,0,608.866,290" transform="translate(-563 -290)"/>
  <path id="矩形_1" data-name="矩形 1" class="cls-2" d="M1,1H47a5,5,0,0,1,5,5V48a5,5,0,0,1-5,5H1a0,0,0,0,1,0,0V1A0,0,0,0,1,1,1Z"/>
  <path id="图层_269_拷贝" data-name="图层 269 拷贝" class="cls-1" d="M605.989,303.326l-4.313-4.312L588.5,312.189l-13.175-13.175-4.312,4.312L584.19,316.5l-13.175,13.175,4.312,4.313L588.5,320.814l13.174,13.175,4.313-4.313L592.815,316.5Z" transform="translate(-563 -290)"/>
</svg>
