<svg xmlns="http://www.w3.org/2000/svg" width="19.906" height="28" viewBox="0 0 19.906 28">
  <metadata><?xpacket begin="﻿" id="W5M0MpCehiHzreSzNTczkc9d"?>
<x:xmpmeta xmlns:x="adobe:ns:meta/" x:xmptk="Adobe XMP Core 5.6-c142 79.160924, 2017/07/13-01:06:39        ">
   <rdf:RDF xmlns:rdf="http://www.w3.org/1999/02/22-rdf-syntax-ns#">
      <rdf:Description rdf:about=""/>
   </rdf:RDF>
</x:xmpmeta>
                                                                                                    
                                                                                                    
                                                                                                    
                                                                                                    
                                                                                                    
                                                                                                    
                                                                                                    
                                                                                                    
                                                                                                    
                                                                                                    
                                                                                                    
                                                                                                    
                                                                                                    
                                                                                                    
                                                                                                    
                                                                                                    
                                                                                                    
                                                                                                    
                                                                                                    
                                                                                                    
                           
<?xpacket end="w"?></metadata>
<defs>
    <style>
      .cls-1 {
        fill: #2d267f;
        fill-rule: evenodd;
      }
    </style>
  </defs>
  <path id="选择区域icon" class="cls-1" d="M221.381,343l-8.213-12.29a10.041,10.041,0,0,1-.554-10.366,9.857,9.857,0,0,1,17.534,0,10.039,10.039,0,0,1-.554,10.365Zm0-26.014a7.824,7.824,0,0,0-7.031,4.292,8.051,8.051,0,0,0,.444,8.314l6.587,9.857,6.588-9.857a8.056,8.056,0,0,0,.444-8.314A7.826,7.826,0,0,0,221.381,316.984Zm0,12.643a4.833,4.833,0,1,1,4.763-4.833A4.8,4.8,0,0,1,221.381,329.627Zm0-7.673a2.84,2.84,0,1,0,2.8,2.84A2.823,2.823,0,0,0,221.381,321.954Z" transform="translate(-211.438 -315)"/>
</svg>
